<svg xmlns="http://www.w3.org/2000/svg" version="1.1" viewBox="0 0 760 1324" width="760" height="1324">
<rect width="100%" height="100%" fill="white" />
<g stroke="black" stroke-width="1.05" stroke-linecap="round" stroke-linejoin="round" fill="none">
<polyline points="244.5,80.75 243.5,83.25 244.44,85.62 247.31,87.88 252.12,90 258.88,92 265.75,95.31 272.75,99.94 279.88,105.88 287.12,113.12 293.06,124.56 297.69,140.19 301,160 303,184 303.69,201.88 303.06,213.62 301.12,219.25 297.88,218.75 295.38,216.75 293.62,213.25 292.62,208.25 292.38,201.75 290.69,197.31 287.56,194.94 283,194.62 277,196.38 271.81,196.69 267.44,195.56 263.88,193 261.12,189 255.19,185.44 246.06,182.31 233.75,179.62 218.25,177.38 199.12,177.62 176.38,180.38 150,185.62 120,193.38 104.5,199.94 103.5,205.31 117,209.5 145,212.5 170,216.25 192,220.75 211,226 227,232 242,241.69 256,255.06 269,272.12 281,292.88 287.69,315.19 289.06,339.06 285.12,364.5 275.88,391.5 267.88,418.56 261.12,445.69 255.62,472.88 251.38,500.12 245.88,521.44 239.12,536.81 231.12,546.25 221.88,549.75 215.62,571.56 212.38,611.69 212.12,670.12 214.88,746.88 213.12,808 206.88,853.5 196.12,883.38 180.88,897.62 168.69,911.19 159.56,924.06 153.5,936.25 150.5,947.75 150.12,959.62 152.38,971.88 157.25,984.5 164.75,997.5 178.44,1013.38 198.31,1032.12 224.38,1053.75 256.62,1078.25 284.31,1102.31 307.44,1125.94 326,1149.12 340,1171.88 352.75,1191.38 364.25,1207.62 374.5,1220.62 383.5,1230.38 391.5,1237.81 398.5,1242.94 404.5,1245.75 409.5,1246.25 414.94,1245.38 420.81,1243.12 427.12,1239.5 433.88,1234.5 441.06,1224.31 448.69,1208.94 456.75,1188.38 465.25,1162.62 479.69,1138.69 500.06,1116.56 526.38,1096.25 558.62,1077.75 584.25,1062.25 603.25,1049.75 615.62,1040.25 621.38,1033.75 626,1027.12 629.5,1020.38 631.88,1013.5 633.12,1006.5 630.44,993.25 623.81,973.75 613.25,948 598.75,916 581.5,884.38 561.5,853.12 538.75,822.25 513.25,791.75 491.31,755.06 472.94,712.19 458.12,663.12 446.88,607.88 435.56,564.81 424.19,533.94 412.75,515.25 401.25,508.75 394,502.69 391,497.06 392.25,491.88 397.75,487.12 402.81,478.5 407.44,466 411.62,449.62 415.38,429.38 419.31,412.75 423.44,399.75 427.75,390.38 432.25,384.62 438.88,379.06 447.62,373.69 458.5,368.5 471.5,363.5 488.19,359.69 508.56,357.06 532.62,355.62 560.38,355.38 585.25,358.81 607.25,365.94 626.38,376.75 642.62,391.25 654.12,399.81 660.88,402.44 662.88,399.12 660.12,389.88 654.81,379.88 646.94,369.12 636.5,357.62 623.5,345.38 607.5,335.31 588.5,327.44 566.5,321.75 541.5,318.25 530.31,315.06 532.94,312.19 549.38,309.62 579.62,307.38 605,307.56 625.5,310.19 641.12,315.25 651.88,322.75 660.94,327.44 668.31,329.31 674,328.38 678,324.62 680.19,321.88 680.56,320.12 679.12,319.38 675.88,319.62 670.56,316.81 663.19,310.94 653.75,302 642.25,290 629.19,279.88 614.56,271.62 598.38,265.25 580.62,260.75 561.69,258 541.56,257 520.25,257.75 497.75,260.25 478.69,264 463.06,269 450.88,275.25 442.12,282.75 436.94,283.69 435.31,278.06 437.25,265.88 442.75,247.12 452.25,227.44 465.75,206.81 483.25,185.25 504.75,162.75 518.81,146.12 525.44,135.38 524.62,130.5 516.38,131.5 507.5,134.62 498,139.88 487.88,147.25 477.12,156.75 469.5,162.69 465,165.06 463.62,163.88 465.38,159.12 465.81,153.88 464.94,148.12 462.75,141.88 459.25,135.12 456.56,131.81 454.69,131.94 453.62,135.5 453.38,142.5 449.62,150.69 442.38,160.06 431.62,170.62 417.38,182.38 406.12,186.69 397.88,183.56 392.62,173 390.38,155 387.88,144.81 385.12,142.44 382.12,147.88 378.88,161.12 375.38,168.25 371.62,169.25 367.62,164.12 363.38,152.88 357.44,141.88 349.81,131.12 340.5,120.62 329.5,110.38 321.62,101.31 316.88,93.44 315.25,86.75 316.75,81.25 317,77.56 316,75.69 313.75,75.62 310.25,77.38 307.44,80.19 305.31,84.06 303.88,89 303.12,95 300.88,98.06 297.12,98.19 291.88,95.38 285.12,89.62 278.25,85.06 271.25,81.69 264.12,79.5 256.88,78.5 251.19,78.38 247.06,79.12 244.5,80.75" />
<polyline points="317,500 324.5,510 330.7,520 331.6,530 331,540 328.5,550 325.6,560 323,570 323.9,580 325,590 326,600 327,610 328,620 329,630 330.1,640 331.2,650 332.3,660 333.5,670 334.7,680 335.8,690 337,700 338.3,710 339.4,720 340.8,730 343.1,740 346.3,750 350.3,760 355,770 360.2,780 365.1,790 369.5,800 373.5,810 377.5,820 381.5,830 385.7,840 388.7,850 390.2,860 390.4,870 389.4,880 386.9,890 384.7,900 383.2,910 382.2,920 381.6,930 381.8,940 382.6,950 384.3,960 387.2,970 390.7,980 394.6,990 398.6,1000 402.1,1010 404.8,1020 406.8,1030 407.7,1040 407.8,1050 407.3,1060 405.9,1070 403.9,1080 401.7,1090 399.7,1100 397.7,1110 396.2,1120 395.4,1130 395.5,1140 396,1150 397.2,1160 398.8,1170 400.5,1180 402.4,1190 404.8,1200 407.3,1210 410.5,1220 413,1230" />
<polyline points="265,532.9 265.14,533.73 265.54,534.53 266.2,535.27 267.09,535.93 268.18,536.49 269.43,536.93 270.81,537.23 272.26,537.38 273.74,537.38 275.19,537.23 276.57,536.93 277.82,536.49 278.91,535.93 279.8,535.27 280.46,534.53 280.86,533.73 281,532.9" />
<polyline points="265,532.9 265.14,532.07 265.54,531.27 266.2,530.53 267.09,529.87 268.18,529.31 269.43,528.87 270.81,528.57 272.26,528.42 273.74,528.42 275.19,528.57 276.57,528.87 277.82,529.31 278.91,529.87 279.8,530.53 280.46,531.27 280.86,532.07 281,532.9" />
<polyline points="395,532.9 395.14,533.73 395.54,534.53 396.2,535.27 397.09,535.93 398.18,536.49 399.43,536.93 400.81,537.23 402.26,537.38 403.74,537.38 405.19,537.23 406.57,536.93 407.82,536.49 408.91,535.93 409.8,535.27 410.46,534.53 410.86,533.73 411,532.9" />
<polyline points="395,532.9 395.14,532.07 395.54,531.27 396.2,530.53 397.09,529.87 398.18,529.31 399.43,528.87 400.81,528.57 402.26,528.42 403.74,528.42 405.19,528.57 406.57,528.87 407.82,529.31 408.91,529.87 409.8,530.53 410.46,531.27 410.86,532.07 411,532.9" />
<circle cx="522.2" cy="305.85" r="6.03" />
<circle cx="522.2" cy="305.85" r="2.89" />
<circle cx="411.67" cy="414.41" r="5.87" />
<circle cx="411.67" cy="414.41" r="2.82" />
<circle cx="262.75" cy="512.73" r="6.07" />
<circle cx="262.75" cy="512.73" r="2.91" />
<circle cx="437.27" cy="381.72" r="5.14" />
<circle cx="437.27" cy="381.72" r="2.47" />
<circle cx="409.25" cy="391.02" r="5.12" />
<circle cx="409.25" cy="391.02" r="2.46" />
<circle cx="194.38" cy="215.73" r="4.34" />
<circle cx="194.38" cy="215.73" r="2.08" />
<circle cx="266.73" cy="231.76" r="4.04" />
<circle cx="266.73" cy="231.76" r="1.94" />
<circle cx="201.09" cy="204.74" r="3.87" />
<circle cx="201.09" cy="204.74" r="1.86" />
<circle cx="386.57" cy="133.05" r="3.18" />
<circle cx="386.57" cy="133.05" r="1.53" />
<circle cx="217.81" cy="227.98" r="3.46" />
<circle cx="217.81" cy="227.98" r="1.66" />
<circle cx="537.56" cy="296.83" r="3.46" />
<circle cx="537.56" cy="296.83" r="1.66" />
<circle cx="294.47" cy="271.67" r="3.22" />
<circle cx="294.47" cy="271.67" r="1.54" />
<circle cx="431.37" cy="362.08" r="3.46" />
<circle cx="431.37" cy="362.08" r="1.66" />
<circle cx="285.2" cy="255" r="2.84" />
<circle cx="285.2" cy="255" r="1.36" />
<circle cx="456.33" cy="126.2" r="2" />
<circle cx="456.33" cy="126.2" r="0.96" />
<circle cx="317" cy="72.75" r="2" />
<circle cx="317" cy="72.75" r="0.96" />
<circle cx="430.95" cy="595.05" r="3.9" />
<circle cx="430.95" cy="595.05" r="1.87" />
<circle cx="250.82" cy="232.73" r="2.25" />
<circle cx="250.82" cy="232.73" r="1.08" />
<circle cx="298.69" cy="160.62" r="2" />
<circle cx="298.69" cy="160.62" r="0.96" />
<circle cx="505.08" cy="154.92" r="2" />
<circle cx="505.08" cy="154.92" r="0.96" />
<circle cx="524.88" cy="140.38" r="2" />
<circle cx="524.88" cy="140.38" r="0.96" />
<circle cx="413.67" cy="200.6" r="2" />
<circle cx="413.67" cy="200.6" r="0.96" />
<circle cx="442.36" cy="206.93" r="2" />
<circle cx="442.36" cy="206.93" r="0.96" />
<circle cx="444.12" cy="157.62" r="2" />
<circle cx="444.12" cy="157.62" r="0.96" />
<circle cx="342" cy="208.31" r="2" />
<circle cx="342" cy="208.31" r="0.96" />
<circle cx="162.31" cy="213.31" r="2" />
<circle cx="162.31" cy="213.31" r="0.96" />
<circle cx="349" cy="194.9" r="2" />
<circle cx="349" cy="194.9" r="0.96" />
<circle cx="301.22" cy="199.33" r="2" />
<circle cx="301.22" cy="199.33" r="0.96" />
<circle cx="255" cy="244.64" r="2" />
<circle cx="255" cy="244.64" r="0.96" />
<circle cx="237" cy="235.67" r="2" />
<circle cx="237" cy="235.67" r="0.96" />
<circle cx="578" cy="286.62" r="2" />
<circle cx="578" cy="286.62" r="0.96" />
<circle cx="646.19" cy="313.12" r="2" />
<circle cx="646.19" cy="313.12" r="0.96" />
<circle cx="267.22" cy="259" r="2" />
<circle cx="267.22" cy="259" r="0.96" />
<circle cx="289.38" cy="262.88" r="2" />
<circle cx="289.38" cy="262.88" r="0.96" />
<circle cx="296.75" cy="285" r="2" />
<circle cx="296.75" cy="285" r="0.96" />
<circle cx="633.5" cy="307" r="2" />
<circle cx="633.5" cy="307" r="0.96" />
<circle cx="542.78" cy="345.44" r="2" />
<circle cx="542.78" cy="345.44" r="0.96" />
<circle cx="378.64" cy="517.71" r="2.54" />
<circle cx="378.64" cy="517.71" r="1.22" />
<circle cx="477.5" cy="362.75" r="2" />
<circle cx="477.5" cy="362.75" r="0.96" />
<circle cx="406.47" cy="455.58" r="2.09" />
<circle cx="406.47" cy="455.58" r="1" />
<circle cx="469" cy="366.5" r="2" />
<circle cx="469" cy="366.5" r="0.96" />
<circle cx="396.42" cy="489.26" r="2.09" />
<circle cx="396.42" cy="489.26" r="1" />
<circle cx="387.89" cy="522.78" r="2.03" />
<circle cx="387.89" cy="522.78" r="0.98" />
<circle cx="408.09" cy="469.73" r="2" />
<circle cx="408.09" cy="469.73" r="0.96" />
<circle cx="241.6" cy="561.5" r="2" />
<circle cx="241.6" cy="561.5" r="0.96" />
</g>
<g fill="black" stroke="none">
<circle cx="473" cy="1121" r="1.5" />
<circle cx="482" cy="1113" r="1.75" />
<circle cx="476" cy="1111" r="1.67" />
<circle cx="612" cy="1035" r="1.53" />
<circle cx="612" cy="1024" r="1.68" />
<circle cx="577" cy="1062" r="1.69" />
<circle cx="494" cy="1102" r="1.64" />
<circle cx="617" cy="1020" r="1.54" />
<circle cx="589" cy="1050" r="1.52" />
<circle cx="571" cy="1059" r="1.48" />
<circle cx="206" cy="921" r="1.66" />
<circle cx="469" cy="1112" r="1.51" />
<circle cx="182" cy="938" r="1.59" />
<circle cx="608" cy="1027" r="1.43" />
<circle cx="212" cy="914" r="1.64" />
<circle cx="562" cy="1060" r="1.49" />
<circle cx="178" cy="923" r="1.53" />
<circle cx="163" cy="970" r="1.61" />
<circle cx="572" cy="1053" r="1.47" />
<circle cx="158" cy="973" r="1.61" />
<circle cx="175" cy="946" r="1.43" />
<circle cx="211" cy="896" r="1.57" />
<circle cx="564" cy="1065" r="1.49" />
<circle cx="513" cy="1090" r="1.47" />
<circle cx="166" cy="974" r="1.4" />
<circle cx="163" cy="941" r="1.47" />
<circle cx="597" cy="1024" r="1.52" />
<circle cx="616" cy="1029" r="1.63" />
<circle cx="185" cy="928" r="1.38" />
<circle cx="165" cy="942" r="1.45" />
<circle cx="484" cy="1090" r="1.6" />
<circle cx="519" cy="899" r="1.46" />
<circle cx="202" cy="928" r="1.51" />
<circle cx="523" cy="904" r="1.42" />
<circle cx="512" cy="1088" r="1.55" />
<circle cx="203" cy="917" r="1.4" />
<circle cx="558" cy="1067" r="1.35" />
<circle cx="195" cy="933" r="1.56" />
<circle cx="522" cy="896" r="1.45" />
<circle cx="625" cy="1001" r="1.59" />
<circle cx="206" cy="913" r="1.42" />
<circle cx="627" cy="1011" r="1.42" />
<circle cx="165" cy="936" r="1.35" />
<circle cx="464" cy="1115" r="1.59" />
<circle cx="629" cy="1005" r="1.42" />
<circle cx="457" cy="1152" r="1.39" />
<circle cx="472" cy="1102" r="1.36" />
<circle cx="557" cy="1077" r="1.36" />
<circle cx="217" cy="887" r="1.46" />
<circle cx="520" cy="892" r="1.4" />
<circle cx="431" cy="1118" r="1.39" />
<circle cx="543" cy="1071" r="1.49" />
<circle cx="189" cy="916" r="1.37" />
<circle cx="479" cy="1086" r="1.47" />
<circle cx="447" cy="966" r="1.32" />
<circle cx="482" cy="1084" r="1.55" />
<circle cx="568" cy="1056" r="1.34" />
<circle cx="508" cy="1082" r="1.34" />
<circle cx="503" cy="905" r="1.33" />
<circle cx="542" cy="1084" r="1.37" />
<circle cx="486" cy="1071" r="1.45" />
<circle cx="167" cy="932" r="1.46" />
<circle cx="166" cy="963" r="1.56" />
<circle cx="513" cy="916" r="1.31" />
<circle cx="424" cy="1021" r="1.5" />
<circle cx="288" cy="1091" r="1.36" />
<circle cx="563" cy="1053" r="1.5" />
<circle cx="251" cy="1063" r="1.41" />
<circle cx="521" cy="886" r="1.49" />
<circle cx="477" cy="1092" r="1.5" />
<circle cx="212" cy="1032" r="1.5" />
<circle cx="220" cy="913" r="1.4" />
<circle cx="616" cy="1007" r="1.34" />
<circle cx="440" cy="1208" r="1.39" />
<circle cx="518" cy="887" r="1.53" />
<circle cx="443" cy="1097" r="1.47" />
<circle cx="452" cy="1154" r="1.41" />
<circle cx="493" cy="902" r="1.32" />
<circle cx="196" cy="922" r="1.33" />
<circle cx="613" cy="947" r="1.37" />
<circle cx="202" cy="956" r="1.38" />
<circle cx="245" cy="1066" r="1.39" />
<circle cx="224" cy="903" r="1.5" />
<circle cx="492" cy="1077" r="1.41" />
<circle cx="255" cy="1072" r="1.38" />
<circle cx="187" cy="1008" r="1.46" />
<circle cx="508" cy="897" r="1.28" />
<circle cx="248" cy="1056" r="1.44" />
<circle cx="223" cy="897" r="1.46" />
<circle cx="622" cy="987" r="1.3" />
<circle cx="338" cy="846" r="1.36" />
<circle cx="452" cy="1178" r="1.5" />
<circle cx="200" cy="962" r="1.36" />
<circle cx="527" cy="1073" r="1.36" />
<circle cx="603" cy="1003" r="1.52" />
<circle cx="267" cy="1082" r="1.41" />
<circle cx="519" cy="828" r="1.33" />
<circle cx="233" cy="1047" r="1.53" />
<circle cx="448" cy="910" r="1.35" />
<circle cx="290" cy="1095" r="1.28" />
<circle cx="222" cy="1042" r="1.51" />
<circle cx="271" cy="1074" r="1.45" />
<circle cx="547" cy="1061" r="1.32" />
<circle cx="534" cy="1061" r="1.52" />
<circle cx="213" cy="885" r="1.37" />
<circle cx="491" cy="1108" r="1.37" />
<circle cx="181" cy="992" r="1.28" />
<circle cx="292" cy="1086" r="1.31" />
<circle cx="530" cy="1073" r="1.5" />
<circle cx="195" cy="916" r="1.46" />
<circle cx="190" cy="988" r="1.49" />
<circle cx="432" cy="953" r="1.45" />
<circle cx="198" cy="971" r="1.37" />
<circle cx="512" cy="1062" r="1.47" />
<circle cx="305" cy="833" r="1.44" />
<circle cx="507" cy="954" r="1.42" />
<circle cx="507" cy="955" r="1.43" />
<circle cx="248" cy="1070" r="1.37" />
<circle cx="404" cy="435" r="1.47" />
<circle cx="265" cy="1067" r="1.37" />
<circle cx="231" cy="910" r="1.36" />
<circle cx="224" cy="1032" r="1.36" />
<circle cx="518" cy="863" r="1.39" />
<circle cx="178" cy="976" r="1.47" />
<circle cx="499" cy="1083" r="1.49" />
<circle cx="228" cy="1054" r="1.52" />
<circle cx="427" cy="1202" r="1.5" />
<circle cx="230" cy="1052" r="1.33" />
<circle cx="238" cy="1045" r="1.26" />
<circle cx="567" cy="1034" r="1.49" />
<circle cx="342" cy="991" r="1.48" />
<circle cx="186" cy="996" r="1.39" />
<circle cx="491" cy="878" r="1.46" />
<circle cx="174" cy="985" r="1.51" />
<circle cx="543" cy="1056" r="1.25" />
<circle cx="498" cy="897" r="1.43" />
<circle cx="184" cy="953" r="1.35" />
<circle cx="206" cy="887" r="1.51" />
<circle cx="541" cy="969" r="1.37" />
<circle cx="508" cy="1077" r="1.41" />
<circle cx="608" cy="1009" r="1.44" />
<circle cx="194" cy="962" r="1.37" />
<circle cx="396" cy="428" r="1.27" />
<circle cx="609" cy="943" r="1.44" />
<circle cx="439" cy="946" r="1.26" />
<circle cx="483" cy="1071" r="1.34" />
<circle cx="522" cy="870" r="1.51" />
<circle cx="500" cy="1066" r="1.25" />
<circle cx="495" cy="961" r="1.36" />
<circle cx="262" cy="1080" r="1.34" />
<circle cx="507" cy="1061" r="1.36" />
<circle cx="185" cy="943" r="1.25" />
<circle cx="225" cy="859" r="1.37" />
<circle cx="596" cy="935" r="1.34" />
<circle cx="153" cy="969" r="1.26" />
<circle cx="196" cy="936" r="1.28" />
<circle cx="184" cy="1007" r="1.32" />
<circle cx="622" cy="983" r="1.25" />
<circle cx="617" cy="999" r="1.47" />
<circle cx="317" cy="1119" r="1.28" />
<circle cx="568" cy="903" r="1.34" />
<circle cx="490" cy="806" r="1.32" />
<circle cx="220" cy="967" r="1.25" />
<circle cx="188" cy="1003" r="1.31" />
<circle cx="489" cy="897" r="1.5" />
<circle cx="211" cy="1029" r="1.47" />
<circle cx="413" cy="998" r="1.31" />
<circle cx="523" cy="910" r="1.25" />
<circle cx="183" cy="997" r="1.39" />
<circle cx="205" cy="973" r="1.26" />
<circle cx="460" cy="1111" r="1.35" />
<circle cx="296" cy="1101" r="1.4" />
<circle cx="196" cy="991" r="1.43" />
<circle cx="244" cy="1051" r="1.32" />
<circle cx="173" cy="957" r="1.38" />
<circle cx="498" cy="867" r="1.37" />
<circle cx="217" cy="1011" r="1.25" />
<circle cx="192" cy="955" r="1.31" />
<circle cx="521" cy="1065" r="1.32" />
<circle cx="192" cy="997" r="1.38" />
<circle cx="197" cy="953" r="1.31" />
<circle cx="433" cy="1217" r="1.25" />
<circle cx="307" cy="915" r="1.35" />
<circle cx="320" cy="898" r="1.41" />
<circle cx="212" cy="1008" r="1.23" />
<circle cx="222" cy="978" r="1.22" />
<circle cx="378" cy="493" r="1.3" />
<circle cx="516" cy="1076" r="1.48" />
<circle cx="205" cy="1004" r="1.39" />
<circle cx="510" cy="1067" r="1.44" />
<circle cx="201" cy="951" r="1.25" />
<circle cx="221" cy="982" r="1.32" />
<circle cx="217" cy="928" r="1.4" />
<circle cx="417" cy="975" r="1.39" />
<circle cx="311" cy="956" r="1.38" />
<circle cx="543" cy="848" r="1.49" />
<circle cx="410" cy="932" r="1.35" />
<circle cx="202" cy="888" r="1.39" />
<circle cx="444" cy="1162" r="1.39" />
<circle cx="469" cy="926" r="1.28" />
<circle cx="222" cy="867" r="1.31" />
<circle cx="201" cy="968" r="1.22" />
<circle cx="217" cy="788" r="1.45" />
<circle cx="488" cy="908" r="1.44" />
<circle cx="426" cy="1017" r="1.37" />
<circle cx="151" cy="962" r="1.33" />
<circle cx="412" cy="1196" r="1.26" />
<circle cx="206" cy="986" r="1.43" />
<circle cx="551" cy="1037" r="1.21" />
<circle cx="518" cy="1070" r="1.47" />
<circle cx="416" cy="1017" r="1.46" />
<circle cx="451" cy="967" r="1.44" />
<circle cx="488" cy="877" r="1.44" />
<circle cx="527" cy="1068" r="1.44" />
<circle cx="448" cy="1183" r="1.29" />
<circle cx="193" cy="1014" r="1.26" />
<circle cx="582" cy="1063" r="1.32" />
<circle cx="192" cy="1001" r="1.46" />
<circle cx="593" cy="999" r="1.24" />
<circle cx="542" cy="1050" r="1.27" />
<circle cx="513" cy="953" r="1.2" />
<circle cx="553" cy="893" r="1.28" />
<circle cx="347" cy="859" r="1.38" />
<circle cx="254" cy="828" r="1.3" />
<circle cx="524" cy="952" r="1.39" />
<circle cx="412" cy="903" r="1.25" />
<circle cx="488" cy="787" r="1.29" />
<circle cx="394" cy="993" r="1.22" />
<circle cx="508" cy="1044" r="1.29" />
<circle cx="211" cy="968" r="1.31" />
<circle cx="325" cy="784" r="1.23" />
<circle cx="360" cy="876" r="1.42" />
<circle cx="178" cy="986" r="1.35" />
<circle cx="603" cy="944" r="1.27" />
<circle cx="255" cy="1075" r="1.27" />
<circle cx="191" cy="940" r="1.43" />
<circle cx="508" cy="800" r="1.36" />
<circle cx="422" cy="1029" r="1.29" />
<circle cx="222" cy="994" r="1.44" />
<circle cx="203" cy="970" r="1.47" />
<circle cx="408" cy="1191" r="1.39" />
<circle cx="396" cy="423" r="1.34" />
<circle cx="508" cy="1009" r="1.27" />
<circle cx="405" cy="1236" r="1.24" />
<circle cx="170" cy="918" r="1.28" />
<circle cx="490" cy="860" r="1.34" />
<circle cx="223" cy="857" r="1.34" />
<circle cx="321" cy="1127" r="1.46" />
<circle cx="402" cy="1003" r="1.31" />
<circle cx="212" cy="1012" r="1.25" />
<circle cx="213" cy="951" r="1.41" />
<circle cx="223" cy="842" r="1.33" />
<circle cx="227" cy="908" r="1.45" />
<circle cx="574" cy="913" r="1.25" />
<circle cx="225" cy="1021" r="1.38" />
<circle cx="214" cy="1001" r="1.4" />
<circle cx="309" cy="864" r="1.26" />
<circle cx="559" cy="1029" r="1.34" />
<circle cx="523" cy="820" r="1.24" />
<circle cx="382" cy="858" r="1.27" />
<circle cx="224" cy="1026" r="1.42" />
<circle cx="416" cy="1241" r="1.38" />
<circle cx="543" cy="1029" r="1.38" />
<circle cx="436" cy="1111" r="1.43" />
<circle cx="212" cy="992" r="1.41" />
<circle cx="226" cy="1057" r="1.26" />
<circle cx="575" cy="918" r="1.34" />
<circle cx="289" cy="1099" r="1.37" />
<circle cx="492" cy="910" r="1.4" />
<circle cx="207" cy="1036" r="1.29" />
<circle cx="212" cy="989" r="1.34" />
<circle cx="494" cy="841" r="1.45" />
<circle cx="231" cy="891" r="1.34" />
<circle cx="322" cy="947" r="1.31" />
<circle cx="264" cy="1003" r="1.39" />
<circle cx="533" cy="1024" r="1.25" />
<circle cx="276" cy="1062" r="1.3" />
<circle cx="473" cy="901" r="1.22" />
<circle cx="181" cy="1010" r="1.24" />
<circle cx="541" cy="825" r="1.43" />
<circle cx="538" cy="1036" r="1.27" />
<circle cx="450" cy="1115" r="1.37" />
<circle cx="570" cy="873" r="1.29" />
<circle cx="441" cy="1156" r="1.27" />
<circle cx="291" cy="850" r="1.19" />
<circle cx="306" cy="933" r="1.36" />
<circle cx="478" cy="933" r="1.36" />
<circle cx="429" cy="1007" r="1.35" />
<circle cx="517" cy="815" r="1.27" />
<circle cx="496" cy="907" r="1.32" />
<circle cx="436" cy="1208" r="1.34" />
<circle cx="512" cy="903" r="1.32" />
<circle cx="529" cy="828" r="1.28" />
<circle cx="431" cy="932" r="1.35" />
<circle cx="266" cy="1054" r="1.34" />
<circle cx="260" cy="1060" r="1.39" />
<circle cx="195" cy="888" r="1.2" />
<circle cx="533" cy="1048" r="1.24" />
<circle cx="514" cy="957" r="1.19" />
<circle cx="518" cy="946" r="1.34" />
<circle cx="493" cy="870" r="1.19" />
<circle cx="366" cy="922" r="1.36" />
<circle cx="579" cy="994" r="1.29" />
<circle cx="514" cy="1014" r="1.42" />
<circle cx="580" cy="921" r="1.35" />
<circle cx="561" cy="1015" r="1.36" />
<circle cx="398" cy="409" r="1.28" />
<circle cx="426" cy="1154" r="1.26" />
<circle cx="517" cy="1026" r="1.31" />
<circle cx="234" cy="920" r="1.26" />
<circle cx="501" cy="980" r="1.16" />
<circle cx="273" cy="258" r="1.39" />
<circle cx="393" cy="1121" r="1.28" />
<circle cx="333" cy="869" r="1.3" />
<circle cx="517" cy="974" r="1.29" />
<circle cx="207" cy="882" r="1.3" />
<circle cx="490" cy="891" r="1.32" />
<circle cx="544" cy="982" r="1.4" />
<circle cx="379" cy="827" r="1.32" />
<circle cx="507" cy="839" r="1.43" />
<circle cx="463" cy="946" r="1.38" />
<circle cx="453" cy="746" r="1.35" />
<circle cx="403" cy="1230" r="1.16" />
<circle cx="477" cy="847" r="1.4" />
<circle cx="443" cy="1152" r="1.36" />
<circle cx="524" cy="816" r="1.27" />
<circle cx="498" cy="1051" r="1.39" />
<circle cx="467" cy="878" r="1.29" />
<circle cx="481" cy="786" r="1.34" />
<circle cx="432" cy="1131" r="1.25" />
<circle cx="498" cy="1036" r="1.38" />
<circle cx="321" cy="776" r="1.33" />
<circle cx="274" cy="1061" r="1.17" />
<circle cx="446" cy="997" r="1.34" />
<circle cx="526" cy="945" r="1.33" />
<circle cx="396" cy="431" r="1.39" />
<circle cx="484" cy="801" r="1.17" />
<circle cx="553" cy="991" r="1.36" />
<circle cx="549" cy="861" r="1.23" />
<circle cx="565" cy="857" r="1.42" />
<circle cx="172" cy="914" r="1.3" />
<circle cx="449" cy="976" r="1.24" />
<circle cx="471" cy="880" r="1.3" />
<circle cx="568" cy="911" r="1.28" />
<circle cx="537" cy="922" r="1.37" />
<circle cx="444" cy="949" r="1.4" />
<circle cx="264" cy="824" r="1.24" />
<circle cx="528" cy="822" r="1.19" />
<circle cx="230" cy="1010" r="1.18" />
<circle cx="504" cy="976" r="1.19" />
<circle cx="504" cy="877" r="1.42" />
<circle cx="336" cy="1159" r="1.38" />
<circle cx="430" cy="917" r="1.36" />
<circle cx="432" cy="1202" r="1.38" />
<circle cx="511" cy="1016" r="1.23" />
<circle cx="456" cy="1107" r="1.18" />
<circle cx="525" cy="997" r="1.33" />
<circle cx="544" cy="964" r="1.23" />
<circle cx="269" cy="1087" r="1.36" />
<circle cx="237" cy="912" r="1.15" />
<circle cx="474" cy="956" r="1.27" />
<circle cx="356" cy="1132" r="1.33" />
<circle cx="413" cy="928" r="1.19" />
<circle cx="588" cy="1009" r="1.38" />
<circle cx="512" cy="1001" r="1.17" />
<circle cx="234" cy="938" r="1.42" />
<circle cx="460" cy="924" r="1.22" />
<circle cx="379" cy="943" r="1.37" />
<circle cx="353" cy="921" r="1.39" />
<circle cx="506" cy="1052" r="1.17" />
<circle cx="312" cy="889" r="1.16" />
<circle cx="237" cy="867" r="1.16" />
<circle cx="261" cy="1026" r="1.2" />
<circle cx="502" cy="837" r="1.26" />
<circle cx="396" cy="1214" r="1.31" />
<circle cx="459" cy="1053" r="1.39" />
<circle cx="326" cy="876" r="1.25" />
<circle cx="441" cy="861" r="1.41" />
<circle cx="482" cy="1016" r="1.27" />
<circle cx="348" cy="1181" r="1.21" />
<circle cx="438" cy="672" r="1.23" />
<circle cx="446" cy="370" r="1.13" />
<circle cx="258" cy="986" r="1.34" />
<circle cx="592" cy="909" r="1.18" />
<circle cx="396" cy="970" r="1.31" />
<circle cx="421" cy="801" r="1.38" />
<circle cx="537" cy="896" r="1.26" />
<circle cx="532" cy="918" r="1.23" />
<circle cx="517" cy="1012" r="1.24" />
<circle cx="236" cy="904" r="1.39" />
<circle cx="521" cy="1002" r="1.19" />
<circle cx="443" cy="1192" r="1.35" />
<circle cx="346" cy="663" r="1.32" />
<circle cx="378" cy="1217" r="1.23" />
<circle cx="404" cy="411" r="1.35" />
<circle cx="457" cy="1170" r="1.32" />
<circle cx="415" cy="924" r="1.24" />
<circle cx="445" cy="1187" r="1.21" />
<circle cx="378" cy="951" r="1.26" />
<circle cx="358" cy="834" r="1.33" />
<circle cx="453" cy="662" r="1.36" />
<circle cx="453" cy="904" r="1.21" />
<circle cx="310" cy="1099" r="1.13" />
<circle cx="542" cy="832" r="1.22" />
<circle cx="254" cy="1030" r="1.16" />
<circle cx="583" cy="986" r="1.2" />
<circle cx="252" cy="1044" r="1.35" />
<circle cx="461" cy="832" r="1.21" />
<circle cx="242" cy="1026" r="1.14" />
<circle cx="526" cy="874" r="1.3" />
<circle cx="453" cy="956" r="1.32" />
<circle cx="268" cy="828" r="1.17" />
<circle cx="583" cy="1010" r="1.24" />
<circle cx="595" cy="992" r="1.17" />
<circle cx="556" cy="977" r="1.38" />
<circle cx="553" cy="888" r="1.31" />
<circle cx="387" cy="907" r="1.25" />
<circle cx="250" cy="1048" r="1.27" />
<circle cx="471" cy="964" r="1.39" />
<circle cx="499" cy="818" r="1.21" />
<circle cx="426" cy="1176" r="1.31" />
<circle cx="513" cy="1099" r="1.28" />
<circle cx="251" cy="1019" r="1.32" />
<circle cx="417" cy="991" r="1.27" />
<circle cx="499" cy="828" r="1.17" />
<circle cx="507" cy="832" r="1.37" />
<circle cx="346" cy="936" r="1.31" />
<circle cx="442" cy="1146" r="1.23" />
<circle cx="548" cy="982" r="1.28" />
<circle cx="400" cy="1242" r="1.29" />
<circle cx="603" cy="926" r="1.27" />
<circle cx="298" cy="875" r="1.38" />
<circle cx="459" cy="856" r="1.37" />
<circle cx="343" cy="888" r="1.21" />
<circle cx="317" cy="1113" r="1.26" />
<circle cx="422" cy="1119" r="1.28" />
<circle cx="399" cy="1049" r="1.35" />
<circle cx="449" cy="634" r="1.22" />
<circle cx="479" cy="774" r="1.19" />
<circle cx="487" cy="1066" r="1.37" />
<circle cx="541" cy="863" r="1.12" />
<circle cx="532" cy="1010" r="1.3" />
<circle cx="584" cy="951" r="1.17" />
<circle cx="267" cy="1049" r="1.21" />
<circle cx="446" cy="363" r="1.28" />
<circle cx="379" cy="1056" r="1.27" />
<circle cx="391" cy="428" r="1.15" />
<circle cx="482" cy="963" r="1.15" />
<circle cx="489" cy="1011" r="1.24" />
<circle cx="392" cy="943" r="1.16" />
<circle cx="460" cy="1041" r="1.33" />
<circle cx="543" cy="872" r="1.12" />
<circle cx="413" cy="435" r="1.19" />
<circle cx="620" cy="967" r="1.19" />
<circle cx="439" cy="357" r="1.22" />
<circle cx="442" cy="687" r="1.28" />
<circle cx="326" cy="895" r="1.12" />
<circle cx="427" cy="1050" r="1.33" />
<circle cx="343" cy="241" r="1.16" />
<circle cx="246" cy="1038" r="1.35" />
<circle cx="413" cy="642" r="1.38" />
<circle cx="371" cy="921" r="1.1" />
<circle cx="316" cy="858" r="1.24" />
<circle cx="406" cy="966" r="1.38" />
<circle cx="430" cy="1147" r="1.3" />
<circle cx="350" cy="1185" r="1.11" />
<circle cx="441" cy="1171" r="1.38" />
<circle cx="551" cy="983" r="1.28" />
<circle cx="547" cy="893" r="1.34" />
<circle cx="566" cy="867" r="1.3" />
<circle cx="559" cy="1018" r="1.26" />
<circle cx="510" cy="827" r="1.1" />
<circle cx="321" cy="911" r="1.36" />
<circle cx="214" cy="871" r="1.2" />
<circle cx="581" cy="957" r="1.29" />
<circle cx="282" cy="266" r="1.31" />
<circle cx="540" cy="1012" r="1.15" />
<circle cx="447" cy="1008" r="1.13" />
<circle cx="385" cy="709" r="1.23" />
<circle cx="303" cy="1093" r="1.36" />
<circle cx="443" cy="621" r="1.28" />
<circle cx="529" cy="965" r="1.21" />
<circle cx="248" cy="1015" r="1.2" />
<circle cx="239" cy="938" r="1.17" />
<circle cx="472" cy="855" r="1.27" />
<circle cx="466" cy="1060" r="1.13" />
<circle cx="391" cy="1026" r="1.2" />
<circle cx="499" cy="1001" r="1.28" />
<circle cx="334" cy="862" r="1.14" />
<circle cx="485" cy="1016" r="1.22" />
<circle cx="490" cy="953" r="1.28" />
<circle cx="331" cy="918" r="1.1" />
<circle cx="504" cy="813" r="1.18" />
<circle cx="319" cy="900" r="1.23" />
<circle cx="381" cy="1016" r="1.29" />
<circle cx="575" cy="964" r="1.3" />
<circle cx="521" cy="932" r="1.19" />
<circle cx="379" cy="1009" r="1.36" />
<circle cx="561" cy="877" r="1.23" />
<circle cx="312" cy="1121" r="1.22" />
<circle cx="396" cy="1132" r="1.16" />
<circle cx="424" cy="1181" r="1.3" />
<circle cx="425" cy="1038" r="1.23" />
<circle cx="402" cy="441" r="1.37" />
<circle cx="260" cy="1023" r="1.25" />
<circle cx="587" cy="965" r="1.11" />
<circle cx="436" cy="582" r="1.2" />
<circle cx="427" cy="933" r="1.11" />
<circle cx="323" cy="917" r="1.09" />
<circle cx="460" cy="886" r="1.27" />
<circle cx="234" cy="876" r="1.09" />
<circle cx="494" cy="942" r="1.12" />
<circle cx="413" cy="878" r="1.19" />
<circle cx="418" cy="1211" r="1.31" />
<circle cx="574" cy="956" r="1.21" />
<circle cx="341" cy="834" r="1.09" />
<circle cx="411" cy="1227" r="1.35" />
<circle cx="401" cy="783" r="1.12" />
<circle cx="257" cy="818" r="1.17" />
<circle cx="541" cy="1086" r="1.32" />
<circle cx="247" cy="966" r="1.32" />
<circle cx="331" cy="1129" r="1.11" />
<circle cx="307" cy="356" r="1.12" />
<circle cx="249" cy="983" r="1.33" />
<circle cx="468" cy="942" r="1.27" />
<circle cx="472" cy="1091" r="1.25" />
<circle cx="483" cy="958" r="1.2" />
<circle cx="501" cy="824" r="1.16" />
<circle cx="396" cy="1238" r="1.3" />
<circle cx="361" cy="766" r="1.12" />
<circle cx="221" cy="1003" r="1.19" />
<circle cx="399" cy="826" r="1.32" />
<circle cx="443" cy="1176" r="1.16" />
<circle cx="185" cy="1019" r="1.28" />
<circle cx="442" cy="1116" r="1.34" />
<circle cx="241" cy="931" r="1.19" />
<circle cx="290" cy="861" r="1.36" />
<circle cx="323" cy="892" r="1.19" />
<circle cx="497" cy="913" r="1.12" />
<circle cx="533" cy="891" r="1.24" />
<circle cx="535" cy="925" r="1.35" />
<circle cx="472" cy="1072" r="1.16" />
<circle cx="359" cy="1008" r="1.13" />
<circle cx="465" cy="721" r="1.22" />
<circle cx="275" cy="850" r="1.35" />
<circle cx="414" cy="1035" r="1.08" />
<circle cx="148" cy="952" r="1.12" />
<circle cx="486" cy="1052" r="1.2" />
<circle cx="446" cy="899" r="1.15" />
<circle cx="512" cy="1026" r="1.12" />
<circle cx="233" cy="928" r="1.28" />
<circle cx="480" cy="798" r="1.33" />
<circle cx="408" cy="993" r="1.32" />
<circle cx="315" cy="911" r="1.3" />
<circle cx="517" cy="1032" r="1.21" />
<circle cx="429" cy="1213" r="1.11" />
<circle cx="506" cy="1025" r="1.21" />
<circle cx="470" cy="971" r="1.2" />
<circle cx="446" cy="1103" r="1.15" />
<circle cx="412" cy="251" r="1.22" />
<circle cx="537" cy="888" r="1.27" />
<circle cx="497" cy="987" r="1.27" />
<circle cx="288" cy="664" r="1.11" />
<circle cx="462" cy="1075" r="1.24" />
<circle cx="483" cy="940" r="1.11" />
<circle cx="471" cy="746" r="1.18" />
<circle cx="242" cy="905" r="1.17" />
<circle cx="287" cy="721" r="1.26" />
<circle cx="545" cy="938" r="1.14" />
<circle cx="545" cy="918" r="1.33" />
<circle cx="192" cy="893" r="1.19" />
<circle cx="345" cy="243" r="1.22" />
<circle cx="233" cy="857" r="1.3" />
<circle cx="441" cy="1114" r="1.21" />
<circle cx="481" cy="1030" r="1.17" />
<circle cx="242" cy="996" r="1.16" />
<circle cx="429" cy="1162" r="1.21" />
<circle cx="403" cy="1093" r="1.28" />
<circle cx="487" cy="1001" r="1.16" />
<circle cx="323" cy="995" r="1.09" />
<circle cx="410" cy="1111" r="1.17" />
<circle cx="470" cy="980" r="1.3" />
<circle cx="329" cy="872" r="1.18" />
<circle cx="533" cy="989" r="1.22" />
<circle cx="541" cy="898" r="1.26" />
<circle cx="283" cy="888" r="1.21" />
<circle cx="540" cy="939" r="1.11" />
<circle cx="393" cy="1035" r="1.33" />
<circle cx="457" cy="1047" r="1.15" />
<circle cx="451" cy="670" r="1.1" />
<circle cx="441" cy="1042" r="1.08" />
<circle cx="550" cy="901" r="1.31" />
<circle cx="345" cy="886" r="1.27" />
<circle cx="252" cy="542" r="1.31" />
<circle cx="265" cy="923" r="1.19" />
<circle cx="239" cy="894" r="1.27" />
<circle cx="244" cy="980" r="1.22" />
<circle cx="288" cy="802" r="1.13" />
<circle cx="240" cy="928" r="1.31" />
<circle cx="426" cy="1171" r="1.1" />
<circle cx="268" cy="252" r="1.12" />
<circle cx="438" cy="1065" r="1.28" />
<circle cx="430" cy="1208" r="1.28" />
<circle cx="291" cy="1071" r="1.33" />
<circle cx="273" cy="1054" r="1.17" />
<circle cx="432" cy="1181" r="1.31" />
<circle cx="423" cy="253" r="1.06" />
<circle cx="451" cy="997" r="1.27" />
<circle cx="361" cy="667" r="1.28" />
<circle cx="442" cy="1000" r="1.16" />
<circle cx="578" cy="1035" r="1.3" />
<circle cx="446" cy="646" r="1.2" />
<circle cx="444" cy="216" r="1.26" />
<circle cx="448" cy="677" r="1.32" />
<circle cx="456" cy="847" r="1.31" />
<circle cx="465" cy="869" r="1.15" />
<circle cx="403" cy="1223" r="1.28" />
<circle cx="435" cy="618" r="1.09" />
<circle cx="221" cy="875" r="1.22" />
<circle cx="496" cy="993" r="1.31" />
<circle cx="491" cy="1000" r="1.31" />
<circle cx="154" cy="980" r="1.15" />
<circle cx="434" cy="887" r="1.22" />
<circle cx="345" cy="883" r="1.27" />
<circle cx="429" cy="1002" r="1.08" />
<circle cx="431" cy="1101" r="1.32" />
<circle cx="471" cy="863" r="1.23" />
<circle cx="538" cy="880" r="1.1" />
<circle cx="594" cy="922" r="1.12" />
<circle cx="530" cy="887" r="1.06" />
<circle cx="348" cy="224" r="1.16" />
<circle cx="222" cy="835" r="1.29" />
<circle cx="312" cy="1026" r="1.22" />
<circle cx="570" cy="980" r="1.07" />
<circle cx="256" cy="973" r="1.24" />
<circle cx="357" cy="1021" r="1.27" />
<circle cx="377" cy="1110" r="1.21" />
<circle cx="252" cy="1001" r="1.26" />
<circle cx="478" cy="891" r="1.06" />
<circle cx="389" cy="1002" r="1.12" />
<circle cx="601" cy="1043" r="1.26" />
<circle cx="342" cy="252" r="1.06" />
<circle cx="367" cy="904" r="1.32" />
<circle cx="433" cy="866" r="1.2" />
<circle cx="397" cy="870" r="1.22" />
<circle cx="306" cy="856" r="1.2" />
<circle cx="431" cy="241" r="1.16" />
<circle cx="372" cy="982" r="1.23" />
<circle cx="268" cy="733" r="1.12" />
<circle cx="279" cy="1055" r="1.17" />
<circle cx="341" cy="247" r="1.12" />
<circle cx="426" cy="1078" r="1.16" />
<circle cx="536" cy="874" r="1.15" />
<circle cx="448" cy="854" r="1.06" />
<circle cx="359" cy="850" r="1.06" />
<circle cx="477" cy="1032" r="1.24" />
<circle cx="362" cy="1021" r="1.14" />
<circle cx="438" cy="626" r="1.22" />
<circle cx="537" cy="1010" r="1.12" />
<circle cx="443" cy="225" r="1.19" />
<circle cx="293" cy="544" r="1.21" />
<circle cx="354" cy="888" r="1.31" />
<circle cx="456" cy="661" r="1.09" />
<circle cx="445" cy="217" r="1.07" />
<circle cx="287" cy="277" r="1.16" />
<circle cx="381" cy="828" r="1.1" />
<circle cx="454" cy="706" r="1.04" />
<circle cx="274" cy="747" r="1.11" />
<circle cx="443" cy="220" r="1.19" />
<circle cx="394" cy="1107" r="1.09" />
<circle cx="461" cy="1009" r="1.3" />
<circle cx="402" cy="996" r="1.17" />
<circle cx="263" cy="1037" r="1.21" />
<circle cx="459" cy="973" r="1.1" />
<circle cx="371" cy="943" r="1.05" />
<circle cx="373" cy="867" r="1.08" />
<circle cx="406" cy="1221" r="1.11" />
<circle cx="439" cy="232" r="1.1" />
<circle cx="609" cy="981" r="1.12" />
<circle cx="412" cy="1223" r="1.12" />
<circle cx="465" cy="365" r="1.05" />
<circle cx="388" cy="983" r="1.27" />
<circle cx="353" cy="867" r="1.11" />
<circle cx="608" cy="987" r="1.08" />
<circle cx="355" cy="937" r="1.04" />
<circle cx="377" cy="1136" r="1.14" />
<circle cx="243" cy="986" r="1.18" />
<circle cx="368" cy="1098" r="1.04" />
<circle cx="387" cy="998" r="1.1" />
<circle cx="433" cy="1157" r="1.06" />
<circle cx="335" cy="919" r="1.09" />
<circle cx="365" cy="848" r="1.26" />
<circle cx="477" cy="1026" r="1.19" />
<circle cx="402" cy="906" r="1.04" />
<circle cx="522" cy="1030" r="1.04" />
<circle cx="486" cy="1005" r="1.05" />
<circle cx="479" cy="1047" r="1.07" />
<circle cx="333" cy="1101" r="1.15" />
<circle cx="241" cy="613" r="1.24" />
<circle cx="330" cy="911" r="1.3" />
<circle cx="425" cy="1208" r="1.14" />
<circle cx="418" cy="392" r="1.3" />
<circle cx="560" cy="998" r="1.14" />
<circle cx="482" cy="1053" r="1.06" />
<circle cx="557" cy="1008" r="1.16" />
<circle cx="428" cy="246" r="1.26" />
<circle cx="440" cy="698" r="1.2" />
<circle cx="470" cy="1043" r="1.2" />
<circle cx="249" cy="732" r="1.05" />
<circle cx="242" cy="918" r="1.05" />
<circle cx="317" cy="908" r="1.04" />
<circle cx="526" cy="925" r="1.22" />
<circle cx="429" cy="565" r="1.03" />
<circle cx="406" cy="1207" r="1.08" />
<circle cx="472" cy="897" r="1.09" />
<circle cx="471" cy="836" r="1.18" />
<circle cx="407" cy="927" r="1.2" />
<circle cx="322" cy="952" r="1.04" />
<circle cx="377" cy="1140" r="1.06" />
<circle cx="296" cy="896" r="1.24" />
<circle cx="432" cy="248" r="1.06" />
<circle cx="377" cy="1031" r="1.21" />
<circle cx="151" cy="973" r="1.19" />
<circle cx="477" cy="1024" r="1.09" />
<circle cx="392" cy="1056" r="1.28" />
<circle cx="218" cy="1052" r="1.18" />
<circle cx="454" cy="868" r="1.28" />
<circle cx="333" cy="875" r="1.23" />
<circle cx="288" cy="990" r="1.22" />
<circle cx="353" cy="592" r="1.05" />
<circle cx="366" cy="1148" r="1.21" />
<circle cx="459" cy="708" r="1.29" />
<circle cx="221" cy="1055" r="1.25" />
<circle cx="274" cy="1016" r="1.07" />
<circle cx="388" cy="1176" r="1.25" />
<circle cx="378" cy="931" r="1.24" />
<circle cx="292" cy="1033" r="1.13" />
<circle cx="488" cy="844" r="1.05" />
<circle cx="376" cy="1204" r="1.04" />
<circle cx="474" cy="817" r="1.15" />
<circle cx="407" cy="1035" r="1.17" />
<circle cx="338" cy="941" r="1.14" />
<circle cx="392" cy="938" r="1.23" />
<circle cx="304" cy="358" r="1.09" />
<circle cx="292" cy="870" r="1.19" />
<circle cx="318" cy="687" r="1.27" />
<circle cx="452" cy="848" r="1.25" />
<circle cx="382" cy="880" r="1.1" />
<circle cx="351" cy="863" r="1.12" />
<circle cx="343" cy="1176" r="1.23" />
<circle cx="476" cy="995" r="1.21" />
<circle cx="457" cy="933" r="1.11" />
<circle cx="395" cy="1146" r="1.12" />
<circle cx="217" cy="768" r="1.19" />
<circle cx="319" cy="999" r="1.16" />
<circle cx="328" cy="886" r="1.14" />
<circle cx="301" cy="903" r="1.1" />
<circle cx="471" cy="1045" r="1.12" />
<circle cx="272" cy="1036" r="1.25" />
<circle cx="526" cy="844" r="1.05" />
<circle cx="244" cy="656" r="1.17" />
<circle cx="268" cy="912" r="1.26" />
<circle cx="314" cy="834" r="1.06" />
<circle cx="348" cy="250" r="1.03" />
<circle cx="337" cy="991" r="1.22" />
<circle cx="347" cy="900" r="1.09" />
<circle cx="397" cy="862" r="1.13" />
<circle cx="340" cy="792" r="1.26" />
<circle cx="391" cy="1032" r="1.27" />
<circle cx="468" cy="1007" r="1.21" />
<circle cx="292" cy="916" r="1.11" />
<circle cx="459" cy="717" r="1.05" />
<circle cx="440" cy="667" r="1.16" />
<circle cx="386" cy="937" r="1.17" />
<circle cx="389" cy="428" r="1.25" />
<circle cx="250" cy="891" r="1.12" />
<circle cx="312" cy="788" r="1.25" />
<circle cx="312" cy="950" r="1.05" />
<circle cx="482" cy="831" r="1.14" />
<circle cx="342" cy="803" r="1.17" />
<circle cx="368" cy="705" r="1.05" />
<circle cx="579" cy="938" r="1.12" />
<circle cx="419" cy="678" r="1.13" />
<circle cx="378" cy="1078" r="1.1" />
<circle cx="403" cy="1106" r="1.01" />
<circle cx="393" cy="440" r="1.03" />
<circle cx="379" cy="839" r="1.19" />
<circle cx="471" cy="1032" r="1.21" />
<circle cx="396" cy="388" r="1.19" />
<circle cx="435" cy="1036" r="1.26" />
<circle cx="409" cy="791" r="1.25" />
<circle cx="475" cy="1069" r="1.2" />
<circle cx="559" cy="989" r="1.14" />
<circle cx="278" cy="891" r="1.25" />
<circle cx="366" cy="1156" r="1.21" />
<circle cx="348" cy="259" r="1.01" />
<circle cx="413" cy="247" r="1.03" />
<circle cx="341" cy="1022" r="1.28" />
<circle cx="461" cy="998" r="1.26" />
<circle cx="433" cy="231" r="1.08" />
<circle cx="378" cy="662" r="1.23" />
<circle cx="476" cy="986" r="1.09" />
<circle cx="397" cy="725" r="1.06" />
<circle cx="561" cy="981" r="1.24" />
<circle cx="332" cy="841" r="1.08" />
<circle cx="305" cy="816" r="1.06" />
<circle cx="433" cy="626" r="1.07" />
<circle cx="350" cy="766" r="1.14" />
<circle cx="438" cy="1107" r="1.02" />
<circle cx="582" cy="939" r="1" />
<circle cx="387" cy="918" r="1.06" />
<circle cx="379" cy="823" r="1.25" />
<circle cx="380" cy="714" r="1.05" />
<circle cx="457" cy="1060" r="1.17" />
<circle cx="491" cy="922" r="1.26" />
<circle cx="216" cy="841" r="1.22" />
<circle cx="300" cy="362" r="1.01" />
<circle cx="444" cy="214" r="1.26" />
<circle cx="427" cy="873" r="1.07" />
<circle cx="293" cy="783" r="1.16" />
<circle cx="249" cy="920" r="1.16" />
<circle cx="338" cy="1148" r="1.02" />
<circle cx="377" cy="1088" r="1.08" />
<circle cx="388" cy="484" r="1.04" />
<circle cx="370" cy="1140" r="1.12" />
<circle cx="473" cy="800" r="1.03" />
<circle cx="271" cy="247" r="1.01" />
<circle cx="336" cy="929" r="0.99" />
<circle cx="282" cy="901" r="1.22" />
<circle cx="447" cy="697" r="1.06" />
<circle cx="251" cy="519" r="1.15" />
<circle cx="306" cy="374" r="1.16" />
<circle cx="306" cy="891" r="1.06" />
<circle cx="438" cy="611" r="1.25" />
<circle cx="373" cy="951" r="1.14" />
<circle cx="389" cy="782" r="1" />
<circle cx="242" cy="232" r="1.2" />
<circle cx="270" cy="988" r="1.15" />
<circle cx="341" cy="1034" r="1.07" />
<circle cx="465" cy="975" r="1.16" />
<circle cx="398" cy="1033" r="1.06" />
<circle cx="456" cy="1022" r="1.15" />
<circle cx="145" cy="208" r="1.17" />
<circle cx="402" cy="574" r="1" />
<circle cx="362" cy="903" r="1.21" />
<circle cx="403" cy="946" r="1.01" />
<circle cx="312" cy="1054" r="1.17" />
<circle cx="331" cy="817" r="1.11" />
<circle cx="421" cy="949" r="1.03" />
<circle cx="380" cy="940" r="1.1" />
<circle cx="247" cy="985" r="1.11" />
<circle cx="303" cy="238" r="1.15" />
<circle cx="300" cy="279" r="1.02" />
<circle cx="410" cy="836" r="1.18" />
<circle cx="334" cy="1051" r="1.15" />
<circle cx="429" cy="888" r="1.12" />
<circle cx="424" cy="852" r="1.02" />
<circle cx="284" cy="964" r="0.99" />
<circle cx="324" cy="983" r="1.16" />
<circle cx="253" cy="537" r="1.03" />
<circle cx="424" cy="835" r="1.04" />
<circle cx="261" cy="470" r="0.99" />
<circle cx="333" cy="984" r="1.11" />
<circle cx="557" cy="299" r="1.02" />
<circle cx="408" cy="1078" r="1.13" />
<circle cx="412" cy="1119" r="1.22" />
<circle cx="255" cy="1081" r="1.21" />
<circle cx="311" cy="377" r="0.98" />
<circle cx="375" cy="1091" r="0.99" />
<circle cx="433" cy="184" r="0.99" />
<circle cx="438" cy="1005" r="1.03" />
<circle cx="391" cy="1161" r="1.05" />
<circle cx="256" cy="953" r="1.01" />
<circle cx="336" cy="884" r="1" />
<circle cx="281" cy="750" r="1" />
<circle cx="322" cy="1024" r="1.19" />
<circle cx="408" cy="1151" r="1.2" />
<circle cx="283" cy="1043" r="1.18" />
<circle cx="272" cy="724" r="1" />
<circle cx="298" cy="913" r="1.06" />
<circle cx="397" cy="938" r="1.1" />
<circle cx="156" cy="210" r="1.15" />
<circle cx="592" cy="299" r="1.05" />
<circle cx="463" cy="1011" r="1.18" />
<circle cx="306" cy="906" r="1.09" />
<circle cx="395" cy="965" r="1.07" />
<circle cx="367" cy="1078" r="1.19" />
<circle cx="388" cy="443" r="1.05" />
<circle cx="418" cy="1139" r="1.09" />
<circle cx="550" cy="297" r="1.09" />
<circle cx="381" cy="789" r="0.97" />
<circle cx="477" cy="814" r="1.13" />
<circle cx="415" cy="900" r="1.09" />
<circle cx="347" cy="390" r="1.09" />
<circle cx="139" cy="201" r="1.16" />
<circle cx="432" cy="559" r="1.16" />
<circle cx="322" cy="768" r="1.23" />
<circle cx="276" cy="816" r="1" />
<circle cx="400" cy="899" r="1.22" />
<circle cx="467" cy="982" r="1.06" />
<circle cx="500" cy="860" r="1.09" />
<circle cx="468" cy="716" r="1.16" />
<circle cx="384" cy="1187" r="1.21" />
<circle cx="336" cy="553" r="1.17" />
<circle cx="352" cy="1096" r="0.97" />
<circle cx="442" cy="700" r="1.08" />
<circle cx="395" cy="1186" r="1.02" />
<circle cx="434" cy="1058" r="1.19" />
<circle cx="456" cy="811" r="1.06" />
<circle cx="400" cy="1074" r="1.11" />
<circle cx="419" cy="949" r="1.15" />
<circle cx="338" cy="932" r="1.04" />
<circle cx="213" cy="762" r="0.97" />
<circle cx="437" cy="663" r="1.15" />
<circle cx="432" cy="692" r="1.06" />
<circle cx="457" cy="1178" r="1.13" />
<circle cx="412" cy="912" r="1.15" />
<circle cx="380" cy="1097" r="1.14" />
<circle cx="385" cy="180" r="1.23" />
<circle cx="322" cy="987" r="1" />
<circle cx="326" cy="1067" r="1" />
<circle cx="311" cy="947" r="1.18" />
<circle cx="463" cy="763" r="1.08" />
<circle cx="399" cy="1203" r="1.12" />
<circle cx="301" cy="352" r="1.12" />
<circle cx="278" cy="406" r="1.01" />
<circle cx="375" cy="671" r="0.97" />
<circle cx="272" cy="415" r="1" />
<circle cx="257" cy="748" r="1.05" />
<circle cx="406" cy="1071" r="1.1" />
<circle cx="301" cy="1045" r="1.13" />
<circle cx="461" cy="737" r="1.16" />
<circle cx="366" cy="1124" r="1" />
<circle cx="436" cy="897" r="1.16" />
<circle cx="382" cy="831" r="1.16" />
<circle cx="572" cy="932" r="0.96" />
<circle cx="519" cy="303" r="1.18" />
<circle cx="234" cy="821" r="1.14" />
<circle cx="304" cy="982" r="1.14" />
<circle cx="458" cy="759" r="1.17" />
<circle cx="427" cy="866" r="1.13" />
<circle cx="404" cy="730" r="1.04" />
<circle cx="392" cy="1155" r="1.06" />
<circle cx="430" cy="226" r="1.09" />
<circle cx="450" cy="712" r="0.96" />
<circle cx="297" cy="400" r="1.19" />
<circle cx="289" cy="918" r="0.99" />
<circle cx="292" cy="289" r="1.19" />
<circle cx="258" cy="233" r="1.03" />
<circle cx="292" cy="1046" r="1.04" />
<circle cx="391" cy="964" r="0.96" />
<circle cx="268" cy="883" r="0.95" />
<circle cx="216" cy="828" r="1.05" />
<circle cx="382" cy="203" r="1" />
<circle cx="319" cy="1043" r="0.97" />
<circle cx="428" cy="1096" r="0.99" />
<circle cx="373" cy="1079" r="1.07" />
<circle cx="348" cy="1089" r="1.08" />
<circle cx="228" cy="756" r="1.21" />
<circle cx="351" cy="626" r="1.14" />
<circle cx="403" cy="1053" r="1.15" />
<circle cx="340" cy="1043" r="1.08" />
<circle cx="345" cy="1046" r="1.03" />
<circle cx="388" cy="922" r="1.2" />
<circle cx="420" cy="657" r="1.02" />
<circle cx="445" cy="934" r="0.95" />
<circle cx="333" cy="1048" r="1.16" />
<circle cx="331" cy="1067" r="1.17" />
<circle cx="555" cy="912" r="1" />
<circle cx="576" cy="1069" r="1.06" />
<circle cx="410" cy="889" r="1.03" />
<circle cx="208" cy="611" r="1.13" />
<circle cx="343" cy="814" r="1.02" />
<circle cx="405" cy="457" r="0.98" />
<circle cx="439" cy="1053" r="1.09" />
<circle cx="318" cy="1059" r="1.18" />
<circle cx="386" cy="711" r="1.05" />
<circle cx="268" cy="970" r="1.01" />
<circle cx="388" cy="634" r="1.1" />
<circle cx="307" cy="1001" r="1.07" />
<circle cx="425" cy="818" r="1.16" />
<circle cx="577" cy="289" r="1.01" />
<circle cx="447" cy="694" r="1.18" />
<circle cx="512" cy="840" r="1" />
<circle cx="298" cy="286" r="1.03" />
<circle cx="401" cy="913" r="1.18" />
<circle cx="219" cy="550" r="1.17" />
<circle cx="304" cy="240" r="0.98" />
<circle cx="252" cy="506" r="1.09" />
<circle cx="415" cy="1004" r="1.07" />
<circle cx="323" cy="937" r="1.09" />
<circle cx="480" cy="322" r="1" />
<circle cx="340" cy="976" r="1.02" />
<circle cx="213" cy="595" r="1.07" />
<circle cx="310" cy="758" r="1" />
<circle cx="303" cy="174" r="1.08" />
<circle cx="300" cy="843" r="1.1" />
<circle cx="184" cy="892" r="1.03" />
<circle cx="397" cy="822" r="0.97" />
<circle cx="416" cy="1184" r="1.16" />
<circle cx="397" cy="907" r="0.94" />
<circle cx="357" cy="1071" r="1.19" />
<circle cx="385" cy="142" r="0.96" />
<circle cx="378" cy="908" r="1.03" />
<circle cx="388" cy="818" r="1.04" />
<circle cx="347" cy="1158" r="1.1" />
<circle cx="273" cy="1007" r="0.93" />
<circle cx="238" cy="696" r="1.15" />
<circle cx="278" cy="864" r="1.19" />
<circle cx="554" cy="282" r="0.99" />
<circle cx="628" cy="298" r="1.01" />
<circle cx="374" cy="864" r="1.14" />
<circle cx="234" cy="678" r="1.07" />
<circle cx="534" cy="342" r="1.12" />
<circle cx="303" cy="1056" r="1.13" />
<circle cx="393" cy="1210" r="1.07" />
<circle cx="563" cy="266" r="1.02" />
<circle cx="334" cy="1020" r="1" />
<circle cx="436" cy="841" r="0.95" />
<circle cx="635" cy="301" r="1.19" />
<circle cx="367" cy="1183" r="0.99" />
<circle cx="277" cy="726" r="1.08" />
<circle cx="303" cy="432" r="1.17" />
<circle cx="450" cy="157" r="0.98" />
<circle cx="405" cy="396" r="1.04" />
<circle cx="307" cy="781" r="1.1" />
<circle cx="338" cy="1072" r="1.18" />
<circle cx="258" cy="942" r="0.93" />
<circle cx="368" cy="1191" r="1.01" />
<circle cx="271" cy="977" r="1.06" />
<circle cx="388" cy="174" r="1.08" />
<circle cx="253" cy="227" r="1.09" />
<circle cx="331" cy="1028" r="1.18" />
<circle cx="287" cy="430" r="0.96" />
<circle cx="363" cy="1060" r="0.92" />
<circle cx="392" cy="661" r="1.01" />
<circle cx="394" cy="713" r="1.17" />
<circle cx="391" cy="709" r="1.09" />
<circle cx="257" cy="931" r="1.09" />
<circle cx="335" cy="821" r="0.93" />
<circle cx="290" cy="375" r="0.92" />
<circle cx="393" cy="811" r="1.07" />
<circle cx="438" cy="796" r="1.02" />
<circle cx="446" cy="739" r="0.93" />
<circle cx="405" cy="592" r="1.1" />
<circle cx="253" cy="686" r="1.03" />
<circle cx="474" cy="821" r="1.05" />
<circle cx="408" cy="596" r="0.99" />
<circle cx="436" cy="829" r="0.98" />
<circle cx="487" cy="352" r="1.11" />
<circle cx="342" cy="726" r="1.04" />
<circle cx="352" cy="1112" r="1.18" />
<circle cx="279" cy="998" r="1.05" />
<circle cx="342" cy="1083" r="1.08" />
<circle cx="384" cy="207" r="1.15" />
<circle cx="277" cy="456" r="1.03" />
<circle cx="400" cy="711" r="0.99" />
<circle cx="431" cy="376" r="1.08" />
<circle cx="483" cy="267" r="0.95" />
<circle cx="402" cy="801" r="0.93" />
<circle cx="391" cy="405" r="1.07" />
<circle cx="311" cy="692" r="1.07" />
<circle cx="387" cy="698" r="1.07" />
<circle cx="231" cy="690" r="1.12" />
<circle cx="210" cy="684" r="0.92" />
<circle cx="441" cy="651" r="1.17" />
<circle cx="241" cy="823" r="1.14" />
<circle cx="449" cy="732" r="0.96" />
<circle cx="311" cy="979" r="1.09" />
<circle cx="265" cy="945" r="1.16" />
<circle cx="504" cy="276" r="1.12" />
<circle cx="406" cy="383" r="0.93" />
<circle cx="421" cy="857" r="1.06" />
<circle cx="296" cy="556" r="0.9" />
<circle cx="545" cy="298" r="1.17" />
<circle cx="296" cy="398" r="1.06" />
<circle cx="431" cy="381" r="0.95" />
<circle cx="189" cy="887" r="1.17" />
<circle cx="303" cy="874" r="1.12" />
<circle cx="174" cy="208" r="0.95" />
<circle cx="498" cy="297" r="0.99" />
<circle cx="388" cy="968" r="1.01" />
<circle cx="226" cy="727" r="0.89" />
<circle cx="517" cy="131" r="1.02" />
<circle cx="388" cy="675" r="1.11" />
<circle cx="300" cy="978" r="0.93" />
<circle cx="297" cy="300" r="1.15" />
<circle cx="429" cy="694" r="0.91" />
<circle cx="412" cy="207" r="1.05" />
<circle cx="84" cy="208" r="0.97" />
<circle cx="368" cy="728" r="1.08" />
<circle cx="255" cy="896" r="1.15" />
<circle cx="317" cy="784" r="0.95" />
<circle cx="316" cy="971" r="1.01" />
<circle cx="308" cy="399" r="1.07" />
<circle cx="401" cy="457" r="1.08" />
<circle cx="470" cy="352" r="1.01" />
<circle cx="441" cy="209" r="1.14" />
<circle cx="354" cy="675" r="1.05" />
<circle cx="270" cy="848" r="1.03" />
<circle cx="308" cy="241" r="1.01" />
<circle cx="367" cy="1186" r="0.99" />
<circle cx="432" cy="788" r="0.9" />
<circle cx="293" cy="961" r="1.11" />
<circle cx="348" cy="714" r="1.13" />
<circle cx="377" cy="500" r="1.14" />
<circle cx="290" cy="206" r="1" />
<circle cx="271" cy="640" r="1.04" />
<circle cx="343" cy="756" r="0.99" />
<circle cx="373" cy="477" r="1.02" />
<circle cx="465" cy="800" r="0.98" />
<circle cx="275" cy="447" r="0.93" />
<circle cx="272" cy="969" r="1.04" />
<circle cx="215" cy="689" r="0.94" />
<circle cx="501" cy="283" r="1.02" />
<circle cx="393" cy="374" r="1.01" />
<circle cx="204" cy="1042" r="1.08" />
<circle cx="234" cy="726" r="1.09" />
<circle cx="446" cy="761" r="1.1" />
<circle cx="286" cy="691" r="1.08" />
<circle cx="460" cy="165" r="1.03" />
<circle cx="262" cy="818" r="1.13" />
<circle cx="141" cy="199" r="1.13" />
<circle cx="194" cy="210" r="0.92" />
<circle cx="393" cy="881" r="1.02" />
<circle cx="410" cy="883" r="1" />
<circle cx="405" cy="704" r="0.91" />
<circle cx="506" cy="1104" r="1.1" />
<circle cx="531" cy="292" r="0.94" />
<circle cx="371" cy="668" r="1.01" />
<circle cx="361" cy="762" r="1.06" />
<circle cx="273" cy="1094" r="1" />
<circle cx="522" cy="306" r="0.88" />
<circle cx="458" cy="287" r="0.93" />
<circle cx="294" cy="1017" r="0.95" />
<circle cx="430" cy="648" r="0.91" />
<circle cx="378" cy="459" r="1.1" />
<circle cx="397" cy="346" r="0.86" />
<circle cx="410" cy="601" r="1.07" />
<circle cx="387" cy="602" r="1.06" />
<circle cx="282" cy="772" r="0.91" />
<circle cx="442" cy="204" r="0.87" />
<circle cx="298" cy="344" r="0.93" />
<circle cx="416" cy="371" r="0.85" />
<circle cx="486" cy="155" r="0.91" />
<circle cx="401" cy="715" r="1.01" />
<circle cx="455" cy="373" r="1.05" />
<circle cx="282" cy="992" r="1.03" />
<circle cx="412" cy="824" r="1.12" />
<circle cx="266" cy="561" r="0.88" />
<circle cx="506" cy="282" r="0.87" />
<circle cx="549" cy="339" r="1.02" />
<circle cx="215" cy="586" r="0.88" />
<circle cx="189" cy="198" r="0.88" />
<circle cx="273" cy="772" r="0.91" />
<circle cx="261" cy="449" r="0.95" />
<circle cx="417" cy="716" r="1.1" />
<circle cx="410" cy="374" r="0.86" />
<circle cx="367" cy="656" r="0.91" />
<circle cx="357" cy="732" r="0.92" />
<circle cx="330" cy="548" r="0.96" />
<circle cx="259" cy="792" r="1.03" />
<circle cx="234" cy="741" r="0.94" />
<circle cx="283" cy="1010" r="0.88" />
<circle cx="292" cy="423" r="0.95" />
<circle cx="300" cy="306" r="0.94" />
<circle cx="306" cy="236" r="0.92" />
<circle cx="366" cy="662" r="1.08" />
<circle cx="245" cy="559" r="1.09" />
<circle cx="313" cy="752" r="0.9" />
<circle cx="525" cy="273" r="0.97" />
<circle cx="484" cy="262" r="0.86" />
<circle cx="401" cy="661" r="1.06" />
<circle cx="292" cy="824" r="0.86" />
<circle cx="430" cy="756" r="0.96" />
<circle cx="491" cy="343" r="0.84" />
<circle cx="288" cy="435" r="1" />
<circle cx="565" cy="291" r="0.92" />
<circle cx="414" cy="446" r="0.88" />
<circle cx="540" cy="278" r="0.92" />
<circle cx="238" cy="803" r="0.94" />
<circle cx="287" cy="193" r="0.98" />
<circle cx="318" cy="1001" r="0.89" />
<circle cx="307" cy="189" r="0.86" />
<circle cx="308" cy="229" r="0.88" />
<circle cx="618" cy="294" r="0.96" />
<circle cx="415" cy="366" r="1.07" />
<circle cx="419" cy="793" r="0.97" />
<circle cx="428" cy="528" r="0.93" />
<circle cx="351" cy="681" r="0.94" />
<circle cx="392" cy="804" r="0.96" />
<circle cx="351" cy="730" r="0.92" />
<circle cx="332" cy="525" r="0.93" />
<circle cx="268" cy="453" r="0.82" />
<circle cx="544" cy="337" r="0.91" />
<circle cx="441" cy="751" r="0.92" />
<circle cx="407" cy="578" r="0.81" />
<circle cx="512" cy="144" r="0.82" />
<circle cx="140" cy="191" r="1.06" />
<circle cx="425" cy="202" r="0.81" />
<circle cx="383" cy="420" r="1.01" />
<circle cx="305" cy="681" r="1.05" />
<circle cx="336" cy="413" r="1.06" />
<circle cx="468" cy="269" r="0.93" />
<circle cx="174" cy="215" r="1" />
<circle cx="218" cy="646" r="1.03" />
<circle cx="420" cy="367" r="1.02" />
<circle cx="308" cy="403" r="0.85" />
<circle cx="388" cy="404" r="0.88" />
<circle cx="350" cy="612" r="0.81" />
<circle cx="295" cy="760" r="1.01" />
<circle cx="264" cy="738" r="1.05" />
<circle cx="419" cy="697" r="0.82" />
<circle cx="285" cy="206" r="0.97" />
<circle cx="409" cy="269" r="0.82" />
<circle cx="349" cy="746" r="0.91" />
<circle cx="268" cy="738" r="0.86" />
<circle cx="332" cy="362" r="0.98" />
<circle cx="421" cy="186" r="1.02" />
<circle cx="457" cy="127" r="0.96" />
<circle cx="658" cy="407" r="1" />
<circle cx="342" cy="274" r="0.8" />
<circle cx="216" cy="636" r="0.81" />
<circle cx="527" cy="305" r="0.81" />
<circle cx="372" cy="704" r="0.97" />
<circle cx="150" cy="185" r="0.88" />
<circle cx="378" cy="769" r="0.8" />
<circle cx="242" cy="698" r="0.92" />
<circle cx="369" cy="400" r="0.85" />
<circle cx="354" cy="281" r="0.98" />
<circle cx="349" cy="659" r="0.92" />
<circle cx="424" cy="612" r="0.94" />
<circle cx="328" cy="132" r="1.06" />
<circle cx="313" cy="738" r="0.91" />
<circle cx="373" cy="390" r="0.95" />
<circle cx="221" cy="692" r="0.98" />
<circle cx="663" cy="331" r="0.95" />
<circle cx="282" cy="729" r="1.05" />
<circle cx="292" cy="1014" r="0.8" />
<circle cx="217" cy="614" r="0.78" />
<circle cx="347" cy="405" r="0.95" />
<circle cx="211" cy="208" r="0.87" />
<circle cx="639" cy="287" r="0.99" />
<circle cx="452" cy="286" r="0.81" />
<circle cx="421" cy="192" r="0.89" />
<circle cx="353" cy="277" r="0.9" />
<circle cx="206" cy="641" r="1.01" />
<circle cx="326" cy="687" r="0.89" />
<circle cx="273" cy="741" r="0.84" />
<circle cx="417" cy="413" r="0.98" />
<circle cx="331" cy="221" r="0.97" />
<circle cx="300" cy="738" r="0.87" />
<circle cx="409" cy="211" r="1.01" />
<circle cx="353" cy="663" r="0.9" />
<circle cx="578" cy="261" r="0.87" />
<circle cx="356" cy="676" r="0.77" />
<circle cx="316" cy="587" r="0.77" />
<circle cx="323" cy="571" r="0.82" />
<circle cx="283" cy="662" r="0.96" />
<circle cx="351" cy="174" r="0.81" />
<circle cx="516" cy="317" r="0.99" />
<circle cx="310" cy="177" r="0.94" />
<circle cx="441" cy="726" r="0.92" />
<circle cx="268" cy="567" r="0.75" />
<circle cx="407" cy="741" r="0.83" />
<circle cx="309" cy="417" r="1" />
<circle cx="273" cy="587" r="0.79" />
<circle cx="263" cy="93" r="0.87" />
<circle cx="319" cy="323" r="0.97" />
<circle cx="452" cy="632" r="0.75" />
<circle cx="299" cy="491" r="0.9" />
<circle cx="437" cy="376" r="0.99" />
<circle cx="286" cy="379" r="0.96" />
<circle cx="554" cy="1083" r="0.82" />
<circle cx="319" cy="140" r="0.97" />
<circle cx="358" cy="461" r="0.89" />
<circle cx="306" cy="462" r="0.92" />
<circle cx="358" cy="750" r="0.89" />
<circle cx="383" cy="621" r="0.82" />
<circle cx="260" cy="757" r="0.95" />
<circle cx="353" cy="587" r="0.81" />
<circle cx="267" cy="476" r="0.82" />
<circle cx="176" cy="1017" r="0.82" />
<circle cx="314" cy="704" r="0.93" />
<circle cx="388" cy="355" r="0.81" />
<circle cx="339" cy="341" r="0.88" />
<circle cx="368" cy="370" r="0.92" />
<circle cx="281" cy="453" r="0.84" />
<circle cx="172" cy="185" r="0.97" />
<circle cx="382" cy="372" r="0.74" />
<circle cx="311" cy="213" r="0.92" />
<circle cx="293" cy="772" r="0.76" />
<circle cx="196" cy="201" r="0.94" />
<circle cx="518" cy="336" r="0.9" />
<circle cx="354" cy="666" r="0.95" />
<circle cx="322" cy="340" r="0.88" />
<circle cx="296" cy="249" r="0.83" />
<circle cx="549" cy="308" r="0.77" />
<circle cx="621" cy="355" r="0.98" />
<circle cx="351" cy="166" r="0.86" />
<circle cx="356" cy="696" r="0.77" />
<circle cx="362" cy="739" r="0.83" />
<circle cx="342" cy="392" r="0.79" />
<circle cx="413" cy="515" r="0.98" />
<circle cx="356" cy="556" r="0.8" />
<circle cx="596" cy="287" r="0.98" />
<circle cx="582" cy="345" r="0.98" />
<circle cx="242" cy="739" r="0.96" />
<circle cx="292" cy="548" r="0.93" />
<circle cx="387" cy="639" r="0.72" />
<circle cx="176" cy="186" r="0.8" />
<circle cx="451" cy="189" r="0.7" />
<circle cx="518" cy="135" r="0.83" />
<circle cx="381" cy="428" r="0.75" />
<circle cx="585" cy="267" r="0.78" />
<circle cx="327" cy="600" r="0.8" />
<circle cx="321" cy="696" r="0.81" />
<circle cx="356" cy="357" r="0.91" />
<circle cx="596" cy="354" r="0.92" />
<circle cx="231" cy="719" r="0.7" />
<circle cx="252" cy="658" r="0.87" />
<circle cx="353" cy="372" r="0.79" />
<circle cx="269" cy="777" r="0.81" />
<circle cx="375" cy="762" r="0.75" />
<circle cx="408" cy="540" r="0.91" />
<circle cx="321" cy="201" r="0.71" />
<circle cx="265" cy="461" r="0.75" />
<circle cx="275" cy="666" r="0.88" />
<circle cx="377" cy="400" r="0.82" />
<circle cx="526" cy="316" r="0.78" />
<circle cx="253" cy="778" r="0.93" />
<circle cx="296" cy="648" r="0.93" />
<circle cx="307" cy="506" r="0.88" />
<circle cx="493" cy="309" r="0.73" />
<circle cx="488" cy="162" r="0.89" />
<circle cx="307" cy="485" r="0.78" />
<circle cx="426" cy="746" r="0.95" />
<circle cx="277" cy="706" r="0.79" />
<circle cx="246" cy="583" r="0.72" />
<circle cx="358" cy="397" r="0.67" />
<circle cx="265" cy="557" r="0.8" />
<circle cx="396" cy="226" r="0.67" />
<circle cx="389" cy="606" r="0.88" />
<circle cx="345" cy="570" r="0.78" />
<circle cx="226" cy="630" r="0.72" />
<circle cx="361" cy="246" r="0.69" />
<circle cx="393" cy="215" r="0.88" />
<circle cx="305" cy="552" r="0.67" />
<circle cx="527" cy="327" r="0.79" />
<circle cx="333" cy="498" r="0.83" />
<circle cx="324" cy="106" r="0.68" />
<circle cx="542" cy="332" r="0.79" />
<circle cx="316" cy="135" r="0.71" />
<circle cx="256" cy="697" r="0.85" />
<circle cx="459" cy="332" r="0.67" />
<circle cx="536" cy="268" r="0.84" />
<circle cx="222" cy="586" r="0.85" />
<circle cx="307" cy="573" r="0.92" />
<circle cx="599" cy="276" r="0.78" />
<circle cx="300" cy="455" r="0.86" />
<circle cx="437" cy="345" r="0.92" />
<circle cx="244" cy="208" r="0.71" />
<circle cx="377" cy="614" r="0.83" />
<circle cx="399" cy="553" r="0.66" />
<circle cx="436" cy="353" r="0.88" />
<circle cx="623" cy="290" r="0.65" />
<circle cx="360" cy="412" r="0.74" />
<circle cx="322" cy="476" r="0.7" />
<circle cx="267" cy="508" r="0.63" />
<circle cx="500" cy="324" r="0.62" />
<circle cx="338" cy="334" r="0.85" />
<circle cx="483" cy="311" r="0.78" />
<circle cx="266" cy="220" r="0.84" />
<circle cx="529" cy="265" r="0.65" />
<circle cx="322" cy="656" r="0.7" />
<circle cx="362" cy="172" r="0.78" />
<circle cx="308" cy="618" r="0.84" />
<circle cx="362" cy="442" r="0.69" />
<circle cx="351" cy="514" r="0.6" />
<circle cx="290" cy="237" r="0.84" />
<circle cx="346" cy="423" r="0.68" />
<circle cx="358" cy="497" r="0.82" />
<circle cx="338" cy="501" r="0.77" />
<circle cx="325" cy="229" r="0.65" />
<circle cx="312" cy="445" r="0.8" />
<circle cx="336" cy="253" r="0.81" />
<circle cx="556" cy="323" r="0.79" />
<circle cx="323" cy="452" r="0.77" />
<circle cx="327" cy="235" r="0.57" />
<circle cx="339" cy="428" r="0.58" />
<circle cx="390" cy="341" r="0.55" />
<circle cx="354" cy="329" r="0.71" />
<circle cx="390" cy="233" r="0.61" />
<circle cx="451" cy="308" r="0.7" />
<circle cx="325" cy="279" r="0.54" />
<circle cx="398" cy="306" r="0.73" />
<circle cx="190.57" cy="1008.82" r="2.25" />
<circle cx="560.9" cy="855.16" r="2.22" />
<circle cx="593.46" cy="928.7" r="2.1" />
<circle cx="425.02" cy="1232.16" r="2.08" />
<circle cx="405.58" cy="430.58" r="1.73" />
<circle cx="483.22" cy="765.04" r="1.61" />
<circle cx="439.09" cy="1211.18" r="1.46" />
<circle cx="398.86" cy="412.95" r="1.46" />
<circle cx="224.67" cy="863.33" r="1.42" />
<circle cx="429.95" cy="954.4" r="1.39" />
<circle cx="315.7" cy="861.4" r="1.39" />
<circle cx="623.39" cy="985.89" r="1.32" />
<circle cx="511.35" cy="1062.47" r="1.28" />
<circle cx="423.82" cy="966.24" r="1.28" />
<circle cx="409.65" cy="439.82" r="1.28" />
<circle cx="509.81" cy="964.06" r="1.24" />
<circle cx="389.19" cy="1006.62" r="1.24" />
<circle cx="525.47" cy="935.33" r="1.2" />
<circle cx="509.53" cy="802.8" r="1.2" />
<circle cx="502.6" cy="1056.4" r="1.2" />
<circle cx="437.13" cy="945.27" r="1.2" />
<circle cx="367.33" cy="931.07" r="1.2" />
<circle cx="485" cy="1071.07" r="1.16" />
<circle cx="417.07" cy="964.79" r="1.16" />
<circle cx="407.5" cy="972.5" r="1.16" />
<circle cx="397.43" cy="991" r="1.16" />
<circle cx="570" cy="868.15" r="1.12" />
<circle cx="525.38" cy="1063.62" r="1.12" />
<circle cx="313.92" cy="1116.15" r="1.12" />
<circle cx="535.25" cy="1059.67" r="1.07" />
<circle cx="516.67" cy="1065.92" r="1.07" />
<circle cx="449.08" cy="911.17" r="1.07" />
<circle cx="447" cy="964.5" r="1.07" />
<circle cx="317.17" cy="885.92" r="1.07" />
<circle cx="225.17" cy="912.5" r="1.07" />
<circle cx="573.82" cy="907.45" r="1.03" />
<circle cx="462.18" cy="1108.55" r="1.03" />
<circle cx="425.55" cy="1224.18" r="1.03" />
<circle cx="368.64" cy="998.09" r="1.03" />
<circle cx="353.91" cy="853.27" r="1.03" />
<circle cx="197.18" cy="985.91" r="1.03" />
<circle cx="188.82" cy="989.18" r="1.03" />
<circle cx="183.91" cy="1002.36" r="1.03" />
<circle cx="588.9" cy="913.8" r="0.98" />
<circle cx="532" cy="850.1" r="0.98" />
<circle cx="467" cy="938.5" r="0.98" />
<circle cx="451.8" cy="951.5" r="0.98" />
<circle cx="357.5" cy="899" r="0.98" />
<circle cx="311.1" cy="874.9" r="0.98" />
<circle cx="541.89" cy="1034.67" r="0.93" />
<circle cx="505.78" cy="952.89" r="0.93" />
<circle cx="443" cy="1013.67" r="0.93" />
<circle cx="435.11" cy="1021.33" r="0.93" />
<circle cx="433.67" cy="973.56" r="0.93" />
<circle cx="416.67" cy="981.89" r="0.93" />
<circle cx="409.11" cy="1001.33" r="0.93" />
<circle cx="402.33" cy="1005.78" r="0.93" />
<circle cx="356.11" cy="1134.33" r="0.93" />
<circle cx="325.67" cy="873.22" r="0.93" />
<circle cx="302.33" cy="1104.89" r="0.93" />
<circle cx="290.33" cy="899.11" r="0.93" />
<circle cx="518.12" cy="952.88" r="0.88" />
<circle cx="490.88" cy="862.12" r="0.88" />
<circle cx="455.88" cy="911.12" r="0.88" />
<circle cx="412" cy="979.5" r="0.88" />
<circle cx="380.12" cy="1000.88" r="0.88" />
<circle cx="358.5" cy="881" r="0.88" />
<circle cx="348" cy="866.5" r="0.88" />
<circle cx="337.88" cy="845.12" r="0.88" />
<circle cx="534.71" cy="1042" r="0.82" />
<circle cx="530.29" cy="953" r="0.82" />
<circle cx="510.29" cy="959" r="0.82" />
<circle cx="492.43" cy="1066.14" r="0.82" />
<circle cx="460" cy="944.71" r="0.82" />
<circle cx="448.29" cy="955" r="0.82" />
<circle cx="440" cy="1025" r="0.82" />
<circle cx="434.14" cy="1145.57" r="0.82" />
<circle cx="422" cy="1010.29" r="0.82" />
<circle cx="418" cy="973" r="0.82" />
<circle cx="364.71" cy="875.14" r="0.82" />
<circle cx="316.14" cy="851.71" r="0.82" />
<circle cx="316" cy="939" r="0.82" />
<circle cx="306" cy="1109" r="0.82" />
<circle cx="298.29" cy="1096.14" r="0.82" />
<circle cx="292" cy="886" r="0.82" />
<circle cx="219.14" cy="998.29" r="0.82" />
<circle cx="211.29" cy="956" r="0.82" />
<circle cx="200" cy="1029" r="0.82" />
<circle cx="593" cy="1003.5" r="0.8" />
<circle cx="543.17" cy="893.67" r="0.8" />
<circle cx="536.5" cy="1051" r="0.8" />
<circle cx="532.17" cy="942.17" r="0.8" />
<circle cx="504.5" cy="1032" r="0.8" />
<circle cx="500.5" cy="797" r="0.8" />
<circle cx="497.5" cy="807.5" r="0.8" />
<circle cx="493.17" cy="1058" r="0.8" />
<circle cx="491.33" cy="1074.33" r="0.8" />
<circle cx="459.5" cy="1113" r="0.8" />
<circle cx="443.83" cy="974.83" r="0.8" />
<circle cx="434.5" cy="932" r="0.8" />
<circle cx="397.5" cy="429" r="0.8" />
<circle cx="380" cy="989.5" r="0.8" />
<circle cx="358.83" cy="868.17" r="0.8" />
<circle cx="287.17" cy="875.17" r="0.8" />
<circle cx="224.83" cy="1004.5" r="0.8" />
<circle cx="182.83" cy="1013.17" r="0.8" />
<circle cx="518.4" cy="1057.2" r="0.8" />
<circle cx="503.6" cy="1038.8" r="0.8" />
<circle cx="500.2" cy="1045.8" r="0.8" />
<circle cx="490.6" cy="807.8" r="0.8" />
<circle cx="449.4" cy="1153.8" r="0.8" />
<circle cx="445.4" cy="920.8" r="0.8" />
<circle cx="443.6" cy="1097.2" r="0.8" />
<circle cx="440.4" cy="629.2" r="0.8" />
<circle cx="423.6" cy="1022.2" r="0.8" />
<circle cx="413.4" cy="991.8" r="0.8" />
<circle cx="377.8" cy="963.4" r="0.8" />
<circle cx="367.2" cy="984.4" r="0.8" />
<circle cx="363.2" cy="940.4" r="0.8" />
<circle cx="361.4" cy="1112.8" r="0.8" />
<circle cx="331.4" cy="1147.2" r="0.8" />
<circle cx="238.2" cy="1042.6" r="0.8" />
<circle cx="210.6" cy="964.8" r="0.8" />
<circle cx="194.4" cy="940.8" r="0.8" />
<circle cx="596.25" cy="955" r="0.8" />
<circle cx="588.25" cy="994" r="0.8" />
<circle cx="562" cy="898.25" r="0.8" />
<circle cx="553.5" cy="891.5" r="0.8" />
<circle cx="543.5" cy="1047.5" r="0.8" />
<circle cx="540.5" cy="842.5" r="0.8" />
<circle cx="536" cy="843.75" r="0.8" />
<circle cx="530.5" cy="1062.5" r="0.8" />
<circle cx="529.5" cy="1056.5" r="0.8" />
<circle cx="520.5" cy="1062.5" r="0.8" />
<circle cx="519.5" cy="828.5" r="0.8" />
<circle cx="510.5" cy="971.5" r="0.8" />
<circle cx="498" cy="1059.5" r="0.8" />
<circle cx="488.5" cy="871" r="0.8" />
<circle cx="461.75" cy="928" r="0.8" />
<circle cx="451.5" cy="920.5" r="0.8" />
<circle cx="448.75" cy="1030.75" r="0.8" />
<circle cx="443.5" cy="1033.5" r="0.8" />
<circle cx="442.25" cy="1121.5" r="0.8" />
<circle cx="439.5" cy="1044.5" r="0.8" />
<circle cx="434.25" cy="941" r="0.8" />
<circle cx="431.5" cy="1117.5" r="0.8" />
<circle cx="429.75" cy="966" r="0.8" />
<circle cx="428.25" cy="937" r="0.8" />
<circle cx="425.5" cy="916.5" r="0.8" />
<circle cx="413.25" cy="959" r="0.8" />
<circle cx="408.75" cy="1028" r="0.8" />
<circle cx="404.5" cy="1110.5" r="0.8" />
<circle cx="392.5" cy="1142.5" r="0.8" />
<circle cx="391.25" cy="1040" r="0.8" />
<circle cx="380" cy="915.5" r="0.8" />
<circle cx="376.5" cy="900.5" r="0.8" />
<circle cx="343.5" cy="822.5" r="0.8" />
<circle cx="339.5" cy="855.5" r="0.8" />
<circle cx="321" cy="1124.5" r="0.8" />
<circle cx="317.75" cy="897.25" r="0.8" />
<circle cx="315.75" cy="1027.25" r="0.8" />
<circle cx="312.5" cy="1101.5" r="0.8" />
<circle cx="307.5" cy="822" r="0.8" />
<circle cx="306.5" cy="916.5" r="0.8" />
<circle cx="226.5" cy="917.5" r="0.8" />
<circle cx="225.5" cy="907.5" r="0.8" />
<circle cx="209.5" cy="973.5" r="0.8" />
<circle cx="542.67" cy="1041.67" r="0.8" />
<circle cx="536.67" cy="1046.67" r="0.8" />
<circle cx="534.67" cy="855.33" r="0.8" />
<circle cx="526.33" cy="947.67" r="0.8" />
<circle cx="519.33" cy="1049.67" r="0.8" />
<circle cx="515.33" cy="944.67" r="0.8" />
<circle cx="496.67" cy="799.33" r="0.8" />
<circle cx="490" cy="1052" r="0.8" />
<circle cx="485.33" cy="866.33" r="0.8" />
<circle cx="467.67" cy="926.67" r="0.8" />
<circle cx="464.67" cy="1098.67" r="0.8" />
<circle cx="460.67" cy="1103.67" r="0.8" />
<circle cx="456.67" cy="915.33" r="0.8" />
<circle cx="273" cy="532.91" r="2.6" />
<circle cx="403" cy="532.91" r="2.6" />
</g>
</svg>