<svg xmlns="http://www.w3.org/2000/svg" version="1.1" viewBox="0 0 2135 1324" width="2135" height="1324">
<rect width="100%" height="100%" fill="white" />
<g id="outline" stroke="black" stroke-width="1.48" stroke-linecap="round" stroke-linejoin="round" fill="none">
<polyline points="42,717.5 42,744.5 55.75,767.69 83.25,787.06 124.5,802.62 179.5,814.38 242.88,823.62 314.62,830.38 394.75,834.62 483.25,836.38 544.56,838.81 578.69,841.94 585.62,845.75 565.38,850.25 647.5,853.62 832,855.88 1118.88,857 1508.12,857 1800.06,839.12 1994.69,803.38 2092,749.75 2092,678.25 1987,624.62 1777,588.88 1462,571 1042,571 726.94,572.31 516.81,574.94 411.62,578.88 411.38,584.12 397.38,590.06 369.62,596.69 328.12,604 272.88,612 222.19,621.31 176.06,631.94 134.5,643.88 97.5,657.12 69.75,673.81 51.25,693.94 42,717.5" />
<polyline points="126.12,1019 136.88,1031 156.25,1043.75 184.25,1057.25 220.88,1071.5 266.12,1086.5 317.75,1100.94 375.75,1114.81 440.12,1128.12 510.88,1140.88 586.88,1152.75 668.12,1163.75 754.62,1173.88 846.38,1183.12 951.5,1189.38 1070,1192.62 1201.88,1192.88 1347.12,1190.12 1460.5,1186.69 1542,1182.56 1591.62,1177.75 1609.38,1172.25 1624.31,1163.69 1636.44,1152.06 1645.75,1137.38 1652.25,1119.62 1662.25,1105.62 1675.75,1095.38 1692.75,1088.88 1713.25,1086.12 1734.38,1081.25 1756.12,1074.25 1778.5,1065.12 1801.5,1053.88 1818.94,1052 1830.81,1059.5 1837.12,1076.38 1837.88,1102.62 1841.94,1126.38 1849.31,1147.62 1860,1166.38 1874,1182.62 1888.12,1192.25 1902.38,1195.25 1916.75,1191.62 1931.25,1181.38 1940.25,1171.31 1943.75,1161.44 1941.75,1151.75 1934.25,1142.25 1929.12,1129.56 1926.38,1113.69 1926,1094.62 1928,1072.38 1934.56,1055 1945.69,1042.5 1961.38,1034.88 1981.62,1032.12 2001.81,1025.69 2021.94,1015.56 2042,1001.75 2062,984.25 2077,964.88 2087,943.62 2092,920.5 2092,895.5 1994.31,876.75 1798.94,864.25 1505.88,858 1115.12,858 801.19,863.25 564.06,873.75 403.75,889.5 320.25,910.5 253.44,926.44 203.31,937.31 169.88,943.12 153.12,943.88 139.44,947.94 128.81,955.31 121.25,966 116.75,980 116.06,993.5 119.19,1006.5 126.12,1019" />
<polyline points="389.38,850.75 389.62,851.25 389.94,851.62 390.31,851.88 390.75,852 391.25,852 391.69,852.06 392.06,852.19 392.38,852.38 392.62,852.62 392.81,853.06 392.94,853.69 393,854.5 393,855.5 393.06,856.25 393.19,856.75 393.38,857 393.62,857 394,857.19 394.5,857.56 395.12,858.12 395.88,858.88 396.62,859.44 397.38,859.81 398.12,860 398.88,860 399.44,859.81 399.81,859.44 400,858.88 400,858.12 399.94,857.5 399.81,857 399.62,856.62 399.38,856.38 399.06,856.19 398.69,856.06 398.25,856 397.75,856 397.19,855.81 396.56,855.44 395.88,854.88 395.12,854.12 394.5,853.56 394,853.19 393.62,853 393.38,853 393.06,852.81 392.69,852.44 392.25,851.88 391.75,851.12 391.25,850.56 390.75,850.19 390.25,850 389.75,850 389.44,850.12 389.31,850.38 389.38,850.75" />
<polyline points="1718.75,311.75 1719.25,312.25 1719.62,312.88 1719.88,313.62 1720,314.5 1720,315.5 1719.88,316.44 1719.62,317.31 1719.25,318.12 1718.75,318.88 1718.25,319.38 1717.75,319.62 1717.25,319.62 1716.75,319.38 1716.31,319.31 1715.94,319.44 1715.62,319.75 1715.38,320.25 1714.94,320.62 1714.31,320.88 1713.5,321 1712.5,321 1711.69,320.94 1711.06,320.81 1710.62,320.62 1710.38,320.38 1710.19,319.94 1710.06,319.31 1710,318.5 1710,317.5 1710.06,316.69 1710.19,316.06 1710.38,315.62 1710.62,315.38 1710.88,315.25 1711.12,315.25 1711.38,315.38 1711.62,315.62 1711.81,315.62 1711.94,315.38 1712,314.88 1712,314.12 1712.06,313.5 1712.19,313 1712.38,312.62 1712.62,312.38 1713.12,312.12 1713.88,311.88 1714.88,311.62 1716.12,311.38 1717.19,311.31 1718.06,311.44 1718.75,311.75" />
<polyline points="2092,494.62 2092,444.38 2081.5,400.81 2060.5,363.94 2029,333.75 1987,310.25 1949.19,291.88 1915.56,278.62 1886.12,270.5 1860.88,267.5 1838.75,263.81 1819.75,259.44 1803.88,254.38 1791.12,248.62 1775.69,244.88 1757.56,243.12 1736.75,243.38 1713.25,245.62 1687.88,239.25 1660.62,224.25 1631.5,200.62 1600.5,168.38 1560.75,142.75 1512.25,123.75 1455,111.38 1389,105.62 1318.69,102.81 1244.06,102.94 1165.12,106 1081.88,112 988.31,120.88 884.44,132.62 770.25,147.25 645.75,164.75 546.25,176.94 471.75,183.81 422.25,185.38 397.75,181.62 376.62,180.44 358.88,181.81 344.5,185.75 333.5,192.25 323.12,203 313.38,218 304.25,237.25 295.75,260.75 281.38,282.19 261.12,301.56 235,318.88 203,334.12 176.44,348.06 155.31,360.69 139.62,372 129.38,382 122.19,390.81 118.06,398.44 117,404.88 119,410.12 135.06,417.88 165.19,428.12 209.38,440.88 267.62,456.12 314.81,473.25 350.94,492.25 376,513.12 390,535.88 505.56,552.94 722.69,564.31 1041.38,570 1461.62,570 1776.81,557.44 1986.94,532.31 2092,494.62" />
<polyline points="2011,1201.12 2011,1201.88 2011.06,1202.44 2011.19,1202.81 2011.38,1203 2011.62,1203 2011.94,1203.12 2012.31,1203.38 2012.75,1203.75 2013.25,1204.25 2013.62,1204.81 2013.88,1205.44 2014,1206.12 2014,1206.88 2014.12,1207.69 2014.38,1208.56 2014.75,1209.5 2015.25,1210.5 2015.69,1211.31 2016.06,1211.94 2016.38,1212.38 2016.62,1212.62 2017.19,1212.81 2018.06,1212.94 2019.25,1213 2020.75,1213 2021.88,1212.88 2022.62,1212.62 2023,1212.25 2023,1211.75 2022.94,1211.31 2022.81,1210.94 2022.62,1210.62 2022.38,1210.38 2022.25,1210.06 2022.25,1209.69 2022.38,1209.25 2022.62,1208.75 2022.81,1208.25 2022.94,1207.75 2023,1207.25 2023,1206.75 2022.62,1206.19 2021.88,1205.56 2020.75,1204.88 2019.25,1204.12 2018.06,1203.44 2017.19,1202.81 2016.62,1202.25 2016.38,1201.75 2015.88,1201.31 2015.12,1200.94 2014.12,1200.62 2012.88,1200.38 2011.94,1200.38 2011.31,1200.62 2011,1201.12" />
</g>
<g id="eye-outline" stroke="black" stroke-width="1.48" stroke-linecap="round" stroke-linejoin="round" fill="none">
<polyline points="1674.17,323.06 1674.79,325.84 1676.61,328.52 1679.57,331.02 1683.57,333.25 1688.48,335.13 1694.13,336.6 1700.32,337.61 1706.85,338.12 1713.5,338.12 1720.03,337.61 1726.22,336.6 1731.87,335.13 1736.78,333.25 1740.78,331.02 1743.74,328.52 1745.56,325.84 1746.17,323.06" />
<polyline points="1674.17,323.06 1674.79,320.28 1676.61,317.6 1679.57,315.1 1683.57,312.88 1688.48,311 1694.13,309.53 1700.32,308.52 1706.85,308.01 1713.5,308.01 1720.03,308.52 1726.22,309.53 1731.87,311 1736.78,312.88 1740.78,315.1 1743.74,317.6 1745.56,320.28 1746.17,323.06" />
<polyline points="1192.77,287.37 1192.97,288.29 1193.58,289.19 1194.56,290.02 1195.9,290.76 1197.54,291.39 1199.42,291.88 1201.48,292.21 1203.66,292.39 1205.87,292.39 1208.05,292.21 1210.12,291.88 1212,291.39 1213.63,290.76 1214.97,290.02 1215.96,289.19 1216.56,288.29 1216.77,287.37" />
<polyline points="1192.77,287.37 1192.97,286.44 1193.58,285.55 1194.56,284.71 1195.9,283.97 1197.54,283.34 1199.42,282.86 1201.48,282.52 1203.66,282.35 1205.87,282.35 1208.05,282.52 1210.12,282.86 1212,283.34 1213.63,283.97 1214.97,284.71 1215.96,285.55 1216.56,286.44 1216.77,287.37" />
<polyline points="1242.85,261.57 1243.1,262.71 1243.85,263.82 1245.07,264.85 1246.72,265.76 1248.74,266.54 1251.06,267.14 1253.62,267.56 1256.3,267.77 1259.04,267.77 1261.73,267.56 1264.28,267.14 1266.61,266.54 1268.63,265.76 1270.28,264.85 1271.5,263.82 1272.24,262.71 1272.5,261.57" />
<polyline points="1242.85,261.57 1243.1,260.42 1243.85,259.32 1245.07,258.29 1246.72,257.37 1248.74,256.6 1251.06,256 1253.62,255.58 1256.3,255.37 1259.04,255.37 1261.73,255.58 1264.28,256 1266.61,256.6 1268.63,257.37 1270.28,258.29 1271.5,259.32 1272.24,260.42 1272.5,261.57" />
<polyline points="1838.6,640.04 1839.21,642.82 1841.03,645.51 1843.99,648 1848,650.23 1852.91,652.11 1858.55,653.58 1864.75,654.59 1871.28,655.1 1877.92,655.1 1884.45,654.59 1890.65,653.58 1896.29,652.11 1901.2,650.23 1905.21,648 1908.17,645.51 1909.99,642.82 1910.6,640.04" />
<polyline points="1838.6,640.04 1839.21,637.27 1841.03,634.58 1843.99,632.08 1848,629.86 1852.91,627.98 1858.55,626.51 1864.75,625.5 1871.28,624.99 1877.92,624.99 1884.45,625.5 1890.65,626.51 1896.29,627.98 1901.2,629.86 1905.21,632.08 1908.17,634.58 1909.99,637.27 1910.6,640.04" />
<polyline points="1269.45,704.52 1269.65,705.44 1270.26,706.34 1271.25,707.17 1272.58,707.91 1274.22,708.54 1276.1,709.03 1278.16,709.36 1280.34,709.54 1282.56,709.54 1284.73,709.36 1286.8,709.03 1288.68,708.54 1290.32,707.91 1291.65,707.17 1292.64,706.34 1293.24,705.44 1293.45,704.52" />
<polyline points="1269.45,704.52 1269.65,703.59 1270.26,702.7 1271.25,701.86 1272.58,701.12 1274.22,700.5 1276.1,700.01 1278.16,699.67 1280.34,699.5 1282.56,699.5 1284.73,699.67 1286.8,700.01 1288.68,700.5 1290.32,701.12 1291.65,701.86 1292.64,702.7 1293.24,703.59 1293.45,704.52" />
<polyline points="1258,632.17 1258.2,633.1 1258.81,633.99 1259.8,634.83 1261.13,635.57 1262.77,636.19 1264.65,636.68 1266.72,637.02 1268.89,637.19 1271.11,637.19 1273.28,637.02 1275.35,636.68 1277.23,636.19 1278.87,635.57 1280.2,634.83 1281.19,633.99 1281.8,633.1 1282,632.17" />
<polyline points="1258,632.17 1258.2,631.25 1258.81,630.35 1259.8,629.52 1261.13,628.78 1262.77,628.15 1264.65,627.66 1266.72,627.32 1268.89,627.15 1271.11,627.15 1273.28,627.32 1275.35,627.66 1277.23,628.15 1278.87,628.78 1280.2,629.52 1281.19,630.35 1281.8,631.25 1282,632.17" />
<polyline points="1666.77,813.59 1667.38,816.37 1669.2,819.05 1672.16,821.55 1676.16,823.78 1681.07,825.66 1686.72,827.12 1692.91,828.13 1699.44,828.65 1706.09,828.65 1712.62,828.13 1718.81,827.12 1724.46,825.66 1729.37,823.78 1733.37,821.55 1736.33,819.05 1738.15,816.37 1738.77,813.59" />
<polyline points="1666.77,813.59 1667.38,810.81 1669.2,808.13 1672.16,805.63 1676.16,803.4 1681.07,801.52 1686.72,800.05 1692.91,799.05 1699.44,798.53 1706.09,798.53 1712.62,799.05 1718.81,800.05 1724.46,801.52 1729.37,803.4 1733.37,805.63 1736.33,808.13 1738.15,810.81 1738.77,813.59" />
<polyline points="1760.51,1051.56 1760.82,1052.96 1761.74,1054.32 1763.23,1055.58 1765.25,1056.7 1767.73,1057.65 1770.57,1058.39 1773.7,1058.9 1776.99,1059.16 1780.34,1059.16 1783.64,1058.9 1786.76,1058.39 1789.61,1057.65 1792.08,1056.7 1794.1,1055.58 1795.6,1054.32 1796.51,1052.96 1796.82,1051.56" />
<polyline points="1760.51,1051.56 1760.82,1050.16 1761.74,1048.81 1763.23,1047.55 1765.25,1046.43 1767.73,1045.48 1770.57,1044.74 1773.7,1044.23 1776.99,1043.97 1780.34,1043.97 1783.64,1044.23 1786.76,1044.74 1789.61,1045.48 1792.08,1046.43 1794.1,1047.55 1795.6,1048.81 1796.51,1050.16 1796.82,1051.56" />
</g>
<g id="sucker-rings" stroke="black" stroke-width="1.48" stroke-linecap="round" stroke-linejoin="round" fill="none">
<circle cx="371.5" cy="465.33" r="4.2" />
<circle cx="371.5" cy="465.33" r="2.02" />
<circle cx="129.7" cy="669" r="4.2" />
<circle cx="129.7" cy="669" r="2.02" />
<circle cx="118.93" cy="672.36" r="4.2" />
<circle cx="118.93" cy="672.36" r="2.02" />
<circle cx="108.29" cy="674.19" r="4.2" />
<circle cx="108.29" cy="674.19" r="2.02" />
<circle cx="42.4" cy="689.2" r="4.2" />
<circle cx="42.4" cy="689.2" r="2.02" />
<circle cx="42.8" cy="770.8" r="4.2" />
<circle cx="42.8" cy="770.8" r="2.02" />
<circle cx="48.83" cy="771.17" r="4.2" />
<circle cx="48.83" cy="771.17" r="2.02" />
<circle cx="149.4" cy="959.8" r="4.2" />
<circle cx="149.4" cy="959.8" r="2.02" />
<circle cx="130.2" cy="974.5" r="4.2" />
<circle cx="130.2" cy="974.5" r="2.02" />
<circle cx="174.21" cy="1042" r="4.2" />
<circle cx="174.21" cy="1042" r="2.02" />
<circle cx="187.22" cy="1047.89" r="4.2" />
<circle cx="187.22" cy="1047.89" r="2.02" />
<circle cx="199.64" cy="1047" r="4.2" />
<circle cx="199.64" cy="1047" r="2.02" />
<circle cx="206.55" cy="1051.95" r="4.2" />
<circle cx="206.55" cy="1051.95" r="2.02" />
<circle cx="217.88" cy="1055.71" r="4.2" />
<circle cx="217.88" cy="1055.71" r="2.02" />
<circle cx="234" cy="1060" r="4.2" />
<circle cx="234" cy="1060" r="2.02" />
<circle cx="241" cy="1062" r="4.2" />
<circle cx="241" cy="1062" r="2.02" />
<circle cx="273.85" cy="1078.25" r="4.2" />
<circle cx="273.85" cy="1078.25" r="2.02" />
<circle cx="395.2" cy="855.69" r="4.82" />
<circle cx="395.2" cy="855.69" r="2.31" />
<circle cx="504.25" cy="822.62" r="4.2" />
<circle cx="504.25" cy="822.62" r="2.02" />
<circle cx="1718.31" cy="296.09" r="4.62" />
<circle cx="1718.31" cy="296.09" r="2.22" />
<circle cx="1735.24" cy="321.36" r="10.35" />
<circle cx="1735.24" cy="321.36" r="4.97" />
<circle cx="1879.85" cy="1158.62" r="6.08" />
<circle cx="1879.85" cy="1158.62" r="2.92" />
<circle cx="2017.57" cy="1206.6" r="6.85" />
<circle cx="2017.57" cy="1206.6" r="3.29" />
</g>
<g id="stipple" fill="black" stroke="none">
<circle cx="214.67" cy="386.27" r="1.57" />
<circle cx="202.62" cy="406.38" r="1.46" />
<circle cx="233.47" cy="410.98" r="1.85" />
<circle cx="233.62" cy="428.43" r="1.85" />
<circle cx="262.79" cy="412.86" r="1.52" />
<circle cx="367.71" cy="401.33" r="1.85" />
<circle cx="386.09" cy="428.85" r="1.85" />
<circle cx="409.64" cy="394.09" r="1.35" />
<circle cx="441.89" cy="421.42" r="1.77" />
<circle cx="446" cy="455.5" r="1" />
<circle cx="439" cy="463.85" r="1.46" />
<circle cx="496.08" cy="491.72" r="1.85" />
<circle cx="507.85" cy="501.23" r="1.46" />
<circle cx="514.22" cy="479.13" r="1.85" />
<circle cx="513.64" cy="447.55" r="1.35" />
<circle cx="502" cy="425.5" r="1" />
<circle cx="512.71" cy="408.5" r="1.52" />
<circle cx="536.46" cy="429.85" r="1.46" />
<circle cx="552" cy="435.5" r="1.62" />
<circle cx="547.38" cy="443.62" r="1.46" />
<circle cx="569.15" cy="436.4" r="1.82" />
<circle cx="565.29" cy="426.5" r="1.52" />
<circle cx="556.75" cy="421.38" r="1.62" />
<circle cx="569.09" cy="403.64" r="1.35" />
<circle cx="582.11" cy="390.89" r="1.72" />
<circle cx="588.5" cy="398.5" r="1.41" />
<circle cx="601.5" cy="384" r="1.85" />
<circle cx="601.5" cy="370.29" r="1.52" />
<circle cx="582.15" cy="364.08" r="1.46" />
<circle cx="564.33" cy="362.89" r="1.22" />
<circle cx="541" cy="362.5" r="1.41" />
<circle cx="540" cy="390.71" r="1.07" />
<circle cx="548" cy="399.8" r="1.28" />
<circle cx="602" cy="417.71" r="1.07" />
<circle cx="607.5" cy="442.5" r="1.52" />
<circle cx="631.64" cy="433.91" r="1.35" />
<circle cx="647.8" cy="434" r="1.28" />
<circle cx="669" cy="438.2" r="1.28" />
<circle cx="690.2" cy="435" r="1.28" />
<circle cx="684.77" cy="461.41" r="1.85" />
<circle cx="672" cy="471.5" r="1.15" />
<circle cx="654.75" cy="462.44" r="1.62" />
<circle cx="654.5" cy="409" r="1" />
<circle cx="642.5" cy="383" r="1.15" />
<circle cx="639.09" cy="368.36" r="1.35" />
<circle cx="646.7" cy="359.7" r="1.28" />
<circle cx="673" cy="363" r="1.46" />
<circle cx="678.91" cy="386.5" r="1.85" />
<circle cx="692.5" cy="390" r="1" />
<circle cx="691.31" cy="399.08" r="1.46" />
<circle cx="703.29" cy="394" r="1.07" />
<circle cx="704.5" cy="386.71" r="1.52" />
<circle cx="711.62" cy="410.38" r="1.46" />
<circle cx="734.1" cy="406.95" r="1.82" />
<circle cx="747.8" cy="410" r="1.28" />
<circle cx="755.88" cy="412.88" r="1.15" />
<circle cx="763" cy="418.5" r="1.72" />
<circle cx="769.71" cy="417.14" r="1.07" />
<circle cx="766.87" cy="412.8" r="1.57" />
<circle cx="761.8" cy="402.5" r="1.28" />
<circle cx="751.5" cy="391.71" r="1.52" />
<circle cx="733.3" cy="386.3" r="1.28" />
<circle cx="746" cy="370.5" r="1.62" />
<circle cx="706.64" cy="348.09" r="1.35" />
<circle cx="741" cy="296.29" r="1.07" />
<circle cx="769.5" cy="308.2" r="1.28" />
<circle cx="787.05" cy="318.91" r="1.85" />
<circle cx="788.5" cy="327" r="1.28" />
<circle cx="800.14" cy="333.33" r="1.85" />
<circle cx="801.83" cy="322.08" r="1.41" />
<circle cx="800.87" cy="315.93" r="1.57" />
<circle cx="794.5" cy="306" r="1.52" />
<circle cx="804.38" cy="297.38" r="1.46" />
<circle cx="811.5" cy="307.5" r="1.41" />
<circle cx="812.59" cy="317.45" r="1.85" />
<circle cx="821.5" cy="318.5" r="0.81" />
<circle cx="824.5" cy="325.12" r="1.15" />
<circle cx="839.33" cy="321.89" r="1.22" />
<circle cx="844.5" cy="332.04" r="1.85" />
<circle cx="844" cy="388.2" r="1.28" />
<circle cx="851.11" cy="397.67" r="1.22" />
<circle cx="840" cy="402" r="1.22" />
<circle cx="826.5" cy="405.8" r="1.28" />
<circle cx="812" cy="391" r="1.22" />
<circle cx="806" cy="401.5" r="1.15" />
<circle cx="805.3" cy="407.3" r="1.28" />
<circle cx="800.4" cy="396.4" r="1.57" />
<circle cx="800.45" cy="386.36" r="1.35" />
<circle cx="786.83" cy="397.12" r="1.85" />
<circle cx="779" cy="412.2" r="1.28" />
<circle cx="793.78" cy="416.48" r="1.85" />
<circle cx="801.07" cy="431.86" r="1.52" />
<circle cx="809.71" cy="433.5" r="1.52" />
<circle cx="818.91" cy="435.36" r="1.35" />
<circle cx="818.33" cy="448" r="1.72" />
<circle cx="831.05" cy="440.75" r="1.82" />
<circle cx="841.53" cy="451.13" r="1.57" />
<circle cx="842" cy="458.8" r="1.28" />
<circle cx="843.18" cy="466.32" r="1.85" />
<circle cx="835.67" cy="469.89" r="1.22" />
<circle cx="830.09" cy="458.91" r="1.85" />
<circle cx="823" cy="465.5" r="1.28" />
<circle cx="852.09" cy="457.39" r="1.85" />
<circle cx="853" cy="471.83" r="1.41" />
<circle cx="864.29" cy="472.5" r="1.52" />
<circle cx="870.67" cy="463.89" r="1.22" />
<circle cx="868" cy="456" r="1.85" />
<circle cx="864" cy="447" r="1.22" />
<circle cx="877" cy="448" r="1.22" />
<circle cx="885" cy="443" r="1.22" />
<circle cx="886.5" cy="464.5" r="0.81" />
<circle cx="907" cy="466" r="1.22" />
<circle cx="844.11" cy="433.67" r="1.22" />
<circle cx="810.84" cy="419.65" r="1.85" />
<circle cx="777.53" cy="431.82" r="1.85" />
<circle cx="766.79" cy="471.36" r="1.52" />
<circle cx="758.37" cy="479.26" r="1.85" />
<circle cx="744.1" cy="485.7" r="1.82" />
<circle cx="740.09" cy="472.91" r="1.85" />
<circle cx="731.5" cy="479.33" r="1.72" />
<circle cx="792.17" cy="485.92" r="1.41" />
<circle cx="792.4" cy="471.3" r="1.82" />
<circle cx="833.12" cy="544.88" r="1.67" />
<circle cx="827.56" cy="564.33" r="1.22" />
<circle cx="875.57" cy="587.19" r="1.85" />
<circle cx="886.57" cy="568.79" r="1.85" />
<circle cx="924.83" cy="595.5" r="1.85" />
<circle cx="940.72" cy="595.83" r="1.72" />
<circle cx="950" cy="597.5" r="1" />
<circle cx="960.91" cy="600.64" r="1.35" />
<circle cx="963.4" cy="593.4" r="1.57" />
<circle cx="955.33" cy="581.89" r="1.22" />
<circle cx="976.43" cy="576.71" r="1.07" />
<circle cx="1000" cy="593.71" r="1.07" />
<circle cx="1009.91" cy="602.64" r="1.35" />
<circle cx="1014" cy="612.8" r="1.28" />
<circle cx="1005.25" cy="616.56" r="1.62" />
<circle cx="1020.38" cy="624.38" r="1.46" />
<circle cx="1029.18" cy="634.82" r="1.35" />
<circle cx="1040.5" cy="629.22" r="1.72" />
<circle cx="1053" cy="626" r="1.22" />
<circle cx="1053.71" cy="634" r="1.07" />
<circle cx="1067.13" cy="629.47" r="1.57" />
<circle cx="1076.42" cy="640.25" r="1.41" />
<circle cx="1082.5" cy="629.29" r="1.52" />
<circle cx="1097.8" cy="624.9" r="1.28" />
<circle cx="1101.3" cy="638.7" r="1.28" />
<circle cx="1092.45" cy="642.77" r="1.85" />
<circle cx="1081.89" cy="652.33" r="1.22" />
<circle cx="1096" cy="656.8" r="1.28" />
<circle cx="1091.75" cy="670.55" r="1.82" />
<circle cx="1083.5" cy="684.5" r="0.81" />
<circle cx="1071.8" cy="686" r="1.28" />
<circle cx="1059.09" cy="688.36" r="1.35" />
<circle cx="1058.12" cy="677.12" r="1.15" />
<circle cx="1047" cy="668.71" r="1.07" />
<circle cx="1046.53" cy="659.87" r="1.57" />
<circle cx="1039" cy="644.71" r="1.07" />
<circle cx="1017.12" cy="646.12" r="1.15" />
<circle cx="1027.53" cy="609.65" r="1.67" />
<circle cx="1045.62" cy="611.62" r="1.46" />
<circle cx="1056.71" cy="618" r="1.07" />
<circle cx="1058.2" cy="600.6" r="0.91" />
<circle cx="1064.56" cy="594.67" r="1.22" />
<circle cx="1071.11" cy="601.67" r="1.22" />
<circle cx="1078" cy="597.5" r="1" />
<circle cx="1086.12" cy="588.88" r="1.15" />
<circle cx="1083.62" cy="575.62" r="1.46" />
<circle cx="1081.17" cy="570.83" r="1" />
<circle cx="1079.78" cy="563.55" r="1.85" />
<circle cx="1081.29" cy="554.5" r="1.52" />
<circle cx="1085.94" cy="548.06" r="1.85" />
<circle cx="1089.61" cy="555.25" r="1.85" />
<circle cx="1090.79" cy="561.74" r="1.77" />
<circle cx="1089.64" cy="570.91" r="1.35" />
<circle cx="1100.1" cy="569.65" r="1.82" />
<circle cx="1100.33" cy="575.5" r="1.41" />
<circle cx="1109" cy="567.5" r="1" />
<circle cx="1110.35" cy="561.7" r="1.85" />
<circle cx="1119.14" cy="562.02" r="1.85" />
<circle cx="1117.47" cy="554.23" r="1.85" />
<circle cx="1121.04" cy="547.45" r="1.85" />
<circle cx="1123.5" cy="539.5" r="1.85" />
<circle cx="1131.67" cy="538.11" r="1.22" />
<circle cx="1139.75" cy="535.45" r="1.82" />
<circle cx="1147.36" cy="534.91" r="1.35" />
<circle cx="1155.91" cy="539.29" r="1.85" />
<circle cx="1152" cy="546" r="1.67" />
<circle cx="1155.89" cy="552.55" r="1.85" />
<circle cx="1161" cy="546" r="1.85" />
<circle cx="1165.67" cy="550.78" r="1.22" />
<circle cx="1167.14" cy="555.81" r="1.85" />
<circle cx="1174.5" cy="554" r="1.15" />
<circle cx="1175.97" cy="560.33" r="1.85" />
<circle cx="1182.89" cy="565.67" r="1.22" />
<circle cx="1188" cy="562" r="1.07" />
<circle cx="1184.67" cy="555.73" r="1.57" />
<circle cx="1187.12" cy="550.12" r="1.15" />
<circle cx="1193.8" cy="552.93" r="1.57" />
<circle cx="1193.78" cy="544.5" r="1.72" />
<circle cx="1191.17" cy="535.92" r="1.41" />
<circle cx="1183.6" cy="536.6" r="1.57" />
<circle cx="1176.81" cy="544.9" r="1.85" />
<circle cx="1165.59" cy="538.41" r="1.67" />
<circle cx="1160.12" cy="561.41" r="1.67" />
<circle cx="1151.38" cy="560.05" r="1.85" />
<circle cx="1145.17" cy="552.62" r="1.85" />
<circle cx="1142.55" cy="544.45" r="1.85" />
<circle cx="1131.77" cy="547.42" r="1.85" />
<circle cx="1137.8" cy="560.03" r="1.85" />
<circle cx="1140.12" cy="570.88" r="1.15" />
<circle cx="1148.5" cy="570.5" r="1.41" />
<circle cx="1141.62" cy="584.62" r="1.46" />
<circle cx="1148" cy="597.5" r="1" />
<circle cx="1145.71" cy="606" r="1.07" />
<circle cx="1139" cy="616.5" r="1" />
<circle cx="1129" cy="613.2" r="1.28" />
<circle cx="1128.11" cy="621.33" r="1.22" />
<circle cx="1127.4" cy="629.2" r="0.91" />
<circle cx="1135.2" cy="635.5" r="1.28" />
<circle cx="1146.75" cy="630.44" r="1.62" />
<circle cx="1151.5" cy="617.5" r="1.41" />
<circle cx="1160.38" cy="607.62" r="1.46" />
<circle cx="1165.12" cy="618.88" r="1.15" />
<circle cx="1160.91" cy="629.64" r="1.35" />
<circle cx="1160.67" cy="637.11" r="1.22" />
<circle cx="1169.5" cy="643.2" r="1.28" />
<circle cx="1181.53" cy="628.65" r="1.67" />
<circle cx="1184.2" cy="610.4" r="0.91" />
<circle cx="1176.5" cy="607.5" r="1.41" />
<circle cx="1187.36" cy="592.09" r="1.35" />
<circle cx="1187.82" cy="572.18" r="1.35" />
<circle cx="1173.43" cy="568.71" r="1.07" />
<circle cx="1164.6" cy="587.4" r="1.57" />
<circle cx="1129.84" cy="568" r="1.85" />
<circle cx="1121" cy="571" r="1.22" />
<circle cx="1116.5" cy="582" r="1" />
<circle cx="1126.75" cy="601.44" r="1.62" />
<circle cx="1118.88" cy="610.12" r="1.15" />
<circle cx="1107.71" cy="612.86" r="1.85" />
<circle cx="1100.5" cy="599.8" r="1.28" />
<circle cx="1091.29" cy="607" r="1.07" />
<circle cx="1075.53" cy="610.66" r="1.85" />
<circle cx="1071" cy="587.5" r="1.15" />
<circle cx="1066.38" cy="578.38" r="1.46" />
<circle cx="1072.62" cy="571.62" r="1.46" />
<circle cx="1065.83" cy="564.92" r="1.41" />
<circle cx="1065.5" cy="559.5" r="1.85" />
<circle cx="1064.62" cy="552.9" r="1.85" />
<circle cx="1062.55" cy="543.66" r="1.85" />
<circle cx="1073.67" cy="550.05" r="1.85" />
<circle cx="1092.62" cy="542.62" r="1.46" />
<circle cx="1101.21" cy="544" r="1.85" />
<circle cx="1110.5" cy="542.22" r="1.72" />
<circle cx="1111" cy="548.36" r="1.52" />
<circle cx="1104.03" cy="553.79" r="1.85" />
<circle cx="1100.64" cy="562.02" r="1.85" />
<circle cx="1105.5" cy="532.5" r="1.41" />
<circle cx="1059.61" cy="502.56" r="1.85" />
<circle cx="1049.09" cy="539.18" r="1.35" />
<circle cx="1049.61" cy="548.83" r="1.85" />
<circle cx="1050.7" cy="551.62" r="1.85" />
<circle cx="1051.97" cy="555.31" r="1.85" />
<circle cx="1055.5" cy="561.67" r="1.72" />
<circle cx="1059.67" cy="570.11" r="1.22" />
<circle cx="1045.11" cy="568.42" r="1.77" />
<circle cx="1042.69" cy="561" r="1.46" />
<circle cx="1033" cy="562.5" r="1.15" />
<circle cx="1036.41" cy="552.41" r="1.85" />
<circle cx="1040.26" cy="545.18" r="1.85" />
<circle cx="1030.12" cy="537.88" r="1.15" />
<circle cx="1015.83" cy="540.92" r="1.41" />
<circle cx="1021.43" cy="558.29" r="1.07" />
<circle cx="1026.36" cy="581.55" r="1.35" />
<circle cx="1014" cy="591" r="1.22" />
<circle cx="1045" cy="598.57" r="1.52" />
<circle cx="1053" cy="585.62" r="1.62" />
<circle cx="1062.86" cy="647.14" r="1.85" />
<circle cx="1068.58" cy="660.75" r="1.41" />
<circle cx="1096.88" cy="688.12" r="1.15" />
<circle cx="1102.5" cy="699" r="1.41" />
<circle cx="1110.71" cy="709" r="1.07" />
<circle cx="1118.5" cy="714.5" r="0.81" />
<circle cx="1115.17" cy="719.08" r="1.41" />
<circle cx="1131" cy="725.71" r="1.07" />
<circle cx="1125.5" cy="737" r="1.15" />
<circle cx="1117.8" cy="759" r="1.28" />
<circle cx="1142.35" cy="757.59" r="1.67" />
<circle cx="1154" cy="769.5" r="1" />
<circle cx="1164" cy="757" r="1.22" />
<circle cx="1169.8" cy="744" r="1.28" />
<circle cx="1154.5" cy="731" r="1" />
<circle cx="1166" cy="714.5" r="1" />
<circle cx="1160.2" cy="700" r="1.28" />
<circle cx="1170.36" cy="684.09" r="1.35" />
<circle cx="1158.64" cy="676.91" r="1.35" />
<circle cx="1142" cy="676" r="1.22" />
<circle cx="1136.03" cy="687.46" r="1.85" />
<circle cx="1129.5" cy="698" r="1.41" />
<circle cx="1136.33" cy="708.75" r="1.41" />
<circle cx="1114.5" cy="687.71" r="1.52" />
<circle cx="1123" cy="678" r="1.22" />
<circle cx="1114.2" cy="664" r="1.28" />
<circle cx="1129" cy="653.17" r="1.41" />
<circle cx="1143.62" cy="646.08" r="1.46" />
<circle cx="1158.81" cy="660.19" r="1.62" />
<circle cx="1183" cy="659.14" r="1.52" />
<circle cx="1180.8" cy="673.4" r="0.91" />
<circle cx="1199.5" cy="681" r="1.15" />
<circle cx="1207.58" cy="686.25" r="1.41" />
<circle cx="1214.31" cy="694" r="1.46" />
<circle cx="1217.36" cy="701.64" r="1.35" />
<circle cx="1225.24" cy="705.8" r="1.85" />
<circle cx="1230.91" cy="712.97" r="1.85" />
<circle cx="1238.21" cy="717.64" r="1.52" />
<circle cx="1248.11" cy="706.33" r="1.22" />
<circle cx="1241" cy="700.5" r="1.15" />
<circle cx="1238" cy="696.29" r="1.07" />
<circle cx="1230.12" cy="693.94" r="1.62" />
<circle cx="1238.85" cy="677.92" r="1.85" />
<circle cx="1237.75" cy="668.75" r="1.15" />
<circle cx="1228.5" cy="666" r="1.28" />
<circle cx="1220.5" cy="669" r="1.41" />
<circle cx="1204.15" cy="668.77" r="1.46" />
<circle cx="1208" cy="646.71" r="1.07" />
<circle cx="1195.33" cy="647.89" r="1.22" />
<circle cx="1200" cy="634" r="1.22" />
<circle cx="1204" cy="626.29" r="1.07" />
<circle cx="1217.4" cy="620.4" r="1.57" />
<circle cx="1214.8" cy="611.6" r="0.91" />
<circle cx="1198.29" cy="609.5" r="1.52" />
<circle cx="1207.33" cy="591.11" r="1.22" />
<circle cx="1217.5" cy="566" r="1.15" />
<circle cx="1206.82" cy="554.45" r="1.35" />
<circle cx="1213.17" cy="523.92" r="1.41" />
<circle cx="1252.68" cy="544.28" r="1.85" />
<circle cx="1269.77" cy="513.54" r="1.85" />
<circle cx="1319.61" cy="531.75" r="1.85" />
<circle cx="1314" cy="545" r="1.22" />
<circle cx="1327.18" cy="567.41" r="1.85" />
<circle cx="1329.5" cy="575" r="1.28" />
<circle cx="1319.7" cy="580" r="1.82" />
<circle cx="1316.91" cy="572.43" r="1.85" />
<circle cx="1320.77" cy="589.85" r="1.46" />
<circle cx="1317" cy="596.5" r="1.72" />
<circle cx="1319.62" cy="603.38" r="1.46" />
<circle cx="1325.57" cy="613.93" r="1.85" />
<circle cx="1333" cy="600.5" r="1.28" />
<circle cx="1339.39" cy="604.28" r="1.72" />
<circle cx="1342.15" cy="601.69" r="1.85" />
<circle cx="1351.85" cy="600" r="1.46" />
<circle cx="1360.71" cy="603" r="1.07" />
<circle cx="1362.59" cy="608.88" r="1.67" />
<circle cx="1371.24" cy="603.64" r="1.85" />
<circle cx="1372.5" cy="615" r="1.72" />
<circle cx="1367.45" cy="624.64" r="1.35" />
<circle cx="1380" cy="624.42" r="1.85" />
<circle cx="1384.5" cy="612" r="1.72" />
<circle cx="1383.84" cy="601.74" r="1.77" />
<circle cx="1388.75" cy="595.67" r="1.41" />
<circle cx="1380" cy="589" r="1.46" />
<circle cx="1368.5" cy="582.5" r="1.52" />
<circle cx="1363.53" cy="593.69" r="1.85" />
<circle cx="1353.67" cy="587.03" r="1.85" />
<circle cx="1345.67" cy="582.67" r="1.41" />
<circle cx="1333.5" cy="589.5" r="1.52" />
<circle cx="1356.6" cy="573.8" r="0.91" />
<circle cx="1353.81" cy="565.19" r="1.62" />
<circle cx="1353.71" cy="616.93" r="1.85" />
<circle cx="1344" cy="629.8" r="1.28" />
<circle cx="1333.28" cy="629.17" r="1.72" />
<circle cx="1339.2" cy="641" r="1.28" />
<circle cx="1326.46" cy="642.85" r="1.46" />
<circle cx="1327.75" cy="654.58" r="1.41" />
<circle cx="1326.45" cy="659.36" r="1.35" />
<circle cx="1321.8" cy="673.5" r="1.28" />
<circle cx="1329.88" cy="678.12" r="1.15" />
<circle cx="1341.85" cy="680.54" r="1.46" />
<circle cx="1315" cy="689.5" r="1.41" />
<circle cx="1311.89" cy="666" r="1.72" />
<circle cx="1310.92" cy="659.17" r="1.41" />
<circle cx="1299.49" cy="658.18" r="1.85" />
<circle cx="1291" cy="646.5" r="1.28" />
<circle cx="1274.4" cy="659.93" r="1.57" />
<circle cx="1264.65" cy="670.15" r="1.85" />
<circle cx="1258.38" cy="666.75" r="1.15" />
<circle cx="1258.29" cy="658" r="1.07" />
<circle cx="1247" cy="664" r="1.35" />
<circle cx="1261" cy="678.5" r="1.85" />
<circle cx="1265.5" cy="684" r="1.28" />
<circle cx="1275" cy="687.5" r="1" />
<circle cx="1278.36" cy="676.91" r="1.35" />
<circle cx="1287" cy="672.5" r="1.28" />
<circle cx="1285.95" cy="684.19" r="1.85" />
<circle cx="1280.16" cy="703.74" r="1.85" />
<circle cx="1254.4" cy="692.47" r="1.85" />
<circle cx="1266.71" cy="735" r="1.07" />
<circle cx="1221.2" cy="751" r="1.28" />
<circle cx="1192.12" cy="753.88" r="1.15" />
<circle cx="1192" cy="736.8" r="1.28" />
<circle cx="1179.6" cy="724.2" r="0.91" />
<circle cx="1193.73" cy="699.5" r="1.85" />
<circle cx="1227.9" cy="639.95" r="1.82" />
<circle cx="1225.5" cy="625" r="1" />
<circle cx="1233" cy="620" r="1.22" />
<circle cx="1241" cy="630" r="1.22" />
<circle cx="1249.5" cy="622.29" r="1.52" />
<circle cx="1250.09" cy="613.36" r="1.35" />
<circle cx="1245.29" cy="601.5" r="1.52" />
<circle cx="1265" cy="601.4" r="1.85" />
<circle cx="1263" cy="616.92" r="1.85" />
<circle cx="1264" cy="624" r="1.07" />
<circle cx="1272.71" cy="621.71" r="1.67" />
<circle cx="1283.38" cy="622.81" r="1.62" />
<circle cx="1289.76" cy="621.06" r="1.67" />
<circle cx="1284.38" cy="611.05" r="1.85" />
<circle cx="1296.53" cy="611.33" r="1.57" />
<circle cx="1300.64" cy="616.36" r="1.52" />
<circle cx="1307.94" cy="622.08" r="1.85" />
<circle cx="1315.79" cy="629.36" r="1.52" />
<circle cx="1308.21" cy="633.64" r="1.52" />
<circle cx="1306.47" cy="605.67" r="1.57" />
<circle cx="1295.8" cy="600.5" r="1.28" />
<circle cx="1287.94" cy="595.78" r="1.72" />
<circle cx="1303.24" cy="590.96" r="1.85" />
<circle cx="1275.2" cy="582" r="1.28" />
<circle cx="1279.82" cy="570.88" r="1.67" />
<circle cx="1270.16" cy="632.37" r="1.85" />
<circle cx="1257.71" cy="632" r="1.07" />
<circle cx="1249" cy="643.29" r="1.07" />
<circle cx="1370.5" cy="637" r="1" />
<circle cx="1384" cy="654.5" r="1" />
<circle cx="1390.17" cy="677.17" r="1.41" />
<circle cx="1379.67" cy="680.88" r="1.85" />
<circle cx="1396.89" cy="686.67" r="1.22" />
<circle cx="1420.59" cy="692.12" r="1.67" />
<circle cx="1446" cy="688" r="1.22" />
<circle cx="1463.5" cy="703.2" r="1.28" />
<circle cx="1451.5" cy="715" r="1" />
<circle cx="1486" cy="720.5" r="1.28" />
<circle cx="1463.5" cy="749" r="1.15" />
<circle cx="1413.2" cy="736" r="1.28" />
<circle cx="1389.5" cy="747.5" r="0.81" />
<circle cx="1376.58" cy="771.58" r="1.77" />
<circle cx="1386.5" cy="719" r="1" />
<circle cx="1353.12" cy="719.12" r="1.15" />
<circle cx="1413.79" cy="646.21" r="1.52" />
<circle cx="1429.5" cy="637" r="1.85" />
<circle cx="1405.05" cy="625.63" r="1.77" />
<circle cx="1403.08" cy="612.67" r="1.41" />
<circle cx="1404.56" cy="598.44" r="1.85" />
<circle cx="1466.64" cy="652.56" r="1.85" />
<circle cx="1491.11" cy="658.79" r="1.85" />
<circle cx="1511.75" cy="645.58" r="1.41" />
<circle cx="1515.95" cy="659.1" r="1.82" />
<circle cx="1530" cy="669.5" r="1.62" />
<circle cx="1543.39" cy="680.87" r="1.85" />
<circle cx="1531.5" cy="688" r="1" />
<circle cx="1537.5" cy="698" r="1.62" />
<circle cx="1495.54" cy="684.61" r="1.85" />
<circle cx="1575.66" cy="590" r="1.85" />
<circle cx="1597.77" cy="599.62" r="1.46" />
<circle cx="1602.67" cy="611.56" r="1.22" />
<circle cx="1615.1" cy="589.6" r="1.85" />
<circle cx="1632.58" cy="588.78" r="1.85" />
<circle cx="1664.38" cy="582.19" r="1.62" />
<circle cx="1656.42" cy="560.18" r="1.85" />
<circle cx="1632.78" cy="553.94" r="1.85" />
<circle cx="1618.48" cy="552.6" r="1.85" />
<circle cx="1605.62" cy="541.38" r="1.46" />
<circle cx="1578.61" cy="546.25" r="1.85" />
<circle cx="1555.5" cy="555.5" r="1.82" />
<circle cx="1610.29" cy="637" r="1.07" />
<circle cx="1681.67" cy="636.76" r="1.85" />
<circle cx="1696.74" cy="612" r="1.85" />
<circle cx="1709.81" cy="597.85" r="1.85" />
<circle cx="1702.66" cy="591.69" r="1.85" />
<circle cx="1690.73" cy="590.57" r="1.85" />
<circle cx="1699" cy="578.56" r="1.85" />
<circle cx="1713.8" cy="585.09" r="1.85" />
<circle cx="1723.77" cy="597.08" r="1.85" />
<circle cx="1736.68" cy="590.32" r="1.85" />
<circle cx="1742.5" cy="577.5" r="1.41" />
<circle cx="1750" cy="574.18" r="1.85" />
<circle cx="1758.27" cy="579.55" r="1.85" />
<circle cx="1740.87" cy="559.57" r="1.85" />
<circle cx="1731.36" cy="569.18" r="1.85" />
<circle cx="1717.59" cy="561.77" r="1.85" />
<circle cx="1723.81" cy="549.41" r="1.85" />
<circle cx="1707.26" cy="540.41" r="1.85" />
<circle cx="1679.88" cy="535.52" r="1.85" />
<circle cx="1710" cy="646.8" r="1.28" />
<circle cx="1811.86" cy="598.91" r="1.85" />
<circle cx="1821" cy="610.86" r="1.85" />
<circle cx="1847.73" cy="572.3" r="1.85" />
<circle cx="1900.68" cy="612.89" r="1.85" />
<circle cx="1909.82" cy="487" r="1.85" />
<circle cx="2089.08" cy="653.79" r="1.85" />
<circle cx="2060.8" cy="837.72" r="1.85" />
<circle cx="1878" cy="822" r="1.22" />
<circle cx="1738" cy="862.5" r="1.62" />
<circle cx="1701.5" cy="867.71" r="1.52" />
<circle cx="1703.68" cy="845.83" r="1.85" />
<circle cx="1704.71" cy="932.63" r="1.85" />
<circle cx="1714.63" cy="946.47" r="1.77" />
<circle cx="1701.82" cy="970.42" r="1.85" />
<circle cx="1691.37" cy="992.2" r="1.85" />
<circle cx="1677.35" cy="1004.73" r="1.85" />
<circle cx="1660.43" cy="985.42" r="1.85" />
<circle cx="1629.5" cy="987.6" r="1.85" />
<circle cx="1634.79" cy="1004" r="1.85" />
<circle cx="1656.08" cy="1030.06" r="1.85" />
<circle cx="1633.08" cy="1053.75" r="1.85" />
<circle cx="1594.22" cy="1125.61" r="1.85" />
<circle cx="1592.45" cy="1143.2" r="1.82" />
<circle cx="1572.31" cy="1130.92" r="1.85" />
<circle cx="1569" cy="1120.94" r="1.85" />
<circle cx="1561.76" cy="1147.88" r="1.85" />
<circle cx="1539.46" cy="1143.55" r="1.85" />
<circle cx="1499.28" cy="1141.52" r="1.85" />
<circle cx="1503.11" cy="1123.74" r="1.77" />
<circle cx="1471.75" cy="1130.4" r="1.82" />
<circle cx="1475.41" cy="1142.38" r="1.85" />
<circle cx="1465.33" cy="1155.29" r="1.85" />
<circle cx="1455.52" cy="1151.16" r="1.85" />
<circle cx="1444.71" cy="1155.28" r="1.85" />
<circle cx="1432.77" cy="1140.09" r="1.85" />
<circle cx="1424.07" cy="1152.19" r="1.85" />
<circle cx="1420.59" cy="1163.07" r="1.85" />
<circle cx="1403.92" cy="1157.19" r="1.85" />
<circle cx="1403.55" cy="1135.52" r="1.85" />
<circle cx="1374.33" cy="1150.9" r="1.85" />
<circle cx="1362.88" cy="1153.41" r="1.67" />
<circle cx="1480.68" cy="1071.73" r="1.85" />
<circle cx="1522.09" cy="1091.09" r="1.85" />
<circle cx="1441.41" cy="1020.28" r="1.85" />
<circle cx="1367" cy="999" r="1.85" />
<circle cx="1479.84" cy="932.07" r="1.85" />
<circle cx="1485.34" cy="910.97" r="1.85" />
<circle cx="1481.26" cy="887.78" r="1.85" />
<circle cx="1521.24" cy="905.38" r="1.85" />
<circle cx="1521" cy="937.8" r="1.85" />
<circle cx="1517.12" cy="981.39" r="1.85" />
<circle cx="1461.8" cy="809.27" r="1.57" />
<circle cx="1290" cy="865.5" r="1.85" />
<circle cx="1195.65" cy="910.81" r="1.85" />
<circle cx="1179.38" cy="904.6" r="1.85" />
<circle cx="1204.82" cy="972.07" r="1.85" />
<circle cx="1227.24" cy="966.95" r="1.85" />
<circle cx="1185.76" cy="1153.39" r="1.85" />
<circle cx="1197.29" cy="773" r="1.07" />
<circle cx="1094.5" cy="728" r="1.15" />
<circle cx="1089.5" cy="721" r="1" />
<circle cx="1073" cy="719" r="1.22" />
<circle cx="1070" cy="732.29" r="1.07" />
<circle cx="1070.5" cy="746" r="1.15" />
<circle cx="1055.5" cy="734.5" r="0.81" />
<circle cx="1051.5" cy="710.5" r="1.41" />
<circle cx="1032.82" cy="722.82" r="1.35" />
<circle cx="1024.5" cy="698" r="1.41" />
<circle cx="993.5" cy="729" r="1" />
<circle cx="1014.4" cy="763.8" r="0.91" />
<circle cx="1024.29" cy="775.5" r="1.52" />
<circle cx="1060.5" cy="769.5" r="1.15" />
<circle cx="1116.59" cy="639.38" r="1.85" />
<circle cx="972.38" cy="629.38" r="1.46" />
<circle cx="952" cy="628.2" r="1.28" />
<circle cx="950" cy="619" r="1.22" />
<circle cx="941.35" cy="613.7" r="1.82" />
<circle cx="939" cy="623.5" r="1.82" />
<circle cx="929.64" cy="635.86" r="1.85" />
<circle cx="939.84" cy="639.42" r="1.77" />
<circle cx="938.07" cy="649.73" r="1.57" />
<circle cx="934.86" cy="658.54" r="1.85" />
<circle cx="932.07" cy="667.31" r="1.85" />
<circle cx="921.58" cy="659.25" r="1.41" />
<circle cx="913.5" cy="655" r="1.85" />
<circle cx="916.91" cy="645.09" r="1.85" />
<circle cx="926.63" cy="651.63" r="1.85" />
<circle cx="911.75" cy="665.98" r="1.85" />
<circle cx="897.11" cy="667.33" r="1.22" />
<circle cx="893" cy="659.5" r="1.41" />
<circle cx="885.63" cy="668.07" r="1.85" />
<circle cx="893.73" cy="680.33" r="1.57" />
<circle cx="878.89" cy="683.33" r="1.22" />
<circle cx="889.1" cy="697.1" r="1.85" />
<circle cx="902.89" cy="652.7" r="1.85" />
<circle cx="906" cy="640.8" r="1.28" />
<circle cx="890.55" cy="647.05" r="1.85" />
<circle cx="880.2" cy="641.33" r="1.57" />
<circle cx="870.64" cy="653.41" r="1.85" />
<circle cx="845.25" cy="642.58" r="1.85" />
<circle cx="821.27" cy="652.82" r="1.35" />
<circle cx="790.5" cy="652.5" r="1.52" />
<circle cx="816.55" cy="688.65" r="1.82" />
<circle cx="747.36" cy="679.55" r="1.35" />
<circle cx="728.36" cy="703.82" r="1.35" />
<circle cx="669.2" cy="689" r="1.28" />
<circle cx="609.4" cy="771.95" r="1.82" />
<circle cx="603.93" cy="800.21" r="1.52" />
<circle cx="581.79" cy="824.76" r="1.85" />
<circle cx="537.74" cy="863.21" r="1.85" />
<circle cx="453.73" cy="786.55" r="1.85" />
<circle cx="389.5" cy="724" r="1.41" />
<circle cx="374.08" cy="734.17" r="1.41" />
<circle cx="358.79" cy="722.64" r="1.52" />
<circle cx="355.5" cy="697.6" r="1.82" />
<circle cx="354.94" cy="684.69" r="1.62" />
<circle cx="360.86" cy="657.32" r="1.85" />
<circle cx="366" cy="637" r="1.35" />
<circle cx="379.5" cy="628" r="1.41" />
<circle cx="400.32" cy="651.05" r="1.77" />
<circle cx="408.8" cy="673.5" r="1.85" />
<circle cx="396.5" cy="687.71" r="1.52" />
<circle cx="439.04" cy="662.78" r="1.85" />
<circle cx="445.33" cy="650.93" r="1.57" />
<circle cx="466.48" cy="663.48" r="1.85" />
<circle cx="478.5" cy="657.5" r="1.72" />
<circle cx="472.58" cy="645.75" r="1.41" />
<circle cx="479" cy="671.38" r="1.85" />
<circle cx="487.5" cy="673.5" r="1.52" />
<circle cx="487.71" cy="684.5" r="1.52" />
<circle cx="500.5" cy="678.5" r="1.82" />
<circle cx="512.56" cy="668.08" r="1.85" />
<circle cx="521.38" cy="668.85" r="1.46" />
<circle cx="536.62" cy="664.62" r="1.46" />
<circle cx="547.29" cy="653.5" r="1.52" />
<circle cx="562.85" cy="665.46" r="1.46" />
<circle cx="552" cy="676.43" r="1.85" />
<circle cx="524.67" cy="708.24" r="1.85" />
<circle cx="559.91" cy="633" r="1.85" />
<circle cx="505.33" cy="537.25" r="1.41" />
<circle cx="546" cy="519.5" r="1.62" />
<circle cx="566.25" cy="490.44" r="1.62" />
<circle cx="627.07" cy="390.4" r="1.57" />
<circle cx="622.86" cy="379.48" r="1.85" />
<circle cx="482.62" cy="392.62" r="1.46" />
<circle cx="478.68" cy="271.95" r="1.85" />
<circle cx="467.87" cy="255.8" r="1.57" />
<circle cx="505.13" cy="250.2" r="1.57" />
<circle cx="545.22" cy="225.06" r="1.72" />
<circle cx="594.43" cy="211.43" r="1.85" />
<circle cx="605.38" cy="233.57" r="1.85" />
<circle cx="646.69" cy="211.45" r="1.85" />
<circle cx="771.4" cy="242.74" r="1.85" />
<circle cx="770.33" cy="255" r="1.85" />
<circle cx="782" cy="264.43" r="1.85" />
<circle cx="781" cy="274" r="1.35" />
<circle cx="788.84" cy="276.16" r="1.77" />
<circle cx="800.8" cy="277" r="1.28" />
<circle cx="808.71" cy="281.5" r="1.52" />
<circle cx="796.32" cy="286.19" r="1.85" />
<circle cx="779.71" cy="289.5" r="1.52" />
<circle cx="765.5" cy="276.29" r="1.52" />
<circle cx="787.55" cy="255.55" r="1.85" />
<circle cx="787.47" cy="247.71" r="1.67" />
<circle cx="802.5" cy="264" r="1.41" />
<circle cx="861.19" cy="259.5" r="1.62" />
<circle cx="877.67" cy="273.73" r="1.57" />
<circle cx="891.2" cy="268" r="1.28" />
<circle cx="912.5" cy="268" r="1.41" />
<circle cx="912.12" cy="278.59" r="1.67" />
<circle cx="929.06" cy="277.88" r="1.62" />
<circle cx="931.89" cy="270.67" r="1.22" />
<circle cx="943.05" cy="270.79" r="1.77" />
<circle cx="946.85" cy="277.69" r="1.46" />
<circle cx="960.52" cy="278.57" r="1.85" />
<circle cx="960" cy="283.5" r="1" />
<circle cx="973.5" cy="275.4" r="1.82" />
<circle cx="981.25" cy="261" r="1.85" />
<circle cx="992.44" cy="261.33" r="1.22" />
<circle cx="1002.5" cy="255.84" r="1.85" />
<circle cx="1005.04" cy="263.76" r="1.85" />
<circle cx="1006.54" cy="272.71" r="1.85" />
<circle cx="1024.91" cy="269.64" r="1.85" />
<circle cx="1023.7" cy="260.7" r="1.28" />
<circle cx="1029.79" cy="256.21" r="1.85" />
<circle cx="1035.13" cy="246.6" r="1.85" />
<circle cx="1026" cy="242.5" r="1.62" />
<circle cx="1033.12" cy="234.41" r="1.67" />
<circle cx="1028" cy="227.43" r="1.52" />
<circle cx="1028.64" cy="218.71" r="1.52" />
<circle cx="1014.76" cy="219.04" r="1.85" />
<circle cx="1012.94" cy="209.31" r="1.62" />
<circle cx="994.93" cy="215.43" r="1.52" />
<circle cx="1005.5" cy="228" r="1.41" />
<circle cx="1004" cy="233" r="1.22" />
<circle cx="1009.64" cy="235.09" r="1.35" />
<circle cx="1014.62" cy="241.38" r="1.46" />
<circle cx="1018.15" cy="252.95" r="1.82" />
<circle cx="999.88" cy="245.36" r="1.85" />
<circle cx="985.89" cy="247.95" r="1.77" />
<circle cx="976.72" cy="242.61" r="1.72" />
<circle cx="972.67" cy="233.89" r="1.22" />
<circle cx="970.67" cy="228.27" r="1.57" />
<circle cx="964.94" cy="238.69" r="1.62" />
<circle cx="968.38" cy="247.62" r="1.46" />
<circle cx="957.08" cy="244.17" r="1.41" />
<circle cx="948.3" cy="246.75" r="1.82" />
<circle cx="943" cy="253.5" r="1" />
<circle cx="926" cy="255.5" r="1.15" />
<circle cx="923.25" cy="246.04" r="1.85" />
<circle cx="921.5" cy="217.8" r="1.28" />
<circle cx="954.17" cy="233" r="1.85" />
<circle cx="988.5" cy="234.21" r="1.85" />
<circle cx="992" cy="190.5" r="1.72" />
<circle cx="1044.94" cy="218.24" r="1.67" />
<circle cx="1056" cy="205.67" r="1.72" />
<circle cx="1075.43" cy="202.09" r="1.85" />
<circle cx="1069.78" cy="190.13" r="1.85" />
<circle cx="1083.13" cy="179.13" r="1.85" />
<circle cx="1098.47" cy="205.87" r="1.57" />
<circle cx="1081.14" cy="215.93" r="1.52" />
<circle cx="1089.83" cy="231.08" r="1.41" />
<circle cx="1081.33" cy="235.07" r="1.57" />
<circle cx="1073.11" cy="240.15" r="1.85" />
<circle cx="1078.57" cy="253.43" r="1.85" />
<circle cx="1062.78" cy="259.13" r="1.85" />
<circle cx="1057.97" cy="250.56" r="1.85" />
<circle cx="1041.64" cy="261.91" r="1.35" />
<circle cx="1039.3" cy="281.64" r="1.85" />
<circle cx="1005.79" cy="296.36" r="1.52" />
<circle cx="1050.5" cy="326" r="1.62" />
<circle cx="1075.94" cy="298.69" r="1.62" />
<circle cx="1092.36" cy="314.55" r="1.35" />
<circle cx="1102.89" cy="305.33" r="1.22" />
<circle cx="1115.64" cy="307.09" r="1.35" />
<circle cx="1127.6" cy="295.04" r="1.85" />
<circle cx="1127" cy="287.2" r="1.28" />
<circle cx="1129.61" cy="277.65" r="1.85" />
<circle cx="1136.65" cy="271.48" r="1.85" />
<circle cx="1140.62" cy="285.14" r="1.85" />
<circle cx="1146.97" cy="291.28" r="1.85" />
<circle cx="1158.1" cy="299.1" r="1.82" />
<circle cx="1159.09" cy="304.36" r="1.35" />
<circle cx="1168.12" cy="300.59" r="1.67" />
<circle cx="1171.71" cy="294.92" r="1.85" />
<circle cx="1167.98" cy="285.68" r="1.85" />
<circle cx="1181.13" cy="284.52" r="1.85" />
<circle cx="1188.58" cy="290.97" r="1.85" />
<circle cx="1182.73" cy="303.42" r="1.85" />
<circle cx="1181.34" cy="320" r="1.85" />
<circle cx="1167.48" cy="315.35" r="1.85" />
<circle cx="1160.11" cy="325.42" r="1.77" />
<circle cx="1154.15" cy="337.55" r="1.82" />
<circle cx="1144.75" cy="337.54" r="1.85" />
<circle cx="1141.56" cy="344.75" r="1.62" />
<circle cx="1146.36" cy="347.91" r="1.35" />
<circle cx="1147.12" cy="359.15" r="1.85" />
<circle cx="1159.58" cy="353.42" r="1.77" />
<circle cx="1171.13" cy="347.71" r="1.85" />
<circle cx="1187.46" cy="350.75" r="1.85" />
<circle cx="1197.25" cy="337.25" r="1.85" />
<circle cx="1213.28" cy="342.89" r="1.72" />
<circle cx="1229.5" cy="338.5" r="1.52" />
<circle cx="1224.62" cy="325.38" r="1.46" />
<circle cx="1214.13" cy="322.47" r="1.57" />
<circle cx="1207.83" cy="306.4" r="1.85" />
<circle cx="1217.21" cy="292.87" r="1.85" />
<circle cx="1225.46" cy="299.73" r="1.85" />
<circle cx="1231.57" cy="304.76" r="1.85" />
<circle cx="1239.34" cy="309.66" r="1.85" />
<circle cx="1240.89" cy="299.06" r="1.85" />
<circle cx="1233.12" cy="289.27" r="1.85" />
<circle cx="1244.5" cy="284.5" r="1.62" />
<circle cx="1239.05" cy="274.18" r="1.85" />
<circle cx="1241.91" cy="262.91" r="1.85" />
<circle cx="1225.88" cy="269.57" r="1.85" />
<circle cx="1199.32" cy="274.77" r="1.85" />
<circle cx="1196.68" cy="262" r="1.85" />
<circle cx="1194.13" cy="241.51" r="1.85" />
<circle cx="1179.95" cy="248.4" r="1.82" />
<circle cx="1173.67" cy="242.96" r="1.85" />
<circle cx="1168.71" cy="251.95" r="1.85" />
<circle cx="1173.58" cy="263.29" r="1.85" />
<circle cx="1173.8" cy="273" r="1.28" />
<circle cx="1157.38" cy="268.57" r="1.85" />
<circle cx="1144.88" cy="250.59" r="1.67" />
<circle cx="1149.17" cy="238.9" r="1.85" />
<circle cx="1163.7" cy="238.37" r="1.85" />
<circle cx="1176.39" cy="229.09" r="1.85" />
<circle cx="1167.69" cy="215.54" r="1.85" />
<circle cx="1155.19" cy="220.1" r="1.85" />
<circle cx="1145.35" cy="209.53" r="1.67" />
<circle cx="1147.81" cy="203.19" r="1.85" />
<circle cx="1132.35" cy="201.06" r="1.67" />
<circle cx="1120.5" cy="207.29" r="1.52" />
<circle cx="1117" cy="194.5" r="1.85" />
<circle cx="1130.37" cy="219.53" r="1.77" />
<circle cx="1132.11" cy="232" r="1.77" />
<circle cx="1126.4" cy="245.9" r="1.82" />
<circle cx="1117" cy="249.5" r="1.52" />
<circle cx="1098.63" cy="245.21" r="1.77" />
<circle cx="1109" cy="231.5" r="1.62" />
<circle cx="1083" cy="273" r="1.35" />
<circle cx="1137" cy="308.5" r="1.72" />
<circle cx="1135.08" cy="338.31" r="1.85" />
<circle cx="1132.71" cy="350.07" r="1.85" />
<circle cx="1123.85" cy="375.46" r="1.46" />
<circle cx="1129.38" cy="388.38" r="1.46" />
<circle cx="1121.95" cy="404.1" r="1.82" />
<circle cx="1136.38" cy="404.38" r="1.46" />
<circle cx="1150.6" cy="415.07" r="1.57" />
<circle cx="1160" cy="423.86" r="1.85" />
<circle cx="1151.82" cy="429.82" r="1.35" />
<circle cx="1137" cy="423.5" r="1.41" />
<circle cx="1132.12" cy="454.59" r="1.67" />
<circle cx="1168.5" cy="448.71" r="1.52" />
<circle cx="1179.12" cy="430.31" r="1.85" />
<circle cx="1176.71" cy="416.89" r="1.85" />
<circle cx="1182.5" cy="406.5" r="1.41" />
<circle cx="1195.09" cy="411.78" r="1.85" />
<circle cx="1212.08" cy="418.17" r="1.41" />
<circle cx="1220.89" cy="409.29" r="1.85" />
<circle cx="1240.09" cy="388.09" r="1.85" />
<circle cx="1224.86" cy="376.71" r="1.52" />
<circle cx="1166" cy="378.5" r="1.62" />
<circle cx="1149" cy="378" r="1.85" />
<circle cx="1154.92" cy="392.83" r="1.41" />
<circle cx="1078.74" cy="400.04" r="1.85" />
<circle cx="1081.83" cy="419.48" r="1.85" />
<circle cx="1055.59" cy="406.12" r="1.67" />
<circle cx="1033.45" cy="402.82" r="1.35" />
<circle cx="1026.86" cy="396.67" r="1.85" />
<circle cx="1010.29" cy="364.59" r="1.85" />
<circle cx="986.55" cy="363.93" r="1.85" />
<circle cx="978.75" cy="380.58" r="1.41" />
<circle cx="924.12" cy="340.88" r="1.15" />
<circle cx="866.8" cy="402" r="1.28" />
<circle cx="772.93" cy="329.04" r="1.85" />
<circle cx="758.5" cy="566.5" r="1.41" />
<circle cx="726.5" cy="572.5" r="0.81" />
<circle cx="922.86" cy="622.93" r="1.52" />
<circle cx="958.71" cy="613.11" r="1.85" />
<circle cx="951.28" cy="650.72" r="1.85" />
<circle cx="946.36" cy="679.55" r="1.35" />
<circle cx="1072.29" cy="377" r="1.07" />
<circle cx="1204.69" cy="288.04" r="1.85" />
<circle cx="1256.7" cy="293.85" r="1.85" />
<circle cx="1264.57" cy="287.11" r="1.85" />
<circle cx="1268.88" cy="302.5" r="1.85" />
<circle cx="1273.83" cy="308.92" r="1.41" />
<circle cx="1267.45" cy="317.31" r="1.85" />
<circle cx="1271.11" cy="332.03" r="1.85" />
<circle cx="1288.56" cy="334.2" r="1.85" />
<circle cx="1283.08" cy="316.41" r="1.85" />
<circle cx="1287.73" cy="308.03" r="1.85" />
<circle cx="1295.53" cy="313.13" r="1.57" />
<circle cx="1301.24" cy="319.7" r="1.85" />
<circle cx="1306.51" cy="309.73" r="1.85" />
<circle cx="1305.73" cy="299.63" r="1.85" />
<circle cx="1300.45" cy="285.85" r="1.85" />
<circle cx="1285" cy="281.5" r="1.62" />
<circle cx="1280.32" cy="296.24" r="1.85" />
<circle cx="1277.89" cy="264.96" r="1.85" />
<circle cx="1305.67" cy="253.94" r="1.85" />
<circle cx="1316.03" cy="228.18" r="1.85" />
<circle cx="1321.15" cy="220.25" r="1.85" />
<circle cx="1321.83" cy="199.2" r="1.85" />
<circle cx="1315.88" cy="185.42" r="1.85" />
<circle cx="1304.08" cy="173.43" r="1.85" />
<circle cx="1314.42" cy="162.83" r="1.85" />
<circle cx="1348.18" cy="188.95" r="1.85" />
<circle cx="1354.81" cy="202.96" r="1.85" />
<circle cx="1365.46" cy="197.91" r="1.85" />
<circle cx="1363.16" cy="217.76" r="1.85" />
<circle cx="1371.65" cy="229.53" r="1.85" />
<circle cx="1379.33" cy="246.14" r="1.85" />
<circle cx="1390.61" cy="222.33" r="1.85" />
<circle cx="1384.81" cy="204.04" r="1.85" />
<circle cx="1431.98" cy="212.48" r="1.85" />
<circle cx="1426.75" cy="233.25" r="1.82" />
<circle cx="1424.95" cy="251.25" r="1.82" />
<circle cx="1445" cy="257.5" r="1.85" />
<circle cx="1466.29" cy="280.41" r="1.67" />
<circle cx="1483.62" cy="225.03" r="1.85" />
<circle cx="1514.55" cy="217.84" r="1.85" />
<circle cx="1532.49" cy="213.46" r="1.85" />
<circle cx="1534.42" cy="233" r="1.85" />
<circle cx="1521.77" cy="236.78" r="1.85" />
<circle cx="1553.02" cy="208.29" r="1.85" />
<circle cx="1510.86" cy="176.41" r="1.85" />
<circle cx="1493.84" cy="167.71" r="1.85" />
<circle cx="1482.6" cy="164.47" r="1.85" />
<circle cx="1468.59" cy="173.07" r="1.85" />
<circle cx="1499.53" cy="155.7" r="1.85" />
<circle cx="1532.6" cy="159.29" r="1.85" />
<circle cx="1612.2" cy="224.25" r="1.85" />
<circle cx="1651.25" cy="271.84" r="1.85" />
<circle cx="1482.65" cy="370.41" r="1.67" />
<circle cx="1471.5" cy="349.29" r="1.52" />
<circle cx="1425.05" cy="362.33" r="1.85" />
<circle cx="1408.55" cy="343.24" r="1.85" />
<circle cx="1399.1" cy="348.95" r="1.82" />
<circle cx="1393.07" cy="357.07" r="1.85" />
<circle cx="1383.5" cy="351.22" r="1.72" />
<circle cx="1389.05" cy="341.62" r="1.85" />
<circle cx="1381.88" cy="327" r="1.85" />
<circle cx="1381.23" cy="311.69" r="1.85" />
<circle cx="1391" cy="311.83" r="1.41" />
<circle cx="1401.95" cy="314.51" r="1.85" />
<circle cx="1397.53" cy="301.78" r="1.85" />
<circle cx="1407.4" cy="297.6" r="1.57" />
<circle cx="1399.7" cy="291.11" r="1.85" />
<circle cx="1406.71" cy="282.36" r="1.52" />
<circle cx="1401.59" cy="262.12" r="1.67" />
<circle cx="1382.8" cy="298.67" r="1.85" />
<circle cx="1362.39" cy="298.48" r="1.85" />
<circle cx="1364.29" cy="309.5" r="1.52" />
<circle cx="1354.5" cy="322" r="1.62" />
<circle cx="1345" cy="337" r="1.46" />
<circle cx="1336.3" cy="313" r="1.85" />
<circle cx="1330.5" cy="279.78" r="1.72" />
<circle cx="1365.86" cy="283.14" r="1.85" />
<circle cx="1418.44" cy="316.6" r="1.85" />
<circle cx="1412.67" cy="331.53" r="1.57" />
<circle cx="1415.48" cy="390.87" r="1.85" />
<circle cx="1429.29" cy="394.65" r="1.67" />
<circle cx="1434.5" cy="424" r="1.62" />
<circle cx="1429.5" cy="465.15" r="1.85" />
<circle cx="1347" cy="494" r="1.85" />
<circle cx="1301.38" cy="385.75" r="1.62" />
<circle cx="1296.59" cy="214.97" r="1.85" />
<circle cx="1302.05" cy="206.63" r="1.77" />
<circle cx="1283.41" cy="209.15" r="1.85" />
<circle cx="1268.76" cy="200.61" r="1.85" />
<circle cx="1271.63" cy="186.66" r="1.85" />
<circle cx="1268.91" cy="168.76" r="1.85" />
<circle cx="1250.26" cy="166.24" r="1.85" />
<circle cx="1216.42" cy="186.58" r="1.77" />
<circle cx="1204.5" cy="175.4" r="1.85" />
<circle cx="1189.23" cy="136.77" r="1.85" />
<circle cx="1201.11" cy="222.42" r="1.77" />
<circle cx="1220.74" cy="226.96" r="1.85" />
<circle cx="1247.08" cy="213.92" r="1.85" />
<circle cx="1007.57" cy="130.54" r="1.85" />
<circle cx="387.62" cy="232.43" r="1.85" />
<circle cx="311.33" cy="635.89" r="1.22" />
<circle cx="330.67" cy="660" r="1.72" />
<circle cx="306.94" cy="667.31" r="1.85" />
<circle cx="311" cy="679" r="1.35" />
<circle cx="296.96" cy="691.92" r="1.85" />
<circle cx="286.67" cy="672.56" r="1.85" />
<circle cx="276.09" cy="650.36" r="1.35" />
<circle cx="245.88" cy="634.34" r="1.85" />
<circle cx="229.93" cy="644.27" r="1.57" />
<circle cx="244.07" cy="664.33" r="1.57" />
<circle cx="252.28" cy="675.22" r="1.72" />
<circle cx="209.36" cy="673.82" r="1.35" />
<circle cx="194.53" cy="693.13" r="1.57" />
<circle cx="184.88" cy="692" r="1.62" />
<circle cx="175.86" cy="671.14" r="1.85" />
<circle cx="161.59" cy="660.35" r="1.67" />
<circle cx="151.08" cy="659.17" r="1.41" />
<circle cx="150.77" cy="674.15" r="1.46" />
<circle cx="135.48" cy="660.7" r="1.85" />
<circle cx="119.35" cy="664.71" r="1.85" />
<circle cx="114" cy="676" r="1.85" />
<circle cx="102.93" cy="683.33" r="1.57" />
<circle cx="72.76" cy="677.03" r="1.85" />
<circle cx="51.29" cy="712.5" r="1.85" />
<circle cx="45.67" cy="723.94" r="1.72" />
<circle cx="44.45" cy="736.86" r="1.85" />
<circle cx="63.64" cy="734.24" r="1.85" />
<circle cx="76.41" cy="727.44" r="1.85" />
<circle cx="77.58" cy="739.89" r="1.77" />
<circle cx="88.18" cy="734.29" r="1.67" />
<circle cx="105.5" cy="741.29" r="1.52" />
<circle cx="129.41" cy="744.88" r="1.67" />
<circle cx="133" cy="773.5" r="1.41" />
<circle cx="142.42" cy="776.42" r="1.41" />
<circle cx="188.54" cy="754.85" r="1.46" />
<circle cx="210.31" cy="759.94" r="1.62" />
<circle cx="207.89" cy="778.8" r="1.85" />
<circle cx="208.22" cy="793.78" r="1.85" />
<circle cx="193.86" cy="786.14" r="1.85" />
<circle cx="192" cy="796" r="1.67" />
<circle cx="226.92" cy="797.8" r="1.85" />
<circle cx="237.96" cy="801.08" r="1.85" />
<circle cx="256.91" cy="789.64" r="1.35" />
<circle cx="262.64" cy="802.33" r="1.85" />
<circle cx="263.8" cy="774.13" r="1.57" />
<circle cx="284" cy="765.5" r="1.28" />
<circle cx="286.69" cy="736.81" r="1.62" />
<circle cx="301" cy="740.69" r="1.46" />
<circle cx="342.67" cy="753.81" r="1.85" />
<circle cx="330.35" cy="804.47" r="1.67" />
<circle cx="255.87" cy="750.53" r="1.57" />
<circle cx="75.26" cy="766.81" r="1.85" />
<circle cx="70.31" cy="771.22" r="1.85" />
<circle cx="70.56" cy="751.25" r="1.62" />
<circle cx="793.85" cy="1173.5" r="1.85" />
<circle cx="1726.87" cy="1057.77" r="1.85" />
<circle cx="1733.96" cy="1047.45" r="1.85" />
<circle cx="1722.64" cy="989.09" r="1.35" />
<circle cx="1817.58" cy="1011.62" r="1.85" />
<circle cx="1843.39" cy="1022.17" r="1.85" />
<circle cx="1854.93" cy="1040.65" r="1.85" />
<circle cx="1877.14" cy="1169.4" r="1.85" />
<circle cx="1912.87" cy="1199.15" r="1.85" />
</g>
<g id="eye-pupils" fill="black" stroke="none">
<circle cx="1710.17" cy="323.06" r="9" />
<circle cx="1204.77" cy="287.37" r="3.4" />
<circle cx="1257.67" cy="261.57" r="4.05" />
<circle cx="1874.6" cy="640.04" r="9" />
<circle cx="1281.45" cy="704.52" r="3.4" />
<circle cx="1270" cy="632.17" r="3.4" />
<circle cx="1702.77" cy="813.59" r="9" />
<circle cx="1778.67" cy="1051.56" r="4.96" />
</g>
</svg>