<svg xmlns="http://www.w3.org/2000/svg" version="1.1" viewBox="0 0 2135 1324" width="2135" height="1324">
<rect width="100%" height="100%" fill="white" />
<g id="outline" stroke="black" stroke-width="1.12" stroke-linecap="round" stroke-linejoin="round" fill="none">
<polyline points="42,704 42,758 97,796.75 207,820.25 350.5,833.75 527.5,837.25 595.75,843.5 555.25,852.5 924.25,857 1702.75,857 2092,785.5 2092,642.5 1672,571 832,571 413.75,574.75 417.25,582.25 361.75,595.5 247.25,614.5 153,637.25 79,663.75 42,704" />
<polyline points="112.75,1007.5 118.25,1020.5 129,1032.5 145,1043.5 198.25,1064 288.75,1094 404.75,1121.75 546.25,1147.25 708.75,1169.25 892.25,1187.75 1096,1197 1320,1197 1465.25,1194.25 1531.75,1188.75 1582.75,1180.5 1618.25,1169.5 1642.5,1146.25 1655.5,1110.75 1682.5,1090.25 1723.5,1084.75 1767,1070.75 1813,1048.25 1838.25,1038.75 1842.75,1042.25 1843.5,1068.5 1840.5,1117.5 1850.25,1158 1872.75,1190 1890.75,1205.75 1904.25,1205.25 1921.5,1195.25 1942.5,1175.75 1945.5,1156.5 1930.5,1137.5 1925,1105.75 1929,1061.25 1951.25,1036.25 1991.75,1030.75 2032,1010.5 2072,975.5 2092,933 2092,883 1701.25,858 919.75,858 445.5,879 278.5,921 178.25,942.75 144.75,944.25 124.5,948.5 117.5,955.5 113,969.5 111,990.5 112.75,1007.5" />
<polyline points="1718.5,311.5 1719.5,312.5 1720,314 1720,316 1719.5,317.75 1718.5,319.25 1717.5,319.75 1716.5,319.25 1715.75,319.5 1715.25,320.5 1714,321 1712,321 1710.75,320.75 1710.25,320.25 1710,319 1710,317 1710.25,315.75 1710.75,315.25 1711.25,315.25 1711.75,315.75 1712,315.25 1712,313.75 1712.25,312.75 1712.75,312.25 1714.25,311.75 1716.75,311.25 1718.5,311.5" />
<polyline points="2092,519.75 2092,419.25 2050,345.5 1966,298.5 1898.75,272 1848.25,266 1810.25,257.25 1784.75,245.75 1748.5,242.25 1701.5,246.75 1647,216.75 1585,152.25 1488,114.25 1356,102.75 1206.75,103 1040.25,115 889,132.5 753,155.5 628.5,173 515.5,185 434.5,187.25 385.5,179.75 350,182.5 328,195.5 314,216.5 308,245.5 299.5,269 288.5,287 251,311.25 187,341.75 144.75,367 124.25,387 116,402.25 120,412.75 131.25,422.25 149.75,430.75 192,440.25 258,450.75 307,461.75 339,473.25 369,501.75 397,547.25 831.25,570 1671.75,570 2092,519.75" />
<polyline points="2011,1200.75 2011,1202.25 2011.25,1203 2011.75,1203 2012.5,1203.5 2013.5,1204.5 2014,1205.75 2014,1207.25 2014.5,1209 2015.5,1211 2016.25,1212.25 2016.75,1212.75 2018.5,1213 2021.5,1213 2023,1212.5 2023,1211.5 2022.75,1210.75 2022.25,1210.25 2022.25,1209.5 2022.75,1208.5 2023,1207.5 2023,1206.5 2021.5,1205.25 2018.5,1203.75 2016.75,1202.5 2016.25,1201.5 2014.75,1200.75 2012.25,1200.25 2011,1200.75" />
</g>
<g id="photo-detail" stroke="black" stroke-width="1.12" stroke-linecap="round" stroke-linejoin="round" fill="none">
<polyline points="312,272 311,276 299,293 278,312 267,318 195,346 160,363 143,376 133,386 132,390 128,394 131,397 131,404 133,405 130,412 133,413 131,417 142,424 179,435 273,451 288,452 340,465 352,472 354,471 355,474 359,475 359,477 361,476 370,485 370,490 375,493 374,495 383,501 385,506 391,506 389,502 385,501 385,498 378,491 375,484 370,482 370,478 363,473 362,470 359,470 351,464 353,462 367,466 375,472 374,474 381,471 381,469 372,469 370,466 371,464 363,463 362,459 350,460 340,458 335,455 290,447 289,445 267,445 256,442 234,440 226,437 202,435 186,431 183,427 179,430 175,430 171,427 161,426 161,421 159,420 152,423 144,417 141,417 133,409 133,398 137,393 136,390 140,385 144,384 149,376 153,375 157,370 162,369 167,364 173,363 194,351 197,352 198,349 201,350 218,340 261,325 275,316 278,316 283,311 289,308 291,309 300,302 300,299 308,290 307,288 312,283 308,280 311,276 313,277 312,280 314,279 312,276 313,272" />
<polyline points="237,409 243,409 244,414 242,416 230,416 226,412 231,411 234,413 236,409" />
<polyline points="406,533 403,536 403,540 409,546 408,549 414,553 412,554 413,555 416,549 407,538 407,533" />
<polyline points="434,587 422,595 384,604 346,609 288,620 280,618 279,620 264,621 204,632 185,640 190,641 192,639 203,638 218,633 228,640 232,639 235,635 238,635 238,633 228,636 225,632 227,630 236,628 244,629 246,626 253,626 256,630 258,629 258,626 266,625 270,628 273,627 275,633 279,638 283,639 286,646 288,646 288,641 274,626 274,623 278,622 287,629 289,623 297,624 300,621 302,623 300,626 303,627 305,623 302,622 305,620 308,622 314,619 319,621 323,618 331,618 341,614 347,615 349,613 374,610 384,607 391,608 406,602 414,602 431,596 435,599 436,596 433,593 438,591 435,587" />
<polyline points="467,662 465,665 469,671 463,676 463,678 473,681 473,677 471,678 469,674 473,669 473,666 468,662" />
<polyline points="426,675 432,682 434,682 430,686 426,684 427,679 424,680 423,683 413,683 414,680 422,679 420,676 425,675" />
<polyline points="359,652 366,655 365,659 368,663 368,665 363,665 361,669 358,668 363,665 360,661 363,659 358,655 358,652" />
<polyline points="295,634 299,641 299,646 302,648 301,652 296,651 297,645 295,644 296,639 293,636 294,634" />
<polyline points="283,668 275,679 263,689 260,694 240,710 244,705 242,700 249,701 282,668" />
<polyline points="245,663 248,663 247,669 243,669 237,675 239,681 237,681 234,675 243,668 244,663" />
<polyline points="232,679 222,690 224,696 218,694 215,697 215,702 213,701 210,704 208,720 210,728 205,731 206,728 204,726 206,728 207,727 205,719 207,707 212,696 224,686 226,681 228,682 231,679" />
<polyline points="188,679 190,683 195,682 198,685 214,685 212,687 201,688 199,686 195,687 187,684 185,680 187,679" />
<polyline points="176,641 179,642 174,645 175,649 173,651 163,648 161,654 156,652 155,655 148,655 144,657 145,665 136,673 133,691 147,708 182,742 181,746 162,727 156,726 157,722 147,715 147,710 142,708 133,698 132,693 130,692 132,683 130,680 133,678 136,671 128,660 124,663 125,667 129,668 127,673 122,671 123,669 121,667 117,672 115,672 114,665 116,664 113,663 109,669 108,677 105,676 97,681 89,681 95,672 92,671 85,677 80,676 78,682 75,684 67,679 61,686 57,686 48,692 42,689 42,685 63,677 92,669 130,654 134,655 140,651 175,641" />
<polyline points="147,670 147,679 144,689 158,705 160,704 167,714 169,713 172,720 175,720 182,729 186,729 191,737 202,734 195,740 188,740 190,747 194,747 194,751 187,749 189,745 185,741 187,738 186,735 161,713 141,691 146,670" />
<polyline points="135,765 139,769 136,778 140,779 142,788 139,788 140,784 136,778 132,776 133,772 137,772 134,769 134,765" />
<polyline points="84,786 85,789 89,787 100,792 108,793 109,792 106,791 106,789 109,786 111,789 110,791 113,793 124,795 126,793 131,799 136,798 146,803 157,804 158,807 162,809 169,806 167,809 169,811 202,816 204,818 212,818 221,821 233,821 239,824 276,828 281,825 286,826 287,828 296,829 312,828 320,830 349,830 357,832 366,830 370,834 425,834 429,836 457,836 459,834 460,836 472,834 474,837 476,836 476,833 481,836 497,835 506,837 542,837 569,834 596,834 611,832 616,830 616,833 618,834 627,826 629,832 637,832 641,830 645,833 646,831 647,832 645,833 646,836 607,836 555,840 452,840 269,831 205,823 161,814 155,811 144,810 100,797 98,794 90,792 89,790 83,791 83,786" />
<polyline points="54,741 57,742 56,747 60,751 63,749 62,756 64,764 60,767 61,773 55,766 56,764 61,763 59,759 60,756 56,753 54,758 52,758 55,751 53,741" />
<polyline points="226,796 227,805 224,805 223,802 214,803 212,807 220,808 225,812 231,811 228,805 232,799 230,796 227,796" />
<polyline points="256,789 256,792 261,795 261,806 264,808 268,807 269,803 264,798 264,795 260,794 259,789 257,789" />
<polyline points="364,763 364,770 366,772 363,775 362,773 359,773 360,778 364,778 368,775 367,769 369,764 365,763" />
<polyline points="342,973 343,981 335,979 334,981 328,981 325,979 327,976 334,976 341,973" />
<polyline points="261,983 267,985 271,983 271,987 275,992 266,986 261,989 259,985 260,983" />
<polyline points="364,1059 361,1061 362,1063 368,1060 370,1062 380,1061 381,1065 384,1063 386,1064 384,1060 365,1059" />
<polyline points="129,961 133,967 128,967 129,965 127,964 125,968 125,975 123,976 124,990 122,996 126,1003 123,1009 127,1014 128,1019 133,1021 134,1025 137,1026 147,1037 151,1037 154,1041 161,1043 166,1047 175,1048 181,1054 188,1053 190,1057 215,1063 222,1069 236,1074 245,1075 257,1081 265,1081 276,1086 287,1087 302,1093 305,1092 306,1095 310,1097 343,1103 345,1106 351,1104 353,1106 384,1110 389,1113 421,1118 443,1124 462,1126 470,1129 474,1128 475,1130 497,1132 541,1142 550,1142 554,1144 619,1154 689,1161 701,1164 729,1164 738,1167 741,1166 757,1169 764,1167 767,1171 780,1168 781,1170 785,1169 786,1171 795,1173 819,1172 822,1175 824,1174 831,1178 836,1175 842,1178 874,1179 875,1183 881,1182 893,1185 904,1184 909,1186 913,1184 920,1187 941,1186 955,1189 986,1191 1013,1190 1049,1193 1059,1190 1160,1189 1171,1191 1372,1191 1378,1187 1376,1185 1378,1187 1380,1186 1380,1182 1382,1182 1390,1173 1394,1173 1399,1170 1407,1171 1411,1167 1423,1180 1422,1182 1413,1183 1404,1173 1400,1173 1398,1175 1394,1174 1379,1187 1380,1189 1378,1192 1389,1190 1387,1188 1389,1190 1396,1187 1396,1191 1399,1192 1405,1186 1408,1193 1413,1193 1416,1188 1427,1192 1425,1185 1434,1188 1437,1192 1442,1192 1444,1190 1443,1186 1431,1177 1431,1174 1433,1175 1442,1164 1446,1164 1446,1166 1436,1175 1450,1191 1467,1188 1509,1187 1511,1185 1524,1186 1549,1184 1552,1182 1558,1183 1579,1178 1582,1175 1588,1176 1596,1172 1604,1172 1621,1167 1633,1158 1637,1152 1643,1135 1643,1127 1650,1096 1660,1086 1662,1078 1664,1078 1670,1085 1682,1086 1696,1084 1704,1085 1706,1083 1733,1080 1749,1074 1758,1067 1762,1067 1765,1059 1781,1046 1787,1044 1790,1050 1774,1068 1761,1072 1753,1078 1745,1081 1688,1090 1661,1090 1655,1096 1656,1098 1653,1104 1646,1143 1637,1162 1620,1171 1564,1185 1445,1195 1371,1195 1345,1193 1113,1193 1063,1195 951,1194 871,1186 807,1177 745,1173 593,1155 450,1130 344,1109 303,1099 235,1078 215,1069 182,1058 154,1045 134,1033 126,1023 127,1020 123,1013 120,1000 122,971 128,961" />
<polyline points="659,840 611,848 603,847 599,850 590,852 584,851 583,853 504,869 498,868 497,870 486,873 480,872 479,874 436,885 364,900 321,912 316,911 315,913 252,930 190,951 161,954 149,948 136,953 133,960 138,961 137,956 145,956 146,961 148,961 150,958 147,955 151,955 152,953 156,954 160,958 175,955 183,956 191,952 200,952 204,950 206,952 211,947 215,952 214,948 216,945 231,943 248,935 251,937 256,933 286,924 295,923 296,921 302,923 304,920 313,917 317,918 321,915 338,912 340,910 364,906 374,902 381,902 392,898 406,896 408,894 426,892 430,889 435,890 442,887 445,888 472,879 480,879 482,881 485,877 491,875 516,872 518,870 528,868 535,869 539,866 544,868 548,864 556,865 560,862 583,857 587,861 594,854 598,856 625,849 631,851 634,847 643,847 660,842 660,840" />
<polyline points="749,816 746,820 739,822 688,822 677,827 684,828 685,826 687,828 688,826 693,832 691,835 698,833 699,830 713,831 718,828 728,828 731,826 765,820 763,816 754,818 750,816" />
<polyline points="735,739 737,739 736,743 730,747 725,755 713,766 708,768 705,767 702,772 698,771 701,767 699,765 701,767 713,764 719,755 723,754 727,748 731,746 734,739" />
<polyline points="699,723 701,724 699,728 700,733 705,740 708,739 710,742 713,742 712,744 709,745 700,740 701,738 697,734 698,723" />
<polyline points="746,660 741,661 738,672 742,675 747,675 740,668 747,660" />
<polyline points="798,675 791,685 788,684 789,687 785,693 800,678 799,675" />
<polyline points="806,650 807,656 800,658 801,660 799,663 801,663 807,656 810,658 812,657 810,651 807,650" />
<polyline points="825,626 823,629 835,640 834,643 827,647 827,649 835,646 834,643 837,641 837,637 826,626" />
<polyline points="812,608 812,612 816,618 819,615 817,613 822,614 818,619 818,622 808,614 811,608" />
<polyline points="793,608 797,609 796,613 798,617 804,621 802,624 798,622 798,617 792,616 794,612 792,608" />
<polyline points="847,573 847,576 843,577 842,581 838,583 842,589 849,590 849,586 845,588 841,582 848,577 848,573" />
<polyline points="847,559 855,559 855,563 851,564 851,561 847,560 840,569 838,569 842,564 842,561 846,559" />
<polyline points="856,592 852,597 853,600 861,607 864,607 866,601 862,603 859,602 856,597 859,594 859,592 857,592" />
<polyline points="884,530 882,532 830,538 822,537 821,539 812,538 811,540 804,539 803,541 796,540 795,542 786,541 785,543 779,542 778,544 747,548 747,550 756,550 760,552 761,549 781,548 787,546 798,552 799,550 794,548 796,545 819,542 820,545 824,547 827,545 826,543 829,540 839,542 844,539 849,541 845,544 846,548 849,546 848,543 851,542 848,540 850,538 856,539 863,536 879,537 884,533 892,533 890,530 885,530" />
<polyline points="930,510 928,513 914,512 895,515 891,513 890,515 887,515 888,519 891,519 892,516 896,517 905,515 907,519 917,520 919,514 920,519 922,520 930,515 934,519 941,519 943,517 948,519 950,517 948,513 945,513 942,516 941,512 932,516 931,510" />
<polyline points="1052,548 1048,549 1049,552 1047,554 1051,559 1059,559 1055,554 1053,556 1050,554 1051,551 1056,551 1056,549 1053,548" />
<polyline points="1061,543 1060,546 1062,547 1059,548 1058,551 1069,557 1067,552 1064,552 1061,549 1062,547 1069,547 1069,545 1062,543" />
<polyline points="1073,499 1072,501 1050,504 1040,508 1035,507 1033,509 1010,511 992,517 990,515 991,517 989,519 1001,519 1029,512 1049,510 1052,508 1058,509 1061,507 1081,504 1081,501 1075,501 1074,499" />
<polyline points="1111,560 1109,562 1111,565 1114,566 1116,564 1121,567 1126,566 1127,569 1134,572 1132,574 1135,575 1135,572 1133,571 1134,568 1132,566 1127,567 1125,564 1128,560 1125,563 1118,560 1115,564 1112,560" />
<polyline points="1160,545 1159,548 1166,551 1166,558 1170,560 1171,556 1169,555 1169,550 1167,550 1164,545 1161,545" />
<polyline points="1185,487 1186,489 1184,493 1179,488 1171,493 1152,493 1139,499 1128,499 1128,502 1136,502 1140,499 1143,504 1146,499 1185,496 1189,493 1194,497 1195,494 1202,495 1208,493 1206,489 1207,487 1205,487 1202,490 1196,490 1193,495 1186,487" />
<polyline points="1144,335 1147,335 1150,339 1149,344 1146,343 1145,347 1149,348 1150,351 1147,351 1145,348 1141,348 1142,344 1146,343 1143,341 1143,335" />
<polyline points="1145,279 1143,282 1139,284 1137,283 1138,288 1134,292 1138,296 1141,296 1139,291 1140,288 1145,291 1148,290 1149,281 1146,279" />
<polyline points="1196,282 1197,288 1189,289 1185,284 1181,283 1179,289 1172,283 1165,284 1155,294 1151,288 1150,293 1148,295 1147,293 1144,295 1146,297 1153,293 1154,295 1161,295 1165,290 1169,289 1179,292 1180,288 1185,288 1186,291 1183,296 1180,297 1179,294 1176,295 1172,293 1166,298 1174,300 1179,298 1185,299 1187,295 1198,298 1199,295 1194,294 1199,287 1199,283 1197,282" />
<polyline points="1202,304 1201,308 1204,312 1209,309 1212,312 1221,310 1219,307 1215,306 1210,308 1208,305 1203,304" />
<polyline points="1234,281 1232,282 1234,285 1233,288 1230,288 1231,290 1229,293 1225,294 1222,291 1219,291 1213,297 1216,299 1220,296 1229,295 1231,293 1236,295 1243,292 1244,288 1249,287 1247,284 1244,284 1243,289 1242,287 1237,287 1235,281" />
<polyline points="1256,289 1256,295 1252,295 1249,290 1246,293 1249,295 1251,294 1252,298 1261,300 1264,296 1262,296 1260,294 1261,291 1257,289" />
<polyline points="1277,284 1277,289 1274,291 1275,294 1273,297 1269,298 1269,300 1275,299 1280,303 1284,303 1288,297 1291,300 1297,300 1297,297 1293,296 1292,292 1288,293 1287,297 1283,294 1278,296 1278,290 1287,291 1278,284" />
<polyline points="1270,263 1269,268 1276,273 1275,278 1273,279 1264,274 1267,271 1266,264 1269,263" />
<polyline points="1283,241 1282,243 1277,244 1277,246 1290,247 1281,251 1282,254 1292,253 1293,249 1290,244 1284,241" />
<polyline points="1295,254 1293,258 1290,257 1285,260 1287,262 1291,262 1294,258 1298,259 1299,262 1296,262 1295,265 1301,267 1302,259 1298,258 1296,254" />
<polyline points="1317,243 1317,249 1320,251 1318,255 1322,255 1322,252 1328,253 1327,249 1329,245 1327,244 1327,248 1324,250 1320,243 1318,243" />
<polyline points="1300,230 1303,233 1308,232 1310,237 1316,237 1317,241 1304,243 1302,240 1305,236 1303,234 1298,234 1295,241 1291,241 1290,236 1299,230" />
<polyline points="1340,229 1340,233 1346,238 1345,243 1350,246 1356,246 1357,244 1350,240 1348,233 1341,229" />
<polyline points="1350,220 1350,223 1356,227 1351,230 1357,234 1354,235 1354,237 1356,239 1360,239 1359,234 1362,232 1359,227 1360,223 1356,220 1351,220" />
<polyline points="1372,218 1371,222 1373,225 1366,226 1365,229 1368,231 1376,231 1382,237 1391,239 1392,236 1390,234 1387,235 1384,231 1381,232 1379,230 1380,228 1377,226 1377,223 1373,218" />
<polyline points="1378,240 1375,241 1375,244 1379,247 1378,250 1386,257 1390,257 1387,249 1379,240" />
<polyline points="1371,259 1374,259 1374,261 1369,267 1376,271 1375,275 1369,272 1369,267 1356,267 1351,263 1353,260 1361,260 1362,262 1364,261 1367,263 1370,259" />
<polyline points="1388,289 1377,298 1378,301 1384,303 1386,307 1402,306 1403,310 1405,310 1406,308 1402,301 1397,300 1394,304 1385,298 1389,294 1392,294 1392,290 1389,289" />
<polyline points="1401,313 1400,315 1398,314 1400,316 1398,320 1408,320 1408,325 1412,328 1413,324 1406,313 1402,313" />
<polyline points="1326,270 1327,275 1322,284 1311,292 1302,292 1300,294 1297,288 1292,289 1289,285 1285,284 1287,281 1290,286 1293,284 1297,285 1298,283 1301,284 1302,282 1298,278 1300,279 1303,276 1305,277 1305,282 1308,286 1311,285 1315,288 1317,286 1317,282 1322,278 1320,274 1325,270" />
<polyline points="1306,307 1308,310 1310,308 1314,309 1313,314 1307,315 1302,312 1299,314 1299,317 1295,316 1305,307" />
<polyline points="1281,314 1287,315 1291,321 1296,321 1297,324 1295,325 1283,321 1279,316 1280,314" />
<polyline points="1240,239 1243,240 1244,244 1243,246 1238,246 1236,248 1246,255 1246,258 1239,254 1237,256 1240,257 1240,260 1237,261 1236,256 1233,254 1231,256 1229,255 1231,253 1230,249 1233,250 1235,247 1233,244 1239,239" />
<polyline points="1223,236 1228,236 1229,241 1226,243 1227,249 1222,250 1224,254 1219,255 1219,250 1215,249 1213,251 1213,259 1207,262 1210,254 1199,255 1198,251 1201,249 1207,249 1208,251 1210,249 1208,246 1205,246 1206,240 1209,242 1209,245 1212,246 1221,242 1222,236" />
<polyline points="1195,229 1200,230 1203,234 1207,234 1208,231 1211,231 1213,235 1216,233 1216,240 1211,239 1210,236 1206,238 1203,236 1202,238 1204,240 1198,238 1197,233 1193,233 1194,229" />
<polyline points="1156,226 1160,228 1161,231 1163,230 1169,238 1173,237 1174,239 1166,241 1164,245 1159,245 1159,241 1164,242 1165,240 1161,231 1156,230 1155,226" />
<polyline points="1134,200 1138,202 1139,205 1144,202 1151,202 1153,206 1148,209 1150,212 1144,212 1147,208 1139,207 1138,204 1133,205 1131,201 1133,200" />
<polyline points="1027,254 1037,258 1039,254 1043,256 1038,259 1038,261 1024,258 1026,254" />
<polyline points="1043,280 1038,283 1027,282 1026,285 1042,286 1053,284 1053,282 1044,280" />
<polyline points="960,275 961,279 966,277 967,279 972,280 974,275 977,275 978,279 973,279 972,282 957,282 956,279 959,275" />
<polyline points="799,282 802,287 804,286 805,292 803,292 802,288 795,292 794,289 796,290 798,288 796,284 798,282" />
<polyline points="782,289 785,292 788,291 791,295 795,294 795,296 789,297 788,294 783,294 779,297 778,295 781,289" />
<polyline points="775,238 780,240 784,238 785,242 773,242 774,247 779,246 779,250 771,248 768,252 765,252 764,250 770,245 768,241 770,239 773,240 774,238" />
<polyline points="773,507 786,509 792,508 793,511 797,509 809,509 813,511 818,509 834,511 842,510 843,514 846,513 844,511 855,510 858,512 865,511 865,515 869,512 873,515 876,513 877,516 880,514 881,516 882,513 885,513 884,517 872,517 869,514 868,516 865,516 864,514 863,517 850,516 852,514 849,513 848,516 839,515 836,517 835,515 830,515 828,512 827,514 816,512 815,514 810,514 808,512 797,514 784,510 779,513 777,512 776,514 766,514 747,521 738,520 731,522 728,520 729,516 752,518 756,514 765,512 772,507" />
<polyline points="728,549 732,550 731,552 733,554 731,556 729,556 728,553 725,553 724,556 720,556 718,553 713,553 710,556 706,553 704,555 690,556 691,553 695,554 700,552 707,553 709,551 718,551 719,553 722,550 727,549" />
<polyline points="685,550 686,559 680,557 663,557 667,555 681,556 684,550" />
<polyline points="584,555 589,556 591,560 593,560 592,564 590,564 589,560 586,560 582,565 579,563 583,559 583,555" />
<polyline points="520,533 523,534 525,543 522,545 520,550 517,550 516,547 519,545 518,543 520,545 522,544 522,540 518,539 520,536 519,533" />
<polyline points="872,800 871,802 868,801 869,803 867,808 852,807 841,810 838,808 839,806 834,806 832,810 828,808 824,811 814,809 811,813 807,810 810,806 807,806 807,808 800,813 779,815 779,818 781,820 784,817 797,817 801,815 804,816 805,814 806,816 811,816 812,814 816,816 829,813 846,813 848,810 849,812 864,810 871,811 873,805 876,803 873,800" />
<polyline points="889,798 886,800 888,804 886,805 887,808 891,808 888,803 890,801 897,803 898,807 901,806 901,804 894,798 890,798" />
<polyline points="913,795 911,799 901,798 900,801 903,802 905,800 911,803 918,799 914,795" />
<polyline points="903,920 907,920 910,924 917,921 918,926 913,925 912,932 908,932 902,925 902,920" />
<polyline points="864,936 867,938 864,943 865,949 862,947 855,948 855,946 862,944 863,936" />
<polyline points="838,901 843,905 847,916 846,923 843,923 843,915 837,901" />
<polyline points="823,920 823,927 828,929 830,932 833,932 833,934 818,931 822,920" />
<polyline points="793,907 796,909 798,921 796,919 789,924 784,923 781,925 780,922 782,920 788,920 793,912 792,907" />
<polyline points="796,897 794,899 805,915 805,918 802,921 804,925 807,919 808,910 797,897" />
<polyline points="776,1159 790,1159 792,1163 799,1166 812,1162 816,1163 820,1160 829,1165 830,1170 828,1171 820,1165 814,1164 803,1167 794,1167 783,1161 775,1161 766,1165 767,1162 775,1159" />
<polyline points="1138,1000 1134,1002 1135,1005 1139,1008 1141,1007 1145,1013 1150,1014 1150,1006 1142,1005 1139,1000" />
<polyline points="1153,995 1148,996 1146,999 1156,1005 1162,1005 1165,1002 1162,997 1156,998 1154,995" />
<polyline points="1146,964 1145,970 1152,974 1149,979 1143,977 1145,972 1139,971 1137,968 1145,964" />
<polyline points="1209,984 1207,987 1202,986 1201,988 1206,990 1210,986 1214,988 1218,987 1227,992 1230,986 1229,984 1226,984 1221,988 1219,985 1210,984" />
<polyline points="1259,954 1252,960 1246,961 1242,966 1228,965 1226,967 1226,972 1231,974 1234,967 1242,968 1243,966 1254,966 1254,961 1256,959 1260,960 1260,964 1266,965 1268,960 1266,958 1263,959 1260,954" />
<polyline points="1304,946 1300,952 1307,953 1307,959 1313,958 1311,954 1307,953 1309,950 1305,946" />
<polyline points="1312,966 1305,967 1300,970 1296,975 1294,975 1294,977 1299,977 1308,971 1314,970 1317,975 1316,977 1321,978 1322,972 1313,966" />
<polyline points="1318,983 1311,986 1309,984 1305,984 1303,986 1297,985 1295,986 1297,989 1296,993 1303,994 1303,987 1311,991 1316,990 1320,986 1324,988 1323,990 1328,989 1327,986 1323,986 1319,983" />
<polyline points="1354,1020 1353,1027 1355,1026 1359,1028 1367,1025 1373,1026 1366,1022 1360,1023 1355,1020" />
<polyline points="1389,984 1387,988 1394,988 1396,990 1396,995 1424,998 1423,995 1402,994 1399,991 1399,987 1390,984" />
<polyline points="1401,968 1399,971 1389,970 1378,974 1420,973 1419,971 1408,972 1402,968" />
<polyline points="1425,976 1419,986 1414,987 1412,985 1414,987 1413,990 1421,987 1427,982 1426,976" />
<polyline points="1431,991 1431,997 1427,1000 1428,1010 1431,1011 1434,1009 1430,1005 1431,999 1438,1001 1444,997 1449,998 1450,996 1447,992 1439,998 1436,997 1432,991" />
<polyline points="1445,978 1444,982 1446,982 1448,986 1454,987 1461,985 1468,991 1470,989 1472,991 1477,989 1472,989 1469,984 1464,984 1462,982 1455,982 1451,985 1449,983 1449,979 1446,978" />
<polyline points="1460,955 1457,959 1461,962 1459,963 1461,966 1472,966 1471,962 1473,959 1470,959 1466,964 1462,962 1463,957 1461,955" />
<polyline points="1472,996 1462,1007 1460,1006 1460,1002 1454,1003 1454,1005 1458,1006 1454,1008 1455,1012 1474,1005 1478,997 1473,996" />
<polyline points="1521,976 1520,978 1514,979 1510,986 1507,987 1502,983 1498,983 1500,985 1498,987 1506,990 1521,988 1526,984 1529,987 1536,987 1535,984 1527,983 1527,980 1522,976" />
<polyline points="1520,933 1527,938 1526,944 1519,946 1520,941 1515,938 1517,936 1516,934 1518,936 1521,935 1519,933" />
<polyline points="1501,931 1504,934 1504,938 1502,940 1503,943 1511,939 1508,946 1512,947 1512,950 1508,950 1503,947 1502,942 1495,943 1493,941 1495,937 1497,938 1500,936 1500,931" />
<polyline points="1503,902 1506,908 1506,911 1503,913 1503,916 1505,917 1505,921 1503,923 1499,923 1495,916 1487,918 1490,913 1492,915 1492,912 1496,912 1496,909 1492,911 1488,907 1483,912 1483,915 1487,922 1498,922 1500,928 1505,931 1509,931 1510,929 1507,927 1507,924 1509,923 1508,915 1511,912 1514,916 1517,916 1518,912 1513,909 1508,902 1504,902" />
<polyline points="1489,794 1492,802 1485,797 1469,797 1471,795 1480,796 1488,794" />
<polyline points="1520,779 1509,781 1500,780 1497,782 1488,782 1484,780 1480,783 1487,787 1495,784 1532,785 1533,787 1535,785 1543,786 1549,784 1558,784 1562,786 1579,786 1586,784 1589,786 1599,786 1600,788 1610,789 1612,787 1625,787 1626,789 1635,788 1641,790 1643,788 1644,790 1670,788 1670,786 1665,787 1646,783 1614,783 1593,781 1592,779 1571,781 1521,779" />
<polyline points="1525,794 1524,796 1494,796 1500,798 1501,802 1503,802 1507,797 1513,799 1516,796 1526,801 1526,794" />
<polyline points="1635,834 1633,838 1638,844 1645,848 1651,847 1651,841 1648,838 1642,841 1639,840 1638,843 1635,840 1638,838 1639,834 1636,834" />
<polyline points="1640,853 1639,858 1644,856 1652,861 1657,861 1649,854 1641,853" />
<polyline points="1704,801 1703,803 1694,804 1675,815 1670,822 1674,823 1683,819 1684,814 1689,810 1692,812 1692,816 1697,819 1686,821 1685,825 1709,824 1718,817 1726,815 1726,813 1719,815 1717,813 1720,807 1726,806 1724,802 1709,803 1708,801 1705,801" />
<polyline points="1769,811 1766,812 1769,814 1767,818 1761,816 1749,821 1727,821 1722,828 1707,828 1703,832 1699,830 1693,835 1682,836 1685,839 1693,837 1699,839 1700,836 1703,838 1705,835 1714,836 1716,834 1717,836 1720,836 1723,832 1732,830 1741,824 1748,823 1748,826 1737,833 1744,833 1747,837 1753,834 1752,831 1757,830 1757,828 1765,821 1772,825 1779,821 1779,824 1770,832 1770,834 1773,834 1777,829 1780,831 1779,833 1782,833 1784,821 1786,820 1786,825 1789,825 1790,823 1787,818 1791,815 1785,817 1780,822 1778,819 1775,819 1772,814 1776,812 1770,811" />
<polyline points="1767,827 1769,829 1764,833 1766,836 1768,835 1767,840 1764,842 1766,845 1771,847 1772,843 1776,841 1776,838 1778,840 1779,835 1783,835 1782,839 1778,840 1778,844 1783,847 1787,847 1787,849 1779,851 1772,846 1771,850 1763,850 1757,847 1752,854 1749,855 1749,858 1745,859 1750,854 1747,851 1732,864 1735,859 1732,855 1735,854 1738,856 1747,847 1745,843 1743,846 1744,841 1748,844 1752,839 1756,841 1748,850 1750,852 1766,837 1763,834 1761,835 1761,833 1766,827" />
<polyline points="1800,786 1799,788 1776,789 1772,792 1782,793 1795,801 1797,798 1795,795 1796,792 1805,791 1807,793 1809,791 1809,787 1801,786" />
<polyline points="1817,787 1804,798 1803,802 1816,792 1819,788 1818,787" />
<polyline points="1840,771 1829,776 1819,774 1816,778 1814,777 1811,781 1808,781 1811,784 1820,776 1821,778 1823,775 1825,778 1837,775 1841,771" />
<polyline points="1865,722 1860,730 1861,736 1868,743 1875,743 1882,737 1883,729 1875,722 1866,722" />
<polyline points="1869,718 1860,724 1858,736 1861,743 1864,745 1871,745 1873,747 1871,757 1866,760 1863,758 1861,753 1855,750 1855,753 1863,762 1869,763 1874,758 1874,751 1879,744 1889,735 1898,734 1902,729 1901,727 1897,731 1891,730 1886,735 1886,729 1884,728 1883,723 1880,720 1870,718" />
<polyline points="1906,719 1903,721 1908,726 1907,731 1870,768 1863,767 1861,762 1846,748 1844,749 1844,752 1862,767 1864,772 1868,773 1872,771 1878,764 1883,764 1882,760 1886,755 1901,747 1899,745 1901,742 1905,743 1903,739 1906,738 1909,731 1909,723 1907,719" />
<polyline points="1902,680 1904,685 1908,685 1910,687 1909,689 1911,691 1913,690 1916,694 1914,697 1904,688 1903,684 1900,684 1901,680" />
<polyline points="1923,672 1918,683 1919,693 1921,693 1919,684 1920,680 1924,676 1924,672" />
<polyline points="1923,662 1926,664 1925,667 1920,665 1909,677 1905,678 1905,676 1907,676 1918,664 1922,662" />
<polyline points="1915,654 1901,671 1899,671 1902,665 1914,654" />
<polyline points="1943,650 1941,657 1946,661 1950,661 1960,651 1958,650 1951,659 1947,659 1944,654 1944,650" />
<polyline points="1948,635 1930,651 1933,652 1948,637 1952,638 1953,643 1954,638 1951,637 1952,635 1949,635" />
<polyline points="1949,622 1941,625 1932,637 1947,625 1953,625 1957,628 1960,627 1957,627 1956,624 1950,622" />
<polyline points="1980,604 1976,606 1969,616 1975,622 1980,621 1972,616 1972,613 1978,607 1984,609 1984,614 1981,618 1985,615 1986,608 1981,604" />
<polyline points="1995,573 1987,582 1987,589 1991,594 1988,595 1982,592 1973,594 1962,606 1958,607 1958,611 1954,614 1956,619 1957,614 1974,596 1980,594 1989,600 1992,597 1996,598 1997,595 1989,586 1989,581 1997,574 1996,573" />
<polyline points="2010,559 2005,564 2013,563 2015,567 2008,576 2016,570 2016,565 2011,559" />
<polyline points="2020,573 2017,579 2010,582 2011,586 2016,583 2018,578 2027,582 2017,595 2028,587 2028,580 2021,573" />
<polyline points="2022,607 2021,609 2025,611 2025,614 2019,619 2013,619 2012,622 2014,623 2014,626 2010,629 2006,629 2004,626 2001,627 1994,623 1989,624 1984,632 1990,638 1992,637 1995,643 1991,648 1987,648 1986,650 1990,651 1997,645 1997,639 1992,637 1993,634 1989,631 1988,627 1993,626 2006,632 2011,630 2016,623 2026,615 2027,609 2023,607" />
<polyline points="1982,649 1982,656 1979,662 1961,679 1960,677 1963,677 1979,659 1981,649" />
<polyline points="1970,705 1972,705 1971,708 1951,715 1951,713 1956,710 1963,709 1969,705" />
<polyline points="2025,699 2025,703 2033,702 2045,705 2043,700 2034,702 2026,699" />
<polyline points="2037,721 2035,723 2061,724 2059,721 2038,721" />
<polyline points="2077,755 2070,759 2059,758 2059,764 2067,760 2070,763 2070,766 2073,767 2071,771 2066,772 2065,769 2063,769 2061,773 2070,775 2076,771 2081,764 2073,762 2078,755" />
<polyline points="2058,773 2060,784 2057,787 2058,790 2047,790 2046,793 2045,789 2048,785 2051,787 2056,786 2058,782 2056,779 2057,773" />
<polyline points="2065,835 2058,839 2056,843 2057,845 2054,846 2054,848 2063,846 2065,841 2069,839 2069,836 2066,835" />
<polyline points="1987,847 1987,849 1981,853 1974,855 1972,860 1967,861 1971,856 1970,852 1975,852 1986,847" />
<polyline points="1965,873 1966,875 1960,884 1951,892 1964,873" />
<polyline points="1995,907 1996,913 1992,916 1990,913 1992,916 1992,922 1989,926 1984,924 1986,927 1994,925 1996,914 1999,910 1999,907 1996,907" />
<polyline points="2092,947 2072,956 2070,961 2062,967 2051,984 2047,979 2045,988 2037,1001 2022,1015 2016,1017 2012,1021 2004,1025 1982,1031 1966,1032 1951,1029 1931,1030 1929,1033 1977,1035 1991,1033 2009,1027 2034,1011 2059,978 2075,962 2087,954 2092,953 2092,948" />
<polyline points="1891,1003 1902,1016 1910,1021 1911,1024 1916,1024 1917,1027 1922,1026 1923,1031 1912,1028 1904,1022 1900,1023 1898,1018 1890,1012 1890,1003" />
<polyline points="1850,1011 1852,1011 1854,1016 1855,1013 1858,1013 1859,1015 1868,1015 1867,1018 1859,1016 1855,1018 1853,1015 1850,1015 1847,1018 1849,1023 1848,1025 1852,1026 1859,1034 1857,1039 1861,1042 1861,1054 1866,1055 1863,1060 1862,1055 1859,1054 1857,1056 1857,1062 1855,1061 1856,1043 1852,1036 1837,1027 1826,1032 1828,1027 1833,1027 1849,1011" />
<polyline points="1838,1004 1839,1009 1830,1018 1809,1027 1801,1025 1795,1031 1793,1040 1796,1043 1806,1034 1810,1035 1809,1039 1804,1042 1802,1041 1800,1045 1796,1047 1789,1041 1791,1037 1788,1036 1789,1032 1794,1029 1789,1025 1778,1027 1774,1030 1777,1033 1780,1031 1783,1032 1772,1044 1759,1053 1751,1054 1745,1048 1744,1049 1749,1056 1746,1058 1746,1062 1743,1063 1741,1060 1745,1056 1743,1054 1740,1056 1743,1053 1736,1050 1734,1042 1731,1042 1729,1039 1733,1039 1740,1045 1740,1041 1744,1039 1747,1042 1747,1047 1751,1048 1753,1044 1762,1039 1760,1037 1766,1035 1767,1040 1771,1038 1772,1033 1766,1029 1768,1026 1767,1021 1769,1020 1771,1023 1770,1025 1773,1026 1775,1024 1774,1017 1776,1014 1778,1016 1778,1024 1780,1020 1785,1022 1789,1020 1788,1023 1793,1025 1795,1023 1805,1021 1809,1017 1811,1022 1818,1017 1816,1012 1822,1016 1825,1014 1825,1011 1828,1012 1831,1010 1827,1006 1836,1008 1837,1004" />
<polyline points="1815,991 1817,992 1817,997 1820,1002 1820,1009 1814,1007 1814,1003 1812,1002 1815,1002 1817,999 1813,995 1814,991" />
<polyline points="1798,987 1800,989 1804,989 1805,992 1799,992 1794,989 1792,996 1787,995 1791,990 1797,987" />
<polyline points="1810,963 1808,965 1804,964 1805,967 1808,967 1808,981 1812,978 1815,979 1819,975 1817,974 1813,977 1810,976 1810,971 1813,968 1811,963" />
<polyline points="1796,924 1801,930 1803,939 1809,948 1810,960 1808,959 1806,949 1800,942 1800,936 1797,930 1793,926 1795,924" />
<polyline points="1802,918 1800,924 1807,930 1807,938 1812,943 1816,944 1815,950 1817,951 1815,960 1824,975 1826,970 1822,968 1823,964 1819,958 1819,953 1822,950 1824,951 1824,949 1819,947 1819,942 1815,939 1818,936 1816,931 1813,929 1811,934 1803,923 1805,921 1805,918 1803,918" />
<polyline points="1762,910 1765,912 1769,911 1770,914 1777,916 1777,920 1772,920 1766,914 1762,916 1763,914 1761,910" />
<polyline points="1769,882 1768,888 1770,899 1765,904 1777,912 1780,910 1785,912 1784,908 1780,909 1771,903 1774,896 1770,893 1770,882" />
<polyline points="1831,878 1830,881 1835,883 1834,885 1838,887 1838,891 1831,896 1832,899 1830,903 1835,899 1839,899 1841,891 1840,886 1844,884 1843,880 1839,884 1836,881 1838,878 1832,878" />
<polyline points="1718,969 1723,972 1724,977 1713,989 1708,984 1699,983 1697,985 1700,991 1704,990 1706,993 1705,996 1701,994 1697,995 1699,1000 1693,996 1692,1000 1689,1000 1682,992 1671,998 1671,995 1677,991 1676,989 1678,988 1682,989 1683,992 1686,991 1691,996 1695,986 1695,982 1693,980 1713,976 1716,974 1715,971 1717,969" />
<polyline points="1697,964 1701,965 1707,971 1711,970 1711,972 1701,975 1693,973 1677,976 1673,975 1673,973 1691,971 1696,964" />
<polyline points="1680,997 1689,1004 1687,1006 1684,1005 1679,1015 1675,1016 1673,1011 1679,1005 1676,1001 1679,997" />
<polyline points="1697,1008 1699,1012 1702,1012 1709,1020 1709,1023 1714,1023 1711,1016 1709,1017 1698,1008" />
<polyline points="1683,1021 1687,1026 1692,1025 1693,1027 1692,1029 1688,1029 1692,1034 1692,1040 1684,1039 1687,1032 1682,1027 1682,1034 1678,1040 1681,1043 1678,1044 1673,1054 1674,1057 1671,1060 1674,1065 1668,1066 1670,1070 1676,1070 1678,1072 1677,1075 1665,1070 1674,1041 1673,1037 1675,1036 1678,1027 1682,1025 1682,1021" />
<polyline points="1669,1019 1672,1019 1674,1023 1661,1032 1661,1039 1654,1041 1647,1038 1647,1035 1650,1036 1655,1033 1660,1020 1665,1020 1662,1024 1667,1026 1668,1019" />
<polyline points="1659,979 1661,984 1667,982 1667,986 1670,989 1669,993 1661,991 1660,988 1657,989 1655,986 1643,993 1628,993 1615,987 1618,983 1621,983 1622,985 1626,984 1630,989 1639,989 1655,984 1658,979" />
<polyline points="1616,969 1626,969 1626,972 1622,974 1620,978 1618,978 1618,975 1620,974 1619,971 1613,974 1614,977 1603,979 1602,975 1599,973 1600,971 1602,975 1606,977 1610,976 1614,973 1613,970 1615,969" />
<polyline points="1711,1055 1708,1058 1710,1060 1708,1063 1713,1064 1713,1068 1717,1068 1720,1065 1727,1066 1738,1062 1735,1062 1730,1056 1727,1056 1727,1061 1724,1062 1721,1059 1722,1056 1720,1056 1718,1060 1714,1055 1712,1055" />
<polyline points="1706,1068 1708,1071 1704,1073 1701,1072 1689,1075 1684,1073 1691,1070 1702,1070 1705,1068" />
<polyline points="1569,1119 1573,1119 1575,1123 1578,1122 1580,1125 1574,1126 1569,1123 1564,1125 1557,1124 1568,1119" />
<polyline points="1570,1142 1565,1148 1561,1147 1559,1152 1557,1150 1553,1150 1551,1156 1555,1157 1562,1153 1566,1153 1571,1147 1579,1147 1578,1143 1571,1142" />
<polyline points="1427,1147 1428,1149 1431,1149 1433,1155 1437,1158 1435,1162 1429,1164 1427,1168 1419,1168 1417,1166 1421,1162 1429,1164 1432,1159 1427,1156 1425,1158 1420,1158 1418,1156 1418,1151 1422,1153 1426,1147" />
<polyline points="1404,1154 1411,1155 1409,1159 1415,1160 1415,1162 1407,1164 1395,1163 1397,1160 1402,1158 1403,1154" />
<polyline points="1400,1146 1403,1147 1402,1151 1393,1153 1389,1157 1382,1158 1388,1150 1396,1151 1399,1146" />
<polyline points="1405,1130 1402,1131 1401,1138 1400,1136 1396,1136 1396,1138 1400,1140 1402,1137 1406,1143 1410,1143 1410,1140 1408,1139 1408,1132 1406,1130" />
<polyline points="1404,1007 1406,1012 1404,1010 1397,1011 1403,1018 1410,1019 1411,1016 1409,1012 1412,1011 1420,1022 1413,1023 1411,1019 1410,1021 1392,1023 1392,1021 1395,1021 1397,1017 1395,1016 1395,1012 1392,1010 1389,1015 1387,1015 1388,1010 1386,1008 1388,1010 1403,1007" />
<polyline points="1357,944 1360,946 1360,949 1357,954 1352,956 1346,955 1346,958 1339,957 1339,955 1345,956 1348,949 1352,949 1356,944" />
<polyline points="1363,784 1359,787 1357,785 1349,786 1347,789 1357,788 1360,790 1387,791 1385,785 1377,788 1367,787 1366,784 1364,784" />
<polyline points="1373,733 1374,736 1367,740 1361,747 1355,749 1350,746 1348,749 1342,744 1339,747 1346,750 1361,750 1366,747 1367,743 1374,736 1377,736 1377,734 1374,733" />
<polyline points="1366,721 1368,723 1368,728 1355,740 1344,738 1332,725 1336,722 1349,738 1354,738 1366,727 1364,724 1365,721" />
<polyline points="1376,693 1371,697 1370,695 1366,695 1366,698 1369,700 1367,707 1377,693" />
<polyline points="1356,679 1357,682 1354,683 1356,686 1363,686 1366,683 1369,685 1379,680 1383,680 1384,687 1377,683 1370,687 1360,687 1358,693 1356,691 1357,687 1348,686 1355,682 1355,679" />
<polyline points="1304,669 1307,670 1308,674 1311,674 1311,678 1315,680 1315,682 1308,677 1307,673 1304,677 1303,673 1300,676 1300,679 1297,677 1303,673 1303,669" />
<polyline points="1292,665 1295,670 1295,677 1293,681 1289,680 1292,678 1291,676 1287,675 1287,672 1291,674 1292,677 1294,674 1294,670 1290,668 1291,665" />
<polyline points="1301,686 1300,693 1307,698 1310,704 1313,705 1313,708 1323,714 1322,716 1328,722 1331,721 1332,719 1322,709 1320,710 1313,700 1306,697 1307,695 1304,692 1305,688 1302,686" />
<polyline points="1291,692 1310,714 1314,714 1316,719 1321,723 1320,726 1314,723 1315,720 1307,715 1306,712 1304,713 1298,709 1298,703 1291,699 1292,697 1288,694 1290,692" />
<polyline points="1256,665 1263,669 1268,669 1270,672 1272,670 1276,670 1274,666 1278,666 1279,670 1276,670 1274,674 1267,675 1262,669 1259,670 1255,668 1255,665" />
<polyline points="1310,620 1300,631 1295,627 1296,632 1294,639 1298,640 1300,631 1313,625 1313,621 1311,620" />
<polyline points="1325,610 1326,612 1324,614 1326,619 1320,624 1320,626 1326,624 1326,620 1333,613 1329,614 1326,610" />
<polyline points="1412,593 1411,596 1415,597 1417,600 1416,602 1420,606 1424,606 1426,611 1427,609 1420,599 1420,596 1415,596 1413,593" />
<polyline points="1431,610 1431,616 1448,632 1450,636 1453,635 1452,630 1449,629 1450,627 1438,619 1436,612 1433,612 1432,610" />
<polyline points="1432,627 1430,630 1436,632 1439,637 1438,639 1445,642 1446,639 1443,639 1441,637 1442,635 1437,633 1437,630 1434,630 1433,627" />
<polyline points="1426,656 1430,659 1437,656 1440,657 1434,662 1423,660 1413,661 1425,656" />
<polyline points="1404,704 1404,710 1400,710 1388,723 1387,721 1403,704" />
<polyline points="1324,725 1334,738 1336,737 1338,739 1338,743 1334,742 1335,740 1333,738 1331,739 1325,734 1326,731 1322,728 1323,725" />
<polyline points="1242,796 1246,796 1245,802 1241,802 1239,807 1228,809 1233,806 1231,804 1234,806 1241,796" />
<polyline points="1128,783 1129,787 1136,787 1137,789 1087,789 1087,787 1091,786 1093,788 1105,788 1107,786 1125,786 1127,783" />
<polyline points="1064,782 1066,782 1066,785 1069,785 1070,787 1077,785 1079,788 1085,787 1085,789 1062,789 1063,782" />
<polyline points="1056,781 1059,786 1058,790 1033,791 1029,789 1023,790 1020,793 1010,791 1010,789 1016,787 1016,784 1018,787 1029,788 1033,786 1052,786 1055,784 1055,781" />
<polyline points="1356,490 1354,492 1359,493 1360,496 1356,499 1354,504 1361,501 1362,492 1357,490" />
<polyline points="1440,462 1436,465 1432,465 1432,470 1428,472 1431,473 1436,466 1438,467 1441,465 1447,473 1449,471 1447,468 1451,465 1453,466 1452,463 1448,464 1446,462 1441,462" />
<polyline points="1538,597 1539,601 1544,602 1542,603 1544,605 1543,608 1540,608 1540,612 1544,613 1546,604 1539,597" />
<polyline points="1633,581 1635,583 1634,585 1638,587 1636,592 1633,592 1633,588 1630,584 1621,585 1621,587 1628,590 1627,593 1630,597 1638,597 1641,593 1642,586 1634,581" />
<polyline points="1686,576 1687,585 1689,586 1687,590 1691,592 1690,596 1693,604 1695,605 1698,604 1698,600 1694,596 1696,590 1693,586 1691,577 1687,576" />
<polyline points="1717,570 1715,574 1723,580 1721,582 1715,581 1714,585 1712,583 1708,583 1710,586 1709,591 1714,593 1717,590 1722,589 1725,593 1725,599 1717,601 1714,596 1708,598 1705,590 1702,589 1700,594 1705,599 1704,601 1723,605 1726,602 1730,602 1729,595 1731,590 1736,586 1736,583 1734,581 1731,582 1731,589 1727,593 1723,585 1726,578 1718,570" />
<polyline points="1723,547 1724,551 1721,551 1719,555 1723,558 1728,556 1730,560 1732,559 1732,556 1736,557 1735,552 1730,557 1728,548 1724,547" />
<polyline points="1747,568 1744,571 1740,571 1740,573 1747,572 1748,576 1753,579 1749,584 1752,584 1756,579 1758,584 1763,585 1764,582 1760,574 1758,573 1759,575 1757,578 1753,574 1756,569 1753,569 1753,571 1750,572 1748,568" />
<polyline points="1782,576 1780,578 1778,577 1778,581 1775,584 1779,584 1781,586 1781,591 1788,591 1784,585 1781,584 1783,576" />
<polyline points="1788,593 1788,598 1792,599 1795,607 1799,609 1799,618 1801,618 1801,606 1797,600 1794,599 1793,594 1789,593" />
<polyline points="1786,601 1789,602 1793,612 1793,616 1788,623 1783,621 1779,616 1782,613 1784,617 1789,616 1789,613 1787,612 1788,605 1784,604 1785,601" />
<polyline points="1813,591 1808,596 1812,600 1811,604 1806,606 1804,604 1804,606 1813,607 1818,604 1814,598 1814,591" />
<polyline points="1817,618 1815,619 1815,624 1811,628 1811,632 1814,634 1809,635 1809,640 1812,640 1813,635 1816,632 1815,625 1820,621 1818,618" />
<polyline points="1833,674 1829,678 1832,685 1830,688 1816,690 1813,686 1810,686 1810,690 1817,693 1838,690 1835,684 1836,682 1833,681 1836,674 1834,674" />
<polyline points="1867,672 1863,673 1858,678 1851,680 1846,679 1845,684 1853,684 1861,681 1866,675 1869,675 1868,672" />
<polyline points="1885,603 1876,608 1875,611 1883,608 1893,610 1904,619 1904,625 1901,625 1900,619 1894,621 1889,616 1886,617 1886,619 1892,624 1890,626 1882,624 1879,618 1867,627 1862,625 1859,633 1856,635 1856,642 1853,643 1853,650 1851,651 1851,660 1853,662 1877,664 1884,660 1888,655 1892,654 1897,648 1906,627 1907,616 1905,610 1901,606 1895,606 1894,604 1887,605 1886,603" />
<polyline points="1900,559 1900,566 1897,571 1895,570 1869,580 1865,585 1857,586 1859,590 1857,598 1855,599 1851,597 1851,601 1847,605 1842,605 1841,608 1834,613 1829,624 1821,624 1822,628 1826,630 1832,628 1839,615 1852,611 1854,609 1853,607 1856,604 1860,605 1861,600 1865,597 1870,600 1871,596 1869,592 1871,586 1876,584 1880,587 1890,586 1889,582 1892,574 1895,572 1898,573 1897,580 1900,580 1902,576 1899,572 1902,571 1906,565 1904,559 1901,559" />
<polyline points="1872,549 1874,550 1871,553 1875,554 1875,556 1867,557 1858,554 1858,551 1861,551 1865,554 1869,554 1871,549" />
<polyline points="1865,560 1868,563 1878,561 1883,562 1884,560 1886,562 1891,561 1892,565 1877,565 1875,567 1868,567 1857,571 1842,583 1843,589 1838,586 1832,591 1830,597 1831,600 1824,604 1823,601 1829,596 1827,590 1831,588 1832,585 1826,584 1826,581 1831,583 1835,582 1838,585 1844,571 1849,572 1853,568 1849,567 1849,564 1859,567 1861,562 1864,560" />
<polyline points="1775,480 1780,483 1783,490 1789,494 1784,494 1773,483 1774,480" />
<polyline points="1809,428 1808,430 1804,430 1802,433 1797,431 1794,434 1788,432 1762,439 1747,439 1741,445 1739,444 1738,449 1730,447 1732,452 1722,457 1718,462 1714,460 1707,472 1702,475 1699,482 1695,477 1693,477 1693,483 1696,484 1695,487 1707,507 1712,512 1717,510 1712,507 1710,497 1714,495 1713,491 1710,490 1707,493 1701,483 1705,478 1712,474 1712,471 1717,464 1722,461 1731,463 1730,457 1732,455 1738,455 1744,461 1745,466 1750,467 1747,472 1752,474 1754,470 1750,463 1738,451 1740,448 1750,461 1761,470 1767,478 1771,479 1769,482 1767,480 1765,481 1773,490 1769,482 1772,477 1766,472 1764,463 1760,464 1755,459 1756,456 1761,459 1765,458 1764,453 1760,455 1756,453 1753,457 1751,454 1744,451 1750,446 1763,446 1764,444 1767,445 1772,442 1774,443 1775,441 1785,441 1786,443 1789,443 1791,438 1794,441 1802,439 1804,441 1813,433 1813,429 1810,428" />
<polyline points="1892,382 1889,384 1888,390 1881,389 1875,396 1877,394 1880,395 1881,393 1886,394 1889,391 1906,390 1906,387 1902,387 1901,385 1899,386 1897,383 1893,382" />
<polyline points="1925,288 1926,291 1936,294 1944,299 1953,301 1955,304 1961,305 1968,311 1972,312 2002,336 2007,337 2013,343 2015,342 2026,354 2029,351 2033,355 2032,359 2035,357 2038,359 2038,364 2040,364 2040,360 2043,362 2042,364 2047,363 2051,368 2054,367 2065,374 2074,376 2071,377 2072,379 2074,376 2085,382 2092,382 2092,380 2084,374 2077,375 2075,371 2072,373 2068,369 2043,358 2022,340 2015,337 2004,328 1996,325 1979,312 1976,312 1972,307 1970,308 1964,303 1959,302 1957,299 1951,298 1950,295 1945,296 1933,289 1929,290 1926,288" />
<polyline points="1718,287 1720,290 1722,289 1721,293 1715,297 1712,303 1701,312 1693,322 1695,326 1693,333 1694,338 1697,339 1696,341 1701,347 1705,347 1722,339 1730,330 1737,318 1739,319 1739,327 1727,344 1708,353 1704,358 1705,360 1701,361 1698,360 1698,350 1687,343 1687,338 1684,336 1689,329 1687,323 1694,315 1694,310 1707,299 1705,296 1707,295 1707,292 1710,294 1715,292 1718,289 1717,287" />
<polyline points="1703,286 1705,294 1702,293 1701,289 1698,292 1701,295 1700,297 1694,291 1702,286" />
<polyline points="1693,298 1692,303 1687,307 1683,306 1682,310 1675,312 1674,309 1669,310 1670,307 1679,306 1680,304 1683,305 1685,301 1692,298" />
<polyline points="1670,317 1671,319 1673,318 1671,325 1658,330 1654,341 1644,351 1634,343 1637,341 1644,348 1649,338 1649,332 1654,327 1663,324 1669,317" />
<polyline points="1600,316 1609,322 1615,329 1610,335 1611,342 1606,359 1608,365 1606,366 1606,370 1610,376 1606,376 1606,380 1610,391 1602,390 1601,380 1603,372 1603,357 1607,344 1607,339 1605,337 1608,326 1605,322 1603,323 1595,319 1599,316" />
<polyline points="1614,375 1612,385 1615,386 1618,392 1621,392 1627,386 1618,384 1618,379 1615,375" />
<polyline points="1602,245 1605,250 1616,246 1617,249 1616,251 1610,250 1605,254 1601,252 1601,249 1599,249 1601,245" />
<polyline points="1598,214 1602,214 1605,219 1608,216 1615,216 1616,229 1620,229 1621,231 1624,229 1618,243 1614,241 1615,237 1612,235 1612,223 1609,221 1605,223 1604,220 1602,221 1598,218 1597,214" />
<polyline points="1523,205 1526,210 1531,211 1533,214 1541,212 1542,220 1538,220 1534,217 1533,220 1530,220 1526,216 1527,213 1520,208 1522,205" />
<polyline points="1518,215 1521,218 1521,221 1517,224 1524,228 1527,227 1529,229 1529,234 1532,237 1533,231 1536,229 1539,233 1540,241 1545,238 1548,242 1549,248 1539,240 1536,242 1532,239 1528,241 1524,252 1522,252 1522,249 1517,242 1503,234 1504,231 1508,232 1511,228 1508,224 1513,225 1514,234 1518,236 1519,239 1521,237 1528,238 1525,233 1523,233 1510,220 1511,217 1514,218 1517,215" />
<polyline points="1524,184 1522,185 1522,188 1526,188 1528,192 1523,198 1529,200 1528,204 1532,208 1539,209 1537,204 1532,200 1535,194 1534,189 1532,189 1529,184 1525,184" />
<polyline points="1530,176 1532,183 1541,186 1539,189 1540,192 1548,193 1550,195 1551,188 1545,188 1541,184 1542,180 1543,182 1546,181 1545,178 1543,177 1539,180 1536,176 1531,176" />
<polyline points="1518,148 1520,150 1520,154 1515,158 1520,162 1521,170 1524,173 1519,172 1514,162 1516,159 1513,158 1513,156 1516,154 1513,149 1517,148" />
<polyline points="1475,145 1479,147 1483,154 1490,152 1492,154 1489,159 1491,165 1487,166 1482,172 1472,169 1472,167 1478,167 1488,159 1486,156 1476,152 1474,145" />
<polyline points="1465,170 1478,175 1478,178 1491,178 1492,182 1483,183 1479,180 1473,180 1462,174 1464,170" />
<polyline points="1485,187 1484,190 1487,194 1495,194 1501,201 1505,201 1505,199 1496,194 1494,190 1486,187" />
<polyline points="1484,223 1490,226 1489,231 1483,229 1481,233 1474,233 1469,229 1479,230 1483,223" />
<polyline points="1441,208 1447,210 1447,213 1450,215 1450,219 1440,217 1425,218 1423,216 1424,211 1431,211 1433,214 1437,214 1440,211 1440,208" />
<polyline points="1406,209 1410,210 1409,214 1412,216 1413,220 1408,221 1406,224 1407,230 1403,232 1401,242 1398,245 1397,250 1399,254 1395,256 1392,254 1394,249 1392,247 1397,244 1397,239 1402,232 1402,228 1400,226 1396,226 1390,229 1386,226 1386,222 1393,219 1401,224 1407,222 1408,217 1404,212 1405,209" />
<polyline points="1350,197 1357,198 1359,200 1359,205 1366,213 1360,213 1356,210 1356,204 1351,203 1348,200 1349,197" />
<polyline points="1327,124 1330,124 1340,136 1344,136 1347,130 1349,130 1347,136 1341,140 1338,139 1325,126 1326,124" />
<polyline points="1323,110 1342,112 1345,115 1343,120 1345,124 1346,120 1348,120 1350,124 1346,123 1343,127 1332,116 1322,110" />
<polyline points="1295,108 1314,108 1320,112 1320,116 1324,119 1324,122 1320,121 1318,117 1314,117 1306,113 1298,113 1297,115 1262,116 1261,118 1257,118 1255,115 1251,120 1238,117 1233,119 1234,123 1231,125 1228,124 1228,118 1225,118 1224,120 1216,120 1210,118 1209,120 1199,122 1193,119 1191,124 1187,124 1185,122 1177,124 1171,120 1170,122 1157,121 1134,126 1127,124 1123,127 1118,125 1116,127 1115,125 1114,127 1111,126 1109,129 1105,128 1097,130 1083,130 1075,127 1070,129 1068,128 1063,133 1061,130 1056,131 1052,135 1048,135 1046,131 1041,134 1036,132 1027,135 1016,132 1016,137 1009,139 999,136 992,136 988,138 984,135 981,140 977,141 972,139 973,137 971,135 961,138 958,135 952,143 946,143 943,136 935,140 926,139 924,141 925,143 923,142 922,145 912,142 911,144 903,143 888,147 882,146 877,148 858,149 842,154 820,155 816,158 808,157 801,160 794,160 783,168 782,167 785,163 781,161 773,164 767,163 763,169 753,167 749,170 732,169 696,176 685,175 627,180 603,185 600,183 599,185 587,185 586,187 573,187 572,189 553,189 543,192 534,191 529,194 525,192 521,196 518,196 518,193 512,193 507,197 498,195 494,199 484,197 479,199 478,197 460,199 457,201 436,200 424,202 421,199 414,201 411,198 403,198 397,193 389,189 384,189 381,186 376,187 373,185 366,185 356,191 353,190 349,193 347,192 338,197 334,203 332,203 339,193 365,182 384,183 406,193 421,196 477,194 478,192 485,193 620,178 621,176 632,177 642,176 643,174 665,174 666,172 680,173 681,171 701,171 718,167 767,161 820,149 939,132 1027,127 1152,116 1287,110 1294,108" />
<polyline points="1294,130 1298,132 1305,131 1306,134 1309,132 1322,145 1322,150 1319,145 1317,146 1308,138 1305,133 1292,132 1293,130" />
<polyline points="1279,151 1286,164 1289,163 1290,165 1297,163 1303,156 1306,156 1303,163 1292,167 1296,172 1302,170 1304,173 1307,173 1313,166 1313,162 1319,162 1320,166 1316,167 1309,173 1311,175 1318,174 1320,179 1313,180 1312,177 1299,178 1295,175 1291,175 1291,171 1286,167 1286,165 1279,162 1280,159 1277,157 1278,151" />
<polyline points="1271,166 1276,169 1276,172 1268,174 1268,180 1266,180 1263,176 1266,173 1265,170 1268,170 1268,167 1270,166" />
<polyline points="1274,177 1272,179 1279,183 1277,186 1261,182 1260,186 1267,189 1265,194 1272,194 1272,191 1274,190 1278,196 1284,198 1283,193 1279,193 1281,189 1287,190 1289,195 1298,193 1294,189 1289,190 1286,186 1279,183 1275,177" />
<polyline points="1260,217 1262,219 1261,224 1264,225 1264,229 1266,231 1271,227 1271,222 1277,222 1279,224 1279,228 1274,233 1269,234 1272,237 1271,239 1268,239 1266,236 1259,237 1262,240 1262,243 1258,243 1251,239 1245,232 1246,231 1247,233 1250,231 1255,232 1256,234 1259,231 1256,228 1250,228 1250,225 1252,226 1254,224 1260,227 1262,225 1258,223 1259,217" />
<polyline points="1364,114 1358,116 1359,118 1356,124 1352,127 1355,127 1362,121 1373,119 1380,122 1384,122 1387,119 1388,121 1397,121 1402,124 1410,123 1419,126 1423,130 1428,127 1419,121 1411,122 1407,118 1365,114" />
<polyline points="1435,127 1434,131 1440,136 1440,138 1443,137 1441,135 1445,132 1447,134 1453,133 1457,137 1465,135 1459,132 1449,132 1436,127" />
<polyline points="1756,679 1755,681 1758,689 1760,691 1766,691 1770,701 1778,701 1779,696 1775,698 1764,683 1758,682 1757,679" />
<polyline points="2072,678 2064,689 2060,689 2051,695 2048,695 2046,699 2053,697 2055,694 2067,697 2070,696 2064,691 2064,689 2068,689 2074,682 2073,678" />
<polyline points="2092,646 2092,651 2090,653 2092,666 2085,658 2080,665 2081,657 2086,652 2085,648 2092,645" />
<polyline points="2092,607 2092,635 2090,634 2090,626 2092,623 2092,606" />
<polyline points="2077,567 2078,569 2074,573 2082,573 2081,575 2083,576 2083,579 2075,575 2072,571 2070,574 2058,577 2055,581 2047,581 2044,577 2045,576 2047,578 2060,570 2066,571 2076,567" />
<polyline points="2083,493 2077,500 2070,502 2070,504 2077,506 2080,503 2079,500 2081,496 2085,494 2084,493" />
</g>
<g id="eye-outline" stroke="black" stroke-width="1.12" stroke-linecap="round" stroke-linejoin="round" fill="none">
<polyline points="1180.91,351.81 1181.02,352.35 1181.34,352.86 1181.87,353.34 1182.58,353.77 1183.46,354.13 1184.46,354.41 1185.56,354.6 1186.72,354.7 1187.9,354.7 1189.06,354.6 1190.17,354.41 1191.17,354.13 1192.04,353.77 1192.75,353.34 1193.28,352.86 1193.6,352.35 1193.71,351.81" />
<polyline points="1180.91,351.81 1181.02,351.28 1181.34,350.76 1181.87,350.29 1182.58,349.86 1183.46,349.5 1184.46,349.22 1185.56,349.02 1186.72,348.92 1187.9,348.92 1189.06,349.02 1190.17,349.22 1191.17,349.5 1192.04,349.86 1192.75,350.29 1193.28,350.76 1193.6,351.28 1193.71,351.81" />
<polyline points="1274.63,704.52 1274.75,705.05 1275.1,705.56 1275.66,706.04 1276.41,706.47 1277.34,706.83 1278.41,707.11 1279.58,707.31 1280.82,707.4 1282.08,707.4 1283.31,707.31 1284.49,707.11 1285.55,706.83 1286.48,706.47 1287.24,706.04 1287.8,705.56 1288.15,705.05 1288.26,704.52" />
<polyline points="1274.63,704.52 1274.75,703.98 1275.1,703.47 1275.66,702.99 1276.41,702.56 1277.34,702.2 1278.41,701.92 1279.58,701.73 1280.82,701.63 1282.08,701.63 1283.31,701.73 1284.49,701.92 1285.55,702.2 1286.48,702.56 1287.24,702.99 1287.8,703.47 1288.15,703.98 1288.26,704.52" />
<polyline points="1588.15,1125.82 1588.25,1126.35 1588.58,1126.87 1589.1,1127.34 1589.82,1127.77 1590.69,1128.13 1591.69,1128.41 1592.79,1128.61 1593.95,1128.71 1595.14,1128.71 1596.3,1128.61 1597.4,1128.41 1598.4,1128.13 1599.28,1127.77 1599.99,1127.34 1600.51,1126.87 1600.84,1126.35 1600.95,1125.82" />
<polyline points="1588.15,1125.82 1588.25,1125.29 1588.58,1124.77 1589.1,1124.29 1589.82,1123.86 1590.69,1123.5 1591.69,1123.22 1592.79,1123.03 1593.95,1122.93 1595.14,1122.93 1596.3,1123.03 1597.4,1123.22 1598.4,1123.5 1599.28,1123.86 1599.99,1124.29 1600.51,1124.77 1600.84,1125.29 1600.95,1125.82" />
</g>
<g id="sucker-rings" stroke="black" stroke-width="1.12" stroke-linecap="round" stroke-linejoin="round" fill="none">
<circle cx="323.33" cy="268.56" r="2.4" />
<circle cx="323.33" cy="268.56" r="1.15" />
<circle cx="362.38" cy="459.12" r="2.4" />
<circle cx="362.38" cy="459.12" r="1.15" />
<circle cx="375.9" cy="473.6" r="2.4" />
<circle cx="375.9" cy="473.6" r="1.15" />
<circle cx="414.71" cy="540.64" r="2.4" />
<circle cx="414.71" cy="540.64" r="1.15" />
<circle cx="169.32" cy="418.35" r="8.2" />
<circle cx="169.32" cy="418.35" r="3.94" />
<circle cx="135.85" cy="658.7" r="2.49" />
<circle cx="135.85" cy="658.7" r="1.2" />
<circle cx="129.82" cy="669.18" r="2.4" />
<circle cx="129.82" cy="669.18" r="1.15" />
<circle cx="119.27" cy="672" r="2.4" />
<circle cx="119.27" cy="672" r="1.15" />
<circle cx="110.43" cy="669.71" r="2.4" />
<circle cx="110.43" cy="669.71" r="1.15" />
<circle cx="109.4" cy="675.2" r="2.4" />
<circle cx="109.4" cy="675.2" r="1.15" />
<circle cx="103.14" cy="677.14" r="2.4" />
<circle cx="103.14" cy="677.14" r="1.15" />
<circle cx="192.54" cy="960.74" r="3.75" />
<circle cx="192.54" cy="960.74" r="1.8" />
<circle cx="174" cy="1042.11" r="2.4" />
<circle cx="174" cy="1042.11" r="1.15" />
<circle cx="199.43" cy="1046.71" r="2.4" />
<circle cx="199.43" cy="1046.71" r="1.15" />
<circle cx="205.79" cy="1051.86" r="2.4" />
<circle cx="205.79" cy="1051.86" r="1.15" />
<circle cx="217.12" cy="1056.12" r="2.4" />
<circle cx="217.12" cy="1056.12" r="1.15" />
<circle cx="241" cy="1062.5" r="2.4" />
<circle cx="241" cy="1062.5" r="1.15" />
<circle cx="274.4" cy="1078.6" r="2.4" />
<circle cx="274.4" cy="1078.6" r="1.15" />
<circle cx="288.32" cy="1080.43" r="2.92" />
<circle cx="288.32" cy="1080.43" r="1.4" />
<circle cx="939.62" cy="143.62" r="2.4" />
<circle cx="939.62" cy="143.62" r="1.15" />
<circle cx="1327.82" cy="117.36" r="4.42" />
<circle cx="1327.82" cy="117.36" r="2.12" />
<circle cx="1342" cy="120.5" r="2.4" />
<circle cx="1342" cy="120.5" r="1.15" />
<circle cx="1417.5" cy="129.5" r="2.4" />
<circle cx="1417.5" cy="129.5" r="1.15" />
<circle cx="2076.86" cy="384.44" r="5.19" />
<circle cx="2076.86" cy="384.44" r="2.49" />
<circle cx="1797.22" cy="1031.96" r="2.49" />
<circle cx="1797.22" cy="1031.96" r="1.2" />
<circle cx="1763.78" cy="1051" r="2.4" />
<circle cx="1763.78" cy="1051" r="1.15" />
<circle cx="2017.57" cy="1207.03" r="5.01" />
<circle cx="2017.57" cy="1207.03" r="2.4" />
</g>
<g id="stipple" fill="black" stroke="none">
<circle cx="227" cy="412" r="0.55" />
<circle cx="226" cy="439" r="0.64" />
<circle cx="379" cy="473" r="0.71" />
<circle cx="385" cy="428" r="0.97" />
<circle cx="422.63" cy="542.98" r="1.78" />
<circle cx="436.68" cy="541.38" r="1.65" />
<circle cx="458.62" cy="550.67" r="1.95" />
<circle cx="501.16" cy="514.84" r="1.67" />
<circle cx="552.74" cy="566.94" r="1.86" />
<circle cx="521" cy="668" r="0.86" />
<circle cx="513.3" cy="669.16" r="1.91" />
<circle cx="488" cy="685" r="0.97" />
<circle cx="479.58" cy="674.96" r="1.91" />
<circle cx="467.37" cy="675.49" r="1.95" />
<circle cx="468.05" cy="665.05" r="1.67" />
<circle cx="440.39" cy="663.66" r="1.8" />
<circle cx="391" cy="670" r="0.68" />
<circle cx="381.19" cy="664.36" r="1.76" />
<circle cx="308.08" cy="668.31" r="1.9" />
<circle cx="295.49" cy="657.33" r="1.93" />
<circle cx="288.05" cy="673.57" r="1.65" />
<circle cx="274.53" cy="661.71" r="1.9" />
<circle cx="261.02" cy="636.33" r="1.71" />
<circle cx="282.48" cy="622.33" r="1.71" />
<circle cx="230" cy="642" r="0.62" />
<circle cx="313" cy="698" r="0.71" />
<circle cx="299" cy="715" r="0.53" />
<circle cx="343.73" cy="754.77" r="1.88" />
<circle cx="364.26" cy="770.97" r="1.95" />
<circle cx="346" cy="783" r="0.62" />
<circle cx="289.27" cy="797.4" r="1.88" />
<circle cx="239.62" cy="802" r="1.91" />
<circle cx="195" cy="787.21" r="1.67" />
<circle cx="201.05" cy="769.49" r="1.73" />
<circle cx="154.9" cy="718.46" r="1.95" />
<circle cx="136.07" cy="696.72" r="1.95" />
<circle cx="95" cy="674" r="1.1" />
<circle cx="68" cy="677" r="0.63" />
<circle cx="76" cy="727" r="0.98" />
<circle cx="77.22" cy="728.66" r="1.95" />
<circle cx="64.76" cy="735.33" r="1.93" />
<circle cx="70.19" cy="749.21" r="1.95" />
<circle cx="71" cy="771" r="0.96" />
<circle cx="89.84" cy="778.93" r="1.95" />
<circle cx="104" cy="792" r="0.68" />
<circle cx="47" cy="760" r="0.83" />
<circle cx="45.19" cy="737.57" r="1.65" />
<circle cx="46.62" cy="726.18" r="1.69" />
<circle cx="137.83" cy="988.25" r="1.95" />
<circle cx="160.27" cy="1001.84" r="1.93" />
<circle cx="150" cy="1025" r="0.59" />
<circle cx="175" cy="1036" r="0.59" />
<circle cx="201" cy="1035.18" r="1.8" />
<circle cx="195.07" cy="1012.56" r="1.95" />
<circle cx="259.1" cy="1006.46" r="1.91" />
<circle cx="274" cy="1000" r="0.55" />
<circle cx="296" cy="1057" r="0.53" />
<circle cx="386" cy="1048" r="0.56" />
<circle cx="389.37" cy="993.51" r="1.95" />
<circle cx="449.44" cy="993.22" r="1.73" />
<circle cx="462.52" cy="960.17" r="1.76" />
<circle cx="517.96" cy="940.12" r="1.95" />
<circle cx="499.02" cy="888.31" r="1.76" />
<circle cx="492" cy="821" r="0.6" />
<circle cx="475" cy="825" r="0.69" />
<circle cx="456" cy="788" r="0.76" />
<circle cx="454.45" cy="787.17" r="1.76" />
<circle cx="453" cy="787" r="1.32" />
<circle cx="474" cy="734" r="0.63" />
<circle cx="513.34" cy="706.45" r="1.67" />
<circle cx="523.68" cy="732.59" r="1.65" />
<circle cx="589" cy="824" r="0.55" />
<circle cx="648" cy="816" r="0.71" />
<circle cx="730" cy="821" r="0.99" />
<circle cx="743" cy="817" r="0.56" />
<circle cx="782.13" cy="909.33" r="1.69" />
<circle cx="800" cy="922" r="0.6" />
<circle cx="856.26" cy="897.79" r="1.78" />
<circle cx="884" cy="940" r="0.54" />
<circle cx="892.86" cy="848.12" r="1.93" />
<circle cx="899" cy="805" r="0.51" />
<circle cx="900" cy="797" r="0.85" />
<circle cx="911.18" cy="799.01" r="1.95" />
<circle cx="890.35" cy="698.04" r="1.88" />
<circle cx="886.66" cy="668.9" r="1.73" />
<circle cx="903.84" cy="653.78" r="1.65" />
<circle cx="912.92" cy="666.88" r="1.88" />
<circle cx="925" cy="652" r="1.25" />
<circle cx="930.64" cy="636.73" r="1.82" />
<circle cx="940" cy="624" r="1.08" />
<circle cx="959.71" cy="614.04" r="1.82" />
<circle cx="925.88" cy="596.88" r="1.73" />
<circle cx="887.62" cy="569.8" r="1.95" />
<circle cx="888" cy="568" r="1.39" />
<circle cx="904" cy="515" r="0.63" />
<circle cx="886" cy="512" r="0.61" />
<circle cx="824.52" cy="498.23" r="1.8" />
<circle cx="792.67" cy="488.24" r="1.9" />
<circle cx="759.18" cy="480.38" r="1.95" />
<circle cx="758.33" cy="493.75" r="1.95" />
<circle cx="743" cy="485" r="0.91" />
<circle cx="738.15" cy="491.67" r="1.84" />
<circle cx="738" cy="472" r="0.76" />
<circle cx="732" cy="420" r="0.6" />
<circle cx="778.67" cy="432.7" r="1.84" />
<circle cx="795.52" cy="416.56" r="1.91" />
<circle cx="811" cy="419" r="1.37" />
<circle cx="811.72" cy="420.72" r="1.69" />
<circle cx="774.11" cy="330.11" r="1.65" />
<circle cx="781.67" cy="291.59" r="1.69" />
<circle cx="797.48" cy="286.65" r="1.88" />
<circle cx="769" cy="263" r="0.61" />
<circle cx="771.28" cy="256.05" r="1.69" />
<circle cx="781" cy="158" r="0.55" />
<circle cx="788" cy="158" r="0.64" />
<circle cx="875" cy="145" r="0.66" />
<circle cx="985" cy="234" r="0.59" />
<circle cx="989.68" cy="235.13" r="1.67" />
<circle cx="992" cy="233" r="0.69" />
<circle cx="1014" cy="220" r="1.04" />
<circle cx="1034" cy="236" r="0.73" />
<circle cx="1035.89" cy="247.66" r="1.95" />
<circle cx="1059.18" cy="251.88" r="1.9" />
<circle cx="1079.71" cy="214.97" r="1.67" />
<circle cx="1080" cy="215" r="0.91" />
<circle cx="1068" cy="182" r="0.61" />
<circle cx="1084.17" cy="180.02" r="1.86" />
<circle cx="1118.08" cy="195.37" r="1.67" />
<circle cx="1157" cy="218" r="0.68" />
<circle cx="1168.63" cy="216.4" r="1.78" />
<circle cx="1169" cy="214" r="0.92" />
<circle cx="1150.38" cy="241.05" r="1.95" />
<circle cx="1136" cy="238" r="0.73" />
<circle cx="1157.39" cy="270.69" r="1.95" />
<circle cx="1174" cy="272" r="0.84" />
<circle cx="1182" cy="296" r="0.77" />
<circle cx="1183.49" cy="304.22" r="1.65" />
<circle cx="1159.71" cy="302.06" r="1.93" />
<circle cx="1157" cy="299" r="1" />
<circle cx="1128" cy="295" r="1.25" />
<circle cx="1128" cy="281" r="0.52" />
<circle cx="1154.77" cy="341.42" r="1.95" />
<circle cx="1188.19" cy="351.66" r="1.95" />
<circle cx="1177" cy="416" r="1.17" />
<circle cx="1177.29" cy="417.2" r="1.73" />
<circle cx="1180.44" cy="431.46" r="1.69" />
<circle cx="1201.04" cy="489.57" r="1.95" />
<circle cx="1214.09" cy="484.72" r="1.95" />
<circle cx="1250.63" cy="484.72" r="1.95" />
<circle cx="1252" cy="545" r="1.33" />
<circle cx="1306" cy="522" r="0.67" />
<circle cx="1320.55" cy="532.83" r="1.86" />
<circle cx="1318" cy="558" r="0.83" />
<circle cx="1328.13" cy="568.29" r="1.95" />
<circle cx="1331" cy="568" r="0.84" />
<circle cx="1345" cy="583" r="0.99" />
<circle cx="1350" cy="576" r="0.8" />
<circle cx="1354.61" cy="588.13" r="1.67" />
<circle cx="1364.6" cy="594.62" r="1.76" />
<circle cx="1372.16" cy="604.49" r="1.93" />
<circle cx="1354.63" cy="617.63" r="1.93" />
<circle cx="1343.29" cy="602.78" r="1.95" />
<circle cx="1308.64" cy="623.13" r="1.82" />
<circle cx="1283" cy="624" r="1.09" />
<circle cx="1270" cy="632" r="1.35" />
<circle cx="1264" cy="679" r="0.71" />
<circle cx="1255.78" cy="693.46" r="1.95" />
<circle cx="1239.86" cy="678.69" r="1.76" />
<circle cx="1228" cy="667" r="0.87" />
<circle cx="1184" cy="658" r="0.73" />
<circle cx="1144" cy="646" r="1.19" />
<circle cx="1117" cy="643" r="0.98" />
<circle cx="1093.6" cy="643.81" r="1.78" />
<circle cx="1076.58" cy="611.53" r="1.78" />
<circle cx="1075" cy="608" r="0.97" />
<circle cx="1067" cy="580" r="0.62" />
<circle cx="1066.66" cy="562.09" r="1.95" />
<circle cx="1080.95" cy="564.78" r="1.95" />
<circle cx="1088" cy="547" r="1.24" />
<circle cx="1102.3" cy="545.05" r="1.8" />
<circle cx="1105.08" cy="555.04" r="1.91" />
<circle cx="1100" cy="569" r="1.29" />
<circle cx="1131.06" cy="569.26" r="1.91" />
<circle cx="1141" cy="562" r="1.3" />
<circle cx="1132.84" cy="548.24" r="1.65" />
<circle cx="1143.36" cy="545.22" r="1.95" />
<circle cx="1156.68" cy="540.16" r="1.8" />
<circle cx="1161" cy="546" r="1.3" />
<circle cx="1158" cy="553" r="1.24" />
<circle cx="1167.68" cy="554.83" r="1.73" />
<circle cx="1177" cy="559" r="1.09" />
<circle cx="1177.03" cy="561.26" r="1.69" />
<circle cx="1164" cy="588" r="1.16" />
<circle cx="1156" cy="494" r="0.68" />
<circle cx="1088.28" cy="497.85" r="1.95" />
<circle cx="1052" cy="503" r="0.83" />
<circle cx="1039" cy="544" r="1.27" />
<circle cx="1040.87" cy="546.02" r="1.95" />
<circle cx="959" cy="511" r="0.6" />
<circle cx="952.21" cy="651.95" r="1.95" />
<circle cx="933.16" cy="668.24" r="1.65" />
<circle cx="935.56" cy="680.56" r="1.69" />
<circle cx="1032" cy="788" r="0.64" />
<circle cx="1090" cy="787" r="0.67" />
<circle cx="1154" cy="731" r="0.88" />
<circle cx="1136.67" cy="688.81" r="1.88" />
<circle cx="1135" cy="688" r="0.97" />
<circle cx="1232.33" cy="713.82" r="1.69" />
<circle cx="1290.81" cy="866.3" r="1.78" />
<circle cx="1336.17" cy="913.21" r="1.76" />
<circle cx="1315" cy="938" r="0.51" />
<circle cx="1321.41" cy="946.46" r="1.65" />
<circle cx="1309.38" cy="966.44" r="1.69" />
<circle cx="1291.54" cy="957.22" r="1.65" />
<circle cx="1368.33" cy="1000.13" r="1.95" />
<circle cx="1397.79" cy="949.38" r="1.88" />
<circle cx="1422.1" cy="946.4" r="1.76" />
<circle cx="1468" cy="959" r="0.53" />
<circle cx="1496" cy="954" r="0.63" />
<circle cx="1524" cy="936" r="0.81" />
<circle cx="1522" cy="906.42" r="1.91" />
<circle cx="1505" cy="911" r="1" />
<circle cx="1482" cy="889" r="1.65" />
<circle cx="1533.75" cy="780.02" r="1.88" />
<circle cx="1487" cy="722" r="0.7" />
<circle cx="1466" cy="704" r="0.51" />
<circle cx="1492" cy="659.58" r="1.67" />
<circle cx="1432" cy="611" r="0.7" />
<circle cx="1405.47" cy="599.48" r="1.71" />
<circle cx="1398" cy="688" r="0.53" />
<circle cx="1347.95" cy="494.97" r="1.67" />
<circle cx="1338.57" cy="486.75" r="1.93" />
<circle cx="1351.5" cy="482.83" r="1.95" />
<circle cx="1376.09" cy="466.51" r="1.78" />
<circle cx="1393.95" cy="358.14" r="1.65" />
<circle cx="1390.02" cy="342.57" r="1.86" />
<circle cx="1382.67" cy="327.76" r="1.93" />
<circle cx="1402.79" cy="316.25" r="1.95" />
<circle cx="1398.86" cy="302.91" r="1.78" />
<circle cx="1419.26" cy="317.02" r="1.91" />
<circle cx="1409.61" cy="344.34" r="1.67" />
<circle cx="1424" cy="360" r="1.24" />
<circle cx="1426.39" cy="363.63" r="1.95" />
<circle cx="1363.42" cy="299.62" r="1.82" />
<circle cx="1348" cy="252" r="1" />
<circle cx="1357" cy="232" r="0.95" />
<circle cx="1370" cy="236" r="1.01" />
<circle cx="1394.55" cy="249.41" r="1.93" />
<circle cx="1385.9" cy="205.1" r="1.71" />
<circle cx="1382" cy="187" r="0.63" />
<circle cx="1366.36" cy="198.85" r="1.95" />
<circle cx="1354" cy="198" r="0.58" />
<circle cx="1333.86" cy="187.24" r="1.95" />
<circle cx="1322.63" cy="200.11" r="1.84" />
<circle cx="1332" cy="226" r="0.85" />
<circle cx="1310" cy="236" r="0.77" />
<circle cx="1304" cy="223" r="1.24" />
<circle cx="1284.39" cy="210.3" r="1.8" />
<circle cx="1270.03" cy="201.84" r="1.95" />
<circle cx="1286.69" cy="178.92" r="1.93" />
<circle cx="1269.75" cy="169.77" r="1.95" />
<circle cx="1250.65" cy="167.57" r="1.95" />
<circle cx="1205.62" cy="176.43" r="1.95" />
<circle cx="1190.18" cy="137.66" r="1.91" />
<circle cx="1174" cy="113" r="0.62" />
<circle cx="1211" cy="233" r="1.03" />
<circle cx="1246" cy="245" r="0.7" />
<circle cx="1250" cy="236" r="1.18" />
<circle cx="1249" cy="229" r="0.62" />
<circle cx="1255" cy="227" r="0.73" />
<circle cx="1282" cy="234" r="1.04" />
<circle cx="1280" cy="250" r="0.79" />
<circle cx="1288" cy="250" r="1.44" />
<circle cx="1289" cy="261" r="0.68" />
<circle cx="1292" cy="286" r="0.65" />
<circle cx="1304" cy="287" r="0.72" />
<circle cx="1279.69" cy="287.38" r="1.69" />
<circle cx="1288.5" cy="308.92" r="1.88" />
<circle cx="1273" cy="331" r="0.91" />
<circle cx="1272.02" cy="333.12" r="1.9" />
<circle cx="1232" cy="290" r="1.42" />
<circle cx="1205" cy="284" r="0.88" />
<circle cx="1256" cy="263" r="1.1" />
<circle cx="1255" cy="260" r="1.04" />
<circle cx="1314.78" cy="164.51" r="1.9" />
<circle cx="1318" cy="151" r="0.46" />
<circle cx="1401.53" cy="119.65" r="1.95" />
<circle cx="1443.59" cy="167" r="1.8" />
<circle cx="1454.85" cy="160.71" r="1.95" />
<circle cx="1471" cy="172" r="0.71" />
<circle cx="1460" cy="182" r="0.49" />
<circle cx="1490" cy="210" r="0.82" />
<circle cx="1490.76" cy="211.54" r="1.73" />
<circle cx="1515.55" cy="218.97" r="1.95" />
<circle cx="1531" cy="234" r="0.55" />
<circle cx="1564.31" cy="221.5" r="1.62" />
<circle cx="1567.1" cy="234.54" r="1.95" />
<circle cx="1577.56" cy="232.22" r="1.73" />
<circle cx="1584.05" cy="239.55" r="1.76" />
<circle cx="1583.98" cy="210.56" r="1.95" />
<circle cx="1564.81" cy="204.58" r="1.95" />
<circle cx="1572" cy="187" r="0.67" />
<circle cx="1589.09" cy="188.28" r="1.78" />
<circle cx="1547.72" cy="170.26" r="1.84" />
<circle cx="1511" cy="192" r="0.71" />
<circle cx="1511.49" cy="194.18" r="1.93" />
<circle cx="1503.07" cy="187.4" r="1.78" />
<circle cx="1445.88" cy="258.47" r="1.78" />
<circle cx="1590.08" cy="300.51" r="1.65" />
<circle cx="1615.47" cy="286.92" r="1.9" />
<circle cx="1654.31" cy="291.25" r="1.62" />
<circle cx="1651.92" cy="272.69" r="1.95" />
<circle cx="1710" cy="276" r="0.58" />
<circle cx="1757.03" cy="476.44" r="1.62" />
<circle cx="1727" cy="485" r="0.6" />
<circle cx="1703" cy="493" r="0.63" />
<circle cx="1708.05" cy="541.5" r="1.76" />
<circle cx="1707.06" cy="557.08" r="1.88" />
<circle cx="1718.9" cy="563.12" r="1.73" />
<circle cx="1723.98" cy="551.23" r="1.95" />
<circle cx="1724" cy="547" r="0.73" />
<circle cx="1732.61" cy="570.46" r="1.95" />
<circle cx="1737.69" cy="590.85" r="1.69" />
<circle cx="1757" cy="578" r="0.66" />
<circle cx="1764.24" cy="567.2" r="1.91" />
<circle cx="1796.45" cy="585.64" r="1.76" />
<circle cx="1801.55" cy="595.04" r="1.9" />
<circle cx="1791.77" cy="597.11" r="1.86" />
<circle cx="1813" cy="598" r="0.75" />
<circle cx="1829" cy="588" r="0.64" />
<circle cx="1817.57" cy="576.25" r="1.8" />
<circle cx="1852" cy="590" r="0.79" />
<circle cx="1860" cy="580" r="0.53" />
<circle cx="1862" cy="564" r="0.62" />
<circle cx="1888" cy="570" r="0.63" />
<circle cx="1889.18" cy="552.82" r="1.95" />
<circle cx="1897" cy="610" r="0.94" />
<circle cx="1799" cy="623" r="0.69" />
<circle cx="1797.97" cy="624.43" r="1.95" />
<circle cx="1793" cy="636" r="0.69" />
<circle cx="1697.78" cy="612.64" r="1.95" />
<circle cx="1682.33" cy="637.17" r="1.62" />
<circle cx="1676.34" cy="589.91" r="1.86" />
<circle cx="1657.55" cy="561" r="1.76" />
<circle cx="1616.26" cy="590.74" r="1.86" />
<circle cx="1576.49" cy="591.05" r="1.69" />
<circle cx="1579" cy="547.32" r="1.95" />
<circle cx="1651" cy="820" r="0.54" />
<circle cx="1699" cy="833" r="0.7" />
<circle cx="1708" cy="803" r="0.71" />
<circle cx="1745" cy="823" r="0.71" />
<circle cx="1760" cy="817" r="0.9" />
<circle cx="1772" cy="821" r="0.8" />
<circle cx="1764" cy="829" r="0.72" />
<circle cx="1766" cy="832" r="0.62" />
<circle cx="1745" cy="847" r="0.74" />
<circle cx="1681" cy="863" r="0.59" />
<circle cx="1705.45" cy="933.84" r="1.95" />
<circle cx="1715" cy="973" r="0.86" />
<circle cx="1705" cy="982" r="0.78" />
<circle cx="1685" cy="1002" r="0.53" />
<circle cx="1669" cy="991" r="0.61" />
<circle cx="1636" cy="990" r="0.83" />
<circle cx="1636.03" cy="1005.17" r="1.95" />
<circle cx="1599.97" cy="940.88" r="1.71" />
<circle cx="1752" cy="1015" r="0.54" />
<circle cx="1766" cy="1020" r="0.85" />
<circle cx="1771" cy="1038" r="0.74" />
<circle cx="1781" cy="1051" r="0.9" />
<circle cx="1768" cy="1058" r="0.62" />
<circle cx="1735" cy="1061" r="0.63" />
<circle cx="1781" cy="995" r="0.66" />
<circle cx="1784" cy="986" r="0.59" />
<circle cx="1807.6" cy="972.13" r="1.95" />
<circle cx="1813" cy="1007" r="0.58" />
<circle cx="1806" cy="1014" r="0.62" />
<circle cx="1836" cy="1010" r="0.63" />
<circle cx="1842" cy="1022" r="0.53" />
<circle cx="1882.85" cy="971.73" r="1.71" />
<circle cx="1891" cy="956" r="0.6" />
<circle cx="1921.67" cy="847.18" r="1.82" />
<circle cx="1878.32" cy="740.17" r="1.95" />
<circle cx="1880" cy="737" r="0.55" />
<circle cx="1882" cy="737" r="0.56" />
<circle cx="1978" cy="739" r="0.53" />
<circle cx="2071.51" cy="763.35" r="1.95" />
<circle cx="2080.02" cy="953.2" r="1.95" />
<circle cx="1890" cy="1170" r="0.7" />
<circle cx="1903.36" cy="1183.66" r="1.8" />
<circle cx="1594.92" cy="1126.62" r="1.95" />
<circle cx="1574.4" cy="1132.21" r="1.78" />
<circle cx="1570" cy="1153" r="0.66" />
<circle cx="1500.32" cy="1142.22" r="1.65" />
<circle cx="1457" cy="1151" r="1.4" />
<circle cx="1432" cy="1140" r="1.24" />
<circle cx="1405" cy="1153" r="0.84" />
<circle cx="1375.38" cy="1151.76" r="1.95" />
<circle cx="1435.61" cy="1175.95" r="1.73" />
<circle cx="1442.12" cy="1021.12" r="1.78" />
<circle cx="1184.72" cy="985.25" r="1.95" />
<circle cx="1146.29" cy="1008.18" r="1.9" />
<circle cx="1142" cy="1007" r="0.59" />
<circle cx="1112.32" cy="1010.54" r="1.65" />
<circle cx="1075.57" cy="1018.89" r="1.8" />
<circle cx="1063.73" cy="1090.39" r="1.73" />
<circle cx="973.22" cy="1148.78" r="1.73" />
<circle cx="912.06" cy="1144.93" r="1.95" />
<circle cx="897.22" cy="1148.11" r="1.95" />
<circle cx="902" cy="1162.67" r="1.78" />
<circle cx="876.56" cy="1153.08" r="1.69" />
<circle cx="863.93" cy="1168.12" r="1.76" />
<circle cx="784.27" cy="1160.54" r="1.95" />
<circle cx="661" cy="974" r="0.63" />
<circle cx="530" cy="1140" r="0.58" />
<circle cx="244" cy="936" r="0.6" />
<circle cx="716" cy="589" r="0.6" />
<circle cx="680" cy="386" r="1.4" />
<circle cx="604" cy="233" r="0.79" />
<circle cx="647.3" cy="212.55" r="1.8" />
<circle cx="982.31" cy="262" r="1.82" />
<circle cx="1004.9" cy="256.71" r="1.95" />
<circle cx="1009" cy="274" r="0.84" />
<circle cx="1067.42" cy="315.96" r="1.82" />
<circle cx="1011.42" cy="366.09" r="1.82" />
<circle cx="985" cy="364" r="0.87" />
<circle cx="1031" cy="127" r="0.65" />
<circle cx="1173.64" cy="890.11" r="1.8" />
<circle cx="1196.77" cy="912.23" r="1.95" />
<circle cx="1182.1" cy="1121.13" r="1.69" />
<circle cx="987.11" cy="952.02" r="1.82" />
<circle cx="1939.91" cy="484.07" r="1.78" />
<circle cx="1892.27" cy="386.71" r="1.73" />
<circle cx="1956" cy="302" r="0.5" />
<circle cx="2006.31" cy="333.85" r="1.88" />
<circle cx="2029.36" cy="350.38" r="1.95" />
<circle cx="2060.5" cy="369.48" r="1.84" />
</g>
<g id="eye-pupils" fill="black" stroke="none">
<circle cx="1187.31" cy="351.81" r="2" />
<circle cx="1281.45" cy="704.52" r="2" />
<circle cx="1594.55" cy="1125.82" r="2" />
</g>
</svg>