<svg xmlns="http://www.w3.org/2000/svg" version="1.1" viewBox="0 0 1892 1324" width="1892" height="1324">
<rect width="100%" height="100%" fill="white" />
<g id="outline" stroke="black" stroke-width="1.48" stroke-linecap="round" stroke-linejoin="round" fill="none">
<polyline points="42,337.5 42,448.5 48.25,535.69 60.75,599.06 79.5,638.62 104.5,654.38 128,664.81 150,669.94 170.5,669.75 189.5,664.25 208.25,651.44 226.75,631.31 245,603.88 263,569.12 301.62,544.69 360.88,530.56 440.75,526.75 541.25,533.25 618.75,534.81 673.25,531.44 704.75,523.12 713.25,509.88 724.81,501.88 739.44,499.12 757.12,501.62 777.88,509.38 810.75,516.31 855.75,522.44 912.88,527.75 982.12,532.25 1038.19,539.19 1081.06,548.56 1110.75,560.38 1127.25,574.62 1142.62,591.44 1156.88,610.81 1170,632.75 1182,657.25 1202.06,675.69 1230.19,688.06 1266.38,694.38 1310.62,694.62 1349.44,698.75 1382.81,706.75 1410.75,718.62 1433.25,734.38 1446.5,739.19 1450.5,733.06 1445.25,716 1430.75,688 1413.38,662.5 1393.12,639.5 1370,619 1344,601 1321,580.81 1301,558.44 1284,533.88 1270,507.12 1280.25,493.5 1314.75,493 1373.5,505.62 1456.5,531.38 1535.5,549.38 1610.5,559.62 1681.5,562.12 1748.5,556.88 1798.75,547.38 1832.25,533.62 1849,515.62 1849,493.38 1838.56,480.06 1817.69,475.69 1786.38,480.25 1744.62,493.75 1706.75,504.19 1672.75,511.56 1642.62,515.88 1616.38,517.12 1573.44,510.94 1513.81,497.31 1437.5,476.25 1344.5,447.75 1290.38,421.62 1275.12,397.88 1298.75,376.5 1361.25,357.5 1419.31,343.62 1472.94,334.88 1522.12,331.25 1566.88,332.75 1608.81,331.81 1647.94,328.44 1684.25,322.62 1717.75,314.38 1747.94,304.12 1774.81,291.88 1798.38,277.62 1818.62,261.38 1833.81,242.69 1843.94,221.56 1849,198 1849,172 1840.5,160.81 1823.5,164.44 1798,182.88 1764,216.12 1717.31,242.94 1657.94,263.31 1585.88,277.25 1501.12,284.75 1438.88,282.75 1399.12,271.25 1381.88,250.25 1387.12,219.75 1396.56,194.56 1410.19,174.69 1428,160.12 1450,150.88 1461.44,143.5 1462.31,138 1452.62,134.38 1432.38,132.62 1422.19,129.06 1422.06,123.69 1432,116.5 1452,107.5 1459.56,101.06 1454.69,97.19 1437.38,95.88 1407.62,97.12 1379.25,103 1352.25,113.5 1326.62,128.62 1302.38,148.38 1265.31,168 1215.44,187.5 1152.75,206.88 1077.25,226.12 1011.25,240.88 954.75,251.12 907.75,256.88 870.25,258.12 835.44,261.75 803.31,267.75 773.88,276.12 747.12,286.88 725.56,290.5 709.19,287 698,276.38 692,258.62 660.81,247.88 604.44,244.12 522.88,247.38 416.12,257.62 333.31,255.69 274.44,241.56 239.5,215.25 228.5,176.75 217.56,145.88 206.69,122.62 195.88,107 185.12,99 169.12,98.25 147.88,104.75 121.38,118.5 89.62,139.5 65.81,183 49.94,249 42,337.5" />
<polyline points="1237.12,627.25 1237.88,626.75 1238.5,626.44 1239,626.31 1239.38,626.38 1239.62,626.62 1240.31,626.81 1241.44,626.94 1243,627 1245,627 1247.12,627.25 1249.38,627.75 1251.75,628.5 1254.25,629.5 1256.62,630.31 1258.88,630.94 1261,631.38 1263,631.62 1264.69,631.94 1266.06,632.31 1267.12,632.75 1267.88,633.25 1268.88,633.69 1270.12,634.06 1271.62,634.38 1273.38,634.62 1275.12,635 1276.88,635.5 1278.62,636.12 1280.38,636.88 1282.5,637.56 1285,638.19 1287.88,638.75 1291.12,639.25 1294,639.81 1296.5,640.44 1298.62,641.12 1300.38,641.88 1302.19,642.5 1304.06,643 1306,643.38 1308,643.62 1309.69,643.94 1311.06,644.31 1312.12,644.75 1312.88,645.25 1313.69,645.62 1314.56,645.88 1315.5,646 1316.5,646 1317.56,646.12 1318.69,646.38 1319.88,646.75 1321.12,647.25 1322.44,647.62 1323.81,647.88 1325.25,648 1326.75,648 1328.44,648.25 1330.31,648.75 1332.38,649.5 1334.62,650.5 1336.75,651.31 1338.75,651.94 1340.62,652.38 1342.38,652.62 1344.5,653.19 1347,654.06 1349.88,655.25 1353.12,656.75 1356,658.25 1358.5,659.75 1360.62,661.25 1362.38,662.75 1363.81,663.88 1364.94,664.62 1365.75,665 1366.25,665 1366.88,665.31 1367.62,665.94 1368.5,666.88 1369.5,668.12 1370.12,669.19 1370.38,670.06 1370.25,670.75 1369.75,671.25 1369.31,671.56 1368.94,671.69 1368.62,671.62 1368.38,671.38 1367.62,671.19 1366.38,671.06 1364.62,671 1362.38,671 1360.62,670.94 1359.38,670.81 1358.62,670.62 1358.38,670.38 1357.44,670.19 1355.81,670.06 1353.5,670 1350.5,670 1348.19,669.94 1346.56,669.81 1345.62,669.62 1345.38,669.38 1344.81,669.19 1343.94,669.06 1342.75,669 1341.25,669 1339.75,668.88 1338.25,668.62 1336.75,668.25 1335.25,667.75 1332.62,667.31 1328.88,666.94 1324,666.62 1318,666.38 1312.56,665.88 1307.69,665.12 1303.38,664.12 1299.62,662.88 1294.25,661.94 1287.25,661.31 1278.62,661 1268.38,661 1260.5,661.06 1255,661.19 1251.88,661.38 1251.12,661.62 1250.31,661.62 1249.44,661.38 1248.5,660.88 1247.5,660.12 1246.5,659 1245.5,657.5 1244.5,655.62 1243.5,653.38 1242.31,651.19 1240.94,649.06 1239.38,647 1237.62,645 1236.19,643.25 1235.06,641.75 1234.25,640.5 1233.75,639.5 1233.56,638.12 1233.69,636.38 1234.12,634.25 1234.88,631.75 1235.62,629.75 1236.38,628.25 1237.12,627.25" />
<polyline points="1840.75,1008 1835.25,1002 1824.69,995.94 1809.06,989.81 1788.38,983.62 1762.62,977.38 1722.94,970.88 1669.31,964.12 1601.75,957.12 1520.25,949.88 1456.44,943.12 1410.31,936.88 1381.88,931.12 1371.12,925.88 1362.25,917.12 1355.25,904.88 1350.12,889.12 1346.88,869.88 1338.44,852.25 1324.81,836.25 1306,821.88 1282,809.12 1260.25,799 1240.75,791.5 1223.5,786.62 1208.5,784.38 1181.5,788.75 1142.5,799.75 1091.5,817.38 1028.5,841.62 969.38,861.25 914.12,876.25 862.75,886.62 815.25,892.38 777.75,895.31 750.25,895.44 732.75,892.75 725.25,887.25 694.62,885.88 640.88,888.62 564,895.5 464,906.5 387.94,913 335.81,915 307.62,912.5 303.38,905.5 293.5,903.19 278,905.56 256.88,912.62 230.12,924.38 200.81,934.19 168.94,942.06 134.5,948 97.5,952 69.75,966 51.25,990 42,1024 42,1068 46.81,1103.44 56.44,1130.31 70.88,1148.62 90.12,1158.38 109.12,1165.81 127.88,1170.94 146.38,1173.75 164.62,1174.25 182.88,1170.12 201.12,1161.38 219.38,1148 237.62,1130 276.88,1119.44 337.12,1116.31 418.38,1120.62 520.62,1132.38 599.25,1137.38 654.25,1135.62 685.62,1127.12 693.38,1111.88 705.06,1101.44 720.69,1095.81 740.25,1095 763.75,1099 805.31,1101.62 864.94,1102.88 942.62,1102.75 1038.38,1101.25 1116.06,1103.69 1175.69,1110.06 1217.25,1120.38 1240.75,1134.62 1258.75,1147.06 1271.25,1157.69 1278.25,1166.5 1279.75,1173.5 1279.06,1180.44 1276.19,1187.31 1271.12,1194.12 1263.88,1200.88 1261.06,1205.5 1262.69,1208 1268.75,1208.38 1279.25,1206.62 1288.62,1202.31 1296.88,1195.44 1304,1186 1310,1174 1320.31,1169.31 1334.94,1171.94 1353.88,1181.88 1377.12,1199.12 1395.56,1211.75 1409.19,1219.75 1418,1223.12 1422,1221.88 1423.69,1218.44 1423.06,1212.81 1420.12,1205 1414.88,1195 1415.88,1190.81 1423.12,1192.44 1436.62,1199.88 1456.38,1213.12 1468.81,1218.75 1473.94,1216.75 1471.75,1207.12 1462.25,1189.88 1470.31,1175.38 1495.94,1163.62 1539.12,1154.62 1599.88,1148.38 1649.06,1144.81 1686.69,1143.94 1712.75,1145.75 1727.25,1150.25 1744.38,1158.5 1764.12,1170.5 1786.5,1186.25 1811.5,1205.75 1830.25,1214.25 1842.75,1211.75 1849,1198.25 1849,1173.75 1843.88,1152.25 1833.62,1133.75 1818.25,1118.25 1797.75,1105.75 1765.06,1096.5 1720.19,1090.5 1663.12,1087.75 1593.88,1088.25 1537.69,1086.5 1494.56,1082.5 1464.5,1076.25 1447.5,1067.75 1439.38,1060.94 1440.12,1055.81 1449.75,1052.38 1468.25,1050.62 1483,1048.38 1494,1045.62 1501.25,1042.38 1504.75,1038.62 1505.31,1035.19 1502.94,1032.06 1497.62,1029.25 1489.38,1026.75 1493.75,1024.5 1510.75,1022.5 1540.38,1020.75 1582.62,1019.25 1621,1020 1655.5,1023 1686.12,1028.25 1712.88,1035.75 1738.94,1045.44 1764.31,1057.31 1789,1071.38 1813,1087.62 1831,1093.88 1843,1090.12 1849,1076.38 1849,1052.62 1847.62,1033.31 1844.88,1018.44 1840.75,1008" />
</g>
<g id="photo-detail" stroke="black" stroke-width="1.48" stroke-linecap="round" stroke-linejoin="round" fill="none">
<polyline points="491,418 492,437 485,440 495,438 495,432 501,429 501,427 495,426 492,418" />
<polyline points="1011,404 1008,407 1023,407 1031,410 1045,408 1046,412 1057,410 1057,407 1038,406 1037,404 1034,404 1033,407 1027,407 1026,405 1014,406 1012,404" />
<polyline points="1081,410 1081,417 1083,415 1096,414 1097,416 1103,416 1104,420 1108,422 1122,422 1125,427 1142,431 1155,438 1149,433 1151,427 1148,430 1139,430 1136,426 1136,420 1134,424 1128,424 1124,420 1114,418 1113,415 1106,416 1093,411 1091,414 1087,414 1086,411 1082,410" />
<polyline points="1083,334 1068,337 1071,340 1082,339 1083,336 1091,338 1113,337 1111,334 1101,334 1094,337 1085,336 1084,334" />
<polyline points="1060,336 1062,337 1059,338 1059,343 1054,344 1045,342 1043,345 1029,346 1024,343 1017,343 1016,346 1019,348 1011,350 1004,349 1003,346 1005,342 1016,343 1017,340 1027,344 1047,342 1047,337 1051,341 1055,341 1059,336" />
<polyline points="1118,333 1118,335 1130,337 1131,339 1155,338 1153,335 1133,338 1119,333" />
<polyline points="1308,330 1295,335 1283,334 1271,335 1269,337 1258,337 1251,334 1244,336 1234,333 1219,336 1254,339 1256,343 1257,338 1292,338 1313,331 1309,330" />
<polyline points="1376,148 1371,151 1363,163 1361,181 1357,188 1358,208 1356,209 1356,221 1349,231 1348,239 1341,246 1340,252 1335,253 1336,257 1340,255 1342,248 1349,242 1358,220 1359,200 1366,166 1371,158 1375,158 1377,163 1381,156 1384,155 1384,153 1381,153 1378,158 1373,158 1372,155 1377,148" />
<polyline points="1173,561 1173,568 1176,569 1179,585 1182,586 1180,588 1182,613 1180,621 1177,610 1179,603 1178,590 1176,589 1177,581 1173,572 1172,561" />
<polyline points="1203,950 1200,955 1189,955 1188,957 1183,956 1184,951 1177,954 1172,952 1167,954 1182,959 1184,963 1197,962 1199,960 1207,960 1203,956 1204,950" />
<polyline points="1220,952 1219,955 1213,954 1213,959 1226,959 1228,961 1230,955 1239,954 1241,958 1244,956 1244,954 1238,953 1223,955 1221,952" />
<polyline points="1225,982 1222,987 1215,987 1212,984 1208,988 1215,987 1216,993 1218,989 1222,989 1226,998 1224,990 1234,986 1235,993 1241,994 1242,998 1244,994 1252,994 1254,998 1253,991 1243,990 1243,984 1236,984 1234,982 1227,984 1226,982" />
<polyline points="1284,957 1283,961 1271,963 1281,963 1287,967 1297,964 1305,966 1305,959 1287,959 1285,957" />
<polyline points="993,981 1005,986 1009,990 1020,990 1023,1000 1021,1001 1013,996 1006,997 1004,994 995,995 994,991 986,992 975,986 975,984 991,983 992,981" />
<polyline points="709,917 708,933 705,936 705,947 703,947 701,938 708,928 706,920 708,917" />
<polyline points="610,963 613,965 612,975 609,976 609,980 606,980 605,978 608,977 607,971 598,972 595,969 609,970 609,967 603,966 609,963" />
<polyline points="559,964 563,964 563,967 553,967 554,973 551,974 551,980 555,984 551,985 548,970 551,969 551,965 558,964" />
<polyline points="528,989 531,990 532,997 539,997 538,999 530,1000 530,1007 523,1005 530,1001 530,994 523,991 527,989" />
<polyline points="393,1012 394,1016 397,1017 398,1023 406,1023 406,1025 398,1026 399,1031 386,1030 386,1028 392,1029 397,1027 397,1019 390,1015 392,1012" />
</g>
<g id="eye-outline" stroke="black" stroke-width="1.48" stroke-linecap="round" stroke-linejoin="round" fill="none">
<polyline points="616.7,300.3 616.9,301.23 617.51,302.12 618.5,302.95 619.83,303.7 621.47,304.32 623.35,304.81 625.42,305.15 627.59,305.32 629.81,305.32 631.98,305.15 634.05,304.81 635.93,304.32 637.57,303.7 638.9,302.95 639.89,302.12 640.5,301.23 640.7,300.3" />
<polyline points="616.7,300.3 616.9,299.37 617.51,298.48 618.5,297.65 619.83,296.9 621.47,296.28 623.35,295.79 625.42,295.45 627.59,295.28 629.81,295.28 631.98,295.45 634.05,295.79 635.93,296.28 637.57,296.9 638.9,297.65 639.89,298.48 640.5,299.37 640.7,300.3" />
<polyline points="781.93,1005.18 782.54,1007.96 784.36,1010.65 787.32,1013.14 791.33,1015.37 796.23,1017.25 801.88,1018.72 808.08,1019.73 814.61,1020.24 821.25,1020.24 827.78,1019.73 833.98,1018.72 839.62,1017.25 844.53,1015.37 848.54,1013.14 851.5,1010.65 853.32,1007.96 853.93,1005.18" />
<polyline points="781.93,1005.18 782.54,1002.41 784.36,999.72 787.32,997.22 791.33,995 796.23,993.12 801.88,991.65 808.08,990.64 814.61,990.13 821.25,990.13 827.78,990.64 833.98,991.65 839.62,993.12 844.53,995 848.54,997.22 851.5,999.72 853.32,1002.41 853.93,1005.18" />
</g>
<g id="sucker-rings" stroke="black" stroke-width="1.48" stroke-linecap="round" stroke-linejoin="round" fill="none">
<circle cx="212.75" cy="206.12" r="4.2" />
<circle cx="212.75" cy="206.12" r="2.02" />
<circle cx="219.8" cy="206.2" r="4.2" />
<circle cx="219.8" cy="206.2" r="2.02" />
<circle cx="307.31" cy="510.31" r="4.2" />
<circle cx="307.31" cy="510.31" r="2.02" />
<circle cx="254.4" cy="578.8" r="4.2" />
<circle cx="254.4" cy="578.8" r="2.02" />
<circle cx="190.08" cy="663.5" r="5.42" />
<circle cx="190.08" cy="663.5" r="2.6" />
<circle cx="181" cy="661.29" r="4.2" />
<circle cx="181" cy="661.29" r="2.02" />
<circle cx="175.33" cy="668.17" r="4.2" />
<circle cx="175.33" cy="668.17" r="2.02" />
<circle cx="487" cy="527.2" r="4.2" />
<circle cx="487" cy="527.2" r="2.02" />
<circle cx="518.92" cy="520.58" r="4.2" />
<circle cx="518.92" cy="520.58" r="2.02" />
<circle cx="565.4" cy="256.4" r="4.2" />
<circle cx="565.4" cy="256.4" r="2.02" />
<circle cx="578.8" cy="256.8" r="4.2" />
<circle cx="578.8" cy="256.8" r="2.02" />
<circle cx="685.67" cy="299.64" r="5.38" />
<circle cx="685.67" cy="299.64" r="2.58" />
<circle cx="758.5" cy="302.33" r="4.2" />
<circle cx="758.5" cy="302.33" r="2.02" />
<circle cx="935.14" cy="277.43" r="4.2" />
<circle cx="935.14" cy="277.43" r="2.02" />
<circle cx="1015.55" cy="261.38" r="4.2" />
<circle cx="1015.55" cy="261.38" r="2.02" />
<circle cx="1025.17" cy="252.67" r="4.2" />
<circle cx="1025.17" cy="252.67" r="2.02" />
<circle cx="1207.65" cy="381.87" r="8.03" />
<circle cx="1207.65" cy="381.87" r="3.85" />
<circle cx="1221.27" cy="376.82" r="4.2" />
<circle cx="1221.27" cy="376.82" r="2.02" />
<circle cx="1238.16" cy="377.61" r="5.2" />
<circle cx="1238.16" cy="377.61" r="2.49" />
<circle cx="1249.42" cy="426.8" r="5.92" />
<circle cx="1249.42" cy="426.8" r="2.84" />
<circle cx="1259.06" cy="451.75" r="4.2" />
<circle cx="1259.06" cy="451.75" r="2.02" />
<circle cx="1268.43" cy="449.43" r="4.2" />
<circle cx="1268.43" cy="449.43" r="2.02" />
<circle cx="1274.92" cy="449.08" r="4.2" />
<circle cx="1274.92" cy="449.08" r="2.02" />
<circle cx="1285.47" cy="450" r="4.2" />
<circle cx="1285.47" cy="450" r="2.02" />
<circle cx="1292.58" cy="451.92" r="4.2" />
<circle cx="1292.58" cy="451.92" r="2.02" />
<circle cx="1327.63" cy="468.11" r="4.2" />
<circle cx="1327.63" cy="468.11" r="2.02" />
<circle cx="1230.45" cy="475.73" r="4.2" />
<circle cx="1230.45" cy="475.73" r="2.02" />
<circle cx="1310.88" cy="371.62" r="4.2" />
<circle cx="1310.88" cy="371.62" r="2.02" />
<circle cx="1423.12" cy="322.62" r="4.2" />
<circle cx="1423.12" cy="322.62" r="2.02" />
<circle cx="1463" cy="319.5" r="4.2" />
<circle cx="1463" cy="319.5" r="2.02" />
<circle cx="1474" cy="308.5" r="4.2" />
<circle cx="1474" cy="308.5" r="2.02" />
<circle cx="1478.67" cy="312.33" r="4.2" />
<circle cx="1478.67" cy="312.33" r="2.02" />
<circle cx="1392.07" cy="114.2" r="4.2" />
<circle cx="1392.07" cy="114.2" r="2.02" />
<circle cx="1365.78" cy="112.67" r="4.2" />
<circle cx="1365.78" cy="112.67" r="2.02" />
<circle cx="1364.33" cy="107.83" r="4.2" />
<circle cx="1364.33" cy="107.83" r="2.02" />
<circle cx="1704.33" cy="294.83" r="4.2" />
<circle cx="1704.33" cy="294.83" r="2.02" />
<circle cx="1703.5" cy="301" r="4.2" />
<circle cx="1703.5" cy="301" r="2.02" />
<circle cx="1718.48" cy="295.65" r="4.2" />
<circle cx="1718.48" cy="295.65" r="2.02" />
<circle cx="1723.2" cy="287.2" r="4.2" />
<circle cx="1723.2" cy="287.2" r="2.02" />
<circle cx="1764.22" cy="237.56" r="4.2" />
<circle cx="1764.22" cy="237.56" r="2.02" />
<circle cx="1760.67" cy="234.41" r="4.92" />
<circle cx="1760.67" cy="234.41" r="2.36" />
<circle cx="1786.86" cy="205.57" r="4.2" />
<circle cx="1786.86" cy="205.57" r="2.02" />
<circle cx="1799.25" cy="190.25" r="4.2" />
<circle cx="1799.25" cy="190.25" r="2.02" />
<circle cx="1804.8" cy="183" r="4.2" />
<circle cx="1804.8" cy="183" r="2.02" />
<circle cx="1819.46" cy="175.5" r="7.45" />
<circle cx="1819.46" cy="175.5" r="3.57" />
<circle cx="1840.41" cy="170.48" r="8.23" />
<circle cx="1840.41" cy="170.48" r="3.95" />
<circle cx="1828.29" cy="155.43" r="4.2" />
<circle cx="1828.29" cy="155.43" r="2.02" />
<circle cx="1383.38" cy="651.46" r="4.2" />
<circle cx="1383.38" cy="651.46" r="2.02" />
<circle cx="1398.79" cy="672.86" r="4.2" />
<circle cx="1398.79" cy="672.86" r="2.02" />
<circle cx="1352.8" cy="643.6" r="4.2" />
<circle cx="1352.8" cy="643.6" r="2.02" />
<circle cx="1354" cy="639.12" r="4.2" />
<circle cx="1354" cy="639.12" r="2.02" />
<circle cx="1300.92" cy="847.15" r="4.2" />
<circle cx="1300.92" cy="847.15" r="2.02" />
<circle cx="1339.04" cy="920.27" r="4.77" />
<circle cx="1339.04" cy="920.27" r="2.29" />
<circle cx="1415.25" cy="1041.25" r="4.2" />
<circle cx="1415.25" cy="1041.25" r="2.02" />
<circle cx="1465.8" cy="1008.4" r="4.2" />
<circle cx="1465.8" cy="1008.4" r="2.02" />
<circle cx="1470" cy="1003" r="4.2" />
<circle cx="1470" cy="1003" r="2.02" />
<circle cx="1480.11" cy="1003.58" r="4.2" />
<circle cx="1480.11" cy="1003.58" r="2.02" />
<circle cx="1489" cy="1008.71" r="4.2" />
<circle cx="1489" cy="1008.71" r="2.02" />
<circle cx="1584.33" cy="1100.83" r="4.2" />
<circle cx="1584.33" cy="1100.83" r="2.02" />
<circle cx="1631.83" cy="996.5" r="4.2" />
<circle cx="1631.83" cy="996.5" r="2.02" />
<circle cx="1637.18" cy="999.09" r="4.2" />
<circle cx="1637.18" cy="999.09" r="2.02" />
<circle cx="1775.31" cy="1119.23" r="4.2" />
<circle cx="1775.31" cy="1119.23" r="2.02" />
<circle cx="1847.67" cy="1155.11" r="4.2" />
<circle cx="1847.67" cy="1155.11" r="2.02" />
<circle cx="1443.85" cy="1188.69" r="4.2" />
<circle cx="1443.85" cy="1188.69" r="2.02" />
<circle cx="1436.05" cy="1179.05" r="4.2" />
<circle cx="1436.05" cy="1179.05" r="2.02" />
<circle cx="1216.8" cy="806.2" r="4.2" />
<circle cx="1216.8" cy="806.2" r="2.02" />
<circle cx="1164.56" cy="805.54" r="9.46" />
<circle cx="1164.56" cy="805.54" r="4.54" />
<circle cx="1144.55" cy="817.47" r="5.33" />
<circle cx="1144.55" cy="817.47" r="2.56" />
<circle cx="1112.92" cy="836.12" r="4.2" />
<circle cx="1112.92" cy="836.12" r="2.02" />
<circle cx="1100.43" cy="844.43" r="4.2" />
<circle cx="1100.43" cy="844.43" r="2.02" />
<circle cx="1093.67" cy="847" r="4.2" />
<circle cx="1093.67" cy="847" r="2.02" />
<circle cx="1009.22" cy="1075.11" r="4.2" />
<circle cx="1009.22" cy="1075.11" r="2.02" />
<circle cx="1001.04" cy="1075.26" r="4.2" />
<circle cx="1001.04" cy="1075.26" r="2.02" />
<circle cx="992.03" cy="1076.86" r="4.2" />
<circle cx="992.03" cy="1076.86" r="2.02" />
<circle cx="995.3" cy="1084.6" r="4.2" />
<circle cx="995.3" cy="1084.6" r="2.02" />
<circle cx="988.12" cy="1084.88" r="4.2" />
<circle cx="988.12" cy="1084.88" r="2.02" />
<circle cx="977.11" cy="1082.27" r="4.57" />
<circle cx="977.11" cy="1082.27" r="2.19" />
<circle cx="981.85" cy="1075.38" r="4.2" />
<circle cx="981.85" cy="1075.38" r="2.02" />
<circle cx="892.65" cy="1079.29" r="4.2" />
<circle cx="892.65" cy="1079.29" r="2.02" />
<circle cx="808.71" cy="1094.86" r="4.2" />
<circle cx="808.71" cy="1094.86" r="2.02" />
<circle cx="802.4" cy="1095.8" r="4.2" />
<circle cx="802.4" cy="1095.8" r="2.02" />
<circle cx="728.78" cy="1077.28" r="4.2" />
<circle cx="728.78" cy="1077.28" r="2.02" />
<circle cx="723.29" cy="1081.43" r="4.2" />
<circle cx="723.29" cy="1081.43" r="2.02" />
<circle cx="661" cy="1125.4" r="4.2" />
<circle cx="661" cy="1125.4" r="2.02" />
<circle cx="622.4" cy="1118.8" r="4.2" />
<circle cx="622.4" cy="1118.8" r="2.02" />
<circle cx="74" cy="1136.2" r="4.2" />
<circle cx="74" cy="1136.2" r="2.02" />
<circle cx="790.28" cy="500.28" r="4.2" />
<circle cx="790.28" cy="500.28" r="2.02" />
<circle cx="873.62" cy="503.96" r="4.2" />
<circle cx="873.62" cy="503.96" r="2.02" />
<circle cx="942.71" cy="497.43" r="4.2" />
<circle cx="942.71" cy="497.43" r="2.02" />
<circle cx="954.94" cy="500.31" r="4.2" />
<circle cx="954.94" cy="500.31" r="2.02" />
<circle cx="954.33" cy="512.58" r="4.2" />
<circle cx="954.33" cy="512.58" r="2.02" />
</g>
<g id="stipple" fill="black" stroke="none">
<circle cx="140" cy="286" r="1.11" />
<circle cx="127" cy="298" r="1.11" />
<circle cx="101" cy="377" r="1" />
<circle cx="206" cy="378" r="1.17" />
<circle cx="258.56" cy="364.42" r="1.82" />
<circle cx="276" cy="364" r="1.1" />
<circle cx="277.79" cy="365.88" r="1.58" />
<circle cx="293" cy="371" r="1.3" />
<circle cx="299.69" cy="355.69" r="1.95" />
<circle cx="302.32" cy="347.41" r="1.58" />
<circle cx="321.78" cy="354.35" r="1.65" />
<circle cx="342" cy="335" r="1.24" />
<circle cx="350" cy="343" r="1.22" />
<circle cx="365.98" cy="372.41" r="1.95" />
<circle cx="373.32" cy="380.72" r="1.86" />
<circle cx="419.52" cy="371.43" r="1.76" />
<circle cx="430" cy="378" r="1.25" />
<circle cx="432.11" cy="380.58" r="1.67" />
<circle cx="420.25" cy="357.54" r="1.95" />
<circle cx="445.51" cy="357.66" r="1.95" />
<circle cx="470.61" cy="375.39" r="1.62" />
<circle cx="475.67" cy="367.87" r="1.84" />
<circle cx="485.99" cy="382.1" r="1.95" />
<circle cx="501.1" cy="383.17" r="1.76" />
<circle cx="508" cy="370" r="1.02" />
<circle cx="521.72" cy="370.22" r="1.62" />
<circle cx="533.88" cy="385.51" r="1.93" />
<circle cx="547.35" cy="386.05" r="1.95" />
<circle cx="567.91" cy="382.59" r="1.58" />
<circle cx="562.22" cy="370.1" r="1.95" />
<circle cx="541.43" cy="364.81" r="1.95" />
<circle cx="524" cy="340" r="1.31" />
<circle cx="536" cy="324" r="1.05" />
<circle cx="556.67" cy="303.27" r="1.56" />
<circle cx="540" cy="286" r="1.17" />
<circle cx="510.38" cy="281.35" r="1.58" />
<circle cx="485.73" cy="281.33" r="1.56" />
<circle cx="473" cy="268" r="1.16" />
<circle cx="464.02" cy="292.69" r="1.95" />
<circle cx="466.94" cy="318.86" r="1.6" />
<circle cx="467" cy="319" r="1.32" />
<circle cx="484" cy="326" r="1.22" />
<circle cx="440" cy="271" r="1.18" />
<circle cx="419" cy="271" r="1.04" />
<circle cx="407" cy="283" r="1.06" />
<circle cx="398.36" cy="283.14" r="1.62" />
<circle cx="395" cy="271" r="1.31" />
<circle cx="364" cy="271" r="0.99" />
<circle cx="326" cy="290" r="1" />
<circle cx="317" cy="302" r="1.25" />
<circle cx="266" cy="302" r="1.2" />
<circle cx="303.67" cy="394.42" r="1.56" />
<circle cx="306" cy="403" r="1.03" />
<circle cx="313" cy="400" r="1.34" />
<circle cx="304" cy="422" r="1.2" />
<circle cx="314.14" cy="431.59" r="1.65" />
<circle cx="313" cy="440" r="1.28" />
<circle cx="285.62" cy="422.95" r="1.69" />
<circle cx="262" cy="419" r="1.22" />
<circle cx="337.39" cy="471.94" r="1.56" />
<circle cx="342" cy="485" r="0.98" />
<circle cx="356" cy="484" r="1.29" />
<circle cx="357.12" cy="483.73" r="1.56" />
<circle cx="383" cy="478" r="1.18" />
<circle cx="387" cy="480.45" r="1.56" />
<circle cx="406" cy="492" r="1.19" />
<circle cx="411.63" cy="483.5" r="1.67" />
<circle cx="429.73" cy="474.82" r="1.71" />
<circle cx="446.18" cy="477.7" r="1.56" />
<circle cx="446.59" cy="492.12" r="1.58" />
<circle cx="454.46" cy="507.05" r="1.65" />
<circle cx="467" cy="473" r="1.17" />
<circle cx="489.61" cy="466.3" r="1.56" />
<circle cx="505.93" cy="460.68" r="1.71" />
<circle cx="516.18" cy="476.92" r="1.69" />
<circle cx="505.67" cy="493.81" r="1.78" />
<circle cx="528" cy="503" r="0.99" />
<circle cx="524.86" cy="445.5" r="1.62" />
<circle cx="524" cy="412" r="1.24" />
<circle cx="472" cy="434" r="1.34" />
<circle cx="463" cy="431" r="1.35" />
<circle cx="431.97" cy="444.58" r="1.56" />
<circle cx="389" cy="332" r="0.92" />
<circle cx="604.08" cy="371.32" r="1.71" />
<circle cx="601" cy="391" r="1.18" />
<circle cx="596.97" cy="475.59" r="1.58" />
<circle cx="665" cy="485" r="1.1" />
<circle cx="773.09" cy="464.77" r="1.95" />
<circle cx="810.72" cy="458.26" r="1.78" />
<circle cx="812" cy="458" r="1.09" />
<circle cx="819.22" cy="450.03" r="1.95" />
<circle cx="830.6" cy="447.12" r="1.95" />
<circle cx="827" cy="467" r="1.31" />
<circle cx="821" cy="475" r="1.33" />
<circle cx="819.17" cy="476.17" r="1.73" />
<circle cx="840" cy="473" r="1.23" />
<circle cx="848" cy="476" r="1.15" />
<circle cx="885.16" cy="466.43" r="1.95" />
<circle cx="864.14" cy="430.17" r="1.76" />
<circle cx="871.17" cy="413.71" r="1.6" />
<circle cx="852.42" cy="397.79" r="1.95" />
<circle cx="873.07" cy="369.88" r="1.78" />
<circle cx="888" cy="350" r="1.26" />
<circle cx="898" cy="358" r="1.19" />
<circle cx="907.17" cy="375.02" r="1.95" />
<circle cx="887" cy="326" r="0.91" />
<circle cx="888.36" cy="324.87" r="1.95" />
<circle cx="888.25" cy="299.41" r="1.53" />
<circle cx="864" cy="305" r="1.2" />
<circle cx="846" cy="295" r="1.1" />
<circle cx="831.24" cy="289.31" r="1.95" />
<circle cx="826" cy="283" r="1.14" />
<circle cx="827" cy="313" r="1.18" />
<circle cx="841" cy="314" r="1" />
<circle cx="842" cy="325" r="1.21" />
<circle cx="817.61" cy="332.53" r="1.67" />
<circle cx="817" cy="335" r="1.13" />
<circle cx="804.96" cy="333.96" r="1.9" />
<circle cx="824" cy="347" r="1.02" />
<circle cx="823.9" cy="351.88" r="1.93" />
<circle cx="827" cy="352" r="1.08" />
<circle cx="803.29" cy="390.13" r="1.67" />
<circle cx="816.42" cy="402.28" r="1.62" />
<circle cx="761" cy="421" r="1.06" />
<circle cx="924.31" cy="313.29" r="1.6" />
<circle cx="1052.69" cy="340.67" r="1.62" />
<circle cx="1105.33" cy="334.6" r="1.71" />
<circle cx="1145" cy="335" r="1.36" />
<circle cx="1148.48" cy="336.24" r="1.84" />
<circle cx="1175.92" cy="334.59" r="1.65" />
<circle cx="1193.22" cy="284.73" r="1.73" />
<circle cx="1158.62" cy="284.32" r="1.95" />
<circle cx="1150" cy="283" r="1.36" />
<circle cx="1140.44" cy="283.89" r="1.62" />
<circle cx="1094.1" cy="283.36" r="1.95" />
<circle cx="1079" cy="409" r="1.14" />
<circle cx="1108.25" cy="417.53" r="1.62" />
<circle cx="1128.07" cy="424.17" r="1.95" />
<circle cx="1147.33" cy="433.07" r="1.71" />
<circle cx="1174.58" cy="452.61" r="1.62" />
<circle cx="1197.66" cy="393" r="1.53" />
<circle cx="1213.97" cy="392.16" r="1.53" />
<circle cx="1219" cy="391" r="1.1" />
<circle cx="1234" cy="335" r="1.34" />
<circle cx="1238.37" cy="287.36" r="1.95" />
<circle cx="1293.15" cy="281.71" r="1.73" />
<circle cx="1319.04" cy="287.1" r="1.9" />
<circle cx="1318" cy="311" r="1.19" />
<circle cx="1320.11" cy="314.11" r="1.65" />
<circle cx="1296" cy="334" r="1.21" />
<circle cx="1363" cy="166" r="1.33" />
<circle cx="1378.65" cy="156.59" r="1.84" />
<circle cx="1380" cy="144" r="1.23" />
<circle cx="1389.05" cy="141.33" r="1.95" />
<circle cx="1404" cy="138" r="1.16" />
<circle cx="1342.45" cy="158.75" r="1.71" />
<circle cx="1048" cy="413" r="1.04" />
<circle cx="1020.48" cy="405.18" r="1.56" />
<circle cx="1034" cy="463" r="1.34" />
<circle cx="1039" cy="466" r="1.3" />
<circle cx="1068.29" cy="473.57" r="1.6" />
<circle cx="1097.1" cy="484.58" r="1.95" />
<circle cx="1109" cy="488" r="1.17" />
<circle cx="1127.73" cy="502.54" r="1.73" />
<circle cx="1139.94" cy="513.61" r="1.62" />
<circle cx="1149.18" cy="524.82" r="1.58" />
<circle cx="1180" cy="610" r="0.99" />
<circle cx="1177.47" cy="640.98" r="1.95" />
<circle cx="1298" cy="690" r="1.11" />
<circle cx="1195" cy="816" r="1.2" />
<circle cx="1229" cy="863" r="1.05" />
<circle cx="1224" cy="872" r="1.12" />
<circle cx="1205" cy="881" r="1.24" />
<circle cx="1195" cy="911" r="1.34" />
<circle cx="1171.82" cy="953.76" r="1.67" />
<circle cx="1140" cy="961" r="1.25" />
<circle cx="1139.04" cy="958.6" r="1.95" />
<circle cx="1105" cy="959" r="1.18" />
<circle cx="1079" cy="965" r="1.28" />
<circle cx="1037" cy="964" r="1.31" />
<circle cx="1016" cy="994" r="1.23" />
<circle cx="1001.43" cy="987.63" r="1.95" />
<circle cx="995" cy="990" r="1.32" />
<circle cx="989.87" cy="986.5" r="1.95" />
<circle cx="982.75" cy="988.36" r="1.62" />
<circle cx="970" cy="983" r="1.25" />
<circle cx="973.91" cy="911.24" r="1.58" />
<circle cx="938" cy="913" r="1.21" />
<circle cx="918" cy="913" r="1.09" />
<circle cx="880" cy="913" r="1.03" />
<circle cx="831.59" cy="914.32" r="1.73" />
<circle cx="822" cy="931" r="1.18" />
<circle cx="801.94" cy="940.69" r="1.95" />
<circle cx="825.88" cy="993.12" r="1.53" />
<circle cx="838" cy="1000" r="1.22" />
<circle cx="703.62" cy="934.79" r="1.95" />
<circle cx="634" cy="962" r="1.32" />
<circle cx="632" cy="977" r="1.02" />
<circle cx="634" cy="978" r="1.24" />
<circle cx="622" cy="995" r="1.21" />
<circle cx="644" cy="1002" r="1.28" />
<circle cx="638.24" cy="1011.82" r="1.58" />
<circle cx="605.66" cy="1025.53" r="1.53" />
<circle cx="566.91" cy="996.55" r="1.56" />
<circle cx="571.5" cy="984.59" r="1.58" />
<circle cx="544.82" cy="1011.79" r="1.58" />
<circle cx="526.1" cy="1004" r="1.69" />
<circle cx="524" cy="1018" r="1.19" />
<circle cx="524.05" cy="1018.43" r="1.65" />
<circle cx="511" cy="1000" r="1.11" />
<circle cx="495" cy="1001" r="1.35" />
<circle cx="477.48" cy="1004.5" r="1.76" />
<circle cx="460.47" cy="973.93" r="1.78" />
<circle cx="445.54" cy="985.97" r="1.69" />
<circle cx="409.21" cy="982.3" r="1.86" />
<circle cx="389" cy="984" r="1.06" />
<circle cx="388.31" cy="973.64" r="1.62" />
<circle cx="389" cy="953" r="1.05" />
<circle cx="364.74" cy="967.21" r="1.78" />
<circle cx="367" cy="980" r="1.23" />
<circle cx="366.4" cy="980.51" r="1.6" />
<circle cx="353" cy="960" r="1.2" />
<circle cx="296.97" cy="962.18" r="1.58" />
<circle cx="290.83" cy="951.88" r="1.95" />
<circle cx="283" cy="964" r="0.93" />
<circle cx="281.26" cy="965.76" r="1.84" />
<circle cx="266.03" cy="969.89" r="1.67" />
<circle cx="270.03" cy="994.03" r="1.62" />
<circle cx="274" cy="1018" r="1.07" />
<circle cx="243.78" cy="992.02" r="1.73" />
<circle cx="242.09" cy="962.15" r="1.95" />
<circle cx="229" cy="1021" r="0.99" />
<circle cx="255.95" cy="1102.54" r="1.65" />
<circle cx="248" cy="1114" r="1.13" />
<circle cx="350" cy="1067" r="0.99" />
<circle cx="359.09" cy="1050.46" r="1.6" />
<circle cx="354.06" cy="1022.94" r="1.62" />
<circle cx="382" cy="1031" r="0.95" />
<circle cx="426.9" cy="1017.5" r="1.71" />
<circle cx="482.73" cy="963.76" r="1.65" />
<circle cx="498.97" cy="953.59" r="1.69" />
<circle cx="479" cy="934" r="0.99" />
<circle cx="464" cy="924" r="1.02" />
<circle cx="623" cy="1109" r="1.19" />
<circle cx="1033" cy="886" r="1.22" />
<circle cx="1038" cy="888" r="1.3" />
<circle cx="1042" cy="887" r="1.25" />
<circle cx="1050" cy="866" r="1.28" />
<circle cx="1052" cy="864.75" r="1.62" />
<circle cx="1085" cy="883" r="1.17" />
<circle cx="1096" cy="886" r="1.31" />
<circle cx="1112" cy="869" r="1" />
<circle cx="1120.55" cy="871.4" r="1.95" />
<circle cx="1142.5" cy="875.86" r="1.8" />
<circle cx="1139" cy="890" r="1.19" />
<circle cx="1081" cy="914" r="1.34" />
<circle cx="1112.55" cy="822.36" r="1.8" />
<circle cx="1243" cy="887" r="1.23" />
<circle cx="1252.84" cy="907.63" r="1.95" />
<circle cx="1254" cy="914" r="0.99" />
<circle cx="1284.11" cy="912.38" r="1.95" />
<circle cx="1277" cy="881" r="1.25" />
<circle cx="1356.81" cy="931.69" r="1.88" />
<circle cx="1391" cy="954" r="1.34" />
<circle cx="1395.55" cy="959.75" r="1.95" />
<circle cx="1403.86" cy="973.95" r="1.8" />
<circle cx="1409.82" cy="990.64" r="1.82" />
<circle cx="1420.88" cy="964.12" r="1.56" />
<circle cx="1453" cy="1030" r="1.08" />
<circle cx="1476" cy="1037" r="1.18" />
<circle cx="1484.53" cy="1037.98" r="1.93" />
<circle cx="1466" cy="1098" r="1.18" />
<circle cx="1463.6" cy="1099.29" r="1.95" />
<circle cx="1405" cy="1091" r="1.27" />
<circle cx="1388.03" cy="1066.12" r="1.58" />
<circle cx="1388" cy="1063" r="1.33" />
<circle cx="1371.57" cy="1049.82" r="1.93" />
<circle cx="1352.13" cy="1031.89" r="1.67" />
<circle cx="1332" cy="1037" r="0.94" />
<circle cx="1314" cy="1013" r="1.11" />
<circle cx="1288.51" cy="993.5" r="1.95" />
<circle cx="1321" cy="965" r="1.09" />
<circle cx="1246.79" cy="976.56" r="1.78" />
<circle cx="1207" cy="994" r="1.16" />
<circle cx="1172.03" cy="1036.77" r="1.69" />
<circle cx="1143.38" cy="1032.22" r="1.71" />
<circle cx="1112.74" cy="1029.09" r="1.84" />
<circle cx="1159" cy="1092" r="1.3" />
<circle cx="1221.6" cy="1055.21" r="1.76" />
<circle cx="1267.62" cy="1074.14" r="1.95" />
<circle cx="1281.95" cy="1081.3" r="1.65" />
<circle cx="1411" cy="1160" r="1.16" />
<circle cx="1710.63" cy="1020.43" r="1.6" />
<circle cx="1794" cy="1159" r="1.3" />
<circle cx="1804" cy="1180" r="1.29" />
<circle cx="1786.05" cy="221.38" r="1.95" />
<circle cx="1801" cy="200" r="1.2" />
<circle cx="1807" cy="192" r="1.23" />
<circle cx="1811.85" cy="183.85" r="1.56" />
<circle cx="1844" cy="142" r="0.9" />
<circle cx="1038.57" cy="521.33" r="1.95" />
<circle cx="990" cy="505" r="1.13" />
<circle cx="1005.51" cy="465.14" r="1.6" />
</g>
<g id="eye-pupils" fill="black" stroke="none">
<circle cx="628.7" cy="300.3" r="3.4" />
<circle cx="817.93" cy="1005.18" r="9" />
</g>
</svg>