<svg xmlns="http://www.w3.org/2000/svg" version="1.1" viewBox="0 0 2135 1324" width="2135" height="1324">
<rect width="100%" height="100%" fill="white" />
<g id="outline" stroke="black" stroke-width="1.48" stroke-linecap="round" stroke-linejoin="round" fill="none">
<polyline points="43,677 43.75,677 45.25,677 50.5,675.25 59.5,671.75 67,669.25 73,667.75 80,665.25 88,661.75 93.5,659.75 96.5,659.25 99.25,658.25 101.75,656.75 107.75,654.75 117.25,652.25 122.75,650.5 124.25,649.5 126.75,648.75 130.25,648.25 134,647 138,645 141.75,643.75 145.25,643.25 148.5,642.25 151.5,640.75 157.5,638.75 166.5,636.25 172.5,633.75 175.5,631.25 180.25,628.5 186.75,625.5 201.75,623 225.25,621 238.25,619.5 240.75,618.5 248,617 260,615 273.75,613.75 289.25,613.25 301.25,612 309.75,610 315.75,609 319.25,609 325.5,608 334.5,606 342.75,604.75 350.25,604.25 355.25,603.5 357.75,602.5 362.25,601.75 368.75,601.25 378.25,599.75 390.75,597.25 398.75,595.25 402.25,593.75 406.5,592.5 411.5,591.5 415,590.25 417,588.75 418.25,586.75 418.75,584.25 417.5,580.25 414.5,574.75 413,572" />
<polyline points="410,569 407.5,564.75 402.5,556.25 398.25,547.75 394.75,539.25 390.5,531.25 385.5,523.75 381.25,516.25 377.75,508.75 373.25,501 367.75,493 362.5,486.5 357.5,481.5 351.5,477 344.5,473 337.5,469.5 330.5,466.5 318,462.75 300,458.25 289.5,456 286.5,456 283,455.25 279,453.75 270.75,452.25 258.25,450.75 250.25,449.5 246.75,448.5 240.5,447.75 231.5,447.25 221.75,446 211.25,444 204,443 200,443 188.25,441 168.75,437 151,431.75 135,425.25 124.75,420 120.25,416 117,412 115,408 114,403.75 114,399.25 115,394.75 117,390.25 121.5,384 128.5,376 139.5,367.25 154.5,357.75 168.25,350.25 180.75,344.75 187.75,341.25 189.25,339.75 190.75,339 192.25,339 197.25,337 205.75,333 214.5,329.75 223.5,327.25 234.25,323.25 246.75,317.75 254.25,314.75 256.75,314.25 261,312.25 267,308.75 273.25,304.25 279.75,298.75 286.5,291.25 293.5,281.75 299,272.75 303,264.25 306.5,248.5 309.5,225.5 312.5,211 315.5,205 319,199.75 323,195.25 327.25,191.25 331.75,187.75 338,184.75 346,182.25 352.75,179.75 358.25,177.25 365.25,176 373.75,176 379.75,176.5 383.25,177.5 388.75,180 396.25,184 403.25,187 409.75,189 424.5,190.25 447.5,190.75 465.75,190 479.25,188 489,187 495,187 506.75,185.75 524.25,183.25 535.75,182 541.25,182 548.25,181.25 556.75,179.75 565.75,178.75 575.25,178.25 587.5,176.75 602.5,174.25 624.75,172 654.25,170 669.25,168.75 669.75,168.25 680.5,166.75 701.5,164.25 713.75,162.5 717.25,161.5 722.75,160.75 730.25,160.25 738.25,159 746.75,157 755.5,155.75 764.5,155.25 774.75,153.25 786.25,149.75 795.75,147.5 803.25,146.5 809.25,145.25 813.75,143.75 819.75,142.75 827.25,142.25 835.25,141 843.75,139 850,138 854,138 859.75,137 867.25,135 872.5,134 875.5,134 881.25,132.75 889.75,130.25 895.75,129 899.25,129 902.25,128.5 904.75,127.5 908,127 912,127 917.25,126.25 923.75,124.75 927.75,124.25 929.25,124.75 930.25,124.75 930.75,124.25 935,124 943,124 949.5,123.25 954.5,121.75 957.25,121.25 957.75,121.75 963.5,122 974.5,122 980.25,121.75 980.75,121.25 987,121 999,121 1008,120.5 1014,119.5 1021,119 1029,119 1036.5,118.5 1043.5,117.5 1050.25,117 1056.75,117 1060.25,116.75 1060.75,116.25 1065.5,116 1074.5,116 1083.25,115.25 1091.75,113.75 1101.25,112.75 1111.75,112.25 1118,111.5 1120,110.5 1123,110 1127,110 1129.25,109.75 1129.75,109.25 1130.75,109.25 1132.25,109.75 1133.25,109.75 1133.75,109.25 1138,109 1146,109 1150.25,108.75 1150.75,108.25 1157.5,108 1170.5,108 1177.25,107.75 1177.75,107.25 1185.25,106.5 1199.75,105.5 1207.25,104.75 1207.75,104.25 1214.75,103.75 1228.25,103.25 1238.5,102.25 1245.5,100.75 1256.75,99.75 1272.25,99.25 1280.25,98.75 1280.75,98.25 1281.5,98.25 1282.5,98.75 1284.75,98.5 1288.25,97.5 1296.75,97.25 1310.25,97.75 1322,98.75 1332,100.25 1340.5,101 1347.5,101 1352.5,101.5 1355.5,102.5 1365.25,103.25 1381.75,103.75 1394.5,105 1403.5,107 1410.25,108 1414.75,108 1418.25,108.5 1420.75,109.5 1423.5,110 1426.5,110 1429,110.5 1431,111.5 1437.25,112.5 1447.75,113.5 1454.5,114.5 1457.5,115.5 1469.75,116.25 1491.25,116.75 1502.25,116.75 1502.75,116.25 1506.25,116 1512.75,116 1519.5,116.5 1526.5,117.5 1534,118 1542,118 1549,119 1555,121 1560.25,125.5 1564.75,132.5 1568,137 1570,139 1573.5,141 1578.5,143 1583.5,145.75 1588.5,149.25 1593.25,153.25 1597.75,157.75 1600.75,161.25 1602.25,163.75 1604.75,166.5 1608.25,169.5 1610.5,172 1611.5,174 1614,177 1618,181 1620.5,183 1621.5,183 1623,184 1625,186 1627.25,190 1629.75,196 1632.5,200.25 1635.5,202.75 1637.25,205 1637.75,207 1644,214.25 1656,226.75 1662.25,234 1662.75,236 1664.75,239 1668.25,243 1671,245.25 1673,245.75 1675,246.75 1677,248.25 1678.5,248.75 1679.5,248.25 1684,248.75 1692,250.25 1703.25,248.5 1717.75,243.5 1728.5,240.75 1735.5,240.25 1739.25,239.75 1739.75,239.25 1748,239.25 1764,239.75 1775,241.25 1781,243.75 1785.5,246.5 1788.5,249.5 1793,252.25 1799,254.75 1802.5,256.5 1803.5,257.5 1807.75,258.75 1815.25,260.25 1820,261.5 1822,262.5 1826.25,263 1832.75,263 1837.5,263.5 1840.5,264.5 1845,265 1851,265 1854.25,265.25 1854.75,265.75 1861.75,266 1875.25,266 1883.75,266.25 1887.25,266.75 1889.75,267.5 1891.25,268.5 1896.5,269.5 1905.5,270.5 1913.5,272 1920.5,274 1930.75,278 1944.25,284 1955,289.25 1963,293.75 1967.5,296 1968.5,296 1970.25,297 1972.75,299 1974.5,300 1975.5,300 1982,304.25 1994,312.75 2000.5,317 2001.5,317 2004.5,319 2009.5,323 2017,328 2027,334 2038,341.5 2050,350.5 2059.5,356.25 2066.5,358.75 2073,361.75 2079,365.25 2084.25,367.5 2088.75,368.5 2091,369" />
<polyline points="1718.75,311.75 1719.25,312.25 1719.62,312.88 1719.88,313.62 1720,314.5 1720,315.5 1719.88,316.44 1719.62,317.31 1719.25,318.12 1718.75,318.88 1718.25,319.38 1717.75,319.62 1717.25,319.62 1716.75,319.38 1716.31,319.31 1715.94,319.44 1715.62,319.75 1715.38,320.25 1714.94,320.62 1714.31,320.88 1713.5,321 1712.5,321 1711.69,320.94 1711.06,320.81 1710.62,320.62 1710.38,320.38 1710.19,319.94 1710.06,319.31 1710,318.5 1710,317.5 1710.06,316.69 1710.19,316.06 1710.38,315.62 1710.62,315.38 1710.88,315.25 1711.12,315.25 1711.38,315.38 1711.62,315.62 1711.81,315.62 1711.94,315.38 1712,314.88 1712,314.12 1712.06,313.5 1712.19,313 1712.38,312.62 1712.62,312.38 1713.12,312.12 1713.88,311.88 1714.88,311.62 1716.12,311.38 1717.19,311.31 1718.06,311.44 1718.75,311.75" />
<polyline points="2092,859 2092,883.75 2092,933.25 2091.25,958 2089.75,958 2086.5,959.5 2081.5,962.5 2076.75,966.5 2072.25,971.5 2068.5,975 2065.5,977 2061.5,980.5 2056.5,985.5 2051.5,991.75 2046.5,999.25 2042.25,1005 2038.75,1009 2030.75,1015.25 2018.25,1023.75 2009,1029.25 2003,1031.75 1996,1033.75 1988,1035.25 1976.5,1036.25 1961.5,1036.75 1953.75,1036.75 1953.25,1036.25 1949.5,1036 1942.5,1036 1937,1036.75 1933,1038.25 1930.5,1040.5 1929.5,1043.5 1929,1047.25 1929,1051.75 1928.75,1054.25 1928.25,1054.75 1928,1064.25 1928,1082.75 1926.75,1098.5 1924.25,1111.5 1923,1120.5 1923,1125.5 1923.5,1130 1924.5,1134 1926,1137.5 1928,1140.5 1930.75,1143.75 1934.25,1147.25 1940,1151.75 1948,1157.25 1952.25,1161.5 1952.75,1164.5 1952.25,1166.5 1950.75,1167.5 1949.25,1168 1947.75,1168 1946.25,1168.75 1944.75,1170.25 1943.75,1170.75 1943.25,1170.25 1938.75,1173.25 1930.25,1179.75 1924,1185.5 1920,1190.5 1917.5,1194 1916.5,1196 1916.25,1197.5 1916.75,1198.5 1915.5,1200.5 1912.5,1203.5 1908.25,1205 1902.75,1205 1898.75,1205.5 1896.25,1206.5 1892.25,1206.75 1886.75,1206.25 1883.25,1203.75 1881.75,1199.25 1880,1195.75 1878,1193.25 1875.25,1188 1871.75,1180 1866,1172.5 1858,1165.5 1853,1161.5 1851,1160.5 1847.25,1155.5 1841.75,1146.5 1838.25,1139.25 1836.75,1133.75 1836.25,1119 1836.75,1095 1839,1076.5 1843,1063.5 1845,1053.75 1845,1047.25 1844,1042.5 1842,1039.5 1839.75,1037.75 1837.25,1037.25 1833,1037.25 1827,1037.75 1820.5,1039 1813.5,1041 1807.5,1043.5 1802.5,1046.5 1795,1052.75 1785,1062.25 1771,1070.75 1753,1078.25 1738,1083.25 1726,1085.75 1718,1087 1714,1087 1705.75,1088 1693.25,1090 1683,1091 1675,1091 1668.75,1091.5 1664.25,1092.5 1660.25,1094.75 1656.75,1098.25 1654.25,1105 1652.75,1115 1651.25,1121.75 1649.75,1125.25 1648.5,1129.5 1647.5,1134.5 1647,1138.5 1647,1141.5 1645,1147.5 1641,1156.5 1638.25,1161.75 1636.75,1163.25 1634,1165.25 1630,1167.75 1625,1170 1619,1172 1603.25,1176.25 1577.75,1182.75 1563,1186 1559,1186 1555.25,1186.5 1551.75,1187.5 1545.25,1188.25 1535.75,1188.75 1530.75,1189.25 1530.25,1189.75 1510.75,1191 1472.25,1193 1447.75,1194.75 1437.25,1196.25 1427.5,1196.75 1418.5,1196.25 1413.75,1196.25 1413.25,1196.75 1406.25,1197 1392.75,1197 1385.75,1196.75 1385.25,1196.25 1381.25,1196 1373.75,1196 1369.75,1195.75 1369.25,1195.25 1363,1195 1351,1195 1344.75,1194.75 1344.25,1194.25 1289.5,1194.25 1180.5,1194.75 1125.75,1194.75 1125.25,1194.25 1121.75,1194 1115.25,1194 1111.75,1194.25 1111.25,1194.75 1091,1195.25 1051,1195.75 1030.75,1196.25 1030.25,1196.75 1018.5,1197 995.5,1197 983.75,1196.75 983.25,1196.25 974.25,1196 956.75,1196 947.75,1195.75 947.25,1195.25 940,1194.75 926,1194.25 918.75,1193.75 918.25,1193.25 907.25,1192 885.75,1190 874.75,1188.75 874.25,1188.25 868.75,1187.75 858.25,1187.25 848,1185.75 838,1183.25 830.5,1182 825.5,1182 816.25,1181 802.75,1179 786.5,1177.75 767.5,1177.25 757.75,1176.75 757.25,1176.25 756.5,1176.25 755.5,1176.75 754.75,1176.75 754.25,1176.25 752,1176 748,1176 745.75,1175.75 745.25,1175.25 744.75,1175.25 744.25,1175.75 743.75,1175.75 743.25,1175.25 737.5,1174.5 726.5,1173.5 719.25,1172.5 715.75,1171.5 706.5,1170.5 691.5,1169.5 679.5,1167.75 670.5,1165.25 661,1163.75 651,1163.25 641.75,1162.25 633.25,1160.75 626,1160 620,1160 612,1159 602,1157 592,1155.5 582,1154.5 575.5,1153.5 572.5,1152.5 567.5,1151.75 560.5,1151.25 554.5,1150.25 549.5,1148.75 542.5,1147.5 533.5,1146.5 526.75,1145.25 522.25,1143.75 518.25,1143 514.75,1143 510.25,1142.25 504.75,1140.75 497.25,1139.5 487.75,1138.5 474.25,1136.25 456.75,1132.75 446.5,1131 443.5,1131 437,1129.75 427,1127.25 419.5,1125.75 414.5,1125.25 409.75,1124.25 405.25,1122.75 401.5,1122 398.5,1122 393.25,1121 385.75,1119 379,1117.75 373,1117.25 368,1116.25 364,1114.75 358.5,1113.5 351.5,1112.5 345.75,1111.25 341.25,1109.75 337.75,1109 335.25,1109 330.75,1108 324.25,1106 317.75,1104.5 311.25,1103.5 307,1102.5 305,1101.5 303,1101 301,1101 290,1097.75 270,1091.25 255.5,1087 246.5,1085 233.5,1080.5 216.5,1073.5 201.25,1067.75 187.75,1063.25 174,1058 160,1052 146.75,1045.25 134.25,1037.75 126.25,1032.25 122.75,1028.75 119.5,1024.5 116.5,1019.5 113.75,1013 111.25,1005 110,996.75 110,988.25 110.5,981.75 111.5,977.25 112,973.25 112,969.75 113,964.5 115,957.5 117.25,952.75 119.75,950.25 122.75,948 126.25,946 131.25,944 137.75,942 143.25,941 147.75,941 153.5,942.25 160.5,944.75 167.75,945.75 175.25,945.25 183,944.25 191,942.75 197.75,941 203.25,939 207.75,937.75 211.25,937.25 213.75,936.5 215.25,935.5 218.5,934.5 223.5,933.5 231.25,931 241.75,927 252.25,923.75 262.75,921.25 277,917.25 295,911.75 306.25,908.75 310.75,908.25 314.75,907.25 318.25,905.75 322.25,904.75 326.75,904.25 336,902 350,898 358.5,896 361.5,896 366.25,895 372.75,893 379,891.75 385,891.25 389.5,890.25 392.5,888.75 396.25,887.75 400.75,887.25 406,886 412,884 416.75,883 420.25,883 425,882 431,880 436.5,878.75 441.5,878.25 445.5,877.25 448.5,875.75 452.25,874.75 456.75,874.25 461.75,873 467.25,871 471.5,870 474.5,870 479,869 485,867 490.75,865.75 496.25,865.25 502.5,864 509.5,862 514.75,861 518.25,861 521,860.5 523,859.5 524,859" />
<polyline points="546,856 547,855.5 549,854.5 554,853.5 562,852.5 567.75,851.25 571.25,849.75 575.75,848.75 581.25,848.25 586,847.25 590,845.75 595.5,844.75 602.5,844.25 607.75,843.5 611.25,842.5 613.75,841.25 615.25,839.75 615.75,838.75 615.25,838.25 609.5,838 598.5,838 592.75,838.25 592.25,838.75 585.75,839 573.25,839 563.75,839.5 557.25,840.5 528.25,841 476.75,841 450.75,840.75 450.25,840.25 442.25,840 426.75,840 418.75,839.75 418.25,839.25 409.5,839 392.5,839 383.75,838.75 383.25,838.25 377,837.75 365,837.25 358.75,836.75 358.25,836.25 351.75,836 339.25,836 332.75,835.75 332.25,835.25 328.75,835 322.25,835 318.75,834.75 318.25,834.25 307.5,833.75 286.5,833.25 275.75,832.75 275.25,832.25 268.75,831.75 256.25,831.25 249.75,830.75 249.25,830.25 242.5,829.5 229.5,828.5 205.5,824.75 170.5,818.25 151,814.25 147,812.75 142.25,811.75 136.75,811.25 126.75,809 112.25,805 103,802.75 99,802.25 96,801.5 94,800.5 87,799 75,797 62.5,793.25 49.5,787.75 43,785" />
<polyline points="389.38,850.75 389.62,851.25 389.94,851.62 390.31,851.88 390.75,852 391.25,852 391.69,852.06 392.06,852.19 392.38,852.38 392.62,852.62 392.81,853.06 392.94,853.69 393,854.5 393,855.5 393.06,856.25 393.19,856.75 393.38,857 393.62,857 394,857.19 394.5,857.56 395.12,858.12 395.88,858.88 396.62,859.44 397.38,859.81 398.12,860 398.88,860 399.44,859.81 399.81,859.44 400,858.88 400,858.12 399.94,857.5 399.81,857 399.62,856.62 399.38,856.38 399.06,856.19 398.69,856.06 398.25,856 397.75,856 397.19,855.81 396.56,855.44 395.88,854.88 395.12,854.12 394.5,853.56 394,853.19 393.62,853 393.38,853 393.06,852.81 392.69,852.44 392.25,851.88 391.75,851.12 391.25,850.56 390.75,850.19 390.25,850 389.75,850 389.44,850.12 389.31,850.38 389.38,850.75" />
<polyline points="2011,1201.12 2011,1201.88 2011.06,1202.44 2011.19,1202.81 2011.38,1203 2011.62,1203 2011.94,1203.12 2012.31,1203.38 2012.75,1203.75 2013.25,1204.25 2013.62,1204.81 2013.88,1205.44 2014,1206.12 2014,1206.88 2014.12,1207.69 2014.38,1208.56 2014.75,1209.5 2015.25,1210.5 2015.69,1211.31 2016.06,1211.94 2016.38,1212.38 2016.62,1212.62 2017.19,1212.81 2018.06,1212.94 2019.25,1213 2020.75,1213 2021.88,1212.88 2022.62,1212.62 2023,1212.25 2023,1211.75 2022.94,1211.31 2022.81,1210.94 2022.62,1210.62 2022.38,1210.38 2022.25,1210.06 2022.25,1209.69 2022.38,1209.25 2022.62,1208.75 2022.81,1208.25 2022.94,1207.75 2023,1207.25 2023,1206.75 2022.62,1206.19 2021.88,1205.56 2020.75,1204.88 2019.25,1204.12 2018.06,1203.44 2017.19,1202.81 2016.62,1202.25 2016.38,1201.75 2015.88,1201.31 2015.12,1200.94 2014.12,1200.62 2012.88,1200.38 2011.94,1200.38 2011.31,1200.62 2011,1201.12" />
</g>
<g id="photo-detail" stroke="black" stroke-width="1.48" stroke-linecap="round" stroke-linejoin="round" fill="none">
<polyline points="177,645 169,648 162,648 160,650 149,651 143,655 139,654 135,657 129,656 125,660 114,663 114,671 117,672 122,668 122,671 127,673 129,668 124,667 124,664 127,661 129,661 133,665 135,671 137,671 145,665 145,656 154,656 157,653 161,654 164,650 167,651 166,655 170,656 170,659 174,661 174,657 170,653 173,652 174,649 187,648 188,646 178,645" />
<polyline points="147,670 147,679 144,689 151,698 157,702 158,705 160,704 164,711 171,716 172,720 175,720 182,729 184,728 191,737 202,734 195,740 188,740 190,746 194,747 194,751 187,749 189,745 185,741 187,738 186,735 161,713 141,691 146,670" />
<polyline points="136,673 133,685 134,693 182,742 180,745 177,744 178,742 175,741 162,727 156,726 157,722 148,716 146,710 136,702 135,699 133,699 129,689 132,683 131,680 135,673" />
<polyline points="111,663 112,665 109,668 108,677 104,676 97,681 89,681 93,676 90,672 85,678 81,675 75,684 71,683 69,680 70,676 80,674 87,670 91,671 93,675 95,672 94,669 98,668 99,675 102,676 105,674 101,671 100,667 103,668 110,663" />
<polyline points="55,741 57,742 56,748 60,751 63,750 62,756 64,764 60,767 62,774 57,771 55,766 56,763 62,763 59,759 60,756 56,753 54,758 52,758 54,753 54,741" />
<polyline points="226,796 225,799 228,802 227,805 225,806 220,802 216,805 212,804 212,807 220,808 225,812 230,812 231,809 228,805 232,798 227,796" />
<polyline points="250,820 250,824 254,822 261,822 267,825 276,824 283,828 289,826 293,829 295,827 302,830 328,829 326,827 321,828 318,826 296,826 262,820 251,820" />
<polyline points="383,830 382,834 392,833 394,835 395,833 398,833 401,835 407,834 409,836 411,834 416,834 420,837 423,835 430,836 424,832 395,832 384,830" />
<polyline points="422,886 401,893 395,893 392,896 383,897 382,899 379,899 376,896 373,901 368,900 362,903 357,903 351,905 350,908 354,909 356,906 361,905 364,907 367,904 373,903 380,905 380,902 383,899 388,901 399,896 406,898 409,893 415,894 422,891 427,894 427,891 423,886" />
<polyline points="622,822 614,830 589,832 588,830 585,830 579,833 556,833 551,835 538,833 533,835 500,835 453,832 432,835 432,837 450,837 451,835 456,838 461,838 462,836 465,836 466,838 534,838 596,834 612,835 617,832 624,823 623,822" />
<polyline points="640,813 622,830 621,834 625,834 626,832 627,834 633,835 633,833 638,830 640,832 640,828 638,826 636,828 634,827 635,829 631,831 627,829 630,824 642,815 641,813" />
<polyline points="658,840 655,842 648,841 622,847 617,847 616,845 608,848 605,847 599,853 597,849 594,849 591,852 581,851 575,855 552,858 538,863 529,862 528,864 526,863 520,866 515,865 511,869 497,869 488,873 483,872 468,875 460,879 455,879 450,882 442,882 437,885 429,884 429,887 433,891 444,887 451,890 451,885 457,886 468,880 477,879 483,881 489,876 516,872 520,869 526,870 527,868 533,870 540,865 543,868 546,867 547,864 555,866 560,862 572,859 577,861 577,866 581,866 583,863 578,861 577,859 579,857 584,857 585,861 587,861 592,855 597,853 596,857 589,864 589,866 594,866 595,860 602,854 608,854 610,851 613,851 614,854 616,854 618,851 626,848 631,851 636,846 644,848 646,844 655,844 662,841 659,840" />
<polyline points="741,736 734,739 733,743 714,761 713,764 705,767 709,768 713,766 742,736" />
<polyline points="872,800 871,802 868,801 869,804 866,808 852,807 841,810 837,805 835,805 832,810 825,808 823,811 814,809 812,812 809,812 808,809 810,806 808,806 800,813 780,813 779,816 773,813 767,818 765,818 764,815 757,818 752,818 749,815 746,820 690,822 682,823 673,827 681,829 685,826 688,830 690,828 691,833 693,835 695,834 693,832 694,831 713,831 717,828 747,824 767,819 772,821 775,817 782,819 785,816 817,816 821,813 826,816 829,813 846,813 848,811 855,812 864,810 871,811 872,806 875,804 873,800" />
<polyline points="913,795 911,799 901,798 900,803 898,803 894,798 889,798 886,800 888,803 886,808 891,808 889,805 890,802 897,803 897,807 901,806 900,803 904,800 907,801 907,804 909,802 912,803 917,799 914,795" />
<polyline points="1055,781 1053,786 1032,786 1029,788 1026,786 1019,787 1016,784 1016,787 1014,789 1010,789 1010,792 1021,793 1023,790 1028,789 1032,791 1059,790 1060,788 1056,781" />
<polyline points="1127,783 1125,786 1107,786 1104,788 1093,788 1091,786 1087,787 1087,789 1128,790 1128,783" />
<polyline points="1255,665 1255,668 1259,670 1262,669 1267,675 1274,674 1276,670 1279,670 1278,666 1275,666 1276,670 1272,670 1270,672 1268,669 1263,669 1256,665" />
<polyline points="1291,691 1288,694 1291,695 1291,699 1298,703 1298,709 1311,718 1315,718 1314,714 1309,713 1309,711 1293,695 1292,691" />
<polyline points="1301,686 1300,693 1307,698 1310,704 1316,705 1313,708 1328,722 1330,721 1344,738 1355,740 1368,728 1367,720 1363,719 1365,721 1363,723 1366,727 1355,738 1349,738 1336,722 1333,723 1331,721 1332,719 1322,709 1320,710 1310,698 1306,697 1307,695 1304,692 1305,688 1302,686" />
<polyline points="1355,679 1355,682 1349,684 1349,686 1357,687 1356,691 1358,693 1361,687 1370,687 1377,683 1384,687 1383,680 1378,680 1377,682 1369,685 1366,683 1363,686 1356,686 1355,683 1358,682 1356,679" />
<polyline points="1370,738 1361,747 1356,749 1352,746 1348,749 1342,744 1339,747 1347,750 1361,750 1366,747 1367,743 1372,739 1371,738" />
<polyline points="1311,620 1313,620 1313,625 1300,631 1298,640 1294,639 1296,632 1295,627 1300,631 1310,620" />
<polyline points="1412,607 1410,610 1411,612 1418,613 1421,621 1425,625 1427,624 1428,628 1432,626 1432,622 1428,624 1425,618 1422,618 1413,607" />
<polyline points="1413,593 1415,596 1420,596 1420,599 1429,608 1429,613 1431,611 1435,611 1438,617 1450,627 1458,642 1456,647 1456,656 1453,655 1453,648 1455,647 1453,646 1453,643 1455,642 1454,637 1451,637 1428,612 1426,612 1426,609 1416,602 1416,598 1411,596 1412,593" />
<polyline points="1439,462 1433,466 1428,466 1427,464 1422,463 1420,471 1427,470 1431,473 1435,468 1442,465 1445,467 1444,471 1448,473 1448,465 1445,462 1440,462" />
<polyline points="1389,289 1392,290 1393,294 1389,294 1385,298 1394,304 1397,300 1404,302 1404,306 1406,308 1410,304 1407,297 1410,297 1412,299 1411,303 1414,306 1403,310 1402,306 1392,307 1387,306 1381,301 1378,302 1378,296 1380,297 1388,289" />
<polyline points="1326,270 1327,275 1322,284 1311,292 1302,292 1300,294 1297,291 1297,288 1292,289 1289,285 1285,284 1287,281 1290,286 1294,283 1296,285 1303,285 1305,283 1298,278 1303,276 1305,277 1307,285 1311,285 1314,289 1318,285 1317,283 1322,278 1322,273 1325,270" />
<polyline points="1319,242 1324,250 1327,249 1330,259 1325,263 1320,260 1327,254 1322,252 1322,255 1317,254 1320,253 1317,249 1318,242" />
<polyline points="1300,230 1303,233 1308,232 1310,237 1316,237 1317,240 1305,243 1302,240 1305,236 1303,234 1298,234 1295,241 1290,240 1290,236 1299,230" />
<polyline points="1272,222 1277,222 1280,228 1274,233 1270,232 1268,234 1272,237 1269,240 1264,236 1261,236 1260,238 1263,242 1258,243 1246,235 1249,231 1253,234 1258,232 1255,228 1250,228 1251,224 1259,227 1264,225 1264,230 1267,231 1271,227 1271,222" />
<polyline points="1240,227 1243,230 1241,239 1244,241 1244,244 1236,248 1246,255 1246,258 1239,254 1237,256 1240,257 1240,260 1237,261 1237,257 1233,254 1229,256 1231,253 1230,249 1232,250 1235,247 1235,243 1241,238 1234,233 1228,234 1227,230 1237,230 1239,227" />
<polyline points="1223,236 1228,236 1229,241 1226,243 1227,249 1222,250 1224,253 1223,255 1219,255 1218,251 1215,249 1213,251 1213,259 1207,262 1209,255 1204,255 1202,253 1199,255 1197,253 1205,246 1206,240 1209,242 1208,244 1210,247 1218,242 1220,243 1222,241 1222,236" />
<polyline points="1194,229 1200,230 1202,234 1207,234 1208,231 1211,231 1213,235 1216,233 1216,240 1211,239 1211,236 1206,238 1203,236 1202,239 1197,237 1197,233 1193,233 1193,229" />
<polyline points="1156,226 1162,229 1169,238 1173,237 1174,239 1166,241 1164,245 1159,245 1159,241 1165,241 1164,235 1159,230 1155,229 1155,226" />
<polyline points="1146,279 1149,281 1148,287 1153,289 1152,295 1146,297 1143,293 1148,295 1150,290 1143,290 1140,288 1138,290 1141,296 1138,296 1134,292 1138,287 1137,283 1139,284 1143,282 1145,279" />
<polyline points="1169,283 1165,284 1155,295 1161,295 1165,290 1169,289 1178,292 1180,288 1185,288 1186,291 1182,297 1183,299 1185,299 1187,295 1192,295 1195,298 1199,297 1198,294 1194,294 1198,289 1189,289 1183,283 1181,283 1180,288 1177,289 1175,285 1170,283" />
<polyline points="1234,281 1232,282 1234,285 1233,288 1230,288 1231,290 1229,293 1225,294 1221,291 1213,297 1216,299 1220,296 1229,295 1231,293 1236,295 1243,292 1244,288 1249,287 1247,284 1243,284 1243,289 1242,287 1237,287 1235,281" />
<polyline points="1276,284 1277,289 1274,291 1275,294 1273,297 1269,298 1270,301 1268,302 1268,306 1276,314 1279,310 1275,308 1271,302 1273,299 1278,300 1280,303 1284,303 1287,298 1294,301 1297,300 1297,297 1293,296 1292,292 1290,292 1287,297 1283,294 1278,296 1277,289 1282,291 1287,290 1277,284" />
<polyline points="1352,220 1350,223 1357,227 1355,229 1352,228 1351,231 1355,233 1354,237 1356,239 1360,239 1359,234 1361,233 1363,236 1365,236 1365,234 1359,227 1360,223 1353,220" />
<polyline points="1373,218 1371,220 1373,225 1365,226 1365,229 1368,231 1376,231 1382,237 1391,239 1392,236 1390,234 1387,235 1377,226 1374,218" />
<polyline points="1405,209 1404,212 1409,215 1407,222 1401,224 1400,222 1389,218 1386,222 1386,226 1390,229 1395,226 1400,226 1402,228 1401,234 1396,241 1397,244 1392,247 1394,249 1392,254 1395,256 1399,254 1397,250 1398,245 1401,242 1403,232 1408,229 1406,224 1413,220 1412,216 1409,214 1410,210 1406,209" />
<polyline points="1440,208 1440,211 1437,214 1425,211 1423,216 1425,218 1439,217 1450,219 1450,215 1447,212 1448,210 1441,208" />
<polyline points="1463,170 1462,174 1471,179 1476,179 1485,183 1492,182 1492,178 1478,178 1475,173 1470,173 1467,170 1464,170" />
<polyline points="1482,143 1484,149 1495,150 1499,160 1507,160 1507,157 1497,150 1496,146 1494,147 1488,143 1484,145 1483,143" />
<polyline points="1517,148 1514,150 1515,154 1512,158 1518,161 1514,162 1515,166 1518,168 1517,171 1521,172 1526,179 1519,161 1515,158 1520,155 1520,150 1518,148" />
<polyline points="1524,184 1522,187 1528,189 1528,194 1524,196 1524,198 1527,199 1527,204 1534,209 1538,209 1539,206 1531,200 1535,190 1530,186 1530,184 1525,184" />
<polyline points="1513,216 1519,216 1521,218 1521,222 1518,224 1523,228 1527,227 1529,229 1529,234 1532,237 1534,230 1537,230 1539,233 1538,241 1534,241 1533,239 1530,240 1529,238 1527,239 1528,243 1525,246 1524,252 1522,252 1522,249 1516,241 1512,240 1510,237 1508,238 1502,233 1503,230 1494,222 1496,220 1497,223 1503,222 1505,227 1503,229 1506,232 1511,228 1508,224 1512,224 1514,232 1513,235 1515,237 1527,239 1528,237 1510,220 1512,216" />
<polyline points="1608,205 1607,208 1612,210 1616,215 1608,216 1605,219 1601,214 1599,214 1598,218 1604,220 1604,224 1606,222 1612,223 1612,235 1615,236 1614,241 1616,246 1605,250 1604,246 1601,244 1599,248 1602,250 1602,253 1605,254 1610,251 1617,251 1617,246 1625,230 1623,225 1619,230 1615,226 1615,216 1618,214 1620,216 1619,221 1622,221 1625,214 1622,212 1619,213 1614,206 1610,207 1609,205" />
<polyline points="1581,147 1598,160 1611,176 1625,189 1620,187 1596,161 1592,160 1591,164 1587,162 1584,152 1580,147" />
<polyline points="1599,316 1596,320 1606,323 1608,326 1603,355 1601,390 1611,391 1605,378 1608,374 1606,369 1608,346 1611,342 1610,335 1614,329 1610,323 1600,316" />
<polyline points="1674,317 1666,322 1664,321 1663,324 1659,324 1656,327 1654,326 1644,347 1634,340 1624,328 1621,327 1620,329 1623,329 1626,333 1625,335 1629,339 1633,339 1634,343 1639,346 1638,348 1644,351 1656,339 1657,334 1661,330 1671,326 1676,318 1675,317" />
<polyline points="1743,268 1733,275 1723,289 1718,288 1717,291 1710,294 1710,297 1712,296 1713,298 1709,299 1709,303 1703,308 1697,309 1686,324 1686,327 1691,327 1686,334 1686,338 1692,346 1699,350 1698,354 1700,356 1698,359 1701,361 1704,361 1703,356 1718,346 1722,346 1728,341 1729,335 1737,324 1737,300 1729,293 1735,287 1725,293 1724,290 1744,268" />
<polyline points="1728,245 1729,246 1724,249 1724,251 1721,252 1722,258 1715,250 1697,262 1684,259 1687,256 1684,254 1679,254 1673,259 1673,255 1677,253 1668,248 1669,246 1680,253 1698,255 1727,245" />
<polyline points="1895,273 1910,278 1913,277 1925,280 1960,296 1959,294 1926,279 1896,273" />
<polyline points="1962,296 2008,327 2020,333 1978,304 1963,296" />
<polyline points="1811,429 1814,434 1811,437 1809,436 1803,442 1799,439 1794,441 1792,439 1789,443 1785,441 1783,443 1780,442 1777,445 1778,442 1774,441 1766,444 1765,446 1751,446 1745,450 1753,456 1759,464 1764,464 1764,469 1786,492 1792,496 1794,500 1793,502 1789,499 1789,496 1780,490 1779,494 1776,493 1779,489 1770,478 1766,479 1774,490 1768,486 1765,481 1767,477 1755,465 1753,468 1756,473 1750,475 1747,471 1750,467 1745,466 1743,460 1737,455 1732,457 1733,462 1731,463 1722,461 1718,465 1714,466 1712,474 1703,480 1704,482 1702,483 1702,486 1705,491 1708,492 1711,490 1713,495 1710,496 1710,500 1713,509 1719,508 1717,511 1710,510 1707,507 1697,489 1698,487 1695,486 1696,484 1693,480 1693,476 1689,476 1688,469 1690,468 1692,475 1698,481 1700,476 1708,468 1707,465 1709,465 1715,458 1718,460 1720,456 1725,455 1731,447 1737,449 1742,454 1743,453 1740,450 1739,445 1743,444 1746,440 1764,439 1788,432 1795,433 1796,431 1802,432 1810,429" />
<polyline points="1871,549 1871,552 1868,554 1858,551 1858,556 1889,556 1900,561 1899,568 1897,570 1884,571 1880,575 1868,580 1867,584 1862,586 1858,585 1859,591 1854,599 1852,596 1849,604 1841,606 1842,609 1834,613 1833,617 1830,618 1829,623 1820,624 1823,629 1828,630 1832,628 1839,615 1841,616 1848,611 1857,611 1857,608 1853,607 1855,604 1860,607 1860,602 1863,598 1867,597 1866,605 1869,604 1870,598 1877,596 1881,587 1892,586 1892,583 1890,582 1891,580 1897,581 1901,578 1900,573 1905,566 1903,558 1898,558 1893,555 1893,549 1886,550 1886,553 1873,553 1874,549 1872,549" />
<polyline points="1856,558 1859,561 1865,560 1869,563 1890,560 1893,564 1877,565 1876,567 1868,567 1859,570 1844,581 1843,590 1839,587 1835,588 1831,594 1828,595 1827,590 1832,588 1831,583 1836,582 1838,585 1840,583 1840,579 1844,575 1844,570 1849,573 1852,570 1849,567 1849,562 1858,567 1862,565 1855,562 1855,558" />
<polyline points="1882,603 1879,607 1867,612 1864,619 1871,612 1886,608 1893,610 1904,619 1903,627 1901,625 1900,619 1894,621 1889,616 1885,617 1884,615 1885,619 1891,623 1890,626 1882,624 1880,619 1868,626 1864,627 1862,624 1859,633 1855,637 1856,642 1853,646 1853,650 1851,651 1852,661 1875,664 1883,660 1897,648 1906,627 1906,613 1900,605 1898,607 1893,606 1893,603 1890,605 1883,603" />
<polyline points="1920,650 1912,655 1898,669 1898,671 1901,671 1915,655 1923,654 1921,650" />
<polyline points="1934,657 1932,661 1936,663 1937,670 1930,684 1931,691 1935,691 1943,683 1940,683 1937,688 1934,689 1931,687 1938,670 1938,662 1935,657" />
<polyline points="1949,676 1946,679 1949,678 1955,683 1936,702 1936,704 1957,684 1955,679 1950,676" />
<polyline points="1980,650 1978,660 1961,677 1959,677 1959,679 1964,677 1979,662 1982,657 1981,650" />
<polyline points="1951,634 1954,639 1952,644 1952,639 1948,637 1933,652 1931,652 1932,649 1934,649 1946,636 1950,634" />
<polyline points="1949,622 1955,623 1957,627 1960,627 1957,628 1953,625 1947,625 1932,637 1938,630 1939,626 1948,622" />
<polyline points="1993,691 1984,700 1966,706 1960,710 1956,710 1950,713 1950,715 1957,714 1960,711 1973,706 1982,706 1984,703 1992,700 1994,691" />
<polyline points="1934,719 1938,719 1938,721 1929,727 1927,726 1920,734 1915,734 1912,739 1908,740 1912,733 1922,729 1933,719" />
<polyline points="1909,726 1909,731 1904,740 1905,742 1903,741 1899,743 1901,747 1886,755 1874,770 1868,773 1865,772 1864,768 1870,768 1897,740 1905,734 1908,726" />
<polyline points="1869,719 1880,720 1885,728 1886,735 1891,730 1893,732 1894,730 1898,731 1902,727 1902,730 1898,734 1889,735 1875,749 1873,760 1869,763 1865,763 1855,753 1855,750 1860,752 1865,759 1868,760 1871,756 1873,747 1861,743 1859,736 1857,735 1860,724 1865,721 1860,730 1860,734 1868,743 1877,742 1883,735 1882,727 1876,722 1867,721 1868,719" />
<polyline points="1844,741 1844,746 1850,754 1860,761 1862,768 1858,766 1857,763 1843,750 1845,747 1842,745 1843,741" />
<polyline points="1841,770 1843,770 1843,772 1835,776 1826,777 1824,779 1824,776 1820,776 1817,781 1813,782 1813,777 1817,777 1822,774 1828,776 1840,770" />
<polyline points="1859,772 1854,777 1849,777 1840,782 1834,783 1842,784 1845,780 1850,779 1855,781 1858,775 1864,776 1864,774 1860,772" />
<polyline points="1808,786 1809,791 1807,793 1805,791 1796,792 1795,796 1797,798 1795,801 1789,794 1786,795 1772,792 1772,790 1786,788 1791,789 1802,787 1804,789 1807,786" />
<polyline points="1775,810 1777,812 1774,816 1778,818 1780,822 1785,816 1787,817 1784,821 1785,826 1783,830 1783,838 1780,840 1778,838 1780,832 1778,829 1768,836 1765,843 1768,847 1776,840 1779,845 1784,843 1786,849 1783,850 1782,847 1779,852 1774,846 1772,850 1764,850 1757,847 1756,850 1745,860 1744,859 1749,854 1747,851 1735,862 1735,859 1731,856 1734,854 1738,856 1747,847 1746,844 1744,844 1744,841 1748,844 1752,840 1756,841 1748,850 1750,852 1760,842 1758,840 1761,842 1765,838 1760,834 1766,827 1770,827 1771,824 1765,821 1748,836 1742,832 1739,833 1739,831 1744,829 1744,826 1746,827 1748,825 1747,823 1744,823 1728,833 1722,834 1721,837 1717,835 1705,835 1702,839 1700,836 1699,838 1682,838 1680,840 1671,839 1671,836 1680,837 1682,835 1693,834 1699,830 1703,832 1707,828 1722,828 1725,826 1724,822 1726,821 1747,821 1759,816 1765,817 1766,812 1774,810" />
<polyline points="1712,802 1725,803 1725,806 1721,807 1717,811 1718,815 1724,811 1728,813 1729,806 1731,806 1732,811 1724,816 1718,817 1709,824 1686,825 1684,824 1684,819 1680,820 1679,823 1669,822 1669,820 1692,805 1711,802" />
<polyline points="1636,834 1639,834 1637,838 1638,841 1642,841 1651,835 1659,835 1649,838 1652,840 1651,846 1649,848 1645,848 1633,839 1635,834" />
<polyline points="1549,778 1554,781 1591,780 1671,787 1670,789 1636,790 1625,787 1610,789 1603,787 1601,789 1596,786 1595,788 1592,788 1587,784 1586,786 1573,785 1564,787 1557,785 1538,785 1531,787 1528,785 1512,784 1503,786 1496,784 1487,787 1480,783 1485,780 1490,782 1528,779 1547,780 1548,778" />
<polyline points="1526,794 1526,801 1519,797 1511,799 1506,797 1501,802 1500,798 1494,796 1524,796 1525,794" />
<polyline points="1504,902 1508,902 1510,906 1513,905 1512,909 1518,911 1516,917 1514,917 1512,912 1508,915 1509,922 1507,927 1510,930 1506,932 1503,928 1500,928 1500,925 1497,922 1487,922 1487,918 1483,915 1483,912 1488,907 1491,910 1496,909 1495,912 1491,913 1492,915 1490,913 1487,916 1492,918 1495,916 1499,922 1503,923 1505,921 1505,916 1503,913 1506,911 1504,909 1506,908 1503,902" />
<polyline points="1521,976 1520,978 1514,979 1510,986 1507,987 1498,983 1500,985 1498,987 1506,990 1521,988 1524,985 1536,988 1536,986 1527,983 1522,976" />
<polyline points="1471,997 1478,998 1471,1007 1468,1006 1465,1009 1455,1012 1454,1007 1456,1006 1454,1003 1460,1002 1461,1006 1464,1006 1469,1001 1470,997" />
<polyline points="1446,978 1449,979 1449,983 1451,985 1455,982 1462,982 1464,984 1469,984 1472,989 1477,988 1477,990 1468,991 1461,985 1454,987 1448,986 1446,982 1444,982 1445,978" />
<polyline points="1432,982 1435,984 1431,990 1434,992 1436,997 1440,997 1447,992 1450,993 1451,996 1449,998 1444,997 1439,1000 1432,1000 1430,1004 1434,1008 1433,1011 1428,1010 1429,1008 1427,1004 1427,1000 1431,997 1428,985 1431,982" />
<polyline points="1402,968 1407,972 1419,971 1420,973 1378,974 1379,972 1387,972 1389,969 1399,971 1401,968" />
<polyline points="1391,984 1399,987 1399,991 1402,994 1423,995 1425,998 1422,999 1396,995 1395,989 1393,990 1387,987 1390,984" />
<polyline points="1395,1008 1394,1011 1396,1019 1392,1021 1392,1023 1408,1021 1411,1019 1413,1023 1420,1022 1412,1011 1409,1012 1411,1016 1410,1019 1403,1018 1397,1011 1404,1010 1406,1012 1406,1010 1403,1008 1396,1008" />
<polyline points="1318,983 1322,983 1323,986 1327,986 1327,990 1320,986 1314,991 1303,988 1302,990 1304,994 1296,993 1297,989 1295,986 1297,985 1302,986 1309,984 1311,986 1317,983" />
<polyline points="1310,966 1315,966 1317,970 1322,972 1321,978 1316,977 1317,975 1315,971 1308,971 1299,977 1294,977 1294,975 1300,970 1309,966" />
<polyline points="1260,954 1263,959 1266,958 1271,962 1263,965 1260,963 1261,961 1259,959 1254,961 1255,965 1235,967 1231,974 1228,974 1225,971 1227,965 1231,965 1233,967 1234,965 1243,965 1246,961 1252,960 1259,954" />
<polyline points="1232,939 1227,944 1229,949 1233,952 1236,951 1240,953 1248,950 1248,953 1244,958 1235,959 1235,956 1231,952 1224,951 1226,942 1231,939" />
<polyline points="1426,1147 1422,1153 1418,1151 1417,1155 1420,1158 1425,1158 1427,1156 1432,1160 1429,1164 1421,1162 1418,1166 1419,1168 1425,1169 1433,1162 1436,1162 1437,1157 1427,1147" />
<polyline points="1442,1164 1433,1175 1431,1174 1431,1177 1440,1185 1442,1191 1445,1193 1448,1188 1436,1175 1445,1167 1446,1164 1443,1164" />
<polyline points="1411,1167 1415,1173 1418,1173 1418,1176 1423,1180 1422,1182 1413,1183 1409,1177 1400,1173 1398,1175 1391,1176 1376,1192 1376,1195 1371,1192 1351,1192 1347,1194 1056,1193 1059,1190 1072,1188 1074,1190 1139,1189 1146,1187 1147,1189 1164,1189 1187,1192 1203,1192 1208,1190 1262,1191 1278,1190 1279,1188 1281,1190 1307,1190 1309,1188 1310,1190 1338,1190 1340,1188 1341,1190 1373,1190 1377,1187 1376,1185 1378,1187 1380,1185 1380,1182 1382,1182 1390,1173 1398,1170 1406,1172 1410,1167" />
<polyline points="1570,1142 1565,1148 1562,1147 1559,1152 1557,1150 1553,1150 1551,1155 1555,1157 1563,1152 1567,1152 1571,1147 1579,1146 1578,1143 1571,1142" />
<polyline points="1661,1018 1659,1021 1659,1027 1654,1034 1647,1037 1648,1039 1654,1041 1660,1040 1662,1038 1660,1034 1661,1032 1674,1023 1674,1021 1670,1019 1669,1021 1667,1020 1668,1025 1665,1026 1662,1024 1665,1021 1662,1018" />
<polyline points="1684,1023 1681,1027 1676,1025 1678,1028 1675,1035 1673,1032 1675,1037 1673,1044 1671,1045 1670,1056 1665,1065 1665,1071 1673,1075 1678,1075 1678,1072 1671,1071 1668,1067 1670,1065 1677,1066 1676,1063 1673,1064 1670,1061 1674,1057 1673,1053 1679,1044 1679,1037 1682,1035 1681,1029 1683,1028 1688,1032 1682,1041 1693,1039 1691,1034 1693,1025 1687,1026 1685,1023" />
<polyline points="1711,1054 1710,1058 1713,1060 1711,1062 1709,1061 1709,1064 1711,1064 1713,1068 1739,1062 1739,1060 1734,1061 1730,1056 1727,1056 1724,1062 1722,1060 1722,1056 1718,1060 1712,1054" />
<polyline points="1758,1066 1756,1071 1752,1071 1747,1076 1734,1083 1745,1081 1746,1079 1761,1072 1765,1072 1761,1066 1759,1066" />
<polyline points="1784,1044 1775,1053 1768,1057 1764,1063 1764,1067 1768,1071 1779,1067 1789,1057 1791,1057 1789,1047 1785,1044" />
<polyline points="1769,1017 1771,1026 1775,1021 1780,1024 1782,1019 1789,1017 1789,1019 1784,1022 1786,1023 1786,1026 1778,1026 1773,1031 1783,1032 1772,1044 1759,1053 1751,1054 1745,1048 1744,1050 1749,1056 1746,1058 1746,1062 1742,1062 1741,1060 1745,1057 1743,1052 1736,1049 1736,1044 1732,1043 1729,1038 1740,1045 1739,1040 1737,1038 1735,1039 1732,1033 1736,1033 1737,1031 1743,1032 1743,1036 1739,1039 1742,1041 1744,1039 1747,1046 1750,1048 1753,1043 1758,1042 1763,1036 1766,1036 1767,1039 1769,1039 1772,1032 1766,1029 1768,1017" />
<polyline points="1828,1005 1827,1007 1830,1008 1830,1011 1827,1013 1825,1012 1822,1016 1819,1013 1815,1013 1818,1017 1811,1022 1809,1018 1807,1018 1793,1026 1790,1025 1794,1029 1790,1031 1788,1035 1791,1037 1789,1041 1791,1041 1793,1045 1800,1047 1802,1044 1799,1042 1797,1044 1793,1041 1793,1037 1795,1036 1797,1029 1802,1026 1808,1028 1811,1026 1817,1026 1827,1018 1830,1018 1833,1013 1839,1009 1839,1006 1836,1006 1835,1008 1829,1005" />
<polyline points="1848,1012 1844,1014 1836,1027 1832,1028 1833,1030 1838,1028 1844,1031 1856,1046 1854,1048 1854,1055 1851,1058 1849,1057 1841,1084 1841,1089 1843,1091 1841,1094 1844,1094 1847,1101 1850,1090 1845,1084 1845,1081 1848,1080 1851,1083 1861,1074 1855,1069 1854,1077 1851,1079 1847,1077 1852,1070 1851,1064 1860,1053 1862,1040 1861,1038 1857,1038 1858,1033 1853,1031 1853,1027 1851,1027 1846,1020 1852,1014 1853,1017 1859,1017 1857,1020 1859,1020 1861,1016 1863,1019 1868,1016 1863,1014 1861,1015 1859,1013 1853,1015 1849,1012" />
<polyline points="1889,1005 1889,1011 1894,1014 1899,1022 1904,1022 1908,1026 1921,1031 1924,1030 1922,1026 1918,1027 1916,1024 1911,1024 1909,1020 1907,1021 1905,1017 1900,1013 1897,1013 1897,1010 1893,1005 1890,1005" />
<polyline points="1804,918 1805,921 1803,923 1810,931 1813,930 1813,928 1816,928 1815,933 1817,937 1815,935 1814,938 1819,942 1819,947 1821,949 1825,948 1824,951 1822,950 1819,953 1819,960 1823,964 1826,973 1824,975 1821,974 1814,979 1811,978 1810,980 1808,980 1808,969 1804,967 1804,962 1807,962 1808,965 1811,962 1813,968 1810,973 1812,977 1820,974 1822,970 1818,967 1816,963 1817,961 1815,960 1817,951 1815,950 1816,944 1812,943 1807,938 1808,935 1806,934 1806,929 1800,924 1801,919 1803,918" />
<polyline points="1796,924 1801,930 1803,939 1809,948 1811,960 1807,958 1806,949 1800,941 1797,930 1793,927 1795,924" />
<polyline points="1773,888 1775,890 1771,891 1771,894 1774,896 1774,899 1771,900 1772,904 1780,909 1784,908 1785,911 1781,910 1777,912 1767,905 1767,902 1771,898 1769,891 1772,890 1772,888" />
<polyline points="1826,873 1824,876 1829,878 1831,882 1833,881 1835,883 1834,885 1838,887 1838,891 1831,896 1828,890 1829,887 1825,883 1824,888 1826,891 1824,897 1830,895 1833,898 1831,902 1835,900 1838,901 1841,892 1840,886 1844,884 1844,881 1842,880 1839,884 1836,879 1830,878 1830,874 1827,873" />
<polyline points="1718,970 1723,972 1724,977 1712,990 1712,987 1708,984 1697,984 1700,991 1703,990 1707,994 1697,994 1696,996 1699,1000 1694,997 1693,1000 1689,1001 1689,999 1682,993 1671,996 1678,989 1683,989 1683,992 1686,991 1691,996 1695,983 1693,982 1694,979 1704,979 1713,976 1717,970" />
<polyline points="1697,964 1707,971 1711,970 1711,972 1701,975 1693,973 1677,976 1673,975 1673,972 1679,973 1683,971 1691,971 1696,964" />
<polyline points="1666,973 1668,977 1660,979 1659,981 1661,984 1667,982 1667,987 1670,989 1668,993 1661,991 1655,986 1643,993 1628,993 1615,987 1618,983 1621,983 1622,985 1626,984 1629,989 1638,989 1650,986 1657,982 1656,979 1661,978 1662,974 1665,973" />
<polyline points="1601,969 1601,974 1605,976 1612,975 1612,971 1615,969 1626,969 1626,972 1622,974 1620,978 1617,977 1618,974 1616,973 1614,977 1603,979 1601,975 1599,975 1600,969" />
<polyline points="1844,1120 1842,1122 1840,1121 1840,1126 1843,1127 1846,1138 1845,1141 1842,1141 1851,1156 1846,1146 1846,1141 1849,1141 1849,1137 1847,1134 1845,1120" />
<polyline points="1859,1155 1859,1161 1868,1165 1870,1169 1872,1168 1874,1171 1878,1171 1880,1174 1879,1176 1887,1181 1888,1188 1890,1189 1891,1179 1887,1178 1883,1173 1886,1172 1888,1168 1882,1170 1879,1166 1872,1164 1869,1160 1862,1159 1860,1155" />
<polyline points="2012,898 2002,901 1999,907 1995,907 1996,912 1994,914 1990,913 1987,910 1988,908 1986,908 1986,911 1992,917 1992,925 1995,923 1995,918 2000,907 2003,904 2012,901 2014,899 2013,898" />
<polyline points="2076,755 2069,759 2048,757 2041,763 2041,765 2045,765 2050,760 2058,759 2060,763 2068,760 2070,762 2070,766 2074,769 2071,772 2063,770 2060,773 2056,773 2056,777 2063,772 2065,772 2066,775 2070,775 2082,764 2072,764 2079,756 2077,755" />
<polyline points="2071,679 2074,680 2074,682 2069,688 2064,688 2065,692 2069,692 2069,695 2055,695 2046,699 2047,695 2064,688 2070,679" />
<polyline points="2091,644 2086,647 2085,652 2082,654 2078,667 2082,664 2084,658 2089,662 2091,666 2090,668 2092,667 2090,655 2092,653 2092,644" />
<polyline points="2081,565 2084,565 2084,567 2076,569 2076,571 2080,572 2081,570 2092,567 2090,570 2081,572 2082,577 2086,582 2081,581 2076,575 2074,577 2070,575 2060,575 2050,582 2047,582 2046,580 2051,574 2080,565" />
<polyline points="2015,565 2016,570 2006,579 2003,586 2008,588 2010,583 2019,576 2020,573 2028,579 2028,587 2017,597 2016,600 2023,605 2024,608 2026,607 2027,614 2008,632 1992,625 1988,629 1992,633 1992,637 1997,640 1997,643 1989,651 1984,648 1984,644 1986,645 1986,649 1991,648 1995,644 1995,641 1984,632 1984,629 1991,623 1997,623 2001,627 2004,626 2006,629 2010,629 2014,626 2014,622 2011,621 2012,619 2019,619 2025,614 2025,611 2012,599 2027,584 2027,582 2024,581 2023,578 2019,578 2008,591 2001,589 1999,586 2000,582 2014,570 2014,565" />
<polyline points="2009,560 2012,560 2012,563 2005,565 2003,569 1998,571 1989,582 1989,586 2013,612 2007,612 1996,598 1993,597 1990,601 1985,596 1979,594 1974,596 1957,614 1958,619 1953,617 1953,615 1958,611 1958,607 1963,605 1975,593 1983,592 1990,596 1991,595 1986,589 1987,582 2001,566 2005,565 2008,560" />
<polyline points="1833,675 1835,675 1835,683 1832,684 1838,687 1839,690 1822,694 1815,691 1813,692 1808,685 1805,684 1806,682 1820,690 1827,689 1832,685 1829,679 1832,675" />
<polyline points="1758,679 1771,691 1776,700 1771,700 1768,697 1768,694 1763,691 1761,695 1764,700 1763,703 1759,700 1760,692 1756,683 1757,679" />
<polyline points="1778,596 1778,599 1783,599 1785,602 1784,604 1788,605 1787,612 1790,616 1784,617 1783,614 1780,613 1779,617 1783,622 1788,623 1793,617 1792,606 1789,604 1789,601 1784,598 1780,598 1779,596" />
<polyline points="1748,568 1750,572 1753,571 1754,568 1756,569 1753,574 1756,578 1758,576 1762,577 1763,586 1757,583 1758,581 1756,579 1754,580 1749,577 1747,572 1740,573 1740,571 1744,571 1747,568" />
<polyline points="1718,570 1726,578 1723,585 1726,588 1726,593 1731,589 1732,581 1735,581 1736,583 1729,595 1730,602 1723,605 1704,601 1700,594 1701,590 1705,590 1708,598 1714,596 1718,601 1725,598 1725,593 1722,589 1717,590 1714,593 1709,590 1709,582 1714,586 1715,581 1721,582 1723,580 1715,574 1717,570" />
<polyline points="1687,576 1691,576 1693,586 1696,590 1694,596 1698,600 1698,604 1696,605 1693,604 1690,591 1687,590 1683,593 1674,593 1670,591 1671,588 1686,590 1689,586 1687,585 1688,581 1685,579 1686,576" />
<polyline points="1635,581 1641,584 1642,590 1638,597 1630,597 1627,593 1628,590 1621,586 1627,586 1630,584 1633,591 1636,592 1638,588 1635,586 1634,581" />
<polyline points="1180,488 1186,494 1185,496 1146,499 1143,504 1140,500 1134,503 1127,502 1128,499 1140,499 1143,496 1151,495 1153,493 1171,493 1175,489 1179,488" />
<polyline points="1071,501 1082,501 1082,504 1060,507 1058,509 1052,508 1037,512 1028,512 996,520 989,519 991,517 989,514 996,516 1005,512 1033,509 1035,507 1040,508 1047,506 1048,504 1050,505 1070,501" />
<polyline points="931,510 932,516 938,512 941,512 943,515 945,513 949,514 955,512 958,515 960,512 968,513 968,515 964,513 962,516 959,514 957,516 955,514 948,519 942,516 941,519 939,517 938,519 933,519 930,515 922,520 920,519 921,516 918,515 916,520 912,520 903,516 891,516 889,519 886,515 881,519 877,516 872,516 871,514 870,516 866,515 880,512 885,514 900,513 904,516 909,513 927,513 930,510" />
<polyline points="885,530 890,530 891,533 881,534 879,537 859,537 849,542 848,547 845,547 845,544 849,541 844,539 839,542 829,540 827,542 828,545 824,547 820,545 819,542 810,543 815,545 813,548 807,547 807,545 811,545 810,543 796,545 794,548 799,550 798,552 787,546 781,548 776,547 762,549 758,551 758,553 755,550 748,552 746,549 762,545 770,545 771,543 778,544 779,542 785,543 786,541 795,542 796,540 803,541 804,539 811,540 812,538 814,540 815,538 821,539 822,537 830,538 882,532 884,530" />
<polyline points="863,586 864,588 855,596 859,602 866,602 864,607 861,607 853,600 852,597 862,586" />
<polyline points="775,507 784,509 792,508 793,511 797,509 822,509 827,511 855,510 858,512 862,511 864,515 863,517 854,518 853,516 850,516 849,513 848,516 835,517 828,513 827,515 818,512 816,514 810,514 808,512 799,511 796,514 792,510 789,512 787,510 780,513 793,515 783,516 777,511 776,514 767,514 747,521 728,520 728,516 750,518 755,514 762,513 774,507" />
<polyline points="727,549 731,550 732,556 729,556 728,553 725,553 722,557 718,553 709,555 706,553 704,555 690,556 690,553 696,554 700,552 707,553 709,551 718,551 719,553 726,549" />
<polyline points="787,285 789,290 785,292 780,288 780,286 778,286 781,290 778,295 779,297 783,294 788,294 789,297 795,296 795,294 791,295 788,293 788,291 792,289 792,286 788,285" />
<polyline points="775,238 780,240 784,238 785,242 773,242 774,247 779,246 779,250 771,248 768,252 765,252 765,248 768,248 770,245 768,241 770,239 773,240 774,238" />
<polyline points="758,159 765,168 772,170 779,169 779,171 776,174 771,173 756,165 755,162 737,164 757,159" />
<polyline points="804,150 791,153 793,155 782,168 795,158 798,158 799,153 808,151 805,150" />
<polyline points="672,174 673,176 685,175 685,178 654,179 633,183 626,182 624,184 613,183 606,184 605,186 586,186 566,190 557,189 554,191 555,194 553,194 551,190 546,192 533,192 529,194 525,192 522,196 517,195 516,193 510,193 507,198 505,198 501,194 491,200 488,199 487,195 482,199 477,197 472,199 459,199 455,201 446,199 439,200 439,198 449,199 482,194 490,195 510,191 524,192 541,189 556,189 561,187 566,188 570,186 593,183 599,184 602,182 620,180 640,180 643,178 670,176 671,174" />
<polyline points="1132,121 1129,123 1115,123 1111,125 1108,122 1105,125 1081,127 1078,130 1110,129 1115,126 1139,126 1140,124 1149,123 1149,121 1133,121" />
<polyline points="1274,177 1272,179 1279,183 1277,186 1261,182 1260,186 1267,189 1265,194 1272,194 1272,191 1274,190 1278,196 1284,198 1283,193 1279,193 1281,189 1286,189 1288,191 1287,193 1290,195 1298,193 1293,188 1289,190 1286,186 1279,183 1275,177" />
<polyline points="1304,155 1298,163 1291,165 1287,163 1286,168 1290,170 1290,174 1293,177 1311,177 1314,180 1319,180 1320,175 1314,174 1312,176 1309,173 1302,172 1301,170 1298,172 1292,169 1293,166 1297,166 1304,162 1306,157 1305,155" />
<polyline points="1309,133 1307,136 1309,136 1310,139 1321,148 1319,152 1311,151 1309,155 1320,154 1323,147 1310,133" />
<polyline points="1320,103 1343,127 1346,123 1353,128 1364,118 1369,116 1374,109 1376,110 1374,112 1374,116 1378,116 1380,120 1382,116 1382,109 1391,109 1392,111 1397,110 1392,108 1371,107 1354,125 1352,125 1348,120 1344,123 1342,121 1344,116 1339,110 1339,104 1333,104 1339,113 1338,117 1329,107 1328,103 1321,103" />
<polyline points="1303,101 1308,102 1307,106 1312,111 1315,109 1326,121 1325,123 1332,126 1340,136 1344,136 1347,129 1349,129 1348,135 1342,140 1338,139 1325,126 1325,123 1319,121 1320,119 1318,117 1307,113 1304,110 1305,105 1302,101" />
<polyline points="426,675 432,682 430,686 431,690 426,684 428,681 426,679 423,683 413,683 415,680 420,681 422,679 420,676 425,675" />
<polyline points="283,668 275,679 264,688 260,694 240,711 244,705 242,700 247,702 254,694 282,668" />
<polyline points="269,621 286,638 288,646 286,646 283,639 279,638 268,626 266,622 268,621" />
<polyline points="232,679 222,690 224,696 218,694 215,697 215,702 213,701 210,704 208,720 210,728 205,731 207,727 205,719 208,706 207,703 224,686 226,681 228,682 231,679" />
<polyline points="625,1155 623,1156 624,1159 674,1165 674,1162 685,1162 681,1160 672,1161 626,1155" />
<polyline points="776,1159 767,1162 764,1167 756,1171 753,1175 757,1176 769,1163 783,1161 798,1168 810,1165 820,1165 830,1173 832,1172 832,1176 840,1183 845,1184 844,1179 837,1176 836,1173 831,1170 830,1165 827,1165 822,1161 797,1165 792,1163 790,1159 777,1159" />
<polyline points="781,1169 771,1171 769,1176 784,1174 787,1177 814,1179 817,1176 821,1180 828,1181 823,1174 821,1175 818,1172 796,1176 792,1173 790,1174 787,1170 784,1171 782,1169" />
<polyline points="880,1177 876,1179 849,1178 849,1181 883,1181 881,1177" />
<polyline points="907,1181 901,1185 901,1188 904,1185 909,1184 916,1186 925,1185 930,1189 937,1188 946,1191 948,1189 949,1193 951,1193 952,1190 954,1193 956,1191 957,1193 964,1193 965,1191 968,1191 969,1193 978,1192 981,1194 1033,1195 1033,1193 1028,1189 1005,1191 1000,1189 960,1189 948,1186 912,1183 908,1181" />
</g>
<g id="eye-outline" stroke="black" stroke-width="1.48" stroke-linecap="round" stroke-linejoin="round" fill="none">
<polyline points="1674.17,323.06 1674.79,325.84 1676.61,328.52 1679.57,331.02 1683.57,333.25 1688.48,335.13 1694.13,336.6 1700.32,337.61 1706.85,338.12 1713.5,338.12 1720.03,337.61 1726.22,336.6 1731.87,335.13 1736.78,333.25 1740.78,331.02 1743.74,328.52 1745.56,325.84 1746.17,323.06" />
<polyline points="1674.17,323.06 1674.79,320.28 1676.61,317.6 1679.57,315.1 1683.57,312.88 1688.48,311 1694.13,309.53 1700.32,308.52 1706.85,308.01 1713.5,308.01 1720.03,308.52 1726.22,309.53 1731.87,311 1736.78,312.88 1740.78,315.1 1743.74,317.6 1745.56,320.28 1746.17,323.06" />
<polyline points="1192.77,287.37 1192.97,288.29 1193.58,289.19 1194.56,290.02 1195.9,290.76 1197.54,291.39 1199.42,291.88 1201.48,292.21 1203.66,292.39 1205.87,292.39 1208.05,292.21 1210.12,291.88 1212,291.39 1213.63,290.76 1214.97,290.02 1215.96,289.19 1216.56,288.29 1216.77,287.37" />
<polyline points="1192.77,287.37 1192.97,286.44 1193.58,285.55 1194.56,284.71 1195.9,283.97 1197.54,283.34 1199.42,282.86 1201.48,282.52 1203.66,282.35 1205.87,282.35 1208.05,282.52 1210.12,282.86 1212,283.34 1213.63,283.97 1214.97,284.71 1215.96,285.55 1216.56,286.44 1216.77,287.37" />
<polyline points="1242.85,261.57 1243.1,262.71 1243.85,263.82 1245.07,264.85 1246.72,265.76 1248.74,266.54 1251.06,267.14 1253.62,267.56 1256.3,267.77 1259.04,267.77 1261.73,267.56 1264.28,267.14 1266.61,266.54 1268.63,265.76 1270.28,264.85 1271.5,263.82 1272.24,262.71 1272.5,261.57" />
<polyline points="1242.85,261.57 1243.1,260.42 1243.85,259.32 1245.07,258.29 1246.72,257.37 1248.74,256.6 1251.06,256 1253.62,255.58 1256.3,255.37 1259.04,255.37 1261.73,255.58 1264.28,256 1266.61,256.6 1268.63,257.37 1270.28,258.29 1271.5,259.32 1272.24,260.42 1272.5,261.57" />
<polyline points="1838.6,640.04 1839.21,642.82 1841.03,645.51 1843.99,648 1848,650.23 1852.91,652.11 1858.55,653.58 1864.75,654.59 1871.28,655.1 1877.92,655.1 1884.45,654.59 1890.65,653.58 1896.29,652.11 1901.2,650.23 1905.21,648 1908.17,645.51 1909.99,642.82 1910.6,640.04" />
<polyline points="1838.6,640.04 1839.21,637.27 1841.03,634.58 1843.99,632.08 1848,629.86 1852.91,627.98 1858.55,626.51 1864.75,625.5 1871.28,624.99 1877.92,624.99 1884.45,625.5 1890.65,626.51 1896.29,627.98 1901.2,629.86 1905.21,632.08 1908.17,634.58 1909.99,637.27 1910.6,640.04" />
<polyline points="1269.45,704.52 1269.65,705.44 1270.26,706.34 1271.25,707.17 1272.58,707.91 1274.22,708.54 1276.1,709.03 1278.16,709.36 1280.34,709.54 1282.56,709.54 1284.73,709.36 1286.8,709.03 1288.68,708.54 1290.32,707.91 1291.65,707.17 1292.64,706.34 1293.24,705.44 1293.45,704.52" />
<polyline points="1269.45,704.52 1269.65,703.59 1270.26,702.7 1271.25,701.86 1272.58,701.12 1274.22,700.5 1276.1,700.01 1278.16,699.67 1280.34,699.5 1282.56,699.5 1284.73,699.67 1286.8,700.01 1288.68,700.5 1290.32,701.12 1291.65,701.86 1292.64,702.7 1293.24,703.59 1293.45,704.52" />
<polyline points="1258,632.17 1258.2,633.1 1258.81,633.99 1259.8,634.83 1261.13,635.57 1262.77,636.19 1264.65,636.68 1266.72,637.02 1268.89,637.19 1271.11,637.19 1273.28,637.02 1275.35,636.68 1277.23,636.19 1278.87,635.57 1280.2,634.83 1281.19,633.99 1281.8,633.1 1282,632.17" />
<polyline points="1258,632.17 1258.2,631.25 1258.81,630.35 1259.8,629.52 1261.13,628.78 1262.77,628.15 1264.65,627.66 1266.72,627.32 1268.89,627.15 1271.11,627.15 1273.28,627.32 1275.35,627.66 1277.23,628.15 1278.87,628.78 1280.2,629.52 1281.19,630.35 1281.8,631.25 1282,632.17" />
<polyline points="1666.77,813.59 1667.38,816.37 1669.2,819.05 1672.16,821.55 1676.16,823.78 1681.07,825.66 1686.72,827.12 1692.91,828.13 1699.44,828.65 1706.09,828.65 1712.62,828.13 1718.81,827.12 1724.46,825.66 1729.37,823.78 1733.37,821.55 1736.33,819.05 1738.15,816.37 1738.77,813.59" />
<polyline points="1666.77,813.59 1667.38,810.81 1669.2,808.13 1672.16,805.63 1676.16,803.4 1681.07,801.52 1686.72,800.05 1692.91,799.05 1699.44,798.53 1706.09,798.53 1712.62,799.05 1718.81,800.05 1724.46,801.52 1729.37,803.4 1733.37,805.63 1736.33,808.13 1738.15,810.81 1738.77,813.59" />
<polyline points="1760.51,1051.56 1760.82,1052.96 1761.74,1054.32 1763.23,1055.58 1765.25,1056.7 1767.73,1057.65 1770.57,1058.39 1773.7,1058.9 1776.99,1059.16 1780.34,1059.16 1783.64,1058.9 1786.76,1058.39 1789.61,1057.65 1792.08,1056.7 1794.1,1055.58 1795.6,1054.32 1796.51,1052.96 1796.82,1051.56" />
<polyline points="1760.51,1051.56 1760.82,1050.16 1761.74,1048.81 1763.23,1047.55 1765.25,1046.43 1767.73,1045.48 1770.57,1044.74 1773.7,1044.23 1776.99,1043.97 1780.34,1043.97 1783.64,1044.23 1786.76,1044.74 1789.61,1045.48 1792.08,1046.43 1794.1,1047.55 1795.6,1048.81 1796.51,1050.16 1796.82,1051.56" />
</g>
<g id="sucker-rings" stroke="black" stroke-width="1.48" stroke-linecap="round" stroke-linejoin="round" fill="none">
<circle cx="371.5" cy="465.33" r="4.2" />
<circle cx="371.5" cy="465.33" r="2.02" />
<circle cx="129.7" cy="669" r="4.2" />
<circle cx="129.7" cy="669" r="2.02" />
<circle cx="118.93" cy="672.36" r="4.2" />
<circle cx="118.93" cy="672.36" r="2.02" />
<circle cx="108.29" cy="674.19" r="4.2" />
<circle cx="108.29" cy="674.19" r="2.02" />
<circle cx="42.4" cy="689.2" r="4.2" />
<circle cx="42.4" cy="689.2" r="2.02" />
<circle cx="42.8" cy="770.8" r="4.2" />
<circle cx="42.8" cy="770.8" r="2.02" />
<circle cx="48.83" cy="771.17" r="4.2" />
<circle cx="48.83" cy="771.17" r="2.02" />
<circle cx="149.4" cy="959.8" r="4.2" />
<circle cx="149.4" cy="959.8" r="2.02" />
<circle cx="130.2" cy="974.5" r="4.2" />
<circle cx="130.2" cy="974.5" r="2.02" />
<circle cx="174.21" cy="1042" r="4.2" />
<circle cx="174.21" cy="1042" r="2.02" />
<circle cx="187.22" cy="1047.89" r="4.2" />
<circle cx="187.22" cy="1047.89" r="2.02" />
<circle cx="199.64" cy="1047" r="4.2" />
<circle cx="199.64" cy="1047" r="2.02" />
<circle cx="206.55" cy="1051.95" r="4.2" />
<circle cx="206.55" cy="1051.95" r="2.02" />
<circle cx="217.88" cy="1055.71" r="4.2" />
<circle cx="217.88" cy="1055.71" r="2.02" />
<circle cx="234" cy="1060" r="4.2" />
<circle cx="234" cy="1060" r="2.02" />
<circle cx="241" cy="1062" r="4.2" />
<circle cx="241" cy="1062" r="2.02" />
<circle cx="273.85" cy="1078.25" r="4.2" />
<circle cx="273.85" cy="1078.25" r="2.02" />
<circle cx="395.2" cy="855.69" r="4.82" />
<circle cx="395.2" cy="855.69" r="2.31" />
<circle cx="504.25" cy="822.62" r="4.2" />
<circle cx="504.25" cy="822.62" r="2.02" />
<circle cx="1718.31" cy="296.09" r="4.62" />
<circle cx="1718.31" cy="296.09" r="2.22" />
<circle cx="1735.24" cy="321.36" r="10.35" />
<circle cx="1735.24" cy="321.36" r="4.97" />
<circle cx="1879.85" cy="1158.62" r="6.08" />
<circle cx="1879.85" cy="1158.62" r="2.92" />
<circle cx="2017.57" cy="1206.6" r="6.85" />
<circle cx="2017.57" cy="1206.6" r="3.29" />
</g>
<g id="stipple" fill="black" stroke="none">
<circle cx="379.17" cy="478.97" r="1.95" />
<circle cx="458.23" cy="550.7" r="1.78" />
<circle cx="467.11" cy="675.89" r="1.82" />
<circle cx="513.3" cy="669.32" r="1.8" />
<circle cx="392.73" cy="675.67" r="1.82" />
<circle cx="362.1" cy="658.69" r="1.9" />
<circle cx="274.73" cy="662.05" r="1.73" />
<circle cx="208.89" cy="779.62" r="1.95" />
<circle cx="208.3" cy="793.35" r="1.78" />
<circle cx="250" cy="810" r="0.71" />
<circle cx="263.23" cy="801.67" r="1.95" />
<circle cx="289.4" cy="797.25" r="1.71" />
<circle cx="363.87" cy="772.38" r="1.82" />
<circle cx="405.48" cy="892.2" r="1.95" />
<circle cx="340" cy="976" r="0.78" />
<circle cx="379.42" cy="1117.04" r="1.91" />
<circle cx="421.49" cy="1125.6" r="1.95" />
<circle cx="511.94" cy="824.72" r="1.95" />
<circle cx="526.2" cy="826.72" r="1.84" />
<circle cx="805" cy="810" r="0.59" />
<circle cx="813.31" cy="914.97" r="1.95" />
<circle cx="849.95" cy="906.61" r="1.95" />
<circle cx="906.46" cy="925.02" r="1.84" />
<circle cx="1040.52" cy="1067.69" r="1.95" />
<circle cx="923.35" cy="1152.52" r="1.95" />
<circle cx="823.17" cy="1164.07" r="1.73" />
<circle cx="1186.83" cy="1154.44" r="1.95" />
<circle cx="1168.77" cy="971.93" r="1.95" />
<circle cx="1176.61" cy="961.98" r="1.93" />
<circle cx="1196.64" cy="912.09" r="1.86" />
<circle cx="1248" cy="963.4" r="1.95" />
<circle cx="1261.54" cy="959.79" r="1.95" />
<circle cx="1352.26" cy="950.3" r="1.95" />
<circle cx="1397.53" cy="949.37" r="1.78" />
<circle cx="1367.98" cy="1000.04" r="1.95" />
<circle cx="1481.28" cy="932.85" r="1.95" />
<circle cx="1522.15" cy="906.33" r="1.71" />
<circle cx="1652.51" cy="872.05" r="1.73" />
<circle cx="1698" cy="810" r="0.91" />
<circle cx="1740" cy="828" r="0.85" />
<circle cx="1705.4" cy="933.56" r="1.95" />
<circle cx="1697" cy="990" r="0.9" />
<circle cx="1690" cy="992" r="0.98" />
<circle cx="1635.94" cy="1005.19" r="1.95" />
<circle cx="1699.34" cy="1069.57" r="1.8" />
<circle cx="1760" cy="1039" r="0.73" />
<circle cx="1801" cy="974" r="0.8" />
<circle cx="1835.1" cy="973.12" r="1.71" />
<circle cx="1830.11" cy="938.28" r="1.95" />
<circle cx="1838.59" cy="914.7" r="1.95" />
<circle cx="1849" cy="1067.34" r="1.73" />
<circle cx="1843.98" cy="1126.45" r="1.93" />
<circle cx="1913.37" cy="1200.09" r="1.95" />
<circle cx="2020.75" cy="1211.34" r="1.8" />
<circle cx="1595.14" cy="1126.63" r="1.95" />
<circle cx="1404" cy="1133" r="1.12" />
<circle cx="1375.13" cy="1151.7" r="1.84" />
<circle cx="1279" cy="703" r="1.3" />
<circle cx="1255.69" cy="693.52" r="1.95" />
<circle cx="1239.85" cy="678.92" r="1.69" />
<circle cx="1273" cy="660" r="0.84" />
<circle cx="1270.95" cy="633.53" r="1.95" />
<circle cx="1308.71" cy="623.07" r="1.76" />
<circle cx="1343.26" cy="602.72" r="1.91" />
<circle cx="1352" cy="616" r="1.21" />
<circle cx="1354.69" cy="617.9" r="1.88" />
<circle cx="1372.02" cy="604.55" r="1.86" />
<circle cx="1364.51" cy="594.77" r="1.69" />
<circle cx="1355" cy="586" r="1.14" />
<circle cx="1328.16" cy="568.28" r="1.91" />
<circle cx="1320.38" cy="532.76" r="1.76" />
<circle cx="1405.41" cy="599.38" r="1.69" />
<circle cx="1430" cy="636" r="1.01" />
<circle cx="1421" cy="692" r="1.26" />
<circle cx="1579.32" cy="547.3" r="1.95" />
<circle cx="1630" cy="552" r="1.03" />
<circle cx="1633.84" cy="554.74" r="1.95" />
<circle cx="1616.07" cy="590.45" r="1.76" />
<circle cx="1697.91" cy="612.8" r="1.84" />
<circle cx="1710" cy="599" r="0.85" />
<circle cx="1732.45" cy="570.43" r="1.8" />
<circle cx="1751.18" cy="575.07" r="1.82" />
<circle cx="1758.98" cy="579.6" r="1.82" />
<circle cx="1788" cy="608" r="0.65" />
<circle cx="1797.64" cy="624" r="1.69" />
<circle cx="1795.07" cy="637.71" r="1.82" />
<circle cx="1816" cy="618" r="0.65" />
<circle cx="1832" cy="606" r="0.69" />
<circle cx="1862" cy="635" r="1.34" />
<circle cx="1872" cy="643" r="1.25" />
<circle cx="1876" cy="658" r="0.89" />
<circle cx="1890" cy="635" r="1.31" />
<circle cx="1889" cy="633" r="1.3" />
<circle cx="1870" cy="588" r="0.76" />
<circle cx="1868" cy="581" r="1.09" />
<circle cx="1834.28" cy="562.67" r="1.71" />
<circle cx="1724.93" cy="550.87" r="1.82" />
<circle cx="1718.51" cy="488.81" r="1.78" />
<circle cx="1784" cy="436" r="0.71" />
<circle cx="1711" cy="336" r="1.27" />
<circle cx="1704" cy="329" r="1.17" />
<circle cx="1721" cy="314" r="1.31" />
<circle cx="1727" cy="323" r="1.18" />
<circle cx="1654.39" cy="329.68" r="1.95" />
<circle cx="1651.98" cy="272.7" r="1.95" />
<circle cx="1709.15" cy="249.26" r="1.69" />
<circle cx="1584.25" cy="210.75" r="1.8" />
<circle cx="1554.04" cy="209.53" r="1.95" />
<circle cx="1515.52" cy="218.8" r="1.91" />
<circle cx="1514.82" cy="249.84" r="1.8" />
<circle cx="1484" cy="178" r="0.87" />
<circle cx="1515.33" cy="152.96" r="1.84" />
<circle cx="1394.6" cy="249.5" r="1.71" />
<circle cx="1393" cy="252" r="0.7" />
<circle cx="1381" cy="248" r="0.85" />
<circle cx="1337" cy="247" r="0.76" />
<circle cx="1366.47" cy="199.09" r="1.82" />
<circle cx="1316.71" cy="187.93" r="1.95" />
<circle cx="1269.9" cy="201.59" r="1.93" />
<circle cx="1266.74" cy="213.69" r="1.69" />
<circle cx="1269.91" cy="169.71" r="1.82" />
<circle cx="1250.81" cy="167.4" r="1.88" />
<circle cx="1205.44" cy="176.4" r="1.91" />
<circle cx="1177.54" cy="230.23" r="1.69" />
<circle cx="1177" cy="230" r="1.18" />
<circle cx="1150.09" cy="240.79" r="1.78" />
<circle cx="1157.25" cy="270.9" r="1.71" />
<circle cx="1174.65" cy="264.22" r="1.95" />
<circle cx="1197.15" cy="262.38" r="1.95" />
<circle cx="1200.22" cy="275.63" r="1.93" />
<circle cx="1226.85" cy="270.76" r="1.95" />
<circle cx="1240.32" cy="275.2" r="1.91" />
<circle cx="1256" cy="264" r="1.01" />
<circle cx="1279" cy="265.76" r="1.73" />
<circle cx="1273" cy="294" r="0.78" />
<circle cx="1288.5" cy="308.81" r="1.76" />
<circle cx="1284.15" cy="317.31" r="1.95" />
<circle cx="1268.46" cy="318.13" r="1.95" />
<circle cx="1272.42" cy="333.02" r="1.78" />
<circle cx="1302.13" cy="320.79" r="1.86" />
<circle cx="1307" cy="310.4" r="1.95" />
<circle cx="1242" cy="300.2" r="1.91" />
<circle cx="1224" cy="246" r="1.16" />
<circle cx="1147.29" cy="203.79" r="1.88" />
<circle cx="1084.07" cy="179.95" r="1.8" />
<circle cx="1092.95" cy="126.68" r="1.73" />
<circle cx="1077.3" cy="118.18" r="1.8" />
<circle cx="1122.32" cy="112.77" r="1.95" />
<circle cx="976.71" cy="137.27" r="1.93" />
<circle cx="917.14" cy="139.52" r="1.95" />
<circle cx="954" cy="232" r="1.22" />
<circle cx="982" cy="259" r="1.07" />
<circle cx="982.26" cy="261.72" r="1.69" />
<circle cx="1005.11" cy="256.55" r="1.86" />
<circle cx="1007" cy="265" r="0.73" />
<circle cx="1025.92" cy="270.59" r="1.95" />
<circle cx="1030.65" cy="257.24" r="1.84" />
<circle cx="1036.2" cy="247.75" r="1.95" />
<circle cx="1059" cy="251.59" r="1.73" />
<circle cx="1000.8" cy="246.25" r="1.95" />
<circle cx="1004" cy="227" r="0.65" />
<circle cx="961.86" cy="279.54" r="1.95" />
<circle cx="1011.38" cy="365.73" r="1.71" />
<circle cx="1145.62" cy="338.43" r="1.95" />
<circle cx="1159" cy="355" r="0.82" />
<circle cx="1188.35" cy="351.81" r="1.95" />
<circle cx="1141" cy="283" r="1.07" />
<circle cx="1176.2" cy="491.93" r="1.95" />
<circle cx="1143.42" cy="545.34" r="1.95" />
<circle cx="1155.7" cy="551.28" r="1.95" />
<circle cx="1131.07" cy="569.09" r="1.84" />
<circle cx="1120.68" cy="562.87" r="1.95" />
<circle cx="1111" cy="562" r="1.13" />
<circle cx="1102" cy="564" r="1.34" />
<circle cx="1105.12" cy="554.65" r="1.78" />
<circle cx="1090.64" cy="556.44" r="1.69" />
<circle cx="1086.8" cy="549.07" r="1.95" />
<circle cx="1080.77" cy="564.7" r="1.95" />
<circle cx="1066.67" cy="562.1" r="1.95" />
<circle cx="1063" cy="553" r="0.95" />
<circle cx="1041.11" cy="545.94" r="1.86" />
<circle cx="1033" cy="562" r="0.93" />
<circle cx="1076.53" cy="611.6" r="1.71" />
<circle cx="1093.6" cy="643.81" r="1.78" />
<circle cx="1134" cy="636" r="0.6" />
<circle cx="1136.91" cy="688.73" r="1.82" />
<circle cx="1073" cy="720" r="0.82" />
<circle cx="952.24" cy="651.71" r="1.93" />
<circle cx="930.65" cy="636.75" r="1.71" />
<circle cx="912.64" cy="666.88" r="1.76" />
<circle cx="890.07" cy="698.02" r="1.76" />
<circle cx="960" cy="616" r="0.62" />
<circle cx="959.69" cy="614.1" r="1.76" />
<circle cx="887.77" cy="569.83" r="1.95" />
<circle cx="815" cy="548" r="0.65" />
<circle cx="759.27" cy="480.04" r="1.93" />
<circle cx="778.77" cy="432.73" r="1.71" />
<circle cx="810" cy="420" r="1.21" />
<circle cx="788" cy="396" r="0.95" />
<circle cx="869" cy="457" r="1.02" />
<circle cx="782.95" cy="265.51" r="1.73" />
<circle cx="647" cy="210" r="0.89" />
<circle cx="558" cy="421" r="1" />
<circle cx="1088.31" cy="497.62" r="1.82" />
<circle cx="1122.07" cy="548.38" r="1.95" />
<circle cx="1389.88" cy="342.79" r="1.78" />
<circle cx="1382.6" cy="328.09" r="1.78" />
<circle cx="1374.12" cy="318.3" r="1.71" />
<circle cx="1382.06" cy="312.73" r="1.95" />
<circle cx="1398.46" cy="302.77" r="1.69" />
<circle cx="1402.85" cy="315.98" r="1.95" />
<circle cx="1426.12" cy="363.34" r="1.91" />
<circle cx="1355" cy="106" r="0.69" />
<circle cx="2090.45" cy="584.09" r="1.8" />
<circle cx="2091.34" cy="622.83" r="1.95" />
<circle cx="144.27" cy="954.66" r="1.95" />
<circle cx="90.17" cy="778.93" r="1.84" />
<circle cx="70.17" cy="749.06" r="1.86" />
<circle cx="64.92" cy="735.2" r="1.71" />
<circle cx="77.3" cy="728.61" r="1.84" />
<circle cx="52.27" cy="713.5" r="1.8" />
</g>
<g id="eye-pupils" fill="black" stroke="none">
<circle cx="1710.17" cy="323.06" r="9" />
<circle cx="1204.77" cy="287.37" r="3.4" />
<circle cx="1257.67" cy="261.57" r="4.05" />
<circle cx="1874.6" cy="640.04" r="9" />
<circle cx="1281.45" cy="704.52" r="3.4" />
<circle cx="1270" cy="632.17" r="3.4" />
<circle cx="1702.77" cy="813.59" r="9" />
<circle cx="1778.67" cy="1051.56" r="4.96" />
</g>
</svg>