<svg xmlns="http://www.w3.org/2000/svg" version="1.1" viewBox="0 0 1892 1324" width="1892" height="1324">
<rect width="100%" height="100%" fill="white" />
<g id="outline" stroke="black" stroke-width="1.48" stroke-linecap="round" stroke-linejoin="round" fill="none">
<polyline points="42,337.5 42,448.5 48.25,535.69 60.75,599.06 79.5,638.62 104.5,654.38 128,664.81 150,669.94 170.5,669.75 189.5,664.25 208.25,651.44 226.75,631.31 245,603.88 263,569.12 301.62,544.69 360.88,530.56 440.75,526.75 541.25,533.25 618.75,534.81 673.25,531.44 704.75,523.12 713.25,509.88 724.81,501.88 739.44,499.12 757.12,501.62 777.88,509.38 810.75,516.31 855.75,522.44 912.88,527.75 982.12,532.25 1038.19,539.19 1081.06,548.56 1110.75,560.38 1127.25,574.62 1142.62,591.44 1156.88,610.81 1170,632.75 1182,657.25 1202.06,675.69 1230.19,688.06 1266.38,694.38 1310.62,694.62 1349.44,698.75 1382.81,706.75 1410.75,718.62 1433.25,734.38 1446.5,739.19 1450.5,733.06 1445.25,716 1430.75,688 1413.38,662.5 1393.12,639.5 1370,619 1344,601 1321,580.81 1301,558.44 1284,533.88 1270,507.12 1280.25,493.5 1314.75,493 1373.5,505.62 1456.5,531.38 1535.5,549.38 1610.5,559.62 1681.5,562.12 1748.5,556.88 1798.75,547.38 1832.25,533.62 1849,515.62 1849,493.38 1838.56,480.06 1817.69,475.69 1786.38,480.25 1744.62,493.75 1706.75,504.19 1672.75,511.56 1642.62,515.88 1616.38,517.12 1573.44,510.94 1513.81,497.31 1437.5,476.25 1344.5,447.75 1290.38,421.62 1275.12,397.88 1298.75,376.5 1361.25,357.5 1419.31,343.62 1472.94,334.88 1522.12,331.25 1566.88,332.75 1608.81,331.81 1647.94,328.44 1684.25,322.62 1717.75,314.38 1747.94,304.12 1774.81,291.88 1798.38,277.62 1818.62,261.38 1833.81,242.69 1843.94,221.56 1849,198 1849,172 1840.5,160.81 1823.5,164.44 1798,182.88 1764,216.12 1717.31,242.94 1657.94,263.31 1585.88,277.25 1501.12,284.75 1438.88,282.75 1399.12,271.25 1381.88,250.25 1387.12,219.75 1396.56,194.56 1410.19,174.69 1428,160.12 1450,150.88 1461.44,143.5 1462.31,138 1452.62,134.38 1432.38,132.62 1422.19,129.06 1422.06,123.69 1432,116.5 1452,107.5 1459.56,101.06 1454.69,97.19 1437.38,95.88 1407.62,97.12 1379.25,103 1352.25,113.5 1326.62,128.62 1302.38,148.38 1265.31,168 1215.44,187.5 1152.75,206.88 1077.25,226.12 1011.25,240.88 954.75,251.12 907.75,256.88 870.25,258.12 835.44,261.75 803.31,267.75 773.88,276.12 747.12,286.88 725.56,290.5 709.19,287 698,276.38 692,258.62 660.81,247.88 604.44,244.12 522.88,247.38 416.12,257.62 333.31,255.69 274.44,241.56 239.5,215.25 228.5,176.75 217.56,145.88 206.69,122.62 195.88,107 185.12,99 169.12,98.25 147.88,104.75 121.38,118.5 89.62,139.5 65.81,183 49.94,249 42,337.5" />
<polyline points="1237.12,627.25 1237.88,626.75 1238.5,626.44 1239,626.31 1239.38,626.38 1239.62,626.62 1240.31,626.81 1241.44,626.94 1243,627 1245,627 1247.12,627.25 1249.38,627.75 1251.75,628.5 1254.25,629.5 1256.62,630.31 1258.88,630.94 1261,631.38 1263,631.62 1264.69,631.94 1266.06,632.31 1267.12,632.75 1267.88,633.25 1268.88,633.69 1270.12,634.06 1271.62,634.38 1273.38,634.62 1275.12,635 1276.88,635.5 1278.62,636.12 1280.38,636.88 1282.5,637.56 1285,638.19 1287.88,638.75 1291.12,639.25 1294,639.81 1296.5,640.44 1298.62,641.12 1300.38,641.88 1302.19,642.5 1304.06,643 1306,643.38 1308,643.62 1309.69,643.94 1311.06,644.31 1312.12,644.75 1312.88,645.25 1313.69,645.62 1314.56,645.88 1315.5,646 1316.5,646 1317.56,646.12 1318.69,646.38 1319.88,646.75 1321.12,647.25 1322.44,647.62 1323.81,647.88 1325.25,648 1326.75,648 1328.44,648.25 1330.31,648.75 1332.38,649.5 1334.62,650.5 1336.75,651.31 1338.75,651.94 1340.62,652.38 1342.38,652.62 1344.5,653.19 1347,654.06 1349.88,655.25 1353.12,656.75 1356,658.25 1358.5,659.75 1360.62,661.25 1362.38,662.75 1363.81,663.88 1364.94,664.62 1365.75,665 1366.25,665 1366.88,665.31 1367.62,665.94 1368.5,666.88 1369.5,668.12 1370.12,669.19 1370.38,670.06 1370.25,670.75 1369.75,671.25 1369.31,671.56 1368.94,671.69 1368.62,671.62 1368.38,671.38 1367.62,671.19 1366.38,671.06 1364.62,671 1362.38,671 1360.62,670.94 1359.38,670.81 1358.62,670.62 1358.38,670.38 1357.44,670.19 1355.81,670.06 1353.5,670 1350.5,670 1348.19,669.94 1346.56,669.81 1345.62,669.62 1345.38,669.38 1344.81,669.19 1343.94,669.06 1342.75,669 1341.25,669 1339.75,668.88 1338.25,668.62 1336.75,668.25 1335.25,667.75 1332.62,667.31 1328.88,666.94 1324,666.62 1318,666.38 1312.56,665.88 1307.69,665.12 1303.38,664.12 1299.62,662.88 1294.25,661.94 1287.25,661.31 1278.62,661 1268.38,661 1260.5,661.06 1255,661.19 1251.88,661.38 1251.12,661.62 1250.31,661.62 1249.44,661.38 1248.5,660.88 1247.5,660.12 1246.5,659 1245.5,657.5 1244.5,655.62 1243.5,653.38 1242.31,651.19 1240.94,649.06 1239.38,647 1237.62,645 1236.19,643.25 1235.06,641.75 1234.25,640.5 1233.75,639.5 1233.56,638.12 1233.69,636.38 1234.12,634.25 1234.88,631.75 1235.62,629.75 1236.38,628.25 1237.12,627.25" />
<polyline points="1840.75,1008 1835.25,1002 1824.69,995.94 1809.06,989.81 1788.38,983.62 1762.62,977.38 1722.94,970.88 1669.31,964.12 1601.75,957.12 1520.25,949.88 1456.44,943.12 1410.31,936.88 1381.88,931.12 1371.12,925.88 1362.25,917.12 1355.25,904.88 1350.12,889.12 1346.88,869.88 1338.44,852.25 1324.81,836.25 1306,821.88 1282,809.12 1260.25,799 1240.75,791.5 1223.5,786.62 1208.5,784.38 1181.5,788.75 1142.5,799.75 1091.5,817.38 1028.5,841.62 969.38,861.25 914.12,876.25 862.75,886.62 815.25,892.38 777.75,895.31 750.25,895.44 732.75,892.75 725.25,887.25 694.62,885.88 640.88,888.62 564,895.5 464,906.5 387.94,913 335.81,915 307.62,912.5 303.38,905.5 293.5,903.19 278,905.56 256.88,912.62 230.12,924.38 200.81,934.19 168.94,942.06 134.5,948 97.5,952 69.75,966 51.25,990 42,1024 42,1068 46.81,1103.44 56.44,1130.31 70.88,1148.62 90.12,1158.38 109.12,1165.81 127.88,1170.94 146.38,1173.75 164.62,1174.25 182.88,1170.12 201.12,1161.38 219.38,1148 237.62,1130 276.88,1119.44 337.12,1116.31 418.38,1120.62 520.62,1132.38 599.25,1137.38 654.25,1135.62 685.62,1127.12 693.38,1111.88 705.06,1101.44 720.69,1095.81 740.25,1095 763.75,1099 805.31,1101.62 864.94,1102.88 942.62,1102.75 1038.38,1101.25 1116.06,1103.69 1175.69,1110.06 1217.25,1120.38 1240.75,1134.62 1258.75,1147.06 1271.25,1157.69 1278.25,1166.5 1279.75,1173.5 1279.06,1180.44 1276.19,1187.31 1271.12,1194.12 1263.88,1200.88 1261.06,1205.5 1262.69,1208 1268.75,1208.38 1279.25,1206.62 1288.62,1202.31 1296.88,1195.44 1304,1186 1310,1174 1320.31,1169.31 1334.94,1171.94 1353.88,1181.88 1377.12,1199.12 1395.56,1211.75 1409.19,1219.75 1418,1223.12 1422,1221.88 1423.69,1218.44 1423.06,1212.81 1420.12,1205 1414.88,1195 1415.88,1190.81 1423.12,1192.44 1436.62,1199.88 1456.38,1213.12 1468.81,1218.75 1473.94,1216.75 1471.75,1207.12 1462.25,1189.88 1470.31,1175.38 1495.94,1163.62 1539.12,1154.62 1599.88,1148.38 1649.06,1144.81 1686.69,1143.94 1712.75,1145.75 1727.25,1150.25 1744.38,1158.5 1764.12,1170.5 1786.5,1186.25 1811.5,1205.75 1830.25,1214.25 1842.75,1211.75 1849,1198.25 1849,1173.75 1843.88,1152.25 1833.62,1133.75 1818.25,1118.25 1797.75,1105.75 1765.06,1096.5 1720.19,1090.5 1663.12,1087.75 1593.88,1088.25 1537.69,1086.5 1494.56,1082.5 1464.5,1076.25 1447.5,1067.75 1439.38,1060.94 1440.12,1055.81 1449.75,1052.38 1468.25,1050.62 1483,1048.38 1494,1045.62 1501.25,1042.38 1504.75,1038.62 1505.31,1035.19 1502.94,1032.06 1497.62,1029.25 1489.38,1026.75 1493.75,1024.5 1510.75,1022.5 1540.38,1020.75 1582.62,1019.25 1621,1020 1655.5,1023 1686.12,1028.25 1712.88,1035.75 1738.94,1045.44 1764.31,1057.31 1789,1071.38 1813,1087.62 1831,1093.88 1843,1090.12 1849,1076.38 1849,1052.62 1847.62,1033.31 1844.88,1018.44 1840.75,1008" />
</g>
<g id="photo-detail" stroke="black" stroke-width="1.48" stroke-linecap="round" stroke-linejoin="round" fill="none">
<polyline points="236,213 241,235 243,235 237,213" />
<polyline points="263,277 257,282 257,285 259,286 258,298 261,298 261,283 267,278 264,277" />
<polyline points="331,280 330,282 334,286 338,286 338,289 343,290 346,288 345,286 338,286 339,282 341,281 344,283 343,280 336,283 335,280 332,280" />
<polyline points="408,316 403,321 404,326 400,330 392,330 397,333 400,331 405,332 406,321 410,318 409,316" />
<polyline points="501,303 496,307 499,308 502,306 504,308 505,318 507,316 507,312 505,310 506,306 502,303" />
<polyline points="492,418 495,426 501,427 501,429 495,432 495,438 485,440 492,437 491,418" />
<polyline points="628,408 624,410 627,410 634,415 645,411 635,411 629,408" />
<polyline points="652,423 651,431 653,430 656,436 662,435 661,431 657,433 657,430 653,429 653,423" />
<polyline points="706,434 703,435 705,437 704,439 707,441 707,445 704,448 706,450 704,451 705,453 708,452 707,447 710,439 710,435 707,434" />
<polyline points="766,461 769,466 766,469 775,470 777,466 784,465 780,461 777,461 773,465 767,461" />
<polyline points="819,515 817,518 853,519 848,518 847,516 821,517 820,515" />
<polyline points="869,422 865,425 865,428 858,433 855,431 853,433 846,432 846,435 858,435 861,432 864,432 867,435 866,431 868,427 871,426 870,422" />
<polyline points="874,410 871,413 866,412 866,414 870,415 869,419 871,419 875,414 875,421 877,421 878,412 875,410" />
<polyline points="884,397 883,406 887,405 889,408 888,410 891,412 893,411 894,405 890,407 888,406 888,403 885,400 890,398 885,397" />
<polyline points="869,364 872,369 876,367 878,368 878,372 874,375 873,381 870,379 873,375 869,372 872,369 869,367 866,368 868,364" />
<polyline points="822,397 823,400 817,406 819,408 822,405 823,410 814,409 816,405 815,401 821,397" />
<polyline points="923,464 922,473 925,476 930,476 932,473 931,467 928,467 928,470 930,471 924,474 924,464" />
<polyline points="949,445 950,448 948,450 945,449 946,453 940,459 943,460 947,453 951,455 953,449 950,445" />
<polyline points="987,460 984,463 986,467 988,466 990,468 989,471 993,472 994,470 998,473 998,468 993,469 990,464 986,462 988,460" />
<polyline points="1023,461 1023,464 1014,469 1014,471 1023,471 1027,468 1029,470 1026,472 1027,474 1032,469 1037,472 1034,468 1036,466 1041,472 1045,472 1049,476 1051,475 1051,467 1049,468 1044,466 1042,463 1040,465 1037,463 1033,467 1030,462 1025,463 1024,461" />
<polyline points="1028,519 1028,524 1031,523 1072,532 1087,537 1104,547 1109,548 1108,545 1101,540 1096,539 1093,534 1090,536 1085,532 1057,527 1056,525 1053,527 1049,523 1029,519" />
<polyline points="1000,516 1001,518 1022,517 1024,521 999,521 997,518 999,516" />
<polyline points="967,512 975,517 981,516 983,518 986,515 994,515 994,519 990,517 983,520 969,519 965,517 966,512" />
<polyline points="970,409 968,415 973,413 978,414 980,412 981,414 985,413 985,409 979,412 974,412 971,409" />
<polyline points="1009,403 1006,404 1004,408 1011,406 1026,409 1028,406 1029,410 1036,408 1039,410 1043,409 1045,412 1048,412 1051,407 1051,404 1049,406 1042,406 1037,403 1029,407 1026,403 1023,405 1010,403" />
<polyline points="1011,404 1008,407 1023,407 1031,410 1045,408 1046,412 1057,410 1057,407 1038,406 1037,404 1034,404 1033,407 1027,407 1026,405 1014,406 1012,404" />
<polyline points="1081,410 1081,417 1083,415 1096,414 1097,416 1103,416 1104,420 1108,422 1122,422 1125,427 1142,431 1155,438 1149,433 1151,427 1148,430 1139,430 1136,426 1136,420 1134,424 1128,424 1124,420 1114,418 1113,415 1106,416 1093,411 1091,414 1087,414 1086,411 1082,410" />
<polyline points="1108,448 1105,449 1105,452 1115,456 1118,455 1120,457 1119,459 1126,463 1128,462 1125,457 1122,458 1120,456 1121,453 1114,453 1113,451 1110,451 1109,448" />
<polyline points="1093,479 1097,484 1101,483 1101,486 1104,487 1104,489 1099,490 1098,488 1101,488 1098,485 1095,487 1091,485 1089,482 1092,479" />
<polyline points="1088,476 1090,478 1085,486 1083,481 1080,482 1075,480 1075,478 1079,477 1083,479 1084,482 1087,476" />
<polyline points="1144,429 1136,434 1141,432 1147,437 1155,439 1155,435 1146,432 1145,429" />
<polyline points="1171,450 1171,454 1182,460 1191,473 1194,474 1193,476 1197,477 1196,479 1199,480 1198,483 1202,483 1203,479 1186,458 1182,458 1181,455 1178,455 1174,450 1172,450" />
<polyline points="1204,410 1207,414 1216,414 1218,416 1217,420 1219,420 1219,415 1222,413 1210,412 1208,410 1206,412 1205,410" />
<polyline points="1242,412 1226,413 1226,415 1232,414 1234,416 1228,420 1233,420 1239,415 1241,417 1245,415 1249,417 1261,416 1278,419 1278,417 1258,415 1256,413 1246,414 1243,412" />
<polyline points="1252,463 1248,465 1290,468 1290,466 1283,464 1266,465 1253,463" />
<polyline points="1246,500 1245,517 1248,517 1249,527 1246,526 1246,518 1242,515 1242,506 1245,500" />
<polyline points="1221,510 1225,517 1224,519 1227,520 1232,532 1236,532 1246,541 1250,541 1254,544 1258,551 1265,554 1265,557 1254,552 1226,529 1226,525 1216,514 1220,510" />
<polyline points="1203,507 1206,511 1205,513 1208,515 1207,520 1209,524 1205,524 1206,519 1200,514 1200,509 1202,507" />
<polyline points="1171,553 1174,557 1174,564 1171,566 1171,569 1176,568 1176,574 1171,573 1168,569 1172,565 1171,561 1173,560 1171,557 1166,559 1167,555 1170,553" />
<polyline points="1172,561 1173,572 1177,581 1176,589 1178,590 1179,603 1177,610 1180,621 1182,613 1180,588 1182,586 1179,585 1176,569 1173,568 1173,561" />
<polyline points="1175,576 1173,577 1175,581 1172,584 1176,585 1174,589 1178,592 1175,601 1179,605 1182,599 1180,596 1180,589 1178,588 1179,583 1175,583 1179,580 1176,576" />
<polyline points="1178,607 1173,613 1179,613 1177,624 1181,622 1182,607 1179,607" />
<polyline points="1178,626 1179,640 1181,644 1180,653 1182,654 1186,668 1193,677 1192,679 1196,683 1199,683 1202,688 1207,691 1209,690 1211,693 1215,693 1221,698 1238,701 1240,703 1256,703 1257,699 1261,697 1258,702 1262,703 1270,700 1292,698 1300,690 1307,691 1301,693 1302,696 1311,695 1313,692 1320,691 1318,695 1322,696 1324,692 1326,692 1327,695 1336,694 1340,689 1344,695 1346,691 1349,690 1355,693 1357,689 1377,691 1380,689 1382,692 1386,691 1389,693 1393,699 1390,700 1381,694 1364,693 1340,697 1306,697 1264,704 1237,704 1217,699 1202,692 1189,682 1189,678 1181,671 1184,666 1182,665 1180,668 1178,667 1181,662 1177,660 1178,655 1176,654 1176,650 1178,649 1176,647 1177,626" />
<polyline points="1202,785 1201,787 1185,787 1175,790 1170,789 1166,793 1134,809 1088,836 1054,851 979,874 946,882 923,885 943,885 956,880 966,879 973,876 981,876 999,869 1005,869 1026,863 1030,864 1044,856 1058,854 1063,849 1070,846 1072,847 1078,842 1096,835 1116,822 1119,823 1127,818 1129,814 1134,816 1135,812 1139,812 1142,807 1146,811 1151,807 1150,804 1155,800 1163,800 1165,796 1169,796 1180,790 1198,789 1209,796 1206,790 1207,787 1203,785" />
<polyline points="1201,830 1204,834 1207,834 1207,837 1202,839 1201,837 1196,838 1196,834 1193,836 1195,833 1197,835 1200,830" />
<polyline points="1182,864 1190,866 1185,865 1169,871 1181,864" />
<polyline points="1142,882 1149,884 1125,887 1123,889 1112,888 1096,891 1090,889 1097,887 1099,889 1105,889 1114,886 1140,884 1141,882" />
<polyline points="1137,908 1138,910 1147,910 1149,908 1153,908 1154,910 1158,909 1162,911 1164,909 1165,911 1219,911 1220,913 1238,913 1261,918 1257,920 1259,923 1256,923 1252,919 1248,920 1240,917 1233,918 1226,915 1224,919 1221,915 1215,915 1213,919 1208,919 1213,916 1212,914 1205,916 1201,914 1198,916 1191,914 1188,922 1188,919 1185,917 1189,914 1179,915 1179,912 1171,915 1164,913 1163,917 1167,920 1165,922 1163,921 1164,918 1161,917 1160,913 1137,915 1134,912 1133,916 1129,916 1128,914 1125,917 1127,911 1135,910 1136,908" />
<polyline points="1141,953 1140,955 1120,956 1097,960 1101,964 1108,960 1112,960 1115,962 1115,965 1117,963 1117,959 1122,960 1127,957 1135,959 1144,956 1142,953" />
<polyline points="1170,950 1165,953 1162,951 1155,951 1151,953 1151,955 1166,954 1176,960 1177,957 1171,950" />
<polyline points="1203,950 1200,955 1189,955 1188,957 1183,956 1184,951 1177,954 1172,952 1167,954 1182,959 1184,963 1197,962 1199,960 1207,960 1203,956 1204,950" />
<polyline points="1220,952 1219,955 1213,954 1213,959 1226,959 1228,961 1230,955 1239,954 1241,958 1244,956 1244,954 1238,953 1223,955 1221,952" />
<polyline points="1235,953 1228,954 1225,961 1229,962 1229,957 1238,954 1240,958 1244,957 1244,953 1241,955 1236,953" />
<polyline points="1243,973 1242,975 1234,976 1251,979 1259,985 1262,984 1271,987 1270,984 1264,981 1262,982 1261,979 1258,980 1255,976 1248,977 1247,974 1244,973" />
<polyline points="1226,982 1227,984 1234,982 1236,984 1243,984 1243,990 1253,991 1254,998 1252,994 1244,994 1242,998 1241,994 1235,993 1234,986 1224,990 1226,998 1222,989 1218,989 1216,993 1215,987 1208,988 1212,984 1215,987 1222,987 1225,982" />
<polyline points="1282,990 1285,993 1284,998 1287,998 1289,993 1294,998 1299,999 1299,1003 1306,1002 1294,992 1291,993 1289,990 1283,990" />
<polyline points="1309,1005 1309,1007 1322,1011 1323,1015 1328,1016 1328,1019 1331,1022 1335,1020 1322,1007 1310,1005" />
<polyline points="1352,1028 1349,1030 1346,1029 1343,1034 1344,1038 1347,1031 1351,1033 1362,1043 1361,1047 1366,1045 1369,1050 1373,1051 1377,1061 1381,1061 1377,1055 1377,1047 1370,1047 1353,1028" />
<polyline points="1366,1016 1366,1022 1372,1025 1381,1026 1381,1022 1368,1022 1367,1016" />
<polyline points="1369,1062 1368,1069 1376,1076 1371,1068 1374,1067 1376,1063 1373,1065 1370,1062" />
<polyline points="1389,1082 1387,1086 1393,1087 1405,1094 1411,1091 1410,1088 1407,1090 1404,1088 1397,1089 1395,1084 1390,1082" />
<polyline points="1430,1082 1427,1084 1429,1088 1433,1090 1439,1089 1441,1092 1443,1091 1443,1088 1441,1089 1440,1086 1437,1084 1433,1085 1431,1082" />
<polyline points="1425,1113 1431,1118 1438,1120 1445,1116 1446,1121 1435,1122 1424,1116 1424,1113" />
<polyline points="1465,1096 1460,1098 1479,1107 1479,1112 1486,1114 1490,1113 1483,1111 1482,1109 1484,1105 1477,1102 1473,1103 1472,1100 1466,1096" />
<polyline points="1442,1039 1448,1043 1455,1043 1458,1046 1466,1046 1466,1048 1436,1042 1441,1039" />
<polyline points="1383,1138 1386,1138 1394,1145 1405,1151 1409,1159 1414,1159 1414,1162 1410,1164 1417,1174 1422,1175 1423,1178 1421,1182 1428,1190 1430,1189 1472,1226 1475,1225 1475,1222 1477,1221 1477,1226 1482,1229 1483,1232 1477,1231 1466,1225 1427,1193 1416,1180 1416,1176 1413,1175 1401,1158 1381,1140 1382,1138" />
<polyline points="1365,1165 1367,1170 1378,1182 1377,1184 1367,1173 1368,1171 1362,1167 1364,1165" />
<polyline points="1298,1128 1301,1133 1307,1137 1309,1136 1317,1146 1320,1146 1327,1155 1331,1155 1331,1158 1345,1171 1343,1172 1307,1140 1295,1132 1297,1128" />
<polyline points="1240,1057 1239,1059 1241,1062 1246,1060 1247,1063 1250,1062 1252,1065 1254,1064 1260,1068 1264,1068 1267,1072 1272,1072 1276,1078 1281,1078 1279,1082 1284,1087 1294,1087 1301,1097 1327,1103 1328,1102 1315,1092 1311,1092 1309,1094 1311,1091 1320,1091 1333,1101 1339,1109 1341,1107 1342,1111 1344,1110 1361,1123 1363,1122 1366,1126 1369,1125 1372,1131 1376,1131 1378,1134 1382,1133 1382,1135 1379,1137 1332,1109 1296,1097 1294,1090 1278,1087 1279,1083 1276,1080 1265,1081 1265,1079 1269,1079 1271,1077 1267,1073 1263,1073 1261,1070 1256,1070 1244,1064 1242,1065 1243,1070 1239,1069 1239,1057" />
<polyline points="1212,1047 1214,1050 1216,1049 1217,1052 1220,1051 1224,1055 1228,1054 1229,1057 1234,1057 1234,1059 1222,1061 1214,1052 1206,1050 1211,1047" />
<polyline points="1120,1026 1122,1028 1121,1030 1102,1036 1104,1032 1109,1030 1109,1028 1118,1028 1119,1026" />
<polyline points="1076,962 1083,962 1083,966 1085,968 1078,969 1078,964 1073,965 1076,967 1076,970 1008,967 1075,962" />
<polyline points="1082,911 1072,913 1056,912 1055,916 1051,919 1059,920 1058,915 1063,918 1070,915 1082,917 1093,915 1095,918 1096,916 1101,917 1104,914 1111,914 1112,917 1124,914 1122,911 1119,911 1118,913 1117,911 1105,911 1104,913 1101,913 1100,911 1083,911" />
<polyline points="1059,883 1064,885 1066,890 1060,886 1058,890 1054,887 1052,891 1043,889 1042,892 1031,890 1026,891 1025,889 1022,891 1018,889 1006,889 1004,893 1006,896 1002,895 999,891 996,891 995,893 991,892 990,894 987,893 990,893 993,889 988,885 993,889 1000,887 1015,887 1017,885 1019,887 1057,885 1058,883" />
<polyline points="1057,861 1058,863 1062,863 1057,864 1053,869 1050,869 1040,876 1041,873 1044,872 1043,869 1045,867 1048,868 1050,865 1052,866 1056,861" />
<polyline points="1013,908 1014,910 1020,909 1025,911 1030,909 1033,911 1041,910 1043,912 1045,910 1047,913 1053,913 1049,915 1049,917 1043,917 1042,914 1037,920 1031,915 1012,916 1007,913 1002,916 999,914 987,915 986,913 980,913 980,915 983,916 976,914 976,919 976,916 970,912 962,915 969,909 990,911 993,909 995,911 997,909 1010,910 1012,908" />
<polyline points="1020,982 1020,990 1015,991 1013,989 1011,990 1011,994 1000,996 1000,998 1012,996 1013,999 1019,999 1019,1002 1022,1002 1024,1000 1022,995 1014,995 1015,993 1019,993 1021,989 1026,988 1026,985 1021,982" />
<polyline points="998,982 1003,986 1008,986 1009,989 1002,993 1002,991 1005,991 1006,989 1003,987 998,989 999,987 996,985 997,982" />
<polyline points="993,981 1005,986 1009,990 1020,990 1023,1000 1021,1001 1013,996 1006,997 1004,994 995,995 994,991 986,992 975,986 975,984 991,983 992,981" />
<polyline points="971,979 978,984 975,989 976,990 982,987 988,991 973,990 975,987 973,985 969,986 966,983 970,979" />
<polyline points="1001,1033 1000,1035 1002,1036 998,1040 998,1045 1003,1044 1011,1046 1009,1042 1001,1042 1001,1037 1004,1036 1002,1033" />
<polyline points="958,1087 999,1091 1009,1088 1011,1091 1026,1093 1035,1092 1044,1095 1045,1092 1048,1091 1056,1096 954,1089 957,1087" />
<polyline points="854,1096 856,1097 824,1103 829,1099 834,1100 853,1096" />
<polyline points="836,1003 804,1007 800,1003 798,1005 799,1017 803,1021 816,1014 824,1014 832,1018 837,1018 841,1014 842,1007 839,1001 837,1002" />
<polyline points="838,986 838,999 834,1002 822,1001 811,1005 804,1005 801,997 799,997 796,1002 795,1017 797,1021 804,1024 815,1017 824,1017 833,1023 840,1021 845,1012 845,1005 839,991 839,986" />
<polyline points="817,986 820,989 820,995 824,993 834,993 834,996 822,996 806,1001 806,995 810,997 812,995 815,996 818,993 818,990 814,989 816,986" />
<polyline points="771,901 773,902 765,907 750,908 747,913 743,909 737,909 735,914 731,914 731,912 737,909 737,907 757,905 770,901" />
<polyline points="822,889 802,891 786,897 790,898 796,894 810,893 813,891 859,890 823,889" />
<polyline points="709,917 708,933 705,936 705,947 703,947 701,938 708,928 706,920 708,917" />
<polyline points="610,963 613,965 612,975 609,976 609,980 606,980 605,978 608,977 607,971 598,972 595,969 609,970 609,967 603,966 609,963" />
<polyline points="559,964 563,964 563,967 553,967 554,973 551,974 551,980 555,984 551,985 548,970 551,969 551,965 558,964" />
<polyline points="528,989 531,990 532,997 539,997 538,999 530,1000 530,1007 523,1005 530,1001 530,994 523,991 527,989" />
<polyline points="524,918 525,920 507,922 498,925 494,924 504,920 517,920 523,918" />
<polyline points="560,910 558,912 551,911 542,913 541,918 550,914 556,915 557,913 567,913 568,911 571,914 577,913 577,910 572,912 571,910 561,910" />
<polyline points="448,922 451,925 479,924 484,922 492,923 492,925 453,928 439,927 435,924 410,925 410,923 447,922" />
<polyline points="403,988 406,993 409,994 415,989 417,994 413,995 410,993 409,995 406,995 405,992 401,994 399,992 402,988" />
<polyline points="393,1012 394,1016 397,1017 398,1023 406,1023 406,1025 398,1026 399,1031 386,1030 386,1028 392,1029 397,1027 397,1019 390,1015 392,1012" />
<polyline points="360,923 378,924 376,928 374,928 375,924 369,924 370,928 367,929 366,925 359,925 359,923" />
<polyline points="346,924 356,925 353,928 351,925 345,925 344,927 347,931 338,931 336,935 331,932 332,929 339,929 341,927 337,925 344,926 345,924" />
<polyline points="324,926 332,927 323,928 321,934 316,934 316,930 311,930 323,926" />
<polyline points="249,946 251,946 251,948 245,952 239,961 239,965 229,978 228,989 225,990 226,980 230,972 237,963 243,949 248,946" />
<polyline points="222,939 224,939 223,941 185,951 144,955 156,952 186,949 221,939" />
<polyline points="221,1036 223,1038 220,1055 223,1055 224,1053 222,1044 225,1041 225,1037 222,1036" />
<polyline points="211,1092 213,1092 213,1094 199,1115 195,1126 188,1134 195,1117 204,1105 210,1092" />
<polyline points="259,1099 257,1100 257,1105 238,1139 241,1137 262,1101 260,1099" />
<polyline points="267,1097 266,1100 340,1109 337,1107 330,1107 328,1105 312,1105 309,1102 304,1104 297,1101 280,1101 277,1098 272,1100 268,1097" />
<polyline points="354,1105 353,1109 343,1110 367,1112 365,1107 362,1110 358,1110 355,1108 355,1105" />
<polyline points="400,1110 396,1114 387,1112 374,1113 413,1117 412,1113 407,1115 401,1114 399,1112 401,1110" />
<polyline points="423,1115 422,1117 416,1118 444,1121 442,1119 428,1118 424,1115" />
<polyline points="449,1117 447,1122 490,1127 490,1125 473,1124 470,1121 466,1123 460,1121 454,1122 450,1117" />
<polyline points="493,1125 492,1127 530,1131 588,1133 595,1135 615,1135 645,1139 645,1137 638,1135 631,1136 616,1133 583,1132 579,1129 576,1129 574,1132 566,1132 562,1129 557,1131 552,1129 551,1131 548,1131 546,1129 537,1130 534,1128 525,1129 518,1126 510,1127 494,1125" />
<polyline points="687,1127 687,1131 684,1134 681,1134 681,1138 676,1141 677,1145 675,1147 674,1143 672,1143 669,1149 675,1149 682,1143 688,1132 688,1127" />
<polyline points="711,1085 711,1087 737,1089 759,1097 769,1098 767,1091 762,1095 759,1095 740,1087 712,1085" />
<polyline points="1069,1091 1065,1096 1059,1095 1059,1097 1119,1102 1170,1098 1191,1099 1190,1096 1186,1096 1185,1094 1182,1095 1180,1092 1177,1093 1176,1096 1169,1096 1167,1093 1163,1097 1162,1092 1160,1092 1157,1097 1154,1094 1151,1098 1146,1097 1145,1099 1140,1098 1136,1100 1132,1098 1129,1100 1126,1098 1124,1100 1120,1100 1118,1097 1115,1097 1113,1100 1098,1097 1089,1098 1079,1094 1074,1097 1071,1095 1070,1091" />
<polyline points="1284,957 1283,961 1271,963 1281,963 1287,967 1297,964 1305,966 1305,959 1287,959 1285,957" />
<polyline points="1265,919 1278,919 1288,923 1295,923 1296,920 1298,920 1300,924 1305,923 1314,929 1318,928 1321,933 1324,930 1328,930 1331,934 1337,932 1339,935 1343,933 1344,936 1347,935 1345,932 1349,929 1351,931 1356,931 1358,927 1360,927 1363,934 1358,932 1354,935 1353,933 1348,932 1346,934 1353,938 1355,942 1359,940 1360,943 1362,942 1365,945 1367,944 1370,949 1372,948 1383,958 1390,969 1390,974 1396,978 1396,981 1417,1006 1418,1004 1411,996 1411,992 1406,986 1407,979 1397,966 1398,962 1396,960 1392,960 1392,953 1388,950 1390,949 1397,957 1399,956 1401,966 1409,974 1410,979 1408,984 1413,989 1416,998 1421,1001 1427,1011 1432,1014 1434,1013 1438,1017 1435,1019 1437,1022 1443,1019 1449,1023 1450,1027 1458,1026 1460,1032 1464,1029 1466,1032 1468,1031 1474,1037 1476,1036 1478,1038 1486,1036 1487,1038 1494,1038 1498,1035 1502,1036 1503,1034 1508,1036 1490,1041 1482,1041 1461,1035 1457,1036 1449,1030 1433,1024 1425,1019 1420,1013 1409,1007 1400,997 1398,991 1395,990 1395,987 1385,978 1387,974 1382,971 1382,967 1377,964 1379,961 1371,958 1350,944 1347,940 1336,940 1319,935 1312,936 1303,930 1289,926 1271,924 1263,921 1264,919" />
<polyline points="1287,909 1283,912 1293,912 1295,917 1302,915 1301,913 1298,914 1294,909 1288,909" />
<polyline points="1317,896 1314,898 1296,900 1296,903 1319,900 1320,898 1318,896" />
<polyline points="1324,875 1323,877 1312,876 1311,878 1310,876 1306,876 1305,878 1275,879 1274,881 1262,880 1260,882 1219,883 1192,882 1190,880 1186,883 1182,881 1177,881 1177,883 1207,884 1208,885 1206,887 1208,885 1233,884 1241,885 1240,890 1242,886 1249,884 1255,888 1259,884 1261,887 1260,889 1264,890 1264,887 1261,886 1262,883 1266,886 1268,884 1275,886 1276,884 1281,885 1283,883 1302,884 1314,882 1324,887 1323,889 1326,891 1324,898 1329,900 1328,903 1334,909 1337,909 1330,897 1327,884 1323,879 1324,877 1329,878 1325,875" />
<polyline points="1374,937 1371,939 1372,941 1387,946 1388,942 1391,941 1389,937 1384,941 1381,938 1376,939 1375,937" />
<polyline points="1523,948 1498,957 1493,956 1488,961 1488,964 1493,961 1498,961 1499,959 1501,960 1504,957 1509,959 1512,954 1514,955 1523,951 1524,948" />
<polyline points="1610,984 1610,987 1614,989 1624,987 1628,990 1631,987 1629,985 1626,987 1624,984 1611,984" />
<polyline points="1657,995 1658,1000 1664,1000 1676,1004 1674,999 1670,998 1669,1000 1666,997 1662,998 1658,995" />
<polyline points="1683,1003 1680,1005 1689,1009 1690,1013 1695,1013 1699,1017 1702,1016 1704,1021 1712,1021 1717,1027 1720,1027 1720,1023 1718,1021 1713,1022 1711,1019 1712,1017 1702,1015 1698,1010 1690,1010 1689,1006 1684,1003" />
<polyline points="1690,1024 1739,1040 1783,1060 1830,1090 1844,1101 1844,1104 1849,1108 1849,1100 1841,1096 1837,1092 1836,1087 1823,1079 1820,1081 1815,1074 1810,1073 1798,1063 1795,1064 1776,1054 1775,1052 1778,1050 1776,1046 1771,1051 1767,1050 1764,1046 1754,1045 1749,1041 1722,1031 1705,1028 1697,1024 1691,1024" />
<polyline points="1650,1090 1652,1093 1659,1093 1660,1091 1674,1091 1675,1096 1665,1093 1661,1095 1649,1095 1646,1091 1649,1090" />
<polyline points="1661,1115 1657,1116 1656,1119 1652,1117 1651,1119 1646,1118 1644,1120 1655,1121 1657,1118 1663,1120 1664,1117 1662,1115" />
<polyline points="1606,1095 1621,1096 1624,1098 1626,1096 1627,1099 1626,1102 1624,1102 1621,1097 1614,1097 1613,1099 1616,1103 1611,1103 1614,1100 1606,1097 1605,1095" />
<polyline points="1726,1108 1725,1110 1728,1113 1746,1122 1746,1128 1752,1125 1734,1111 1730,1112 1727,1108" />
<polyline points="1753,1129 1750,1132 1759,1134 1772,1145 1776,1146 1778,1151 1783,1153 1791,1162 1795,1162 1802,1169 1801,1171 1810,1179 1809,1181 1815,1183 1823,1192 1820,1194 1810,1186 1809,1188 1827,1203 1832,1203 1833,1205 1836,1204 1836,1200 1831,1202 1823,1197 1823,1194 1829,1195 1819,1182 1817,1183 1810,1175 1810,1172 1802,1165 1801,1161 1799,1162 1763,1132 1759,1133 1757,1129 1754,1129" />
<polyline points="1729,1144 1749,1153 1749,1155 1728,1146 1728,1144" />
<polyline points="1820,1064 1818,1066 1826,1067 1830,1071 1848,1078 1846,1073 1843,1075 1840,1074 1838,1070 1835,1071 1827,1064 1821,1064" />
<polyline points="1731,504 1734,505 1727,506 1712,514 1699,515 1698,518 1693,516 1692,519 1676,523 1675,521 1674,523 1670,523 1667,521 1669,519 1684,518 1730,504" />
<polyline points="1721,301 1723,303 1722,305 1698,312 1699,310 1717,305 1720,301" />
<polyline points="1793,206 1771,229 1773,229 1794,206" />
<polyline points="1807,194 1796,212 1811,195 1808,194" />
<polyline points="1815,176 1799,199 1811,186 1818,184 1816,176" />
<polyline points="1838,152 1821,171 1824,168 1827,168 1833,160 1836,159 1839,152" />
<polyline points="1440,133 1443,135 1453,134 1453,137 1443,136 1423,140 1420,144 1413,140 1395,141 1381,146 1376,150 1366,166 1362,178 1363,183 1359,188 1361,190 1361,196 1359,200 1359,218 1351,232 1352,236 1340,252 1340,256 1338,258 1334,257 1334,252 1337,252 1340,246 1344,243 1356,215 1356,198 1359,194 1355,190 1359,185 1360,175 1364,170 1362,167 1364,159 1367,157 1367,153 1389,138 1409,139 1410,137 1416,137 1417,139 1421,139 1428,136 1438,135 1439,133" />
<polyline points="1382,155 1379,163 1376,165 1376,177 1372,179 1375,174 1374,166 1376,159 1381,155" />
<polyline points="1377,148 1372,155 1373,158 1378,158 1381,153 1384,153 1384,155 1381,156 1377,163 1375,158 1371,158 1366,166 1359,200 1358,220 1349,242 1342,248 1340,255 1336,257 1335,253 1340,252 1341,246 1348,239 1349,231 1356,221 1356,209 1358,208 1357,188 1361,181 1363,163 1371,151 1376,148" />
<polyline points="1376,185 1374,186 1374,196 1370,199 1373,204 1375,204 1375,198 1379,193 1377,185" />
<polyline points="1318,235 1315,238 1314,251 1318,268 1318,274 1316,274 1314,258 1309,252 1313,253 1314,244 1312,243 1312,240 1314,238 1312,236 1314,237 1317,235" />
<polyline points="1310,273 1313,277 1304,283 1300,283 1298,286 1295,286 1295,283 1289,283 1285,285 1280,284 1278,287 1270,285 1264,288 1251,287 1249,290 1230,289 1230,286 1232,285 1245,287 1247,285 1250,287 1251,285 1259,284 1262,287 1266,285 1267,282 1272,283 1276,281 1277,283 1280,283 1300,278 1300,281 1302,282 1304,280 1302,277 1308,277 1309,273" />
<polyline points="1318,277 1316,282 1318,283 1317,288 1319,290 1317,293 1320,296 1320,301 1322,301 1323,294 1321,280 1319,277" />
<polyline points="1321,306 1317,311 1317,313 1320,314 1317,326 1306,331 1297,332 1293,335 1283,332 1282,334 1277,334 1275,338 1292,338 1312,332 1322,321 1322,306" />
<polyline points="1309,330 1313,331 1292,338 1257,338 1256,343 1254,339 1219,336 1234,333 1244,336 1251,334 1258,337 1269,337 1271,335 1283,334 1295,335 1308,330" />
<polyline points="1308,378 1309,379 1293,385 1228,395 1183,397 1184,394 1186,395 1189,392 1195,394 1196,392 1202,391 1204,394 1206,391 1213,392 1218,388 1220,392 1228,389 1230,392 1233,392 1236,389 1241,390 1244,387 1266,387 1278,384 1282,381 1289,383 1291,380 1307,378" />
<polyline points="1298,466 1302,470 1336,481 1340,484 1349,486 1352,489 1357,489 1367,495 1383,500 1385,504 1314,475 1292,469 1292,467 1297,466" />
<polyline points="1377,450 1377,452 1380,452 1383,456 1388,458 1391,457 1392,460 1396,460 1397,462 1399,461 1406,467 1409,466 1416,469 1414,465 1408,464 1378,450" />
<polyline points="1418,469 1419,471 1431,476 1435,481 1439,479 1441,481 1439,484 1441,485 1447,483 1449,488 1454,485 1419,469" />
<polyline points="1493,546 1491,547 1492,549 1531,560 1531,558 1498,549 1494,546" />
<polyline points="1255,832 1258,835 1264,834 1263,836 1265,838 1270,838 1281,845 1285,844 1289,848 1295,848 1298,853 1290,852 1276,845 1272,845 1271,842 1264,840 1263,838 1255,837 1252,835 1254,832" />
<polyline points="1129,391 1134,395 1140,396 1141,399 1151,399 1152,402 1143,401 1137,396 1131,397 1129,396 1128,391" />
<polyline points="1119,333 1133,338 1153,335 1155,338 1131,339 1130,337 1118,335 1118,333" />
<polyline points="1114,332 1115,333 1112,334 1113,337 1091,339 1088,337 1096,335 1098,337 1103,333 1107,336 1113,332" />
<polyline points="1084,334 1085,336 1094,337 1101,334 1111,334 1113,337 1091,338 1083,336 1082,339 1071,340 1068,337 1083,334" />
<polyline points="1060,336 1062,337 1059,338 1059,343 1054,344 1045,342 1043,345 1029,346 1024,343 1017,343 1016,346 1019,348 1011,350 1004,349 1003,346 1005,342 1016,343 1017,340 1027,344 1047,342 1047,337 1051,341 1055,341 1059,336" />
<polyline points="1037,338 1044,342 1044,344 1041,345 1040,342 1038,342 1036,346 1032,345 1026,349 1030,344 1036,343 1036,338" />
<polyline points="1022,285 1023,287 1029,286 1032,294 1028,295 1030,291 1025,287 1023,290 1026,292 1022,293 1020,297 1017,296 1015,298 1024,291 1019,288 1021,285" />
<polyline points="981,293 984,294 982,297 987,301 987,305 983,302 972,304 981,298 980,293" />
<polyline points="956,281 963,290 959,290 958,287 955,287 955,292 951,290 955,285 953,282 955,281" />
<polyline points="931,321 933,324 938,325 937,328 934,329 937,334 935,336 931,333 932,329 935,328 930,325 930,321" />
<polyline points="843,262 845,263 809,271 814,267 817,268 825,266 826,264 830,265 831,263 835,264 842,262" />
<polyline points="691,278 697,285 695,288 698,293 696,296 689,296 687,294 688,291 690,294 693,294 694,288 696,287 691,285 688,286 690,278" />
<polyline points="1037,243 1033,247 1027,246 991,256 985,255 984,257 969,260 965,262 963,267 970,262 974,264 978,260 991,260 995,257 1009,254 1014,251 1022,252 1025,250 1038,250 1038,243" />
<polyline points="1089,276 1087,280 1092,280 1095,283 1090,285 1088,282 1083,282 1081,278 1077,281 1074,278 1072,280 1074,283 1069,285 1069,281 1066,281 1065,278 1062,277 1059,281 1064,283 1067,286 1062,287 1059,283 1054,281 1043,289 1042,283 1046,282 1045,278 1041,278 1041,283 1039,285 1034,285 1034,287 1037,286 1041,288 1040,290 1035,289 1038,292 1055,289 1052,286 1053,284 1058,288 1074,288 1078,281 1083,283 1079,287 1100,286 1103,289 1110,286 1119,287 1117,280 1106,279 1106,281 1113,281 1115,283 1106,286 1102,282 1102,278 1093,280 1090,276" />
<polyline points="1126,278 1124,281 1119,281 1121,285 1126,287 1136,286 1151,289 1151,286 1154,287 1157,285 1158,287 1156,290 1160,287 1168,288 1165,281 1156,281 1155,283 1143,281 1136,284 1136,281 1132,280 1133,284 1129,285 1127,278" />
<polyline points="1166,275 1168,281 1171,283 1170,287 1198,287 1208,289 1207,287 1210,285 1211,288 1220,289 1228,285 1228,282 1225,285 1221,285 1220,283 1215,285 1206,284 1204,281 1188,285 1186,284 1187,281 1183,284 1177,284 1175,282 1171,283 1169,280 1170,276 1167,275" />
<polyline points="1182,329 1180,335 1171,334 1171,336 1168,337 1167,334 1165,335 1163,333 1160,334 1160,338 1171,339 1172,336 1183,339 1208,338 1210,336 1263,338 1262,335 1253,336 1251,332 1247,335 1237,335 1236,333 1231,333 1229,335 1226,333 1210,333 1208,336 1190,334 1183,337 1183,329" />
<polyline points="1157,333 1155,336 1156,339 1154,340 1135,339 1132,341 1133,344 1129,343 1131,337 1141,338 1144,335 1148,335 1150,338 1152,335 1155,336 1156,333" />
<polyline points="84,385 88,387 92,385 92,388 86,389 85,394 82,394 86,389 85,386 80,387 83,385" />
<polyline points="47,606 49,609 57,611 56,613 60,620 66,625 69,625 72,630 71,633 46,610 46,606" />
<polyline points="117,956 79,959 48,964 46,966 50,967 52,965 56,966 76,961 113,959 117,957 132,958 132,956 118,956" />
</g>
<g id="stipple" fill="black" stroke="none">
<circle cx="118.8" cy="284.4" r="0.91" />
<circle cx="125.2" cy="298" r="1.28" />
<circle cx="139.5" cy="287.5" r="1" />
<circle cx="106.5" cy="296" r="1" />
<circle cx="107.8" cy="302.07" r="1.57" />
<circle cx="71.33" cy="316.33" r="0.7" />
<circle cx="43" cy="344.5" r="1" />
<circle cx="53.2" cy="358.6" r="0.91" />
<circle cx="89.08" cy="413.08" r="1.41" />
<circle cx="81.4" cy="446.8" r="0.91" />
<circle cx="78.5" cy="472.5" r="0.81" />
<circle cx="75.2" cy="513.4" r="0.91" />
<circle cx="132" cy="427.25" r="0.81" />
<circle cx="176.44" cy="458.89" r="1.22" />
<circle cx="206" cy="391" r="1.46" />
<circle cx="209.78" cy="370.56" r="1.22" />
<circle cx="208" cy="360.45" r="1.35" />
<circle cx="230.36" cy="370.57" r="1.52" />
<circle cx="255.75" cy="385.5" r="1.41" />
<circle cx="253.88" cy="397.12" r="1.15" />
<circle cx="246.67" cy="400.11" r="1.22" />
<circle cx="261.22" cy="419.11" r="1.22" />
<circle cx="267.44" cy="424.11" r="1.22" />
<circle cx="282.62" cy="419.92" r="1.46" />
<circle cx="286.93" cy="423.6" r="1.57" />
<circle cx="293.25" cy="415.25" r="1.15" />
<circle cx="302.76" cy="412.29" r="1.67" />
<circle cx="300" cy="403.29" r="1.07" />
<circle cx="292.8" cy="405" r="1.28" />
<circle cx="290.36" cy="394.09" r="1.35" />
<circle cx="302.77" cy="393.5" r="1.85" />
<circle cx="313" cy="399.29" r="1.07" />
<circle cx="322.25" cy="403.62" r="1.15" />
<circle cx="326.5" cy="398.67" r="1" />
<circle cx="333" cy="410.29" r="1.07" />
<circle cx="337.12" cy="417.29" r="1.67" />
<circle cx="348.12" cy="417.38" r="1.15" />
<circle cx="347.24" cy="425.06" r="1.67" />
<circle cx="357.5" cy="428.5" r="0.81" />
<circle cx="367.41" cy="433.55" r="1.85" />
<circle cx="370.12" cy="426.12" r="1.15" />
<circle cx="370" cy="418.71" r="1.07" />
<circle cx="380" cy="424.5" r="1.28" />
<circle cx="395.12" cy="419.88" r="1.15" />
<circle cx="406.93" cy="425.4" r="1.57" />
<circle cx="408.88" cy="432.12" r="1.15" />
<circle cx="404" cy="438.29" r="1.07" />
<circle cx="399.58" cy="446.32" r="1.77" />
<circle cx="393.81" cy="452.5" r="1.62" />
<circle cx="391" cy="445.5" r="1" />
<circle cx="382.44" cy="443.67" r="1.22" />
<circle cx="378.36" cy="451.64" r="1.52" />
<circle cx="366.31" cy="452.38" r="1.62" />
<circle cx="367.5" cy="459.2" r="1.28" />
<circle cx="364.67" cy="468.9" r="1.85" />
<circle cx="358.44" cy="476.11" r="1.22" />
<circle cx="356.15" cy="482.63" r="1.85" />
<circle cx="344.64" cy="480.09" r="1.35" />
<circle cx="336.32" cy="471.11" r="1.85" />
<circle cx="317.05" cy="479.6" r="1.82" />
<circle cx="311.78" cy="503.56" r="1.22" />
<circle cx="339.6" cy="505.4" r="1.28" />
<circle cx="348" cy="503.83" r="1" />
<circle cx="363.5" cy="500" r="1" />
<circle cx="363.1" cy="512.6" r="1.28" />
<circle cx="385.8" cy="506.6" r="0.91" />
<circle cx="393.71" cy="505.43" r="1.07" />
<circle cx="395.35" cy="490.3" r="1.82" />
<circle cx="396.75" cy="484" r="1.15" />
<circle cx="386" cy="479.34" r="1.85" />
<circle cx="381.19" cy="470.38" r="1.62" />
<circle cx="391.45" cy="462.1" r="1.82" />
<circle cx="401.94" cy="458.11" r="1.72" />
<circle cx="402.5" cy="470" r="1.28" />
<circle cx="411.85" cy="467.4" r="1.82" />
<circle cx="421" cy="468" r="1.22" />
<circle cx="418.33" cy="475.89" r="1.22" />
<circle cx="410.62" cy="482.5" r="1.85" />
<circle cx="406.88" cy="491.12" r="1.15" />
<circle cx="418.64" cy="491.45" r="1.35" />
<circle cx="428.6" cy="492.4" r="1.57" />
<circle cx="430.56" cy="501.67" r="1.22" />
<circle cx="431.5" cy="512.5" r="1" />
<circle cx="416.67" cy="506.44" r="1.22" />
<circle cx="410.04" cy="510.17" r="1.85" />
<circle cx="381.67" cy="489.11" r="1.22" />
<circle cx="371.07" cy="482.4" r="1.57" />
<circle cx="354.75" cy="450.67" r="1.41" />
<circle cx="364.36" cy="442.09" r="1.35" />
<circle cx="342.33" cy="443.44" r="1.22" />
<circle cx="330.21" cy="449.43" r="1.52" />
<circle cx="313.33" cy="439.89" r="1.22" />
<circle cx="313.15" cy="430.56" r="1.85" />
<circle cx="298.92" cy="427.08" r="1.41" />
<circle cx="294.67" cy="442.47" r="1.57" />
<circle cx="287.5" cy="445.5" r="0.81" />
<circle cx="280.8" cy="444.6" r="0.91" />
<circle cx="284.84" cy="438.4" r="1.85" />
<circle cx="291.67" cy="461.11" r="1.22" />
<circle cx="312.08" cy="414.67" r="1.41" />
<circle cx="322.68" cy="418.21" r="1.77" />
<circle cx="335.5" cy="387.5" r="0.81" />
<circle cx="345.42" cy="379.38" r="1.85" />
<circle cx="348.11" cy="375.11" r="1.22" />
<circle cx="349.5" cy="388" r="1.15" />
<circle cx="358.67" cy="385.67" r="1.22" />
<circle cx="366.8" cy="391" r="1.28" />
<circle cx="365.18" cy="399.18" r="1.35" />
<circle cx="379.24" cy="397.95" r="1.85" />
<circle cx="377" cy="389.5" r="1" />
<circle cx="371.48" cy="381.74" r="1.85" />
<circle cx="386.6" cy="387.93" r="1.57" />
<circle cx="393" cy="400.5" r="1.62" />
<circle cx="400" cy="395.5" r="1" />
<circle cx="402.23" cy="386.54" r="1.46" />
<circle cx="411.5" cy="379.17" r="1.85" />
<circle cx="402.37" cy="371.72" r="1.85" />
<circle cx="403.68" cy="360.26" r="1.85" />
<circle cx="396.71" cy="338.29" r="1.07" />
<circle cx="381.39" cy="350.78" r="1.72" />
<circle cx="379.5" cy="328" r="1.28" />
<circle cx="374.58" cy="321.92" r="1.41" />
<circle cx="367.55" cy="310.55" r="1.82" />
<circle cx="360.09" cy="302.18" r="1.35" />
<circle cx="367.46" cy="293.23" r="1.46" />
<circle cx="373.69" cy="299.31" r="1.46" />
<circle cx="383.22" cy="306.56" r="1.22" />
<circle cx="392.58" cy="313.32" r="1.77" />
<circle cx="399.88" cy="308.12" r="1.15" />
<circle cx="392.62" cy="299.38" r="1.62" />
<circle cx="404.29" cy="296" r="1.07" />
<circle cx="403" cy="288.5" r="1.28" />
<circle cx="397.28" cy="282.16" r="1.85" />
<circle cx="404" cy="273.5" r="1" />
<circle cx="393.06" cy="271.88" r="1.67" />
<circle cx="385.71" cy="284.57" r="1.07" />
<circle cx="382.65" cy="291.06" r="1.67" />
<circle cx="375.4" cy="285.2" r="1.28" />
<circle cx="362.5" cy="284.5" r="0.81" />
<circle cx="353.56" cy="287.11" r="1.22" />
<circle cx="351.59" cy="277.59" r="1.67" />
<circle cx="339.88" cy="285.94" r="1.62" />
<circle cx="323.17" cy="294.08" r="1.41" />
<circle cx="325.5" cy="302.5" r="0.81" />
<circle cx="315.27" cy="303.09" r="1.35" />
<circle cx="303.58" cy="298.47" r="1.77" />
<circle cx="306.5" cy="291.5" r="0.81" />
<circle cx="300.5" cy="288.17" r="1.41" />
<circle cx="283.67" cy="288.22" r="1.72" />
<circle cx="257.71" cy="294.14" r="1.07" />
<circle cx="256.8" cy="301.1" r="1.28" />
<circle cx="251.67" cy="323.67" r="0.7" />
<circle cx="276.5" cy="318" r="0.57" />
<circle cx="281.79" cy="323.64" r="1.52" />
<circle cx="289.8" cy="317" r="1.28" />
<circle cx="291.5" cy="328" r="1" />
<circle cx="286.14" cy="335.14" r="1.85" />
<circle cx="289.91" cy="345.27" r="1.35" />
<circle cx="305" cy="340.5" r="0.57" />
<circle cx="301.5" cy="331" r="1.28" />
<circle cx="314.86" cy="345.29" r="1.07" />
<circle cx="320" cy="341" r="1.07" />
<circle cx="325.5" cy="332" r="1.41" />
<circle cx="336.5" cy="322.88" r="1.15" />
<circle cx="337.92" cy="314.08" r="1.41" />
<circle cx="346.5" cy="316" r="1" />
<circle cx="346.86" cy="323.93" r="1.52" />
<circle cx="355.07" cy="332.29" r="1.52" />
<circle cx="341.78" cy="335.22" r="1.22" />
<circle cx="334.88" cy="352.5" r="1.62" />
<circle cx="330.54" cy="369.85" r="1.85" />
<circle cx="312.05" cy="369.62" r="1.85" />
<circle cx="307.5" cy="377.8" r="1.28" />
<circle cx="312.81" cy="384" r="1.62" />
<circle cx="286" cy="377" r="1.22" />
<circle cx="287.8" cy="371.04" r="1.85" />
<circle cx="276.8" cy="364.28" r="1.85" />
<circle cx="273.12" cy="348.69" r="1.62" />
<circle cx="256.25" cy="353.83" r="1.41" />
<circle cx="267.94" cy="388.88" r="1.67" />
<circle cx="274.5" cy="398" r="1" />
<circle cx="279.62" cy="409.62" r="1.46" />
<circle cx="319.25" cy="318.25" r="1.15" />
<circle cx="375.81" cy="270" r="1.62" />
<circle cx="424.62" cy="300.15" r="1.46" />
<circle cx="436.36" cy="296.09" r="1.35" />
<circle cx="446.19" cy="299" r="1.62" />
<circle cx="444.2" cy="306" r="1.28" />
<circle cx="452.41" cy="305.35" r="1.67" />
<circle cx="454.5" cy="299.5" r="0.81" />
<circle cx="464" cy="300.5" r="1" />
<circle cx="472.05" cy="303.43" r="1.85" />
<circle cx="479" cy="296.5" r="1.72" />
<circle cx="478.09" cy="288.36" r="1.35" />
<circle cx="473" cy="284.5" r="1" />
<circle cx="468.07" cy="280.71" r="1.52" />
<circle cx="463.19" cy="291.52" r="1.85" />
<circle cx="446.6" cy="283.2" r="0.91" />
<circle cx="456.27" cy="273.09" r="1.35" />
<circle cx="469.32" cy="268.08" r="1.85" />
<circle cx="484.22" cy="279.89" r="1.72" />
<circle cx="503.8" cy="272.4" r="0.91" />
<circle cx="509.16" cy="280.44" r="1.85" />
<circle cx="501" cy="303.17" r="1" />
<circle cx="489.21" cy="309.63" r="1.77" />
<circle cx="496" cy="320" r="1.85" />
<circle cx="495.6" cy="328.2" r="0.91" />
<circle cx="494.5" cy="333.5" r="1.15" />
<circle cx="483.27" cy="326.45" r="1.35" />
<circle cx="474.64" cy="324.91" r="1.35" />
<circle cx="470.33" cy="332" r="1.22" />
<circle cx="465.92" cy="317.67" r="1.85" />
<circle cx="454" cy="324" r="1.46" />
<circle cx="453.88" cy="332.59" r="1.67" />
<circle cx="458.64" cy="352.09" r="1.35" />
<circle cx="472.68" cy="356.95" r="1.85" />
<circle cx="475.09" cy="366.89" r="1.85" />
<circle cx="469.44" cy="374.19" r="1.85" />
<circle cx="460.09" cy="367.89" r="1.85" />
<circle cx="442.64" cy="380.82" r="1.35" />
<circle cx="447" cy="386.71" r="1.07" />
<circle cx="440.56" cy="398.33" r="1.22" />
<circle cx="440" cy="406" r="1.07" />
<circle cx="430.2" cy="408.5" r="1.28" />
<circle cx="431.7" cy="423.6" r="1.28" />
<circle cx="432.23" cy="434.85" r="1.46" />
<circle cx="431" cy="443.9" r="1.85" />
<circle cx="440" cy="446.12" r="1.62" />
<circle cx="445.93" cy="441.6" r="1.57" />
<circle cx="450.5" cy="435.5" r="0.81" />
<circle cx="458.64" cy="438.09" r="1.35" />
<circle cx="464.17" cy="431.33" r="1.72" />
<circle cx="467" cy="424.5" r="1" />
<circle cx="466.5" cy="416" r="1.15" />
<circle cx="458.5" cy="426" r="1" />
<circle cx="444.88" cy="426.59" r="1.67" />
<circle cx="420.44" cy="428.11" r="1.22" />
<circle cx="415" cy="443.17" r="1" />
<circle cx="411.3" cy="449.2" r="1.28" />
<circle cx="414" cy="457.91" r="1.85" />
<circle cx="428.94" cy="473.81" r="1.85" />
<circle cx="437.92" cy="481.08" r="1.41" />
<circle cx="443.46" cy="476.15" r="1.46" />
<circle cx="439.29" cy="468" r="1.07" />
<circle cx="446.52" cy="456.76" r="1.85" />
<circle cx="462" cy="454.62" r="1.15" />
<circle cx="462.6" cy="460.8" r="1.57" />
<circle cx="473.62" cy="464.75" r="1.85" />
<circle cx="477.5" cy="456.22" r="1.72" />
<circle cx="487.47" cy="452.26" r="1.77" />
<circle cx="487.36" cy="443.55" r="1.35" />
<circle cx="491.5" cy="435.5" r="0.81" />
<circle cx="491.3" cy="429.3" r="1.28" />
<circle cx="481" cy="431" r="0.7" />
<circle cx="476.5" cy="441.5" r="1.41" />
<circle cx="462.77" cy="448.23" r="1.46" />
<circle cx="455.5" cy="472" r="0.57" />
<circle cx="462.1" cy="480.24" r="1.85" />
<circle cx="463.09" cy="491.35" r="1.85" />
<circle cx="473.36" cy="490.09" r="1.35" />
<circle cx="480.71" cy="500.43" r="1.07" />
<circle cx="490.38" cy="508.75" r="1.15" />
<circle cx="483.42" cy="514.08" r="1.41" />
<circle cx="504.41" cy="492.82" r="1.85" />
<circle cx="515.53" cy="475.8" r="1.85" />
<circle cx="509.29" cy="469.43" r="1.07" />
<circle cx="516.7" cy="465.8" r="1.28" />
<circle cx="517.2" cy="454.4" r="0.91" />
<circle cx="524.12" cy="444.46" r="1.85" />
<circle cx="530.65" cy="428.06" r="1.67" />
<circle cx="521.7" cy="423.8" r="1.28" />
<circle cx="523.07" cy="413.73" r="1.57" />
<circle cx="515.5" cy="403.5" r="0.81" />
<circle cx="508.8" cy="405.6" r="0.91" />
<circle cx="517.85" cy="386.77" r="1.46" />
<circle cx="532.93" cy="384.37" r="1.85" />
<circle cx="533.8" cy="373" r="1.28" />
<circle cx="528.42" cy="365.12" r="1.85" />
<circle cx="535" cy="356.29" r="1.07" />
<circle cx="539.66" cy="364.4" r="1.85" />
<circle cx="545.5" cy="349.5" r="0.81" />
<circle cx="559.06" cy="360.89" r="1.72" />
<circle cx="566.11" cy="365.22" r="1.22" />
<circle cx="573.29" cy="367.86" r="1.07" />
<circle cx="559.8" cy="373.5" r="1.28" />
<circle cx="558.59" cy="381.94" r="1.67" />
<circle cx="566.75" cy="381.65" r="1.82" />
<circle cx="571.88" cy="388.88" r="1.15" />
<circle cx="569.5" cy="396.5" r="0.81" />
<circle cx="561.5" cy="396" r="1.28" />
<circle cx="556.56" cy="408.89" r="1.22" />
<circle cx="564.25" cy="417.12" r="1.15" />
<circle cx="576" cy="422.71" r="1.07" />
<circle cx="585.5" cy="439.5" r="0.81" />
<circle cx="587.87" cy="452.43" r="1.85" />
<circle cx="577.5" cy="451.5" r="0.81" />
<circle cx="568.5" cy="448.5" r="1.82" />
<circle cx="554.4" cy="440.8" r="0.91" />
<circle cx="542.04" cy="435.25" r="1.85" />
<circle cx="532.47" cy="467.74" r="1.77" />
<circle cx="548.56" cy="475.67" r="1.22" />
<circle cx="543.5" cy="483.5" r="0.81" />
<circle cx="557" cy="483" r="1.35" />
<circle cx="547.8" cy="501.4" r="0.91" />
<circle cx="529.21" cy="490.14" r="1.52" />
<circle cx="512.86" cy="519.29" r="1.07" />
<circle cx="500.82" cy="471.53" r="1.67" />
<circle cx="498" cy="465.5" r="1" />
<circle cx="504.79" cy="459.65" r="1.85" />
<circle cx="488.52" cy="465.32" r="1.85" />
<circle cx="499.89" cy="442.79" r="1.77" />
<circle cx="473.33" cy="399.89" r="1.22" />
<circle cx="485.14" cy="380.96" r="1.85" />
<circle cx="501.75" cy="378.25" r="1.41" />
<circle cx="501.92" cy="370.34" r="1.85" />
<circle cx="513.33" cy="331.93" r="1.57" />
<circle cx="505.88" cy="325.88" r="1.15" />
<circle cx="509.75" cy="318.75" r="1.15" />
<circle cx="523" cy="326.38" r="1.46" />
<circle cx="541.2" cy="327.4" r="0.91" />
<circle cx="545.14" cy="319.36" r="1.85" />
<circle cx="538.5" cy="307.3" r="1.28" />
<circle cx="526.09" cy="299.36" r="1.35" />
<circle cx="543.1" cy="278.3" r="1.28" />
<circle cx="554.5" cy="274.5" r="0.81" />
<circle cx="555.29" cy="288.59" r="1.67" />
<circle cx="566.67" cy="293.89" r="1.22" />
<circle cx="572.2" cy="305" r="1.28" />
<circle cx="586.14" cy="306.07" r="1.52" />
<circle cx="595.83" cy="294.08" r="1.41" />
<circle cx="587.88" cy="286.88" r="1.15" />
<circle cx="611.27" cy="292.73" r="1.57" />
<circle cx="628.55" cy="300.36" r="1.35" />
<circle cx="635.64" cy="293.18" r="1.35" />
<circle cx="631.36" cy="281.36" r="1.35" />
<circle cx="622.62" cy="273.25" r="1.15" />
<circle cx="627.85" cy="310.54" r="1.46" />
<circle cx="621" cy="314.5" r="1" />
<circle cx="620.5" cy="321.7" r="1.28" />
<circle cx="600.17" cy="320.17" r="1" />
<circle cx="582.4" cy="329.2" r="0.91" />
<circle cx="576.22" cy="324.13" r="1.85" />
<circle cx="587.88" cy="343.12" r="1.15" />
<circle cx="592.46" cy="368.69" r="1.46" />
<circle cx="593.32" cy="378.36" r="1.85" />
<circle cx="585.55" cy="378.64" r="1.85" />
<circle cx="590.2" cy="390.05" r="1.82" />
<circle cx="603.78" cy="381.67" r="1.72" />
<circle cx="608.5" cy="392.5" r="0.81" />
<circle cx="615.88" cy="381.88" r="1.15" />
<circle cx="616.1" cy="361" r="1.28" />
<circle cx="639.4" cy="374.8" r="0.91" />
<circle cx="661" cy="397.5" r="0.57" />
<circle cx="635.4" cy="410.8" r="0.91" />
<circle cx="614.2" cy="424.6" r="0.91" />
<circle cx="598.47" cy="418.87" r="1.57" />
<circle cx="595" cy="462" r="1.35" />
<circle cx="591.5" cy="467.5" r="0.81" />
<circle cx="595.62" cy="474.34" r="1.85" />
<circle cx="596" cy="484.5" r="1" />
<circle cx="587.17" cy="480.92" r="1.41" />
<circle cx="583.4" cy="486.93" r="1.57" />
<circle cx="584.8" cy="495" r="1.28" />
<circle cx="575.8" cy="493.4" r="0.91" />
<circle cx="576.2" cy="501.4" r="0.91" />
<circle cx="591.5" cy="502.5" r="1.15" />
<circle cx="600.12" cy="494.56" r="1.85" />
<circle cx="606.56" cy="513.33" r="1.22" />
<circle cx="625.43" cy="497.86" r="1.07" />
<circle cx="635" cy="496.38" r="1.15" />
<circle cx="646.2" cy="495.5" r="1.28" />
<circle cx="665.29" cy="500.57" r="1.07" />
<circle cx="652" cy="476.29" r="1.07" />
<circle cx="640.88" cy="465.59" r="1.67" />
<circle cx="635" cy="471" r="0.41" />
<circle cx="626" cy="468.5" r="1.41" />
<circle cx="621.39" cy="477.39" r="1.72" />
<circle cx="652" cy="459.64" r="1.52" />
<circle cx="667.22" cy="455.44" r="1.22" />
<circle cx="739.16" cy="451.58" r="1.77" />
<circle cx="772.79" cy="464" r="1.85" />
<circle cx="802.7" cy="464.7" r="1.28" />
<circle cx="801.5" cy="455.5" r="1.41" />
<circle cx="804.5" cy="475" r="1.15" />
<circle cx="818.14" cy="475.21" r="1.85" />
<circle cx="821.73" cy="459.09" r="1.35" />
<circle cx="829.69" cy="445.77" r="1.85" />
<circle cx="821.5" cy="439.06" r="1.62" />
<circle cx="826.88" cy="428.12" r="1.15" />
<circle cx="834.12" cy="433.53" r="1.67" />
<circle cx="842.33" cy="423.29" r="1.85" />
<circle cx="839" cy="417" r="0.7" />
<circle cx="841.89" cy="411.22" r="1.22" />
<circle cx="850.62" cy="408.15" r="1.46" />
<circle cx="851.7" cy="396.72" r="1.85" />
<circle cx="835.44" cy="390.67" r="1.22" />
<circle cx="846.05" cy="378.9" r="1.82" />
<circle cx="848.33" cy="362.89" r="1.22" />
<circle cx="846.25" cy="338.32" r="1.85" />
<circle cx="852.07" cy="322.49" r="1.85" />
<circle cx="845.98" cy="310.78" r="1.85" />
<circle cx="835.72" cy="317.66" r="1.85" />
<circle cx="816.46" cy="332.25" r="1.85" />
<circle cx="811.5" cy="340.5" r="0.81" />
<circle cx="813.23" cy="349.15" r="1.46" />
<circle cx="822.6" cy="351.06" r="1.85" />
<circle cx="817.5" cy="364" r="1.28" />
<circle cx="801.5" cy="375.19" r="1.62" />
<circle cx="802.31" cy="389.72" r="1.85" />
<circle cx="801.62" cy="397.25" r="1.15" />
<circle cx="761.8" cy="403.4" r="0.91" />
<circle cx="799" cy="344.71" r="1.07" />
<circle cx="802.89" cy="313.11" r="1.72" />
<circle cx="815.57" cy="288.98" r="1.85" />
<circle cx="830.13" cy="289.52" r="1.85" />
<circle cx="835.6" cy="281.8" r="0.91" />
<circle cx="861.95" cy="296.89" r="1.85" />
<circle cx="860.31" cy="312" r="1.85" />
<circle cx="869.44" cy="332.67" r="1.22" />
<circle cx="879.29" cy="331.14" r="1.07" />
<circle cx="877.5" cy="341.25" r="1.62" />
<circle cx="888.12" cy="348.31" r="1.62" />
<circle cx="898.12" cy="358.88" r="1.15" />
<circle cx="906.27" cy="374.27" r="1.85" />
<circle cx="890.75" cy="390.33" r="1.41" />
<circle cx="882.27" cy="380.91" r="1.35" />
<circle cx="872.37" cy="368.83" r="1.85" />
<circle cx="870.36" cy="412.88" r="1.85" />
<circle cx="873.5" cy="427.7" r="1.28" />
<circle cx="877.22" cy="435.5" r="1.72" />
<circle cx="885" cy="443.29" r="1.07" />
<circle cx="890" cy="456.45" r="1.85" />
<circle cx="884" cy="465.42" r="1.85" />
<circle cx="885.78" cy="472.56" r="1.22" />
<circle cx="895.17" cy="473.17" r="1" />
<circle cx="894.83" cy="479" r="1" />
<circle cx="893.67" cy="467.11" r="1.22" />
<circle cx="876.32" cy="458" r="1.85" />
<circle cx="849.82" cy="473.36" r="1.85" />
<circle cx="838.58" cy="472.65" r="1.85" />
<circle cx="847.32" cy="432.59" r="1.85" />
<circle cx="853" cy="422.31" r="1.46" />
<circle cx="863.34" cy="428.28" r="1.85" />
<circle cx="912.24" cy="439" r="1.67" />
<circle cx="919.82" cy="444.35" r="1.67" />
<circle cx="939.2" cy="443" r="1.28" />
<circle cx="940.7" cy="456.2" r="1.28" />
<circle cx="974.5" cy="444" r="0.57" />
<circle cx="994.4" cy="461.4" r="1.57" />
<circle cx="1004.41" cy="464.19" r="1.85" />
<circle cx="1014" cy="467.5" r="1" />
<circle cx="1025.62" cy="465.77" r="1.46" />
<circle cx="1034.8" cy="463" r="0.91" />
<circle cx="1038.25" cy="466.12" r="1.15" />
<circle cx="1067.36" cy="472.68" r="1.85" />
<circle cx="1078.62" cy="477.31" r="1.46" />
<circle cx="1091.48" cy="481.65" r="1.85" />
<circle cx="1109.29" cy="490.21" r="1.52" />
<circle cx="1117.5" cy="494.8" r="1.28" />
<circle cx="1126.63" cy="501.57" r="1.85" />
<circle cx="1128.5" cy="508.5" r="0.81" />
<circle cx="1149.75" cy="526" r="1.15" />
<circle cx="1154.5" cy="533" r="1" />
<circle cx="1164.88" cy="547.12" r="1.15" />
<circle cx="1170.2" cy="561.3" r="1.28" />
<circle cx="1172.59" cy="569.06" r="1.67" />
<circle cx="1174.33" cy="576.89" r="1.22" />
<circle cx="1177.75" cy="599.4" r="1.82" />
<circle cx="1177.81" cy="610.23" r="1.85" />
<circle cx="1176.34" cy="636.69" r="1.85" />
<circle cx="1176.87" cy="642.25" r="1.85" />
<circle cx="1223.09" cy="519.22" r="1.85" />
<circle cx="1191.72" cy="468.85" r="1.85" />
<circle cx="1173.36" cy="451.61" r="1.85" />
<circle cx="1164.67" cy="445.42" r="1.41" />
<circle cx="1146.26" cy="431.93" r="1.85" />
<circle cx="1147.5" cy="425.5" r="0.81" />
<circle cx="1114.2" cy="417.4" r="0.91" />
<circle cx="1108.89" cy="416.61" r="1.72" />
<circle cx="1095.21" cy="411.62" r="1.85" />
<circle cx="1081.89" cy="409.89" r="1.77" />
<circle cx="1053.25" cy="406.67" r="1.41" />
<circle cx="1040.65" cy="405.35" r="1.85" />
<circle cx="1029.45" cy="406.45" r="1.35" />
<circle cx="1019.38" cy="403.96" r="1.85" />
<circle cx="1015.18" cy="403.89" r="1.85" />
<circle cx="1008.62" cy="403.69" r="1.46" />
<circle cx="981.08" cy="410" r="1.41" />
<circle cx="953.33" cy="420.67" r="1.41" />
<circle cx="948.07" cy="410.14" r="1.52" />
<circle cx="951.88" cy="356.88" r="1.15" />
<circle cx="945.08" cy="335.85" r="1.46" />
<circle cx="931" cy="329.29" r="1.07" />
<circle cx="933" cy="324.23" r="1.46" />
<circle cx="935" cy="310.83" r="1" />
<circle cx="923.46" cy="312" r="1.85" />
<circle cx="924.6" cy="300.8" r="0.91" />
<circle cx="911" cy="314.5" r="0.81" />
<circle cx="899.04" cy="315.83" r="1.85" />
<circle cx="888.86" cy="324.23" r="1.85" />
<circle cx="881.25" cy="320.75" r="0.81" />
<circle cx="888.33" cy="300.33" r="1.41" />
<circle cx="880.73" cy="287.55" r="1.35" />
<circle cx="945" cy="302" r="1.22" />
<circle cx="956" cy="307" r="1.07" />
<circle cx="948.35" cy="316.82" r="1.67" />
<circle cx="950.83" cy="286.83" r="1" />
<circle cx="1001" cy="292" r="1.35" />
<circle cx="1022.25" cy="289.88" r="1.15" />
<circle cx="1045.36" cy="286.57" r="1.52" />
<circle cx="1056.23" cy="283.23" r="1.46" />
<circle cx="1093.19" cy="282.29" r="1.85" />
<circle cx="1110.5" cy="283" r="1.28" />
<circle cx="1121.91" cy="281.48" r="1.85" />
<circle cx="1140.25" cy="282.6" r="1.82" />
<circle cx="1152.3" cy="282.6" r="1.82" />
<circle cx="1157.67" cy="283.31" r="1.85" />
<circle cx="1160.7" cy="283.73" r="1.85" />
<circle cx="1173.05" cy="283.4" r="1.82" />
<circle cx="1182.5" cy="284" r="0.57" />
<circle cx="1192.24" cy="283.66" r="1.85" />
<circle cx="1238.51" cy="286.33" r="1.85" />
<circle cx="1257" cy="285.5" r="1" />
<circle cx="1306.65" cy="275.87" r="1.85" />
<circle cx="1318.03" cy="286.38" r="1.85" />
<circle cx="1319.08" cy="315.2" r="1.85" />
<circle cx="1291.42" cy="332.86" r="1.85" />
<circle cx="1267.7" cy="335.7" r="1.82" />
<circle cx="1238.38" cy="334.32" r="1.85" />
<circle cx="1195.38" cy="334.71" r="1.85" />
<circle cx="1174.92" cy="333.08" r="1.85" />
<circle cx="1147.32" cy="335.11" r="1.85" />
<circle cx="1137.29" cy="336.57" r="1.07" />
<circle cx="1121.71" cy="333.64" r="1.52" />
<circle cx="1104.49" cy="333.69" r="1.85" />
<circle cx="1099.48" cy="334.22" r="1.85" />
<circle cx="1080.5" cy="333.33" r="1" />
<circle cx="1058.5" cy="334.5" r="1.15" />
<circle cx="1051.43" cy="340.14" r="1.85" />
<circle cx="1040.44" cy="341.44" r="1.22" />
<circle cx="1032.67" cy="342.67" r="1.41" />
<circle cx="1016.29" cy="345.43" r="1.07" />
<circle cx="1009.71" cy="346.57" r="1.07" />
<circle cx="1129.8" cy="465.6" r="0.91" />
<circle cx="1090" cy="534.5" r="1" />
<circle cx="1192.11" cy="357.33" r="1.22" />
<circle cx="1259.25" cy="212.88" r="1.15" />
<circle cx="1335.18" cy="252.68" r="1.85" />
<circle cx="1373.31" cy="190.92" r="1.46" />
<circle cx="1358.81" cy="182" r="1.62" />
<circle cx="1362.45" cy="165.47" r="1.85" />
<circle cx="1370.26" cy="150.83" r="1.85" />
<circle cx="1385.36" cy="140.72" r="1.85" />
<circle cx="1801.57" cy="198.9" r="1.85" />
<circle cx="1846.76" cy="142.28" r="1.85" />
<circle cx="1315.45" cy="690.36" r="1.35" />
<circle cx="1255.5" cy="833.61" r="1.72" />
<circle cx="1260.92" cy="862.42" r="1.85" />
<circle cx="1260.5" cy="886.5" r="1" />
<circle cx="1255.71" cy="915.86" r="1.52" />
<circle cx="1240" cy="954" r="1.67" />
<circle cx="1225.57" cy="955.57" r="1.52" />
<circle cx="1212" cy="955" r="1.46" />
<circle cx="1202.64" cy="956.91" r="1.35" />
<circle cx="1200.83" cy="949" r="1" />
<circle cx="1194.7" cy="958.9" r="1.28" />
<circle cx="1214.5" cy="990.5" r="0.81" />
<circle cx="1235.88" cy="999.88" r="1.15" />
<circle cx="1246.44" cy="975.52" r="1.85" />
<circle cx="1274.5" cy="959.5" r="0.81" />
<circle cx="1281.5" cy="960.5" r="1.41" />
<circle cx="1301.45" cy="960.65" r="1.82" />
<circle cx="1288.06" cy="992.83" r="1.85" />
<circle cx="1284.83" cy="1008.83" r="1" />
<circle cx="1300.33" cy="1013.11" r="1.22" />
<circle cx="1308.29" cy="1018.43" r="1.52" />
<circle cx="1318.18" cy="1010.42" r="1.85" />
<circle cx="1330.29" cy="1024.57" r="1.07" />
<circle cx="1350.95" cy="1030.79" r="1.77" />
<circle cx="1358" cy="1037.75" r="0.81" />
<circle cx="1370.39" cy="1048.83" r="1.85" />
<circle cx="1375.88" cy="1056.75" r="1.15" />
<circle cx="1373" cy="1062" r="0.41" />
<circle cx="1387.84" cy="1064.72" r="1.85" />
<circle cx="1401.94" cy="1089.28" r="1.72" />
<circle cx="1440" cy="1088.5" r="0.57" />
<circle cx="1449.5" cy="1097.5" r="1.15" />
<circle cx="1460.5" cy="1100.08" r="1.41" />
<circle cx="1463.73" cy="1097.27" r="1.85" />
<circle cx="1470" cy="1105" r="1.07" />
<circle cx="1479.92" cy="1109.5" r="1.41" />
<circle cx="1538.12" cy="1119.12" r="1.15" />
<circle cx="1555.33" cy="1123.67" r="0.7" />
<circle cx="1596.78" cy="1098.11" r="1.22" />
<circle cx="1623" cy="1096.71" r="1.07" />
<circle cx="1663" cy="1100.5" r="1" />
<circle cx="1700.1" cy="1094.3" r="1.28" />
<circle cx="1712.12" cy="1109.12" r="1.15" />
<circle cx="1722.5" cy="1113.5" r="0.81" />
<circle cx="1733.89" cy="1113.89" r="1.72" />
<circle cx="1749.62" cy="1145.25" r="1.15" />
<circle cx="1809.5" cy="1184.5" r="0.81" />
<circle cx="1844.15" cy="1206.78" r="1.85" />
<circle cx="1846.94" cy="1094.24" r="1.67" />
<circle cx="1848.6" cy="1080.2" r="0.91" />
<circle cx="1611.29" cy="984.43" r="1.07" />
<circle cx="1525" cy="1000.75" r="0.81" />
<circle cx="1485" cy="1008.5" r="0.81" />
<circle cx="1484.35" cy="1037.08" r="1.85" />
<circle cx="1500.93" cy="1034.6" r="1.57" />
<circle cx="1467.5" cy="964.5" r="1.15" />
<circle cx="1420.08" cy="963.17" r="1.85" />
<circle cx="1403" cy="973.31" r="1.85" />
<circle cx="1397.8" cy="964.3" r="1.28" />
<circle cx="1393.68" cy="956.77" r="1.85" />
<circle cx="1411.5" cy="993" r="1.62" />
<circle cx="1380.89" cy="1015.56" r="1.22" />
<circle cx="1351.33" cy="973.67" r="1.41" />
<circle cx="1352.8" cy="932.3" r="1.28" />
<circle cx="1358.29" cy="929.53" r="1.67" />
<circle cx="1326.15" cy="891.99" r="1.85" />
<circle cx="1316.52" cy="879.33" r="1.85" />
<circle cx="1224.88" cy="886.88" r="1.15" />
<circle cx="1223.11" cy="871.8" r="1.85" />
<circle cx="1191" cy="843" r="1.07" />
<circle cx="1175.71" cy="837" r="1.07" />
<circle cx="1162.5" cy="852.5" r="0.81" />
<circle cx="1149.11" cy="845.44" r="1.22" />
<circle cx="1164.89" cy="868.63" r="1.85" />
<circle cx="1173.86" cy="879.37" r="1.85" />
<circle cx="1161.64" cy="883.82" r="1.35" />
<circle cx="1146.5" cy="887.5" r="1.28" />
<circle cx="1138.68" cy="909.66" r="1.85" />
<circle cx="1156.7" cy="909.35" r="1.82" />
<circle cx="1179.64" cy="909.81" r="1.85" />
<circle cx="1138.19" cy="955.43" r="1.85" />
<circle cx="1140.5" cy="961.28" r="1.72" />
<circle cx="1144.12" cy="986.88" r="1.15" />
<circle cx="1162.5" cy="991" r="0.57" />
<circle cx="1142.56" cy="1031.44" r="1.85" />
<circle cx="1158.3" cy="1092.8" r="1.28" />
<circle cx="1115.5" cy="1097.5" r="0.81" />
<circle cx="1101" cy="1089.71" r="1.07" />
<circle cx="1029" cy="1032.08" r="1.41" />
<circle cx="1009" cy="1036.5" r="1" />
<circle cx="1006.5" cy="1033.5" r="0.81" />
<circle cx="1013.31" cy="993.26" r="1.85" />
<circle cx="1001.2" cy="987.67" r="1.85" />
<circle cx="989.08" cy="985.45" r="1.85" />
<circle cx="981.52" cy="987.26" r="1.85" />
<circle cx="973.1" cy="983" r="1.82" />
<circle cx="913.5" cy="996.5" r="0.81" />
<circle cx="910.5" cy="1051" r="0.57" />
<circle cx="831.5" cy="1011.5" r="0.81" />
<circle cx="822.6" cy="1010.37" r="1.85" />
<circle cx="808.4" cy="1011.2" r="0.91" />
<circle cx="814.11" cy="992.22" r="1.85" />
<circle cx="826.67" cy="955.33" r="0.7" />
<circle cx="814.5" cy="943.5" r="0.81" />
<circle cx="810.5" cy="941.5" r="0.81" />
<circle cx="810" cy="950.25" r="1.82" />
<circle cx="801.07" cy="939.75" r="1.85" />
<circle cx="795.15" cy="929.08" r="1.46" />
<circle cx="821.23" cy="918.81" r="1.85" />
<circle cx="844" cy="918.93" r="1.85" />
<circle cx="856.77" cy="912.67" r="1.85" />
<circle cx="874.01" cy="919.58" r="1.85" />
<circle cx="889.77" cy="919.45" r="1.85" />
<circle cx="906.5" cy="918" r="0.57" />
<circle cx="919" cy="917" r="1.07" />
<circle cx="921.5" cy="921.5" r="0.81" />
<circle cx="973.17" cy="910.29" r="1.85" />
<circle cx="984.19" cy="909.81" r="1.62" />
<circle cx="992" cy="895.5" r="0.57" />
<circle cx="972" cy="891.5" r="1.28" />
<circle cx="1006.35" cy="910.82" r="1.85" />
<circle cx="1034.8" cy="916.4" r="0.91" />
<circle cx="1075.5" cy="896" r="0.57" />
<circle cx="1051.54" cy="863.5" r="1.85" />
<circle cx="1042.88" cy="866.88" r="1.15" />
<circle cx="1078.17" cy="846.5" r="1.41" />
<circle cx="1101.61" cy="853.72" r="1.72" />
<circle cx="1103.5" cy="832" r="1.28" />
<circle cx="1130.81" cy="811.81" r="1.62" />
<circle cx="1144" cy="804.43" r="1.85" />
<circle cx="1161.83" cy="793.5" r="1.41" />
<circle cx="1194.5" cy="815" r="1" />
<circle cx="1129.31" cy="868.06" r="1.62" />
<circle cx="1123" cy="862.5" r="1" />
<circle cx="1120.1" cy="870.08" r="1.85" />
<circle cx="1108.82" cy="959.35" r="1.85" />
<circle cx="1085.7" cy="985.2" r="1.28" />
<circle cx="1262.54" cy="1070.54" r="1.46" />
<circle cx="1296" cy="1067.5" r="1" />
<circle cx="1308.41" cy="1092.71" r="1.67" />
<circle cx="1401.71" cy="1153.42" r="1.85" />
<circle cx="1425.5" cy="1169.5" r="0.81" />
<circle cx="1431.7" cy="1170.2" r="1.28" />
<circle cx="870.5" cy="952.5" r="0.81" />
<circle cx="859.36" cy="944.09" r="1.35" />
<circle cx="857.5" cy="933.5" r="0.81" />
<circle cx="851.29" cy="932.57" r="1.07" />
<circle cx="700.21" cy="937.43" r="1.52" />
<circle cx="648.56" cy="943.11" r="1.22" />
<circle cx="641.67" cy="936.89" r="1.22" />
<circle cx="640.67" cy="928.89" r="1.22" />
<circle cx="634.5" cy="926" r="0.57" />
<circle cx="634.2" cy="921.4" r="0.91" />
<circle cx="624" cy="941.92" r="1.41" />
<circle cx="614.29" cy="951.33" r="1.85" />
<circle cx="609.5" cy="940.5" r="1.15" />
<circle cx="601.38" cy="945.75" r="1.15" />
<circle cx="589" cy="948.5" r="1" />
<circle cx="581" cy="942" r="0.7" />
<circle cx="570" cy="937.5" r="1.52" />
<circle cx="569" cy="946.85" r="1.46" />
<circle cx="553.5" cy="948.5" r="0.81" />
<circle cx="558.75" cy="963.58" r="1.41" />
<circle cx="564.71" cy="967.43" r="1.07" />
<circle cx="573.3" cy="969.8" r="1.82" />
<circle cx="584" cy="976" r="1.57" />
<circle cx="594.91" cy="980.65" r="1.85" />
<circle cx="594.5" cy="988.5" r="0.81" />
<circle cx="600.79" cy="992.79" r="1.52" />
<circle cx="587.59" cy="997.07" r="1.85" />
<circle cx="575.13" cy="1000.8" r="1.57" />
<circle cx="566.09" cy="995.65" r="1.85" />
<circle cx="559.12" cy="1002.12" r="1.15" />
<circle cx="553" cy="1008" r="0.7" />
<circle cx="544.17" cy="1010.74" r="1.85" />
<circle cx="543" cy="1018" r="1.07" />
<circle cx="543.91" cy="1026.74" r="1.85" />
<circle cx="545.2" cy="1037" r="1.28" />
<circle cx="553.8" cy="1020.6" r="1.28" />
<circle cx="565.27" cy="1010.58" r="1.85" />
<circle cx="580.88" cy="1023.12" r="1.15" />
<circle cx="592.5" cy="1020.2" r="1.28" />
<circle cx="594" cy="1014" r="0.41" />
<circle cx="625" cy="1003.5" r="1.15" />
<circle cx="637.32" cy="1011.27" r="1.85" />
<circle cx="644.27" cy="1001.73" r="1.35" />
<circle cx="643.92" cy="989.67" r="1.41" />
<circle cx="640" cy="982" r="1.46" />
<circle cx="633.89" cy="977.67" r="1.22" />
<circle cx="630.8" cy="983.6" r="0.91" />
<circle cx="620.5" cy="976.5" r="0.81" />
<circle cx="627.5" cy="969.5" r="1.15" />
<circle cx="635.36" cy="970.91" r="1.35" />
<circle cx="634.88" cy="961.94" r="1.62" />
<circle cx="643.36" cy="953.91" r="1.35" />
<circle cx="657.25" cy="997.4" r="1.82" />
<circle cx="653.67" cy="1018.47" r="1.57" />
<circle cx="656.75" cy="1029.62" r="1.15" />
<circle cx="648.5" cy="1040" r="1" />
<circle cx="636.89" cy="1048.33" r="1.22" />
<circle cx="621.38" cy="1049.62" r="1.46" />
<circle cx="617.5" cy="1041.5" r="0.81" />
<circle cx="635.67" cy="1030.11" r="1.22" />
<circle cx="657.73" cy="1051.73" r="1.35" />
<circle cx="585" cy="1070.83" r="1" />
<circle cx="571.64" cy="1073.09" r="1.35" />
<circle cx="560.5" cy="1085" r="0.57" />
<circle cx="533.33" cy="1067.89" r="1.22" />
<circle cx="524.2" cy="1058.55" r="1.82" />
<circle cx="515.38" cy="1068.38" r="1.46" />
<circle cx="506.08" cy="1058.62" r="1.46" />
<circle cx="494.45" cy="1056.36" r="1.35" />
<circle cx="484.54" cy="1063.85" r="1.46" />
<circle cx="482.5" cy="1043.5" r="0.81" />
<circle cx="473.61" cy="1045.17" r="1.72" />
<circle cx="476" cy="1036.29" r="1.07" />
<circle cx="478.64" cy="1030.91" r="1.35" />
<circle cx="476" cy="1026" r="0.41" />
<circle cx="468.5" cy="1026" r="0.57" />
<circle cx="467.06" cy="1032.24" r="1.67" />
<circle cx="455.8" cy="1032.6" r="0.91" />
<circle cx="448.67" cy="1034.33" r="0.7" />
<circle cx="445.8" cy="1041.4" r="0.91" />
<circle cx="441" cy="1036" r="1.57" />
<circle cx="437.5" cy="1047.12" r="1.62" />
<circle cx="444" cy="1056.27" r="1.85" />
<circle cx="433.84" cy="1065.64" r="1.85" />
<circle cx="437.33" cy="1072.89" r="1.22" />
<circle cx="442" cy="1080" r="0.7" />
<circle cx="456.5" cy="1074.2" r="1.28" />
<circle cx="460" cy="1065.5" r="1.72" />
<circle cx="428.5" cy="1056.5" r="1.15" />
<circle cx="423.47" cy="1046.84" r="1.77" />
<circle cx="428.83" cy="1039.08" r="1.41" />
<circle cx="425.83" cy="1024.17" r="1" />
<circle cx="425.45" cy="1016.74" r="1.85" />
<circle cx="435.55" cy="1017.36" r="1.35" />
<circle cx="446.25" cy="1014.6" r="1.82" />
<circle cx="460.93" cy="1021.29" r="1.52" />
<circle cx="465.14" cy="1006.71" r="1.07" />
<circle cx="456.75" cy="1002" r="1.62" />
<circle cx="452.27" cy="992" r="1.35" />
<circle cx="462.88" cy="992.88" r="1.15" />
<circle cx="467.5" cy="987.5" r="0.81" />
<circle cx="460.86" cy="983.93" r="1.52" />
<circle cx="454.5" cy="979.5" r="1.41" />
<circle cx="459.6" cy="973.17" r="1.85" />
<circle cx="466.55" cy="965.85" r="1.82" />
<circle cx="453.94" cy="961.69" r="1.62" />
<circle cx="444" cy="968" r="1.07" />
<circle cx="443.87" cy="984.9" r="1.85" />
<circle cx="437.62" cy="996.54" r="1.46" />
<circle cx="431.12" cy="991.12" r="1.15" />
<circle cx="428.11" cy="985.06" r="1.72" />
<circle cx="420.89" cy="990.33" r="1.22" />
<circle cx="412.62" cy="990.57" r="1.85" />
<circle cx="408.32" cy="981.38" r="1.85" />
<circle cx="410.6" cy="973.8" r="1.57" />
<circle cx="405.09" cy="965.86" r="1.85" />
<circle cx="410.42" cy="956.32" r="1.77" />
<circle cx="416.71" cy="962.57" r="1.07" />
<circle cx="426.6" cy="956.07" r="1.57" />
<circle cx="421.31" cy="977" r="1.46" />
<circle cx="398.88" cy="975.88" r="1.15" />
<circle cx="390.88" cy="982.46" r="1.85" />
<circle cx="383.5" cy="984.5" r="0.81" />
<circle cx="384.2" cy="978.6" r="0.91" />
<circle cx="387.26" cy="972.65" r="1.85" />
<circle cx="378" cy="981.65" r="1.67" />
<circle cx="373.31" cy="973" r="1.46" />
<circle cx="365.29" cy="979.35" r="1.85" />
<circle cx="363.73" cy="966.17" r="1.85" />
<circle cx="366.07" cy="957.14" r="1.52" />
<circle cx="353.08" cy="958.75" r="1.41" />
<circle cx="353" cy="994.5" r="1" />
<circle cx="332.11" cy="992.58" r="1.77" />
<circle cx="326.83" cy="991" r="1" />
<circle cx="308" cy="999.5" r="0.57" />
<circle cx="302.5" cy="999.5" r="0.81" />
<circle cx="304.33" cy="992.22" r="1.72" />
<circle cx="306.5" cy="985" r="1.28" />
<circle cx="290.45" cy="986.55" r="1.35" />
<circle cx="281.73" cy="979.58" r="1.85" />
<circle cx="279" cy="986.5" r="1" />
<circle cx="268.68" cy="992.86" r="1.85" />
<circle cx="263.5" cy="1000.5" r="0.81" />
<circle cx="255.68" cy="1006" r="1.85" />
<circle cx="248.78" cy="1015.06" r="1.72" />
<circle cx="241" cy="1016.5" r="1.15" />
<circle cx="245.5" cy="1023.22" r="1.72" />
<circle cx="257" cy="1023.18" r="1.35" />
<circle cx="268.5" cy="1025.5" r="0.81" />
<circle cx="266" cy="1031" r="1.22" />
<circle cx="282.83" cy="1030.83" r="1" />
<circle cx="293" cy="1038.5" r="1.28" />
<circle cx="299.53" cy="1030.13" r="1.57" />
<circle cx="304.71" cy="1020.71" r="1.07" />
<circle cx="302.5" cy="1014.5" r="0.81" />
<circle cx="317.8" cy="1024.4" r="0.91" />
<circle cx="325.83" cy="1024.92" r="1.41" />
<circle cx="337" cy="1024" r="1.67" />
<circle cx="342.5" cy="1033.71" r="1.85" />
<circle cx="347.33" cy="1041.92" r="1.41" />
<circle cx="358.07" cy="1049.73" r="1.85" />
<circle cx="367.7" cy="1043.7" r="1.28" />
<circle cx="361.68" cy="1035.36" r="1.85" />
<circle cx="363.5" cy="1025.5" r="0.81" />
<circle cx="362.2" cy="1019.4" r="0.91" />
<circle cx="353" cy="1022" r="1.85" />
<circle cx="336.5" cy="1010.5" r="0.81" />
<circle cx="325.67" cy="1012.27" r="1.57" />
<circle cx="311.79" cy="1031.29" r="1.85" />
<circle cx="306.33" cy="1041.67" r="1" />
<circle cx="299.09" cy="1053.64" r="1.35" />
<circle cx="282.14" cy="1054.43" r="1.07" />
<circle cx="270.29" cy="1050.5" r="1.52" />
<circle cx="260.5" cy="1049" r="1.62" />
<circle cx="250" cy="1043.67" r="1.72" />
<circle cx="238.56" cy="1046.78" r="1.22" />
<circle cx="237.5" cy="1038" r="1.41" />
<circle cx="228.55" cy="1046.18" r="1.35" />
<circle cx="234" cy="1057" r="1.22" />
<circle cx="228" cy="1064.5" r="1" />
<circle cx="246.62" cy="1059.75" r="1.15" />
<circle cx="231" cy="1023.95" r="1.82" />
<circle cx="223.5" cy="1021.5" r="0.81" />
<circle cx="229.91" cy="1012.64" r="1.35" />
<circle cx="223.96" cy="1002.58" r="1.85" />
<circle cx="233" cy="1000.8" r="1.28" />
<circle cx="226.11" cy="993" r="1.77" />
<circle cx="242.83" cy="991.07" r="1.85" />
<circle cx="240.05" cy="970.6" r="1.82" />
<circle cx="236.45" cy="961.82" r="1.35" />
<circle cx="243.97" cy="949.31" r="1.85" />
<circle cx="262.87" cy="944.6" r="1.57" />
<circle cx="295.72" cy="961.4" r="1.85" />
<circle cx="312.93" cy="959.14" r="1.52" />
<circle cx="388.83" cy="955.67" r="1.41" />
<circle cx="396.5" cy="952" r="0.81" />
<circle cx="400.5" cy="989.36" r="1.52" />
<circle cx="404.52" cy="1000" r="1.85" />
<circle cx="402.29" cy="1011" r="1.07" />
<circle cx="411.42" cy="1014.42" r="1.85" />
<circle cx="414.91" cy="1021.64" r="1.35" />
<circle cx="409.8" cy="1026.6" r="0.91" />
<circle cx="401.92" cy="1022.25" r="1.41" />
<circle cx="393.47" cy="1027.63" r="1.77" />
<circle cx="392.08" cy="1036.25" r="1.41" />
<circle cx="382.2" cy="1032.6" r="0.91" />
<circle cx="380.6" cy="1041.35" r="1.82" />
<circle cx="384.75" cy="1050.88" r="1.15" />
<circle cx="382.33" cy="1059.11" r="1.22" />
<circle cx="391.57" cy="1057.91" r="1.85" />
<circle cx="390.5" cy="1066.8" r="1.28" />
<circle cx="397.31" cy="1073" r="1.46" />
<circle cx="402" cy="1063.5" r="1" />
<circle cx="403.67" cy="1056.89" r="1.22" />
<circle cx="412.33" cy="1056.33" r="0.7" />
<circle cx="411.77" cy="1047.38" r="1.46" />
<circle cx="408.73" cy="1069.58" r="1.85" />
<circle cx="413.88" cy="1077.88" r="1.15" />
<circle cx="426.69" cy="1073.19" r="1.62" />
<circle cx="387.67" cy="1079.11" r="1.22" />
<circle cx="372.5" cy="1071" r="1.41" />
<circle cx="359.35" cy="1072.29" r="1.67" />
<circle cx="361.69" cy="1062" r="1.46" />
<circle cx="351" cy="1065.71" r="1.07" />
<circle cx="343.5" cy="1076.2" r="1.28" />
<circle cx="334.23" cy="1068.54" r="1.46" />
<circle cx="336.43" cy="1060.71" r="1.85" />
<circle cx="329.2" cy="1054.4" r="0.91" />
<circle cx="333.76" cy="1046.4" r="1.85" />
<circle cx="316.93" cy="1053" r="1.52" />
<circle cx="322.54" cy="1061.23" r="1.46" />
<circle cx="319.25" cy="1070.12" r="1.62" />
<circle cx="374.38" cy="1052.43" r="1.85" />
<circle cx="373.83" cy="1024.11" r="1.72" />
<circle cx="380.11" cy="1016.68" r="1.77" />
<circle cx="374.96" cy="1007.29" r="1.85" />
<circle cx="390.35" cy="1012.82" r="1.67" />
<circle cx="385.95" cy="993.25" r="1.82" />
<circle cx="423.96" cy="1001.78" r="1.85" />
<circle cx="470.5" cy="996.5" r="0.81" />
<circle cx="476" cy="995.5" r="1" />
<circle cx="476.83" cy="1003.38" r="1.85" />
<circle cx="486.36" cy="1008.91" r="1.35" />
<circle cx="493.5" cy="1013" r="1.41" />
<circle cx="496.67" cy="999.89" r="1.85" />
<circle cx="485.5" cy="996" r="1.15" />
<circle cx="485" cy="977" r="1.46" />
<circle cx="494.31" cy="975.06" r="1.62" />
<circle cx="496.5" cy="969" r="0.57" />
<circle cx="502.64" cy="964.64" r="1.35" />
<circle cx="497.85" cy="952.67" r="1.85" />
<circle cx="486.5" cy="950.25" r="1.41" />
<circle cx="477.1" cy="946.25" r="1.82" />
<circle cx="482.18" cy="962.71" r="1.85" />
<circle cx="509.31" cy="978" r="1.46" />
<circle cx="506.05" cy="985.76" r="1.85" />
<circle cx="525.17" cy="988.65" r="1.85" />
<circle cx="535" cy="996" r="1.22" />
<circle cx="544.7" cy="1001.2" r="1.28" />
<circle cx="556.5" cy="992.5" r="1" />
<circle cx="546" cy="986.5" r="1" />
<circle cx="550.38" cy="980.62" r="1.62" />
<circle cx="549.5" cy="969.94" r="1.62" />
<circle cx="536" cy="966.12" r="1.62" />
<circle cx="523.32" cy="972.41" r="1.85" />
<circle cx="516.5" cy="966.5" r="1.15" />
<circle cx="522.95" cy="952.9" r="1.82" />
<circle cx="525.46" cy="1003.04" r="1.85" />
<circle cx="515.17" cy="1012.17" r="1" />
<circle cx="523.19" cy="1017.29" r="1.85" />
<circle cx="529.5" cy="1026" r="1" />
<circle cx="534" cy="1015.5" r="1.28" />
<circle cx="524.71" cy="1041.57" r="1.07" />
<circle cx="503" cy="1038.5" r="1" />
<circle cx="496.17" cy="1042.17" r="1" />
<circle cx="491" cy="1033" r="0.41" />
<circle cx="516.27" cy="1098.55" r="1.35" />
<circle cx="571.25" cy="1039" r="0.81" />
<circle cx="580.46" cy="1048.77" r="1.46" />
<circle cx="570.54" cy="983.88" r="1.85" />
<circle cx="589.38" cy="961.92" r="1.46" />
<circle cx="595.67" cy="968.07" r="1.57" />
<circle cx="599.22" cy="932.56" r="1.22" />
<circle cx="774.2" cy="1091" r="1.28" />
<circle cx="578" cy="474.62" r="1.15" />
<circle cx="545.83" cy="384.34" r="1.85" />
<circle cx="555.77" cy="302.5" r="1.85" />
<circle cx="441.73" cy="269.8" r="1.57" />
<circle cx="436" cy="317" r="1.07" />
<circle cx="414.67" cy="314.11" r="1.22" />
<circle cx="427.44" cy="343.22" r="1.22" />
<circle cx="427.8" cy="353.93" r="1.85" />
<circle cx="433" cy="379.62" r="1.85" />
<circle cx="414.46" cy="391.85" r="1.46" />
<circle cx="446.15" cy="491.23" r="1.85" />
<circle cx="453.44" cy="506.12" r="1.85" />
<circle cx="675.12" cy="327.88" r="1.15" />
<circle cx="179.44" cy="374.56" r="1.22" />
<circle cx="175.5" cy="367.5" r="0.81" />
<circle cx="163" cy="313.75" r="1.15" />
<circle cx="176.11" cy="301.22" r="1.22" />
<circle cx="106.36" cy="966.91" r="1.35" />
</g>
<g id="sucker-rings" stroke="black" stroke-width="1.48" stroke-linecap="round" stroke-linejoin="round" fill="none">
<circle cx="212.75" cy="206.12" r="4.2" />
<circle cx="212.75" cy="206.12" r="2.02" />
<circle cx="219.8" cy="206.2" r="4.2" />
<circle cx="219.8" cy="206.2" r="2.02" />
<circle cx="307.31" cy="510.31" r="4.2" />
<circle cx="307.31" cy="510.31" r="2.02" />
<circle cx="254.4" cy="578.8" r="4.2" />
<circle cx="254.4" cy="578.8" r="2.02" />
<circle cx="190.08" cy="663.5" r="5.42" />
<circle cx="190.08" cy="663.5" r="2.6" />
<circle cx="181" cy="661.29" r="4.2" />
<circle cx="181" cy="661.29" r="2.02" />
<circle cx="175.33" cy="668.17" r="4.2" />
<circle cx="175.33" cy="668.17" r="2.02" />
<circle cx="487" cy="527.2" r="4.2" />
<circle cx="487" cy="527.2" r="2.02" />
<circle cx="518.92" cy="520.58" r="4.2" />
<circle cx="518.92" cy="520.58" r="2.02" />
<circle cx="565.4" cy="256.4" r="4.2" />
<circle cx="565.4" cy="256.4" r="2.02" />
<circle cx="578.8" cy="256.8" r="4.2" />
<circle cx="578.8" cy="256.8" r="2.02" />
<circle cx="685.67" cy="299.64" r="5.38" />
<circle cx="685.67" cy="299.64" r="2.58" />
<circle cx="758.5" cy="302.33" r="4.2" />
<circle cx="758.5" cy="302.33" r="2.02" />
<circle cx="935.14" cy="277.43" r="4.2" />
<circle cx="935.14" cy="277.43" r="2.02" />
<circle cx="1015.55" cy="261.38" r="4.2" />
<circle cx="1015.55" cy="261.38" r="2.02" />
<circle cx="1025.17" cy="252.67" r="4.2" />
<circle cx="1025.17" cy="252.67" r="2.02" />
<circle cx="1207.65" cy="381.87" r="8.03" />
<circle cx="1207.65" cy="381.87" r="3.85" />
<circle cx="1221.27" cy="376.82" r="4.2" />
<circle cx="1221.27" cy="376.82" r="2.02" />
<circle cx="1238.16" cy="377.61" r="5.2" />
<circle cx="1238.16" cy="377.61" r="2.49" />
<circle cx="1249.42" cy="426.8" r="5.92" />
<circle cx="1249.42" cy="426.8" r="2.84" />
<circle cx="1259.06" cy="451.75" r="4.2" />
<circle cx="1259.06" cy="451.75" r="2.02" />
<circle cx="1268.43" cy="449.43" r="4.2" />
<circle cx="1268.43" cy="449.43" r="2.02" />
<circle cx="1274.92" cy="449.08" r="4.2" />
<circle cx="1274.92" cy="449.08" r="2.02" />
<circle cx="1285.47" cy="450" r="4.2" />
<circle cx="1285.47" cy="450" r="2.02" />
<circle cx="1292.58" cy="451.92" r="4.2" />
<circle cx="1292.58" cy="451.92" r="2.02" />
<circle cx="1327.63" cy="468.11" r="4.2" />
<circle cx="1327.63" cy="468.11" r="2.02" />
<circle cx="1230.45" cy="475.73" r="4.2" />
<circle cx="1230.45" cy="475.73" r="2.02" />
<circle cx="1310.88" cy="371.62" r="4.2" />
<circle cx="1310.88" cy="371.62" r="2.02" />
<circle cx="1423.12" cy="322.62" r="4.2" />
<circle cx="1423.12" cy="322.62" r="2.02" />
<circle cx="1463" cy="319.5" r="4.2" />
<circle cx="1463" cy="319.5" r="2.02" />
<circle cx="1474" cy="308.5" r="4.2" />
<circle cx="1474" cy="308.5" r="2.02" />
<circle cx="1478.67" cy="312.33" r="4.2" />
<circle cx="1478.67" cy="312.33" r="2.02" />
<circle cx="1392.07" cy="114.2" r="4.2" />
<circle cx="1392.07" cy="114.2" r="2.02" />
<circle cx="1365.78" cy="112.67" r="4.2" />
<circle cx="1365.78" cy="112.67" r="2.02" />
<circle cx="1364.33" cy="107.83" r="4.2" />
<circle cx="1364.33" cy="107.83" r="2.02" />
<circle cx="1704.33" cy="294.83" r="4.2" />
<circle cx="1704.33" cy="294.83" r="2.02" />
<circle cx="1703.5" cy="301" r="4.2" />
<circle cx="1703.5" cy="301" r="2.02" />
<circle cx="1718.48" cy="295.65" r="4.2" />
<circle cx="1718.48" cy="295.65" r="2.02" />
<circle cx="1723.2" cy="287.2" r="4.2" />
<circle cx="1723.2" cy="287.2" r="2.02" />
<circle cx="1764.22" cy="237.56" r="4.2" />
<circle cx="1764.22" cy="237.56" r="2.02" />
<circle cx="1760.67" cy="234.41" r="4.92" />
<circle cx="1760.67" cy="234.41" r="2.36" />
<circle cx="1786.86" cy="205.57" r="4.2" />
<circle cx="1786.86" cy="205.57" r="2.02" />
<circle cx="1799.25" cy="190.25" r="4.2" />
<circle cx="1799.25" cy="190.25" r="2.02" />
<circle cx="1804.8" cy="183" r="4.2" />
<circle cx="1804.8" cy="183" r="2.02" />
<circle cx="1819.46" cy="175.5" r="7.45" />
<circle cx="1819.46" cy="175.5" r="3.57" />
<circle cx="1840.41" cy="170.48" r="8.23" />
<circle cx="1840.41" cy="170.48" r="3.95" />
<circle cx="1828.29" cy="155.43" r="4.2" />
<circle cx="1828.29" cy="155.43" r="2.02" />
<circle cx="1383.38" cy="651.46" r="4.2" />
<circle cx="1383.38" cy="651.46" r="2.02" />
<circle cx="1398.79" cy="672.86" r="4.2" />
<circle cx="1398.79" cy="672.86" r="2.02" />
<circle cx="1352.8" cy="643.6" r="4.2" />
<circle cx="1352.8" cy="643.6" r="2.02" />
<circle cx="1354" cy="639.12" r="4.2" />
<circle cx="1354" cy="639.12" r="2.02" />
<circle cx="1300.92" cy="847.15" r="4.2" />
<circle cx="1300.92" cy="847.15" r="2.02" />
<circle cx="1339.04" cy="920.27" r="4.77" />
<circle cx="1339.04" cy="920.27" r="2.29" />
<circle cx="1415.25" cy="1041.25" r="4.2" />
<circle cx="1415.25" cy="1041.25" r="2.02" />
<circle cx="1465.8" cy="1008.4" r="4.2" />
<circle cx="1465.8" cy="1008.4" r="2.02" />
<circle cx="1470" cy="1003" r="4.2" />
<circle cx="1470" cy="1003" r="2.02" />
<circle cx="1480.11" cy="1003.58" r="4.2" />
<circle cx="1480.11" cy="1003.58" r="2.02" />
<circle cx="1489" cy="1008.71" r="4.2" />
<circle cx="1489" cy="1008.71" r="2.02" />
<circle cx="1584.33" cy="1100.83" r="4.2" />
<circle cx="1584.33" cy="1100.83" r="2.02" />
<circle cx="1631.83" cy="996.5" r="4.2" />
<circle cx="1631.83" cy="996.5" r="2.02" />
<circle cx="1637.18" cy="999.09" r="4.2" />
<circle cx="1637.18" cy="999.09" r="2.02" />
<circle cx="1775.31" cy="1119.23" r="4.2" />
<circle cx="1775.31" cy="1119.23" r="2.02" />
<circle cx="1847.67" cy="1155.11" r="4.2" />
<circle cx="1847.67" cy="1155.11" r="2.02" />
<circle cx="1443.85" cy="1188.69" r="4.2" />
<circle cx="1443.85" cy="1188.69" r="2.02" />
<circle cx="1436.05" cy="1179.05" r="4.2" />
<circle cx="1436.05" cy="1179.05" r="2.02" />
<circle cx="1216.8" cy="806.2" r="4.2" />
<circle cx="1216.8" cy="806.2" r="2.02" />
<circle cx="1164.56" cy="805.54" r="9.46" />
<circle cx="1164.56" cy="805.54" r="4.54" />
<circle cx="1144.55" cy="817.47" r="5.33" />
<circle cx="1144.55" cy="817.47" r="2.56" />
<circle cx="1112.92" cy="836.12" r="4.2" />
<circle cx="1112.92" cy="836.12" r="2.02" />
<circle cx="1100.43" cy="844.43" r="4.2" />
<circle cx="1100.43" cy="844.43" r="2.02" />
<circle cx="1093.67" cy="847" r="4.2" />
<circle cx="1093.67" cy="847" r="2.02" />
<circle cx="1009.22" cy="1075.11" r="4.2" />
<circle cx="1009.22" cy="1075.11" r="2.02" />
<circle cx="1001.04" cy="1075.26" r="4.2" />
<circle cx="1001.04" cy="1075.26" r="2.02" />
<circle cx="992.03" cy="1076.86" r="4.2" />
<circle cx="992.03" cy="1076.86" r="2.02" />
<circle cx="995.3" cy="1084.6" r="4.2" />
<circle cx="995.3" cy="1084.6" r="2.02" />
<circle cx="988.12" cy="1084.88" r="4.2" />
<circle cx="988.12" cy="1084.88" r="2.02" />
<circle cx="977.11" cy="1082.27" r="4.57" />
<circle cx="977.11" cy="1082.27" r="2.19" />
<circle cx="981.85" cy="1075.38" r="4.2" />
<circle cx="981.85" cy="1075.38" r="2.02" />
<circle cx="892.65" cy="1079.29" r="4.2" />
<circle cx="892.65" cy="1079.29" r="2.02" />
<circle cx="808.71" cy="1094.86" r="4.2" />
<circle cx="808.71" cy="1094.86" r="2.02" />
<circle cx="802.4" cy="1095.8" r="4.2" />
<circle cx="802.4" cy="1095.8" r="2.02" />
<circle cx="728.78" cy="1077.28" r="4.2" />
<circle cx="728.78" cy="1077.28" r="2.02" />
<circle cx="723.29" cy="1081.43" r="4.2" />
<circle cx="723.29" cy="1081.43" r="2.02" />
<circle cx="661" cy="1125.4" r="4.2" />
<circle cx="661" cy="1125.4" r="2.02" />
<circle cx="622.4" cy="1118.8" r="4.2" />
<circle cx="622.4" cy="1118.8" r="2.02" />
<circle cx="74" cy="1136.2" r="4.2" />
<circle cx="74" cy="1136.2" r="2.02" />
<circle cx="790.28" cy="500.28" r="4.2" />
<circle cx="790.28" cy="500.28" r="2.02" />
<circle cx="873.62" cy="503.96" r="4.2" />
<circle cx="873.62" cy="503.96" r="2.02" />
<circle cx="942.71" cy="497.43" r="4.2" />
<circle cx="942.71" cy="497.43" r="2.02" />
<circle cx="954.94" cy="500.31" r="4.2" />
<circle cx="954.94" cy="500.31" r="2.02" />
<circle cx="954.33" cy="512.58" r="4.2" />
<circle cx="954.33" cy="512.58" r="2.02" />
</g>
<g id="eye-outline" stroke="black" stroke-width="1.48" stroke-linecap="round" stroke-linejoin="round" fill="none">
<polyline points="616.7,300.3 616.9,301.23 617.51,302.12 618.5,302.95 619.83,303.7 621.47,304.32 623.35,304.81 625.42,305.15 627.59,305.32 629.81,305.32 631.98,305.15 634.05,304.81 635.93,304.32 637.57,303.7 638.9,302.95 639.89,302.12 640.5,301.23 640.7,300.3" />
<polyline points="616.7,300.3 616.9,299.37 617.51,298.48 618.5,297.65 619.83,296.9 621.47,296.28 623.35,295.79 625.42,295.45 627.59,295.28 629.81,295.28 631.98,295.45 634.05,295.79 635.93,296.28 637.57,296.9 638.9,297.65 639.89,298.48 640.5,299.37 640.7,300.3" />
<polyline points="781.93,1005.18 782.54,1007.96 784.36,1010.65 787.32,1013.14 791.33,1015.37 796.23,1017.25 801.88,1018.72 808.08,1019.73 814.61,1020.24 821.25,1020.24 827.78,1019.73 833.98,1018.72 839.62,1017.25 844.53,1015.37 848.54,1013.14 851.5,1010.65 853.32,1007.96 853.93,1005.18" />
<polyline points="781.93,1005.18 782.54,1002.41 784.36,999.72 787.32,997.22 791.33,995 796.23,993.12 801.88,991.65 808.08,990.64 814.61,990.13 821.25,990.13 827.78,990.64 833.98,991.65 839.62,993.12 844.53,995 848.54,997.22 851.5,999.72 853.32,1002.41 853.93,1005.18" />
</g>
<g id="eye-pupils" fill="black" stroke="none">
<circle cx="628.7" cy="300.3" r="3.4" />
<circle cx="817.93" cy="1005.18" r="9" />
</g>
</svg>